<svg data-v-423bf9ae="" xmlns="http://www.w3.org/2000/svg" viewBox="0 0 665 101" class="iconLeftSlogan"><!----><!----><!----><g data-v-423bf9ae="" id="2034aff4-bb6a-42b5-a005-0b87f849f86c" fill="black" transform="matrix(4.231311900141013,0,0,4.231311900141013,88.68216513687696,-11.42454161688967)"><path d="M3.09 14.77L3.09 14.77Q3.61 15.29 4.13 15.29L4.13 15.29L4.13 15.29Q4.41 15.29 4.68 15.11L4.68 15.11L4.68 15.11Q5.15 14.76 5.37 14.06L5.37 14.06L5.37 14.06Q5.59 13.36 5.63 12.68L5.63 12.68L5.63 12.68Q5.67 12.01 5.67 11.06L5.67 11.06L5.67 6.79L5.67 6.79Q5.67 6.48 5.70 6.10L5.70 6.10L5.70 6.10Q5.73 5.73 5.74 5.59L5.74 5.59L5.74 5.59Q5.80 4.94 5.80 4.68L5.80 4.68L5.80 4.68Q5.80 4.19 5.67 3.95L5.67 3.95L5.67 3.95Q5.54 3.81 5.42 3.74L5.42 3.74L5.42 3.74Q5.29 3.67 5.21 3.65L5.21 3.65L5.21 3.65Q5.14 3.64 5.11 3.64L5.11 3.64L5.11 3.64Q5.11 3.56 5.05 3.42L5.05 3.42L5.05 3.42Q5.00 3.29 4.98 3.25L4.98 3.25L4.98 3.25Q4.87 3.02 4.87 2.95L4.87 2.95L4.87 2.95Q4.87 2.87 4.98 2.87L4.98 2.87L4.98 2.87Q5.39 2.87 5.88 2.83L5.88 2.83L5.88 2.83Q6.05 2.83 6.43 2.81L6.43 2.81L6.43 2.81Q6.82 2.79 7.08 2.80L7.08 2.80L7.08 2.80Q7.60 2.81 7.86 3.00L7.86 3.00L7.86 3.00Q8.12 3.18 8.12 3.40L8.12 3.40L8.12 3.40Q8.12 3.58 7.97 3.70L7.97 3.70L7.97 3.70Q7.56 4.03 7.49 4.93L7.49 4.93L7.49 4.93Q7.46 5.19 7.46 5.81L7.46 5.81L7.46 5.81Q7.46 6.27 7.45 6.76L7.45 6.76L7.45 6.76Q7.43 7.25 7.36 7.63L7.36 7.63L7.36 10.47L7.36 10.78L7.36 10.78Q7.36 12.17 7.19 13.16L7.19 13.16L7.19 13.16Q7.01 14.15 6.52 15.05L6.52 15.05L6.52 15.05Q6.16 15.74 5.59 16.25L5.59 16.25L5.59 16.25Q5.01 16.76 4.24 16.76L4.24 16.76L4.24 16.76Q4.12 16.76 4.00 16.77L4.00 16.77L4.00 16.77Q3.89 16.79 3.57 16.79L3.57 16.79L3.57 16.79Q2.94 16.69 2.50 16.30L2.50 16.30L2.50 16.30Q2.06 15.92 1.68 15.33L1.68 15.33L1.68 15.33Q1.50 15.02 1.43 14.71L1.43 14.71L1.43 14.71Q1.36 14.39 1.30 13.85L1.30 13.85L1.30 13.85Q1.25 13.17 1.12 12.77L1.12 12.77L1.12 5.64L1.12 5.64Q1.12 5.45 1.15 5.08L1.15 5.08L1.16 4.54L1.16 4.54Q1.16 4.26 1.12 3.95L1.12 3.95L1.12 3.95Q1.11 3.82 1.00 3.75L1.00 3.75L1.00 3.75Q0.90 3.67 0.71 3.58L0.71 3.58L0.71 3.58Q0.48 3.49 0.36 3.39L0.36 3.39L0.36 3.39Q0.25 3.29 0.25 3.08L0.25 3.08L0.25 3.08Q0.41 2.93 0.59 2.88L0.59 2.88L0.59 2.88Q0.77 2.84 1.02 2.83L1.02 2.83L1.02 2.83Q1.26 2.81 1.40 2.80L1.40 2.80L1.40 2.80Q2.11 2.76 2.18 2.76L2.18 2.76L2.18 2.76Q2.87 2.76 3.15 3.04L3.15 3.04L3.15 3.04Q3.22 3.11 3.22 3.22L3.22 3.22L3.22 3.22Q3.22 3.49 2.81 3.95L2.81 3.95L2.81 5.64L2.81 8.22L2.83 11.31L2.83 11.31Q2.83 12.49 2.88 13.27L2.88 13.27L2.88 13.27Q2.93 14.06 3.09 14.77L3.09 14.77ZM13.20 3.37L13.20 3.37Q13.20 3.29 13.26 3.18L13.26 3.18L13.26 3.18Q13.31 3.07 13.51 3.07L13.51 3.07L13.51 3.07Q13.80 3.07 13.94 3.12L13.94 3.12L13.94 3.12Q14.08 3.16 14.08 3.37L14.08 3.37L14.08 3.37Q14.22 3.51 14.22 3.74L14.22 3.74L14.22 3.74Q14.22 3.91 14.14 4.21L14.14 4.21L14.14 4.21Q14.08 4.47 14.08 4.54L14.08 4.54L14.08 4.54Q14.04 4.63 13.88 5.01L13.88 5.01L13.88 5.01Q13.72 5.38 13.53 5.59L13.53 5.59L13.53 5.59Q13.34 5.80 13.13 5.80L13.13 5.80L13.13 5.80Q13.01 5.80 12.89 5.74L12.89 5.74L12.89 5.74Q12.77 5.61 12.77 5.36L12.77 5.36L12.77 5.36Q12.77 5.24 12.82 4.87L12.82 4.87L12.82 4.87Q12.89 4.38 12.89 4.26L12.89 4.26L12.89 4.26Q12.67 4.02 12.25 3.84L12.25 3.84L12.25 3.84Q11.83 3.65 11.41 3.65L11.41 3.65L11.41 3.65Q11.19 4.09 11.19 5.00L11.19 5.00L11.19 5.00Q11.19 5.91 11.41 6.36L11.41 6.36L11.41 6.36Q11.59 6.73 11.92 7.02L11.92 7.02L11.92 7.02Q12.25 7.31 12.82 7.70L12.82 7.70L12.82 7.70Q13.45 8.13 13.85 8.48L13.85 8.48L13.85 8.48Q14.24 8.82 14.52 9.31L14.52 9.31L14.52 9.31Q14.87 9.91 15.09 10.37L15.09 10.37L15.09 10.37Q15.32 10.81 15.43 11.33L15.43 11.33L15.43 11.33Q15.54 11.84 15.54 12.33L15.54 12.33L15.54 12.33Q15.54 13.17 15.41 13.76L15.41 13.76L15.41 13.76Q15.27 14.34 14.98 14.99L14.98 14.99L14.98 14.99Q14.64 15.72 14.08 16.14L14.08 16.14L14.08 16.14Q13.52 16.55 12.61 16.77L12.61 16.77L11.41 16.77L11.41 16.77Q11.03 16.77 10.51 16.37L10.51 16.37L10.51 16.37Q9.98 15.96 9.63 15.58L9.63 15.58L9.63 15.58Q9.20 14.77 9.20 13.87L9.20 13.87L9.20 13.87Q9.20 13.44 9.32 12.91L9.32 12.91L9.32 12.91Q9.17 12.91 9.02 13.06L9.02 13.06L9.02 13.06Q8.89 13.22 8.74 13.22L8.74 13.22L8.74 13.22Q8.53 13.01 8.48 12.80L8.48 12.80L8.48 12.80Q8.43 12.60 8.43 12.32L8.43 12.32L8.43 12.32Q8.90 12.15 9.53 12.05L9.53 12.05L9.53 12.05Q9.84 12.00 10.18 11.91L10.18 11.91L10.18 11.91Q10.51 11.83 10.82 11.70L10.82 11.70L10.82 11.70Q11.14 11.70 11.34 11.91L11.34 11.91L11.34 11.91Q11.54 12.12 11.54 12.43L11.54 12.43L11.54 12.43Q11.54 12.67 11.41 12.91L11.41 12.91L11.41 12.91Q11.12 12.91 10.92 12.96L10.92 12.96L10.92 12.96Q10.72 13.01 10.51 13.22L10.51 13.22L10.51 13.22Q10.21 13.52 10.21 14.17L10.21 14.17L10.21 14.17Q10.21 14.73 10.45 15.24L10.45 15.24L10.45 15.24Q10.70 15.75 11.10 15.89L11.10 15.89L11.10 15.89Q11.28 15.89 11.41 15.74L11.41 15.74L11.41 15.74Q11.42 15.72 11.51 15.65L11.51 15.65L11.51 15.65Q11.59 15.58 11.72 15.58L11.72 15.58L11.72 15.58Q12.70 15.09 13.21 14.05L13.21 14.05L13.21 14.05Q13.72 13.01 13.72 11.68L13.72 11.68L13.72 11.68Q13.72 10.81 13.51 9.93L13.51 9.93L13.51 9.93Q13.27 9.48 13.01 9.22L13.01 9.22L13.01 9.22Q12.75 8.96 12.31 8.72L12.31 8.72L12.31 8.72Q11.90 8.53 11.65 8.32L11.65 8.32L11.65 8.32Q11.40 8.12 11.10 7.83L11.10 7.83L11.10 7.83Q10.96 7.69 10.72 7.55L10.72 7.55L10.72 7.55Q10.36 7.34 10.11 7.07L10.11 7.07L10.11 7.07Q10.02 6.97 9.70 6.65L9.70 6.65L9.70 6.65Q9.38 6.33 9.20 6.03L9.20 6.03L9.20 6.03Q9.02 5.73 9.02 5.46L9.02 5.46L9.02 5.46Q8.95 5.25 8.95 4.97L8.95 4.97L8.95 4.97Q8.95 4.03 9.91 3.07L9.91 3.07L9.91 3.07Q10.02 3.07 10.15 3.02L10.15 3.02L10.15 3.02Q10.28 2.97 10.32 2.95L10.32 2.95L10.32 2.95Q10.71 2.76 11.10 2.76L11.10 2.76L11.10 2.76Q11.37 2.76 11.55 2.79L11.55 2.79L11.55 2.79Q11.73 2.83 12.00 2.91L12.00 2.91L12.61 3.07L12.61 3.07Q12.64 3.09 12.73 3.16L12.73 3.16L12.73 3.16Q12.81 3.23 12.94 3.30L12.94 3.30L12.94 3.30Q13.06 3.37 13.20 3.37L13.20 3.37ZM21.85 5.08L21.85 5.08Q21.78 4.98 21.73 4.82L21.73 4.82L21.73 4.82Q21.71 4.72 21.71 4.51L21.71 4.51L21.71 4.51Q21.71 4.28 21.69 4.16L21.69 4.16L21.69 4.16Q21.66 4.03 21.56 3.95L21.56 3.95L21.56 3.95Q21.28 3.79 20.99 3.65L20.99 3.65L20.99 3.65Q20.34 3.65 19.86 3.70L19.86 3.70L19.86 3.70Q19.38 3.75 19.00 3.95L19.00 3.95L19.00 3.95Q18.84 4.09 18.80 4.30L18.80 4.30L18.80 4.30Q18.75 4.52 18.75 4.90L18.75 4.90L18.75 4.90Q18.75 5.56 18.72 6.26L18.72 6.26L18.70 7.07L18.70 7.07Q18.70 7.28 18.77 7.91L18.77 7.91L18.77 7.91Q18.83 8.33 18.83 8.50L18.83 8.50L18.83 8.50Q18.83 8.83 18.70 9.09L18.70 9.09L18.70 9.09Q18.90 9.25 19.34 9.30L19.34 9.30L19.34 9.30Q19.78 9.35 20.41 9.35L20.41 9.35L20.41 9.35Q20.41 9.00 20.46 8.76L20.46 8.76L20.46 8.76Q20.51 8.51 20.71 8.51L20.71 8.51L20.71 8.51Q20.92 8.51 20.99 8.55L20.99 8.55L20.99 8.55Q21.06 8.58 21.28 8.79L21.28 8.79L21.28 8.79Q21.21 8.93 21.21 9.10L21.21 9.10L21.21 9.10Q21.20 9.17 21.20 9.34L21.20 9.34L21.20 9.34Q21.20 9.63 21.24 9.95L21.24 9.95L21.24 9.95Q21.27 10.35 21.27 10.51L21.27 10.51L21.27 10.51Q21.27 10.79 21.20 10.94L21.20 10.94L21.20 10.94Q21.14 11.09 20.99 11.09L20.99 11.09L20.99 11.09Q20.94 11.06 20.80 10.98L20.80 10.98L20.80 10.98Q20.66 10.89 20.54 10.77L20.54 10.77L20.54 10.77Q20.41 10.64 20.41 10.51L20.41 10.51L20.41 10.22L19.00 10.22L19.00 10.22Q18.84 10.67 18.84 11.41L18.84 11.41L18.84 11.41Q18.84 11.89 18.89 12.35L18.89 12.35L18.89 12.35Q18.91 12.91 18.91 13.12L18.91 13.12L18.91 13.12Q18.91 13.17 18.96 14.64L18.96 14.64L18.96 14.64Q19.00 15.26 19.00 15.65L19.00 15.65L19.00 15.65Q19.57 15.85 20.03 15.89L20.03 15.89L20.03 15.89Q20.48 15.93 21.28 15.93L21.28 15.93L21.28 15.93Q21.49 15.83 21.53 15.64L21.53 15.64L21.53 15.64Q21.57 15.51 21.57 15.23L21.57 15.23L21.57 15.23Q21.57 14.94 21.62 14.78L21.62 14.78L21.62 14.78Q21.67 14.62 21.85 14.52L21.85 14.52L21.85 14.52Q22.23 14.52 22.33 14.90L22.33 14.90L22.33 14.90Q22.43 15.29 22.43 15.93L22.43 15.93L22.43 15.93Q22.43 16.13 22.30 16.30L22.30 16.30L22.30 16.30Q22.16 16.48 21.85 16.80L21.85 16.80L20.41 16.80L20.41 16.80Q18.98 16.80 17.98 16.75L17.98 16.75L17.98 16.75Q16.98 16.70 15.85 16.51L15.85 16.51L15.85 15.93L17.00 15.93L17.00 15.93Q17.12 15.19 17.12 14.31L17.12 14.31L17.12 14.31Q17.12 13.82 17.07 12.78L17.07 12.78L17.07 12.78Q17.00 11.87 17.00 11.09L17.00 11.09L17.00 10.51L17.00 7.64L17.00 6.51L17.00 3.95L15.85 3.95L15.85 3.37L15.85 3.37Q16.44 3.22 17.61 3.08L17.61 3.08L17.61 3.08Q18.73 2.94 19.28 2.80L19.28 2.80L22.13 2.80L22.13 2.80Q22.16 2.83 22.23 2.91L22.23 2.91L22.23 2.91Q22.30 2.98 22.37 3.12L22.37 3.12L22.37 3.12Q22.43 3.25 22.43 3.37L22.43 3.37L22.43 3.37Q22.43 3.54 22.50 3.85L22.50 3.85L22.50 3.85Q22.57 4.34 22.57 4.44L22.57 4.44L22.57 4.44Q22.57 4.75 22.41 4.91L22.41 4.91L22.41 4.91Q22.26 5.08 21.85 5.08L21.85 5.08ZM36.20 10.33L36.20 10.33Q36.37 9.81 36.48 9.29L36.48 9.29L36.48 9.29Q36.60 8.76 36.67 8.31L36.67 8.31L36.67 8.31Q36.75 7.85 36.78 7.71L36.78 7.71L36.78 7.71Q36.85 7.35 37.03 6.69L37.03 6.69L37.30 5.64L37.42 5.18L37.42 5.18Q37.53 4.75 37.59 4.49L37.59 4.49L37.59 4.49Q37.65 4.24 37.65 3.96L37.65 3.96L37.65 3.96Q37.65 3.54 38.01 3.19L38.01 3.19L38.01 3.19Q38.37 2.83 38.81 2.83L38.81 2.83L40.53 2.83L40.53 2.83Q40.66 2.83 40.72 2.89L40.72 2.89L40.72 2.89Q40.78 2.95 40.88 3.09L40.88 3.09L40.88 3.09Q41.02 3.30 41.12 3.40L41.12 3.40L41.12 3.40Q40.92 3.60 40.76 3.70L40.76 3.70L40.76 3.70Q40.60 3.81 40.39 3.81L40.39 3.81L40.39 3.81Q40.18 3.81 39.96 3.70L39.96 3.70L39.96 3.70Q39.83 4.06 39.83 4.48L39.83 4.48L39.83 4.48Q39.83 4.70 39.89 5.18L39.89 5.18L39.89 5.18Q39.96 5.60 39.96 5.99L39.96 5.99L39.96 7.15L39.96 8.60L39.96 10.91L39.94 11.73L39.94 11.73Q39.93 11.93 39.93 12.31L39.93 12.31L39.93 12.31Q39.93 12.71 39.96 12.92L39.96 12.92L39.96 12.92Q40.01 13.44 40.01 14.01L40.01 14.01L40.01 14.01Q40.01 14.38 39.98 14.97L39.98 14.97L39.98 14.97Q39.96 15.55 39.96 15.81L39.96 15.81L39.96 15.81Q40.42 15.81 40.78 16.04L40.78 16.04L40.78 16.04Q41.15 16.28 41.15 16.53L41.15 16.53L41.15 16.53Q41.15 16.73 40.94 16.83L40.94 16.83L40.94 16.83Q40.75 16.83 40.63 16.79L40.63 16.79L40.63 16.79Q40.60 16.79 40.52 16.77L40.52 16.77L40.52 16.77Q40.43 16.74 40.32 16.74L40.32 16.74L40.32 16.74Q40.26 16.74 40.01 16.79L40.01 16.79L40.01 16.79Q39.84 16.84 39.69 16.84L39.69 16.84L39.19 16.74L39.19 16.74Q39.27 16.70 39.10 16.73L39.10 16.73L39.10 16.73Q38.93 16.76 38.71 16.79L38.71 16.79L38.71 16.79Q38.49 16.83 38.22 16.83L38.22 16.83L38.22 16.83Q38.22 16.73 38.19 16.69L38.19 16.69L38.19 16.69Q38.15 16.65 38.05 16.59L38.05 16.59L38.05 16.59Q37.94 16.53 37.94 16.39L37.94 16.39L37.94 16.39Q37.94 16.28 38.03 16.22L38.03 16.22L38.03 16.22Q38.12 16.16 38.33 16.07L38.33 16.07L38.33 16.07Q38.70 15.92 38.81 15.81L38.81 15.81L38.81 15.81Q38.61 14.49 38.61 12.61L38.61 12.61L38.61 12.61Q38.61 12.03 38.64 10.71L38.64 10.71L38.64 10.71Q38.67 9.76 38.67 9.27L38.67 9.27L38.67 9.27Q38.67 9.10 38.72 8.48L38.72 8.48L38.72 8.48Q38.81 7.78 38.81 7.45L38.81 7.45L38.81 6.29L38.81 6.29Q38.81 6.13 38.80 6.06L38.80 6.06L38.80 6.06Q38.79 5.98 38.70 5.74L38.70 5.74L38.71 5.47L38.71 5.47Q38.71 5.32 38.51 5.12L38.51 5.12L38.51 5.12Q38.51 5.14 38.53 5.20L38.53 5.20L38.53 5.20Q38.54 5.26 38.54 5.36L38.54 5.36L38.54 5.36Q38.54 5.57 38.47 5.71L38.47 5.71L38.47 5.71Q38.33 6.06 38.19 6.63L38.19 6.63L38.19 6.63Q38.04 7.20 37.91 7.78L37.91 7.78L37.91 7.78Q37.74 8.51 37.65 8.88L37.65 8.88L37.65 8.88Q37.62 8.97 37.53 9.28L37.53 9.28L37.53 9.28Q37.44 9.58 37.39 9.76L37.39 9.76L37.20 10.81L37.20 10.81Q36.96 12.00 36.89 12.32L36.89 12.32L36.89 12.32Q36.85 12.50 36.79 13.01L36.79 13.01L36.79 13.01Q36.74 13.54 36.67 13.81L36.67 13.81L36.67 13.81Q36.61 14.08 36.48 14.08L36.48 14.08L36.48 14.08Q36.30 14.08 36.05 13.93L36.05 13.93L36.05 13.93Q35.77 13.79 35.64 13.79L35.64 13.79L35.64 13.79Q35.64 13.48 35.59 13.24L35.59 13.24L35.59 13.24Q35.55 12.99 35.43 12.64L35.43 12.64L35.35 12.35L35.11 11.48L35.11 11.48Q35.04 11.24 34.90 10.73L34.90 10.73L34.90 10.73Q34.76 10.22 34.64 9.81L34.64 9.81L34.64 9.81Q34.31 8.78 34.05 8.08L34.05 8.08L34.05 8.08Q34.01 7.97 33.95 7.78L33.95 7.78L33.95 7.78Q33.89 7.59 33.81 7.43L33.81 7.43L33.81 7.43Q33.73 7.28 33.60 7.15L33.60 7.15L33.60 9.17L33.60 9.17Q33.60 9.52 33.47 10.30L33.47 10.30L33.47 10.30Q33.32 11.35 33.32 11.76L33.32 11.76L33.32 13.22L33.32 15.81L33.32 15.81Q33.60 15.81 33.75 15.86L33.75 15.86L33.75 15.86Q33.89 15.90 33.89 16.10L33.89 16.10L33.89 16.10Q33.89 16.45 33.50 16.58L33.50 16.58L33.50 16.58Q33.11 16.72 32.48 16.72L32.48 16.72L32.48 16.72Q32.17 16.72 31.70 16.69L31.70 16.69L31.30 16.67L31.30 16.67Q31.18 16.67 31.11 16.61L31.11 16.61L31.11 16.61Q31.05 16.55 30.95 16.41L30.95 16.41L30.95 16.41Q30.81 16.20 30.72 16.10L30.72 16.10L30.72 16.10Q30.81 16.00 30.89 15.89L30.89 15.89L30.89 15.89Q30.97 15.78 31.04 15.73L31.04 15.73L31.04 15.73Q31.11 15.68 31.21 15.68L31.21 15.68L31.21 15.68Q31.35 15.68 31.60 15.81L31.60 15.81L31.60 12.92L31.60 9.17L31.60 8.60L31.60 5.71L31.60 3.70L31.60 3.70Q31.44 3.70 31.32 3.75L31.32 3.75L31.32 3.75Q31.21 3.79 31.08 3.79L31.08 3.79L31.08 3.79Q31.00 3.79 30.91 3.77L30.91 3.77L30.91 3.77Q30.81 3.75 30.77 3.75L30.77 3.75L30.77 3.75Q30.58 3.70 30.44 3.70L30.44 3.70L30.44 3.70Q30.21 3.47 30.18 3.37L30.18 3.37L30.18 3.37Q30.14 3.26 30.14 2.83L30.14 2.83L30.14 2.83Q30.52 2.70 31.02 2.70L31.02 2.70L31.02 2.70Q32.05 2.70 33.32 3.11L33.32 3.11L33.32 3.11Q33.54 3.58 33.72 3.92L33.72 3.92L33.72 3.92Q33.89 4.26 34.01 4.48L34.01 4.48L34.01 4.48Q34.05 4.54 34.19 4.83L34.19 4.83L34.19 5.12L34.19 5.12Q34.50 5.74 34.76 6.46L34.76 6.46L34.76 6.46Q35.01 7.18 35.32 8.18L35.32 8.18L35.57 8.96L35.57 8.96Q35.69 9.30 35.79 9.53L35.79 9.53L35.79 9.53Q35.90 9.76 36.02 9.98L36.02 9.98L36.20 10.33ZM49.73 2.91L49.73 2.91Q49.73 3.25 49.69 3.48L49.69 3.48L49.69 3.48Q49.64 3.71 49.48 3.71L49.48 3.71L48.65 3.71L48.65 3.71Q48.54 4.06 48.12 5.53L48.12 5.53L48.12 5.53Q47.84 6.61 47.61 7.37L47.61 7.37L47.61 7.37Q47.38 8.13 47.05 8.79L47.05 8.79L47.05 8.79Q46.86 8.99 46.79 9.21L46.79 9.21L46.79 9.21Q46.72 9.42 46.72 9.73L46.72 9.73L46.73 10.21L46.73 10.21Q46.76 10.63 46.76 10.92L46.76 10.92L46.76 10.92Q46.69 11.05 46.69 11.33L46.69 11.33L46.69 11.33Q46.69 11.55 46.75 12.00L46.75 12.00L46.75 12.00Q46.76 12.11 46.77 12.25L46.77 12.25L46.77 12.25Q46.79 12.39 46.79 12.53L46.79 12.53L46.79 12.53Q46.79 12.77 46.76 13.36L46.76 13.36L46.76 13.36Q46.73 13.97 46.73 14.31L46.73 14.31L46.73 14.31Q46.73 15.41 47.05 15.74L47.05 15.74L47.05 15.74Q47.11 15.74 47.29 15.74L47.29 15.74L47.29 15.74Q47.46 15.75 47.62 15.81L47.62 15.81L47.62 15.81Q47.78 15.86 47.78 15.97L47.78 15.97L47.78 15.97Q47.80 16.03 47.84 16.19L47.84 16.19L47.84 16.19Q47.88 16.35 47.88 16.49L47.88 16.49L47.88 16.49Q47.88 16.73 47.74 16.77L47.74 16.77L47.74 16.77Q47.29 16.88 46.77 16.88L46.77 16.88L46.77 16.88Q46.47 16.88 45.96 16.83L45.96 16.83L45.96 16.83Q45.60 16.80 45.46 16.80L45.46 16.80L44.11 16.80L44.11 16.80Q43.93 16.62 43.93 16.41L43.93 16.41L43.93 16.41Q43.93 16.20 44.11 16.00L44.11 16.00L44.11 16.00Q44.23 15.90 44.37 15.89L44.37 15.89L44.37 15.89Q44.46 15.88 44.66 15.88L44.66 15.88L44.66 15.88Q44.87 15.88 44.99 15.86L44.99 15.86L44.99 15.86Q45.11 15.83 45.19 15.74L45.19 15.74L45.21 13.73L45.21 13.73Q45.21 11.73 44.94 10.33L44.94 10.33L44.94 10.33Q44.67 8.93 43.86 8.25L43.86 8.25L43.86 8.25Q43.67 7.66 43.22 6.69L43.22 6.69L43.06 6.37L43.06 6.37Q42.78 5.53 42.65 4.97L42.65 4.97L42.65 4.97Q42.52 4.41 42.52 3.71L42.52 3.71L42.52 3.71Q42.18 3.71 41.95 3.67L41.95 3.67L41.95 3.67Q41.72 3.63 41.72 3.46L41.72 3.46L41.72 3.46Q41.69 3.07 41.90 2.91L41.90 2.91L41.90 2.91Q42.11 2.74 42.49 2.74L42.49 2.74L42.49 2.74Q42.73 2.74 43.12 2.80L43.12 2.80L43.12 2.80Q43.37 2.84 43.57 2.84L43.57 2.84L43.57 2.84Q43.83 2.84 44.37 2.87L44.37 2.87L44.37 2.87Q44.79 2.91 45.19 2.91L45.19 2.91L45.19 2.91Q45.37 3.09 45.42 3.27L45.42 3.27L45.42 3.27Q45.46 3.44 45.46 3.71L45.46 3.71L45.46 3.71Q45.35 3.71 45.15 3.68L45.15 3.68L45.15 3.68Q44.95 3.64 44.83 3.64L44.83 3.64L44.83 3.64Q44.56 3.64 44.42 3.78L44.42 3.78L44.42 3.78Q44.49 4.02 44.51 4.36L44.51 4.36L44.51 4.36Q44.52 4.70 44.53 4.84L44.53 4.84L44.53 4.84Q44.55 5.03 44.62 5.43L44.62 5.43L44.62 5.43Q44.63 5.52 44.65 5.62L44.65 5.62L44.65 5.62Q44.66 5.73 44.66 5.85L44.66 5.85L44.66 5.85Q44.87 6.66 45.23 7.40L45.23 7.40L45.23 7.40Q45.60 8.13 45.99 8.53L45.99 8.53L45.99 8.53Q46.24 8.40 46.38 8.17L46.38 8.17L46.38 8.17Q46.51 7.94 46.69 7.48L46.69 7.48L46.69 7.48Q46.82 7.11 46.96 6.80L46.96 6.80L46.96 6.80Q47.25 6.19 47.43 5.40L47.43 5.40L47.43 5.40Q47.60 4.62 47.61 3.98L47.61 3.98L47.61 3.98Q47.61 3.85 47.52 3.79L47.52 3.79L47.52 3.79Q47.43 3.72 47.19 3.64L47.19 3.64L47.19 3.64Q46.94 3.56 46.78 3.46L46.78 3.46L46.78 3.46Q46.62 3.36 46.54 3.18L46.54 3.18L46.54 3.18Q46.54 2.84 47.43 2.84L47.43 2.84L47.43 2.84Q47.85 2.84 48.27 2.88L48.27 2.88L48.27 2.88Q48.75 2.91 48.93 2.91L48.93 2.91L48.93 2.91Q49.04 2.91 49.21 2.84L49.21 2.84L49.21 2.84Q49.38 2.79 49.48 2.79L49.48 2.79L49.48 2.79Q49.62 2.79 49.73 2.91L49.73 2.91ZM64.33 5.45L64.33 5.45Q64.26 5.38 64.20 5.18L64.20 5.18L64.20 5.18Q64.19 5.07 64.19 4.83L64.19 4.83L64.19 4.83Q64.19 4.56 64.16 4.37L64.16 4.37L64.16 4.37Q64.13 4.17 64.04 3.98L64.04 3.98L64.04 3.98Q63.91 3.85 63.59 3.85L63.59 3.85L63.59 3.85Q63.31 3.85 62.93 3.92L62.93 3.92L62.93 3.92Q62.48 3.98 62.30 3.98L62.30 3.98L62.30 3.98Q62.17 4.23 62.17 4.65L62.17 4.65L62.17 4.65Q62.17 4.98 62.24 5.40L62.24 5.40L62.24 5.40Q62.30 5.85 62.30 6.03L62.30 6.03L62.30 11.55L62.30 13.90L62.30 14.49L62.30 14.49Q62.30 14.80 62.26 15.06L62.26 15.06L62.26 15.06Q62.23 15.37 62.23 15.53L62.23 15.53L62.23 15.53Q62.23 15.79 62.30 15.95L62.30 15.95L62.30 15.95Q62.33 16.02 62.41 16.04L62.41 16.04L62.41 16.04Q62.50 16.07 62.56 16.09L62.56 16.09L62.56 16.09Q62.62 16.10 62.65 16.10L62.65 16.10L62.65 16.10Q62.89 16.13 63.03 16.21L63.03 16.21L63.03 16.21Q63.17 16.28 63.17 16.52L63.17 16.52L63.17 16.52Q63.14 16.55 63.06 16.62L63.06 16.62L63.06 16.62Q62.97 16.69 62.84 16.75L62.84 16.75L62.84 16.75Q62.71 16.81 62.58 16.81L62.58 16.81L59.95 16.81L59.95 16.81Q59.75 16.81 59.70 16.67L59.70 16.67L59.70 16.67Q59.65 16.52 59.65 16.23L59.65 16.23L59.65 16.23Q59.81 16.23 60.09 16.09L60.09 16.09L60.09 16.09Q60.37 15.95 60.52 15.95L60.52 15.95L60.54 13.50L60.54 13.50Q60.54 12.74 60.52 12.43L60.52 12.43L60.52 12.43Q60.51 12.03 60.51 11.26L60.51 11.26L60.52 8.95L60.52 7.49L60.52 6.90L60.52 6.90Q60.52 5.81 60.47 5.19L60.47 5.19L60.47 5.19Q60.42 4.58 60.23 3.98L60.23 3.98L60.23 3.98Q59.89 3.88 59.50 3.88L59.50 3.88L59.43 3.88L59.43 3.88Q58.74 3.88 58.30 4.18L58.30 4.18L58.30 4.18Q57.86 4.48 57.86 5.10L57.86 5.10L57.86 5.10Q57.86 5.25 57.90 5.45L57.90 5.45L57.90 5.45Q57.89 5.47 57.80 5.52L57.80 5.52L57.80 5.52Q57.71 5.57 57.61 5.57L57.61 5.57L57.61 5.57Q57.46 5.57 57.33 5.45L57.33 5.45L57.33 5.45Q57.33 5.28 57.27 4.83L57.27 4.83L57.27 4.83Q57.20 4.20 57.20 4.06L57.20 4.06L57.20 4.06Q57.20 3.64 57.33 3.39L57.33 3.39L57.33 3.39Q57.82 3.14 58.27 3.01L58.27 3.01L58.27 3.01Q58.72 2.88 59.32 2.88L59.32 2.88L59.32 2.88Q59.75 2.88 60.76 2.86L60.76 2.86L60.76 2.86Q61.56 2.81 62.30 2.81L62.30 2.81L62.30 2.81Q63.34 2.81 64.03 2.91L64.03 2.91L64.03 2.91Q64.72 3.01 64.90 3.39L64.90 3.39L64.90 3.39Q65.09 3.91 65.09 4.40L65.09 4.40L65.09 4.40Q65.09 4.86 64.90 5.15L64.90 5.15L64.90 5.15Q64.72 5.45 64.33 5.45L64.33 5.45ZM71.64 5.08L71.64 5.08Q71.57 4.98 71.51 4.82L71.51 4.82L71.51 4.82Q71.50 4.72 71.50 4.51L71.50 4.51L71.50 4.51Q71.50 4.28 71.47 4.16L71.47 4.16L71.47 4.16Q71.44 4.03 71.34 3.95L71.34 3.95L71.34 3.95Q71.06 3.79 70.77 3.65L70.77 3.65L70.77 3.65Q70.13 3.65 69.64 3.70L69.64 3.70L69.64 3.70Q69.16 3.75 68.78 3.95L68.78 3.95L68.78 3.95Q68.63 4.09 68.58 4.30L68.58 4.30L68.58 4.30Q68.53 4.52 68.53 4.90L68.53 4.90L68.53 4.90Q68.53 5.56 68.50 6.26L68.50 6.26L68.49 7.07L68.49 7.07Q68.49 7.28 68.56 7.91L68.56 7.91L68.56 7.91Q68.61 8.33 68.61 8.50L68.61 8.50L68.61 8.50Q68.61 8.83 68.49 9.09L68.49 9.09L68.49 9.09Q68.68 9.25 69.13 9.30L69.13 9.30L69.13 9.30Q69.57 9.35 70.20 9.35L70.20 9.35L70.20 9.35Q70.20 9.00 70.24 8.76L70.24 8.76L70.24 8.76Q70.29 8.51 70.49 8.51L70.49 8.51L70.49 8.51Q70.70 8.51 70.77 8.55L70.77 8.55L70.77 8.55Q70.84 8.58 71.06 8.79L71.06 8.79L71.06 8.79Q70.99 8.93 70.99 9.10L70.99 9.10L70.99 9.10Q70.98 9.17 70.98 9.34L70.98 9.34L70.98 9.34Q70.98 9.63 71.02 9.95L71.02 9.95L71.02 9.95Q71.05 10.35 71.05 10.51L71.05 10.51L71.05 10.51Q71.05 10.79 70.99 10.94L70.99 10.94L70.99 10.94Q70.92 11.09 70.77 11.09L70.77 11.09L70.77 11.09Q70.73 11.06 70.59 10.98L70.59 10.98L70.59 10.98Q70.45 10.89 70.32 10.77L70.32 10.77L70.32 10.77Q70.20 10.64 70.20 10.51L70.20 10.51L70.20 10.22L68.78 10.22L68.78 10.22Q68.63 10.67 68.63 11.41L68.63 11.41L68.63 11.41Q68.63 11.89 68.67 12.35L68.67 12.35L68.67 12.35Q68.70 12.91 68.70 13.12L68.70 13.12L68.70 13.12Q68.70 13.17 68.74 14.64L68.74 14.64L68.74 14.64Q68.78 15.26 68.78 15.65L68.78 15.65L68.78 15.65Q69.36 15.85 69.81 15.89L69.81 15.89L69.81 15.89Q70.27 15.93 71.06 15.93L71.06 15.93L71.06 15.93Q71.27 15.83 71.32 15.64L71.32 15.64L71.32 15.64Q71.36 15.51 71.36 15.23L71.36 15.23L71.36 15.23Q71.36 14.94 71.41 14.78L71.41 14.78L71.41 14.78Q71.46 14.62 71.64 14.52L71.64 14.52L71.64 14.52Q72.02 14.52 72.11 14.90L72.11 14.90L72.11 14.90Q72.21 15.29 72.21 15.93L72.21 15.93L72.21 15.93Q72.21 16.13 72.08 16.30L72.08 16.30L72.08 16.30Q71.95 16.48 71.64 16.80L71.64 16.80L70.20 16.80L70.20 16.80Q68.77 16.80 67.77 16.75L67.77 16.75L67.77 16.75Q66.77 16.70 65.63 16.51L65.63 16.51L65.63 15.93L66.78 15.93L66.78 15.93Q66.91 15.19 66.91 14.31L66.91 14.31L66.91 14.31Q66.91 13.82 66.85 12.78L66.85 12.78L66.85 12.78Q66.78 11.87 66.78 11.09L66.78 11.09L66.78 10.51L66.78 7.64L66.78 6.51L66.78 3.95L65.63 3.95L65.63 3.37L65.63 3.37Q66.22 3.22 67.40 3.08L67.40 3.08L67.40 3.08Q68.52 2.94 69.06 2.80L69.06 2.80L71.92 2.80L71.92 2.80Q71.95 2.83 72.02 2.91L72.02 2.91L72.02 2.91Q72.09 2.98 72.15 3.12L72.15 3.12L72.15 3.12Q72.21 3.25 72.21 3.37L72.21 3.37L72.21 3.37Q72.21 3.54 72.28 3.85L72.28 3.85L72.28 3.85Q72.35 4.34 72.35 4.44L72.35 4.44L72.35 4.44Q72.35 4.75 72.20 4.91L72.20 4.91L72.20 4.91Q72.04 5.08 71.64 5.08L71.64 5.08ZM79.55 3.67L79.55 3.67Q79.55 3.77 79.60 3.83L79.60 3.83L79.60 3.83Q79.65 3.89 79.70 3.95L79.70 3.95L79.70 3.95Q79.86 4.07 79.86 4.23L79.86 4.23L79.86 4.23Q79.86 4.89 79.80 5.29L79.80 5.29L79.80 5.29Q79.74 5.68 79.55 5.68L79.55 5.68L79.55 5.68Q79.31 5.68 79.24 5.49L79.24 5.49L79.24 5.49Q79.17 5.29 79.13 4.87L79.13 4.87L79.13 4.87Q79.10 4.35 78.97 4.23L78.97 4.23L78.97 4.23Q78.33 4.02 77.70 4.02L77.70 4.02L77.70 4.02Q77.08 4.02 76.65 4.23L76.65 4.23L76.65 4.23Q76.47 4.41 76.20 4.97L76.20 4.97L76.20 4.97Q75.95 5.50 75.77 5.68L75.77 5.68L75.77 5.68Q75.77 5.75 75.71 5.92L75.71 5.92L75.71 5.92Q75.66 6.09 75.49 6.27L75.49 6.27L75.49 6.27Q75.28 7.07 75.23 7.76L75.23 7.76L75.23 7.76Q75.18 8.46 75.18 9.77L75.18 9.77L75.18 11.51L75.18 11.51Q75.82 15.16 77.22 15.89L77.22 15.89L77.22 15.89Q77.45 16.00 77.73 16.00L77.73 16.00L77.73 16.00Q78.01 16.00 78.30 15.90L78.30 15.90L78.30 15.90Q78.60 15.79 78.97 15.58L78.97 15.58L78.97 15.58Q79.09 15.37 79.10 15.11L79.10 15.11L79.10 15.11Q79.11 14.94 79.11 14.56L79.11 14.56L79.11 14.56Q79.11 14.20 79.13 13.96L79.13 13.96L79.13 13.96Q79.16 13.73 79.25 13.54L79.25 13.54L79.25 13.54Q79.49 13.54 79.62 13.59L79.62 13.59L79.62 13.59Q79.74 13.64 79.87 13.73L79.87 13.73L79.87 13.73Q79.88 13.75 79.96 13.80L79.96 13.80L79.96 13.80Q80.04 13.85 80.14 13.85L80.14 13.85L80.14 15.89L80.14 15.89Q79.74 16.83 78.15 16.83L78.15 16.83L78.15 16.83Q77.55 16.83 76.94 16.73L76.94 16.73L76.94 16.73Q76.33 16.63 75.49 16.45L75.49 16.45L75.49 16.45Q75.14 16.13 74.96 15.99L74.96 15.99L74.96 15.99Q74.55 15.67 74.28 15.39L74.28 15.39L74.28 15.39Q74.00 15.12 73.74 14.70L73.74 14.70L73.74 14.70Q73.60 14.04 73.44 13.47L73.44 13.47L73.44 13.47Q73.15 12.28 73.00 11.45L73.00 11.45L73.00 11.45Q72.86 10.61 72.86 9.77L72.86 9.77L72.86 9.77Q72.94 9.32 73.08 8.43L73.08 8.43L73.08 8.43Q73.25 7.39 73.39 6.71L73.39 6.71L73.39 6.71Q73.53 6.03 73.74 5.40L73.74 5.40L73.74 5.40Q73.85 5.28 73.99 5.00L73.99 5.00L73.99 5.00Q74.09 4.70 74.30 4.52L74.30 4.52L74.30 4.52Q74.80 3.81 75.65 3.30L75.65 3.30L75.65 3.30Q76.50 2.79 77.50 2.79L77.50 2.79L77.50 2.79Q77.87 2.90 78.12 2.95L78.12 2.95L78.12 2.95Q78.67 3.11 78.96 3.24L78.96 3.24L78.96 3.24Q79.25 3.37 79.55 3.67L79.55 3.67ZM88.14 3.96L88.14 3.96Q87.95 4.34 87.90 4.87L87.90 4.87L87.90 4.87Q87.85 5.39 87.85 6.26L87.85 6.26L87.85 8.81L87.85 11.09L87.85 11.09Q87.85 11.94 88.00 13.38L88.00 13.38L88.00 13.38Q88.14 14.95 88.14 15.65L88.14 15.65L88.14 15.65Q88.26 15.76 88.45 15.88L88.45 15.88L88.45 15.88Q88.59 15.97 88.65 16.04L88.65 16.04L88.65 16.04Q88.72 16.10 88.72 16.23L88.72 16.23L88.72 16.80L88.72 16.80Q88.72 16.79 88.68 16.73L88.68 16.73L88.68 16.73Q88.63 16.67 88.58 16.67L88.58 16.67L88.58 16.67Q88.51 16.67 88.44 16.74L88.44 16.74L88.44 16.74Q88.26 16.80 88.14 16.81L88.14 16.81L88.14 16.81Q88.03 16.81 88.00 16.81L88.00 16.81L87.67 16.81L87.67 16.81Q87.51 16.80 87.00 16.80L87.00 16.80L86.32 16.81L86.32 16.81Q86.16 16.65 86.16 16.56L86.16 16.56L86.16 16.56Q86.16 16.49 86.27 16.39L86.27 16.39L86.27 16.39Q86.38 16.28 86.44 16.23L86.44 16.23L86.44 16.23Q86.44 16.13 86.51 16.07L86.51 16.07L86.51 16.07Q86.58 16.00 86.72 15.93L86.72 15.93L86.72 15.93Q86.86 15.86 86.93 15.81L86.93 15.81L86.93 15.81Q87.00 15.75 87.00 15.65L87.00 15.65L87.00 15.65Q87.12 14.69 87.12 13.30L87.12 13.30L87.12 13.30Q87.12 12.22 87.05 10.86L87.05 10.86L87.05 10.86Q87.00 9.27 87.00 8.53L87.00 8.53L87.00 8.53Q87.00 8.40 86.93 8.33L86.93 8.33L86.93 8.33Q86.87 8.26 86.80 8.25L86.80 8.25L86.80 8.25Q86.73 8.23 86.70 8.23L86.70 8.23L86.70 8.23Q86.34 8.11 85.78 8.11L85.78 8.11L85.78 8.11Q85.33 8.11 84.77 8.18L84.77 8.18L84.77 8.18Q84.13 8.23 83.86 8.23L83.86 8.23L83.86 8.23Q83.47 8.62 83.38 9.04L83.38 9.04L83.38 9.04Q83.29 9.45 83.29 10.25L83.29 10.25L83.29 13.37L83.29 14.24L83.29 14.24Q83.37 14.38 83.43 14.63L83.43 14.63L83.43 14.63Q83.44 14.74 83.44 14.95L83.44 14.95L83.44 14.95Q83.44 15.16 83.46 15.32L83.46 15.32L83.46 15.32Q83.48 15.47 83.58 15.65L83.58 15.65L83.58 15.65Q83.73 15.65 83.92 15.83L83.92 15.83L83.92 15.83Q84.11 16.00 84.11 16.18L84.11 16.18L84.11 16.18Q84.11 16.39 83.86 16.51L83.86 16.51L83.86 16.51Q83.58 16.51 82.81 16.58L82.81 16.58L82.81 16.58Q82.28 16.63 82.01 16.63L82.01 16.63L82.01 16.63Q81.51 16.63 81.02 16.51L81.02 16.51L81.02 16.51Q80.99 16.46 80.94 16.31L80.94 16.31L80.94 16.31Q80.89 16.16 80.89 16.00L80.89 16.00L80.89 16.00Q80.89 15.78 81.02 15.65L81.02 15.65L81.59 15.65L81.59 14.52L81.59 7.95L81.59 7.38L81.59 7.10L81.59 6.26L81.59 5.96L81.59 5.96Q81.52 5.80 81.47 5.49L81.47 5.49L81.47 5.49Q81.45 5.32 81.45 4.96L81.45 4.96L81.45 4.96Q81.45 4.61 81.42 4.38L81.42 4.38L81.42 4.38Q81.40 4.14 81.30 3.96L81.30 3.96L81.30 3.96Q81.27 3.96 81.19 3.95L81.19 3.95L81.19 3.95Q81.12 3.93 80.98 3.86L80.98 3.86L80.98 3.86Q80.85 3.79 80.72 3.67L80.72 3.67L80.72 3.67Q80.70 3.65 80.65 3.56L80.65 3.56L80.65 3.56Q80.60 3.47 80.60 3.37L80.60 3.37L80.60 3.37Q80.60 3.22 80.72 3.09L80.72 3.09L81.87 3.09L81.87 3.09Q82.05 3.09 82.47 3.04L82.47 3.04L82.47 3.04Q82.89 2.97 83.22 2.97L83.22 2.97L83.22 2.97Q83.61 2.97 83.86 3.09L83.86 3.09L83.86 3.09Q84.08 3.09 84.26 3.28L84.26 3.28L84.26 3.28Q84.43 3.46 84.43 3.67L84.43 3.67L84.43 3.67Q84.43 3.86 84.18 3.91L84.18 3.91L84.18 3.91Q83.93 3.96 83.58 3.96L83.58 3.96L83.58 3.96Q83.45 4.09 83.45 4.26L83.45 4.26L83.45 4.26Q83.45 4.34 83.51 4.56L83.51 4.56L83.51 4.56Q83.58 4.94 83.58 5.11L83.58 5.11L83.58 5.11Q83.58 5.28 83.52 5.73L83.52 5.73L83.52 5.73Q83.45 6.12 83.45 6.47L83.45 6.47L83.45 6.47Q83.45 6.86 83.58 7.10L83.58 7.10L83.58 7.10Q84.45 7.31 85.29 7.31L85.29 7.31L85.29 7.31Q86.16 7.31 87.00 7.10L87.00 7.10L87.00 7.10Q87.00 6.10 86.95 5.31L86.95 5.31L86.95 5.31Q86.90 4.52 86.70 3.96L86.70 3.96L86.70 3.96Q86.65 3.88 86.46 3.82L86.46 3.82L86.46 3.82Q86.37 3.81 86.14 3.81L86.14 3.81L86.14 3.81Q85.93 3.81 85.81 3.79L85.81 3.79L85.81 3.79Q85.68 3.77 85.58 3.67L85.58 3.67L85.58 3.09L85.58 3.09Q86.25 2.77 86.83 2.77L86.83 2.77L86.83 2.77Q87.05 2.77 87.28 2.81L87.28 2.81L87.28 2.81Q87.56 2.84 87.61 2.84L87.61 2.84L87.61 2.84Q87.75 2.84 87.88 2.83L87.88 2.83L87.88 2.83Q88.00 2.81 88.14 2.81L88.14 2.81L88.14 2.81Q88.35 2.91 88.47 3.10L88.47 3.10L88.47 3.10Q88.58 3.29 88.58 3.49L88.58 3.49L88.58 3.49Q88.58 3.68 88.47 3.82L88.47 3.82L88.47 3.82Q88.35 3.96 88.14 3.96L88.14 3.96ZM100.87 3.37L100.87 3.37Q100.87 3.29 100.93 3.18L100.93 3.18L100.93 3.18Q100.98 3.07 101.18 3.07L101.18 3.07L101.18 3.07Q101.47 3.07 101.61 3.12L101.61 3.12L101.61 3.12Q101.75 3.16 101.75 3.37L101.75 3.37L101.75 3.37Q101.89 3.51 101.89 3.74L101.89 3.74L101.89 3.74Q101.89 3.91 101.81 4.21L101.81 4.21L101.81 4.21Q101.75 4.47 101.75 4.54L101.75 4.54L101.75 4.54Q101.71 4.63 101.55 5.01L101.55 5.01L101.55 5.01Q101.39 5.38 101.20 5.59L101.20 5.59L101.20 5.59Q101.01 5.80 100.80 5.80L100.80 5.80L100.80 5.80Q100.67 5.80 100.56 5.74L100.56 5.74L100.56 5.74Q100.44 5.61 100.44 5.36L100.44 5.36L100.44 5.36Q100.44 5.24 100.49 4.87L100.49 4.87L100.49 4.87Q100.56 4.38 100.56 4.26L100.56 4.26L100.56 4.26Q100.34 4.02 99.92 3.84L99.92 3.84L99.92 3.84Q99.50 3.65 99.08 3.65L99.08 3.65L99.08 3.65Q98.85 4.09 98.85 5.00L98.85 5.00L98.85 5.00Q98.85 5.91 99.08 6.36L99.08 6.36L99.08 6.36Q99.26 6.73 99.59 7.02L99.59 7.02L99.59 7.02Q99.92 7.31 100.49 7.70L100.49 7.70L100.49 7.70Q101.12 8.13 101.51 8.48L101.51 8.48L101.51 8.48Q101.91 8.82 102.19 9.31L102.19 9.31L102.19 9.31Q102.54 9.91 102.76 10.37L102.76 10.37L102.76 10.37Q102.98 10.81 103.10 11.33L103.10 11.33L103.10 11.33Q103.21 11.84 103.21 12.33L103.21 12.33L103.21 12.33Q103.21 13.17 103.07 13.76L103.07 13.76L103.07 13.76Q102.94 14.34 102.65 14.99L102.65 14.99L102.65 14.99Q102.31 15.72 101.75 16.14L101.75 16.14L101.75 16.14Q101.19 16.55 100.28 16.77L100.28 16.77L99.08 16.77L99.08 16.77Q98.70 16.77 98.17 16.37L98.17 16.37L98.17 16.37Q97.65 15.96 97.30 15.58L97.30 15.58L97.30 15.58Q96.87 14.77 96.87 13.87L96.87 13.87L96.87 13.87Q96.87 13.44 96.99 12.91L96.99 12.91L96.99 12.91Q96.84 12.91 96.68 13.06L96.68 13.06L96.68 13.06Q96.56 13.22 96.40 13.22L96.40 13.22L96.40 13.22Q96.19 13.01 96.14 12.80L96.14 12.80L96.14 12.80Q96.10 12.60 96.10 12.32L96.10 12.32L96.10 12.32Q96.57 12.15 97.20 12.05L97.20 12.05L97.20 12.05Q97.51 12.00 97.85 11.91L97.85 11.91L97.85 11.91Q98.18 11.83 98.49 11.70L98.49 11.70L98.49 11.70Q98.81 11.70 99.01 11.91L99.01 11.91L99.01 11.91Q99.20 12.12 99.20 12.43L99.20 12.43L99.20 12.43Q99.20 12.67 99.08 12.91L99.08 12.91L99.08 12.91Q98.78 12.91 98.59 12.96L98.59 12.96L98.59 12.96Q98.39 13.01 98.18 13.22L98.18 13.22L98.18 13.22Q97.87 13.52 97.87 14.17L97.87 14.17L97.87 14.17Q97.87 14.73 98.12 15.24L98.12 15.24L98.12 15.24Q98.36 15.75 98.77 15.89L98.77 15.89L98.77 15.89Q98.95 15.89 99.08 15.74L99.08 15.74L99.08 15.74Q99.09 15.72 99.18 15.65L99.18 15.65L99.18 15.65Q99.26 15.58 99.39 15.58L99.39 15.58L99.39 15.58Q100.37 15.09 100.88 14.05L100.88 14.05L100.88 14.05Q101.39 13.01 101.39 11.68L101.39 11.68L101.39 11.68Q101.39 10.81 101.18 9.93L101.18 9.93L101.18 9.93Q100.94 9.48 100.68 9.22L100.68 9.22L100.68 9.22Q100.42 8.96 99.97 8.72L99.97 8.72L99.97 8.72Q99.57 8.53 99.32 8.32L99.32 8.32L99.32 8.32Q99.06 8.12 98.77 7.83L98.77 7.83L98.77 7.83Q98.63 7.69 98.39 7.55L98.39 7.55L98.39 7.55Q98.03 7.34 97.78 7.07L97.78 7.07L97.78 7.07Q97.69 6.97 97.37 6.65L97.37 6.65L97.37 6.65Q97.05 6.33 96.87 6.03L96.87 6.03L96.87 6.03Q96.68 5.73 96.68 5.46L96.68 5.46L96.68 5.46Q96.61 5.25 96.61 4.97L96.61 4.97L96.61 4.97Q96.61 4.03 97.58 3.07L97.58 3.07L97.58 3.07Q97.69 3.07 97.82 3.02L97.82 3.02L97.82 3.02Q97.94 2.97 97.99 2.95L97.99 2.95L97.99 2.95Q98.38 2.76 98.77 2.76L98.77 2.76L98.77 2.76Q99.04 2.76 99.22 2.79L99.22 2.79L99.22 2.79Q99.40 2.83 99.67 2.91L99.67 2.91L100.28 3.07L100.28 3.07Q100.31 3.09 100.39 3.16L100.39 3.16L100.39 3.16Q100.48 3.23 100.60 3.30L100.60 3.30L100.60 3.30Q100.73 3.37 100.87 3.37L100.87 3.37ZM110.56 5.45L110.56 5.45Q110.49 5.38 110.43 5.18L110.43 5.18L110.43 5.18Q110.42 5.07 110.42 4.83L110.42 4.83L110.42 4.83Q110.42 4.56 110.39 4.37L110.39 4.37L110.39 4.37Q110.36 4.17 110.26 3.98L110.26 3.98L110.26 3.98Q110.14 3.85 109.82 3.85L109.82 3.85L109.82 3.85Q109.54 3.85 109.16 3.92L109.16 3.92L109.16 3.92Q108.71 3.98 108.53 3.98L108.53 3.98L108.53 3.98Q108.40 4.23 108.40 4.65L108.40 4.65L108.40 4.65Q108.40 4.98 108.47 5.40L108.47 5.40L108.47 5.40Q108.53 5.85 108.53 6.03L108.53 6.03L108.53 11.55L108.53 13.90L108.53 14.49L108.53 14.49Q108.53 14.80 108.49 15.06L108.49 15.06L108.49 15.06Q108.46 15.37 108.46 15.53L108.46 15.53L108.46 15.53Q108.46 15.79 108.53 15.95L108.53 15.95L108.53 15.95Q108.56 16.02 108.64 16.04L108.64 16.04L108.64 16.04Q108.72 16.07 108.79 16.09L108.79 16.09L108.79 16.09Q108.85 16.10 108.88 16.10L108.88 16.10L108.88 16.10Q109.12 16.13 109.26 16.21L109.26 16.21L109.26 16.21Q109.40 16.28 109.40 16.52L109.40 16.52L109.40 16.52Q109.37 16.55 109.28 16.62L109.28 16.62L109.28 16.62Q109.20 16.69 109.07 16.75L109.07 16.75L109.07 16.75Q108.93 16.81 108.81 16.81L108.81 16.81L106.18 16.81L106.18 16.81Q105.98 16.81 105.93 16.67L105.93 16.67L105.93 16.67Q105.88 16.52 105.88 16.23L105.88 16.23L105.88 16.23Q106.04 16.23 106.32 16.09L106.32 16.09L106.32 16.09Q106.60 15.95 106.75 15.95L106.75 15.95L106.76 13.50L106.76 13.50Q106.76 12.74 106.75 12.43L106.75 12.43L106.75 12.43Q106.74 12.03 106.74 11.26L106.74 11.26L106.75 8.95L106.75 7.49L106.75 6.90L106.75 6.90Q106.75 5.81 106.70 5.19L106.70 5.19L106.70 5.19Q106.65 4.58 106.46 3.98L106.46 3.98L106.46 3.98Q106.12 3.88 105.73 3.88L105.73 3.88L105.66 3.88L105.66 3.88Q104.97 3.88 104.53 4.18L104.53 4.18L104.53 4.18Q104.09 4.48 104.09 5.10L104.09 5.10L104.09 5.10Q104.09 5.25 104.13 5.45L104.13 5.45L104.13 5.45Q104.12 5.47 104.03 5.52L104.03 5.52L104.03 5.52Q103.94 5.57 103.84 5.57L103.84 5.57L103.84 5.57Q103.68 5.57 103.56 5.45L103.56 5.45L103.56 5.45Q103.56 5.28 103.50 4.83L103.50 4.83L103.50 4.83Q103.43 4.20 103.43 4.06L103.43 4.06L103.43 4.06Q103.43 3.64 103.56 3.39L103.56 3.39L103.56 3.39Q104.05 3.14 104.50 3.01L104.50 3.01L104.50 3.01Q104.94 2.88 105.55 2.88L105.55 2.88L105.55 2.88Q105.98 2.88 106.99 2.86L106.99 2.86L106.99 2.86Q107.79 2.81 108.53 2.81L108.53 2.81L108.53 2.81Q109.56 2.81 110.26 2.91L110.26 2.91L110.26 2.91Q110.95 3.01 111.13 3.39L111.13 3.39L111.13 3.39Q111.31 3.91 111.31 4.40L111.31 4.40L111.31 4.40Q111.31 4.86 111.13 5.15L111.13 5.15L111.13 5.15Q110.95 5.45 110.56 5.45L110.56 5.45ZM114.66 14.77L114.66 14.77Q115.18 15.29 115.70 15.29L115.70 15.29L115.70 15.29Q115.98 15.29 116.24 15.11L116.24 15.11L116.24 15.11Q116.72 14.76 116.93 14.06L116.93 14.06L116.93 14.06Q117.15 13.36 117.19 12.68L117.19 12.68L117.19 12.68Q117.24 12.01 117.24 11.06L117.24 11.06L117.24 6.79L117.24 6.79Q117.24 6.48 117.26 6.10L117.26 6.10L117.26 6.10Q117.29 5.73 117.31 5.59L117.31 5.59L117.31 5.59Q117.36 4.94 117.36 4.68L117.36 4.68L117.36 4.68Q117.36 4.19 117.24 3.95L117.24 3.95L117.24 3.95Q117.11 3.81 116.98 3.74L116.98 3.74L116.98 3.74Q116.86 3.67 116.78 3.65L116.78 3.65L116.78 3.65Q116.70 3.64 116.68 3.64L116.68 3.64L116.68 3.64Q116.68 3.56 116.62 3.42L116.62 3.42L116.62 3.42Q116.56 3.29 116.55 3.25L116.55 3.25L116.55 3.25Q116.44 3.02 116.44 2.95L116.44 2.95L116.44 2.95Q116.44 2.87 116.55 2.87L116.55 2.87L116.55 2.87Q116.96 2.87 117.45 2.83L117.45 2.83L117.45 2.83Q117.61 2.83 118.00 2.81L118.00 2.81L118.00 2.81Q118.38 2.79 118.65 2.80L118.65 2.80L118.65 2.80Q119.17 2.81 119.43 3.00L119.43 3.00L119.43 3.00Q119.69 3.18 119.69 3.40L119.69 3.40L119.69 3.40Q119.69 3.58 119.53 3.70L119.53 3.70L119.53 3.70Q119.13 4.03 119.06 4.93L119.06 4.93L119.06 4.93Q119.03 5.19 119.03 5.81L119.03 5.81L119.03 5.81Q119.03 6.27 119.01 6.76L119.01 6.76L119.01 6.76Q119.00 7.25 118.93 7.63L118.93 7.63L118.93 10.47L118.93 10.78L118.93 10.78Q118.93 12.17 118.75 13.16L118.75 13.16L118.75 13.16Q118.58 14.15 118.09 15.05L118.09 15.05L118.09 15.05Q117.73 15.74 117.15 16.25L117.15 16.25L117.15 16.25Q116.58 16.76 115.81 16.76L115.81 16.76L115.81 16.76Q115.68 16.76 115.57 16.77L115.57 16.77L115.57 16.77Q115.46 16.79 115.14 16.79L115.14 16.79L115.14 16.79Q114.51 16.69 114.06 16.30L114.06 16.30L114.06 16.30Q113.62 15.92 113.25 15.33L113.25 15.33L113.25 15.33Q113.06 15.02 112.99 14.71L112.99 14.71L112.99 14.71Q112.92 14.39 112.87 13.85L112.87 13.85L112.87 13.85Q112.81 13.17 112.69 12.77L112.69 12.77L112.69 5.64L112.69 5.64Q112.69 5.45 112.71 5.08L112.71 5.08L112.73 4.54L112.73 4.54Q112.73 4.26 112.69 3.95L112.69 3.95L112.69 3.95Q112.67 3.82 112.57 3.75L112.57 3.75L112.57 3.75Q112.46 3.67 112.28 3.58L112.28 3.58L112.28 3.58Q112.04 3.49 111.93 3.39L111.93 3.39L111.93 3.39Q111.82 3.29 111.82 3.08L111.82 3.08L111.82 3.08Q111.97 2.93 112.15 2.88L112.15 2.88L112.15 2.88Q112.34 2.84 112.58 2.83L112.58 2.83L112.58 2.83Q112.83 2.81 112.97 2.80L112.97 2.80L112.97 2.80Q113.68 2.76 113.75 2.76L113.75 2.76L113.75 2.76Q114.44 2.76 114.72 3.04L114.72 3.04L114.72 3.04Q114.79 3.11 114.79 3.22L114.79 3.22L114.79 3.22Q114.79 3.49 114.38 3.95L114.38 3.95L114.38 5.64L114.38 8.22L114.39 11.31L114.39 11.31Q114.39 12.49 114.44 13.27L114.44 13.27L114.44 13.27Q114.49 14.06 114.66 14.77L114.66 14.77ZM127.85 5.36L127.85 5.36Q127.85 5.54 127.70 5.59L127.70 5.59L127.70 5.59Q127.55 5.64 127.27 5.64L127.27 5.64L127.27 5.64Q127.08 5.26 127.04 4.85L127.04 4.85L127.04 4.85Q126.99 4.44 126.99 3.65L126.99 3.65L126.99 3.65Q125.85 3.65 125.13 3.70L125.13 3.70L125.13 3.70Q124.42 3.75 123.84 3.95L123.84 3.95L123.84 3.95Q123.73 4.19 123.73 4.76L123.73 4.76L123.73 4.76Q123.73 5.07 123.79 5.85L123.79 5.85L123.79 5.85Q123.84 6.69 123.84 7.08L123.84 7.08L123.84 7.08Q123.84 7.17 123.83 7.25L123.83 7.25L123.83 7.25Q123.82 7.32 123.80 7.39L123.80 7.39L123.80 7.39Q123.73 7.64 123.73 7.87L123.73 7.87L123.73 7.87Q123.73 8.09 123.84 8.22L123.84 8.22L124.71 8.22L124.71 7.08L124.71 7.08Q125.23 7.06 125.42 7.43L125.42 7.43L125.42 7.43Q125.61 7.81 125.61 8.47L125.61 8.47L125.61 8.47Q125.61 8.72 125.58 9.14L125.58 9.14L125.57 9.65L125.57 9.65Q125.36 9.86 125.25 9.89L125.25 9.89L125.25 9.89Q125.15 9.93 124.71 9.93L124.71 9.93L124.71 9.37L124.71 9.37Q124.53 9.17 124.33 9.12L124.33 9.12L124.33 9.12Q124.14 9.07 123.84 9.07L123.84 9.07L123.84 9.07Q123.66 9.27 123.58 9.48L123.58 9.48L123.58 9.48Q123.51 9.69 123.51 9.95L123.51 9.95L123.51 9.95Q123.51 10.09 123.54 10.43L123.54 10.43L123.54 10.43Q123.58 10.72 123.58 11.07L123.58 11.07L123.58 11.07Q123.40 11.44 123.35 11.93L123.35 11.93L123.35 11.93Q123.30 12.42 123.30 13.08L123.30 13.08L123.30 13.93L123.30 13.93Q123.30 14.49 123.35 14.88L123.35 14.88L123.35 14.88Q123.40 15.26 123.58 15.64L123.58 15.64L123.58 15.64Q123.73 15.64 123.98 15.87L123.98 15.87L123.98 15.87Q124.22 16.10 124.22 16.28L124.22 16.28L124.22 16.28Q124.22 16.49 123.84 16.49L123.84 16.49L123.84 16.49Q123.84 16.62 123.76 16.62L123.76 16.62L123.76 16.62Q123.72 16.62 123.56 16.55L123.56 16.55L123.56 16.55Q123.40 16.49 123.30 16.49L123.30 16.49L123.30 16.49Q123.19 16.49 123.06 16.54L123.06 16.54L123.06 16.54Q122.93 16.59 122.89 16.60L122.89 16.60L122.89 16.60Q122.86 16.62 122.65 16.70L122.65 16.70L122.65 16.70Q122.43 16.77 122.14 16.77L122.14 16.77L122.14 16.77Q122.00 16.77 121.58 16.63L121.58 16.63L121.58 16.63Q121.13 16.49 121.00 16.49L121.00 16.49L121.00 16.49Q120.82 16.49 120.77 16.34L120.77 16.34L120.77 16.34Q120.72 16.20 120.72 15.92L120.72 15.92L120.72 15.92Q120.85 15.79 120.97 15.73L120.97 15.73L120.97 15.73Q121.10 15.67 121.18 15.65L121.18 15.65L121.18 15.65Q121.25 15.64 121.28 15.64L121.28 15.64L121.28 15.64Q121.52 15.51 121.59 15.24L121.59 15.24L121.59 15.24Q121.66 14.97 121.70 14.41L121.70 14.41L121.70 14.41Q121.73 13.72 121.86 13.34L121.86 13.34L121.86 11.07L121.86 11.07Q121.86 10.93 121.93 10.56L121.93 10.56L121.93 10.56Q121.98 10.28 121.98 10.15L121.98 10.15L121.98 10.15Q121.98 9.90 121.86 9.65L121.86 9.65L121.86 9.65Q121.86 9.51 121.95 9.27L121.95 9.27L121.95 9.27Q122.14 8.85 122.14 8.51L122.14 8.51L122.14 8.51Q122.14 8.08 122.00 7.07L122.00 7.07L122.00 7.07Q121.86 6.06 121.86 5.64L121.86 5.64L121.86 5.64Q121.86 5.46 121.91 5.04L121.91 5.04L121.91 5.04Q121.98 4.62 121.98 4.30L121.98 4.30L121.98 4.30Q121.98 3.91 121.86 3.65L121.86 3.65L121.86 3.65Q121.73 3.65 121.27 3.72L121.27 3.72L121.27 3.72Q120.93 3.78 120.81 3.78L120.81 3.78L120.81 3.78Q120.55 3.78 120.43 3.65L120.43 3.65L120.43 3.65Q120.22 3.44 120.22 3.23L120.22 3.23L120.22 3.23Q120.22 3.01 120.43 2.80L120.43 2.80L126.14 2.80L127.27 2.80L127.27 2.80Q127.62 2.80 127.76 3.15L127.76 3.15L127.76 3.15Q127.89 3.50 127.89 4.10L127.89 4.10L127.89 4.10Q127.89 4.37 127.86 4.82L127.86 4.82L127.85 5.36ZM136.07 5.36L136.07 5.36Q136.07 5.54 135.92 5.59L135.92 5.59L135.92 5.59Q135.77 5.64 135.49 5.64L135.49 5.64L135.49 5.64Q135.30 5.26 135.25 4.85L135.25 4.85L135.25 4.85Q135.21 4.44 135.21 3.65L135.21 3.65L135.21 3.65Q134.06 3.65 133.35 3.70L133.35 3.70L133.35 3.70Q132.64 3.75 132.06 3.95L132.06 3.95L132.06 3.95Q131.95 4.19 131.95 4.76L131.95 4.76L131.95 4.76Q131.95 5.07 132.01 5.85L132.01 5.85L132.01 5.85Q132.06 6.69 132.06 7.08L132.06 7.08L132.06 7.08Q132.06 7.17 132.05 7.25L132.05 7.25L132.05 7.25Q132.03 7.32 132.02 7.39L132.02 7.39L132.02 7.39Q131.95 7.64 131.95 7.87L131.95 7.87L131.95 7.87Q131.95 8.09 132.06 8.22L132.06 8.22L132.93 8.22L132.93 7.08L132.93 7.08Q133.45 7.06 133.64 7.43L133.64 7.43L133.64 7.43Q133.83 7.81 133.83 8.47L133.83 8.47L133.83 8.47Q133.83 8.72 133.80 9.14L133.80 9.14L133.78 9.65L133.78 9.65Q133.57 9.86 133.47 9.89L133.47 9.89L133.47 9.89Q133.36 9.93 132.93 9.93L132.93 9.93L132.93 9.37L132.93 9.37Q132.75 9.17 132.55 9.12L132.55 9.12L132.55 9.12Q132.36 9.07 132.06 9.07L132.06 9.07L132.06 9.07Q131.88 9.27 131.80 9.48L131.80 9.48L131.80 9.48Q131.73 9.69 131.73 9.95L131.73 9.95L131.73 9.95Q131.73 10.09 131.75 10.43L131.75 10.43L131.75 10.43Q131.80 10.72 131.80 11.07L131.80 11.07L131.80 11.07Q131.61 11.44 131.56 11.93L131.56 11.93L131.56 11.93Q131.52 12.42 131.52 13.08L131.52 13.08L131.52 13.93L131.52 13.93Q131.52 14.49 131.56 14.88L131.56 14.88L131.56 14.88Q131.61 15.26 131.80 15.64L131.80 15.64L131.80 15.64Q131.95 15.64 132.19 15.87L132.19 15.87L132.19 15.87Q132.44 16.10 132.44 16.28L132.44 16.28L132.44 16.28Q132.44 16.49 132.06 16.49L132.06 16.49L132.06 16.49Q132.06 16.62 131.98 16.62L131.98 16.62L131.98 16.62Q131.94 16.62 131.77 16.55L131.77 16.55L131.77 16.55Q131.61 16.49 131.52 16.49L131.52 16.49L131.52 16.49Q131.40 16.49 131.28 16.54L131.28 16.54L131.28 16.54Q131.15 16.59 131.11 16.60L131.11 16.60L131.11 16.60Q131.08 16.62 130.86 16.70L130.86 16.70L130.86 16.70Q130.65 16.77 130.35 16.77L130.35 16.77L130.35 16.77Q130.21 16.77 129.79 16.63L129.79 16.63L129.79 16.63Q129.35 16.49 129.22 16.49L129.22 16.49L129.22 16.49Q129.04 16.49 128.99 16.34L128.99 16.34L128.99 16.34Q128.94 16.20 128.94 15.92L128.94 15.92L128.94 15.92Q129.07 15.79 129.19 15.73L129.19 15.73L129.19 15.73Q129.32 15.67 129.39 15.65L129.39 15.65L129.39 15.65Q129.47 15.64 129.50 15.64L129.50 15.64L129.50 15.64Q129.74 15.51 129.81 15.24L129.81 15.24L129.81 15.24Q129.88 14.97 129.92 14.41L129.92 14.41L129.92 14.41Q129.95 13.72 130.07 13.34L130.07 13.34L130.07 11.07L130.07 11.07Q130.07 10.93 130.14 10.56L130.14 10.56L130.14 10.56Q130.20 10.28 130.20 10.15L130.20 10.15L130.20 10.15Q130.20 9.90 130.07 9.65L130.07 9.65L130.07 9.65Q130.07 9.51 130.17 9.27L130.17 9.27L130.17 9.27Q130.35 8.85 130.35 8.51L130.35 8.51L130.35 8.51Q130.35 8.08 130.21 7.07L130.21 7.07L130.21 7.07Q130.07 6.06 130.07 5.64L130.07 5.64L130.07 5.64Q130.07 5.46 130.13 5.04L130.13 5.04L130.13 5.04Q130.20 4.62 130.20 4.30L130.20 4.30L130.20 4.30Q130.20 3.91 130.07 3.65L130.07 3.65L130.07 3.65Q129.95 3.65 129.49 3.72L129.49 3.72L129.49 3.72Q129.15 3.78 129.02 3.78L129.02 3.78L129.02 3.78Q128.77 3.78 128.65 3.65L128.65 3.65L128.65 3.65Q128.44 3.44 128.44 3.23L128.44 3.23L128.44 3.23Q128.44 3.01 128.65 2.80L128.65 2.80L134.36 2.80L135.49 2.80L135.49 2.80Q135.84 2.80 135.97 3.15L135.97 3.15L135.97 3.15Q136.11 3.50 136.11 4.10L136.11 4.10L136.11 4.10Q136.11 4.37 136.08 4.82L136.08 4.82L136.07 5.36Z"></path></g><!----><g data-v-423bf9ae="" id="40dd71e3-e9bf-45a7-81d1-bbce4b0ac61c" transform="matrix(1.0566665649414062,0,0,1.0566665649414062,-15.719995117187494,-1.3294901328092195)" stroke="none" fill="black"><path d="M79.4 20.3c-.9 0-1.6.7-1.6 1.6 0 .8.5 1.4 1.3 1.6v10.7l-8.3 8.3h-9.4c-1.2-2.9-3.3-5.4-5.9-7.1v-28h14.8v-.7H54.9v28.2c-1-.6-2-1.1-3-1.5v-7l-3.2-3.2c.2-.3.3-.6.3-.9 0-.9-.7-1.6-1.6-1.6-.9 0-1.6.7-1.6 1.6 0 .9.7 1.6 1.6 1.6.3 0 .6-.1.9-.3l3 3v6.5c-1.6-.5-3.3-.8-5.1-.8h-.4V4.9H73v-.6H45v28.1c-.9.1-1.7.2-2.5.4V11.9l-8-8c.1-.2.2-.5.2-.8 0-.9-.7-1.6-1.6-1.6-.9 0-1.6.7-1.6 1.6 0 .9.7 1.6 1.6 1.6.4 0 .7-.1 1-.3l7.8 7.8V33c-.8.2-1.5.5-2.2.8V23.5h-2v-7.1L26.9 5.7c.1-.2.2-.5.2-.8 0-.9-.7-1.6-1.6-1.6-.9 0-1.6.7-1.6 1.6s.7 1.6 1.6 1.6c.3 0 .7-.1.9-.3L37 16.7v7.5h2v9.7c-1.1.5-2 1.1-3 1.8V17.6L26.4 8l-.4.5 9.4 9.4v18.4c-1.4 1.2-2.6 2.5-3.5 4.1h-9.8v.6h9.4c-.5 1-1 2-1.3 3.1H15.6v.6H30c-.3 1.3-.5 2.6-.6 4h-2.8c-.1-.7-.8-1.3-1.6-1.3-.9 0-1.6.7-1.6 1.6 0 .9.7 1.6 1.6 1.6.8 0 1.4-.5 1.6-1.3h2.8c0 .8.1 1.6.2 2.3H18.3v.6h11.4c.2.8.4 1.7.7 2.4H18.2c-.1-.7-.8-1.3-1.6-1.3-.9 0-1.6.7-1.6 1.6s.7 1.6 1.6 1.6c.8 0 1.4-.5 1.6-1.3h12.5c.4.9.8 1.7 1.3 2.5H15.6v.6h16.9c.8 1.2 1.8 2.3 2.9 3.2V78L26 87.6l.4.4 9.6-9.6V62.3c.5.4 1 .7 1.6 1.1v3.2c-.7.1-1.3.8-1.3 1.6 0 .9.7 1.6 1.6 1.6s1.6-.7 1.6-1.6c0-.8-.5-1.4-1.3-1.6v-2.8c.8.4 1.6.8 2.4 1.1v12.3h.6V65c1.2.4 2.4.6 3.7.7v13.1h-4.3v17.8h.6V79.3h4.3V65.6h.4c.5 0 1 0 1.5-.1v10.2h.6V65.5c.4-.1.8-.1 1.2-.2V82h.8V65.2c1.6-.4 3.1-1 4.5-1.8v4h10.8v20.5c-.7.2-1.2.8-1.2 1.5 0 .9.7 1.6 1.6 1.6.9 0 1.6-.7 1.6-1.6 0-.8-.6-1.5-1.4-1.6V66.7H55.1V63c3-2 5.4-4.9 6.6-8.4h6.5v-2.3h2.4v17h.6V51.6h-3.6V54H62c.4-1.2.6-2.4.7-3.7h9.2v15.9h.6V49.6h-9.8V49c0-1.3-.1-2.5-.4-3.7h6.6v3.1H74v13.9c-.7.1-1.3.8-1.3 1.6 0 .9.7 1.6 1.6 1.6s1.6-.7 1.6-1.6c0-.8-.5-1.4-1.3-1.6V47.7h-5.1v-3.1h-7.3c-.1-.5-.3-1.1-.5-1.6H71l8.7-8.7V23.4c.7-.1 1.3-.8 1.3-1.6s-.7-1.5-1.6-1.5zm-32 3c-.5 0-1-.4-1-1 0-.5.4-1 1-1 .5 0 1 .4 1 1-.1.5-.5 1-1 1zM33.1 4c-.5 0-1-.4-1-1 0-.5.4-1 1-1 .5 0 1 .4 1 1s-.5 1-1 1zm-6.8 1.5l-.1.1c-.2.1-.4.2-.6.2-.5 0-1-.4-1-1 0-.5.4-1 1-1 .5 0 1 .4 1 1-.1.3-.2.5-.3.7zM25.1 50c-.5 0-1-.4-1-1 0-.5.4-1 1-1 .5 0 1 .4 1 1 0 .5-.5 1-1 1zm-8.5 6c-.5 0-1-.4-1-1 0-.5.4-1 1-1 .5 0 1 .4 1 1s-.5 1-1 1zm22.3 12c0 .5-.4 1-1 1-.5 0-1-.4-1-1 0-.5.4-1 1-1 .6.1 1 .5 1 1zm27.8 21.3c0 .5-.4 1-1 1-.5 0-1-.4-1-1 0-.5.4-1 1-1 .5.1 1 .5 1 1zm8.5-25.5c0 .5-.4 1-1 1-.5 0-1-.4-1-1 0-.5.4-1 1-1 .6.1 1 .5 1 1zm-29.1.9c-8.7 0-15.7-7-15.7-15.7s7-15.7 15.7-15.7 15.7 7 15.7 15.7-7.1 15.7-15.7 15.7zm33.3-41.9c-.5 0-1-.4-1-1 0-.5.4-1 1-1 .5 0 1 .4 1 1-.1.6-.5 1-1 1z"></path><path d="M38.1 38.9l-2.2 2.2v18h20.3V38.9H38.1zm16.4 18.6h-17V42.4l1.9-1.9h15.1v17z"></path><path d="M38.3 43v13.7h15.4V41.3H40z"></path></g><!----><g data-v-423bf9ae="" id="6212644e-e4cf-4e42-b0e2-e92f15ad9137" fill="black" transform="matrix(0.7564524959167089,0,0,0.7564524959167089,89.34663830199801,57.80628761211376)"><path d="M0.52 3.51C0.52 3.75 0.56 3.79 0.77 3.79L1.69 3.77C1.75 3.77 1.75 4.47 1.75 5.24L1.75 5.96C1.75 7.70 1.74 12.18 1.62 12.18L0.95 12.18C0.73 12.18 0.66 12.19 0.66 12.39C0.66 12.63 0.67 12.68 0.87 12.68C0.99 12.68 1.97 12.64 2.39 12.64C2.81 12.64 3.68 12.68 4.00 12.68C4.17 12.68 4.20 12.61 4.20 12.40C4.20 12.24 4.17 12.18 4.00 12.18L3.01 12.18C2.97 12.18 2.95 10.60 2.95 9.58L2.95 8.65C2.95 8.57 2.95 8.54 3.05 8.54C3.44 8.54 3.77 8.58 4.27 8.58C6.26 8.58 7.66 7.83 7.66 6.01C7.66 4.09 6.17 3.22 4.26 3.22C3.93 3.22 2.84 3.29 2.42 3.29C2.18 3.29 0.99 3.26 0.77 3.26C0.59 3.26 0.52 3.28 0.52 3.51ZM2.97 8.05L2.97 4.40C2.97 4.05 2.98 3.70 3.02 3.68C3.15 3.67 3.32 3.67 3.46 3.67C5.11 3.67 6.37 4.47 6.37 5.80C6.37 7.57 5.04 8.19 3.46 8.19C3.21 8.19 2.97 8.16 2.97 8.05ZM14.15 12.39C14.15 12.63 14.15 12.68 14.35 12.68C14.52 12.68 14.84 12.64 15.41 12.64C16.03 12.64 16.58 12.68 16.73 12.68C16.90 12.68 16.90 12.61 16.90 12.40C16.90 12.24 16.90 12.18 16.73 12.18L15.65 12.18C15.65 12.18 15.64 12.18 15.64 12.17C15.65 11.87 16.42 9.90 16.77 9.02C16.84 8.83 16.86 8.79 17.07 8.79L19.89 8.79C20.03 8.79 20.03 8.81 20.10 9.03C20.37 9.77 21.08 11.89 21.08 12.17C21.08 12.18 21.07 12.18 21.07 12.18L20.30 12.18C20.08 12.18 20.06 12.19 20.06 12.39C20.06 12.63 20.08 12.68 20.24 12.68C20.57 12.68 21.43 12.64 21.85 12.64C22.27 12.64 22.95 12.68 23.16 12.68C23.30 12.68 23.31 12.61 23.31 12.40C23.31 12.24 23.30 12.18 23.16 12.18L22.67 12.18C22.57 12.18 21.55 9.34 20.99 7.78L19.31 3.07C19.29 3.00 19.22 2.94 19.14 2.94C19.01 2.94 18.91 3.16 18.83 3.35C18.68 3.71 18.44 3.84 18.33 4.13L16.84 7.57C16.66 8.01 14.95 12.18 14.83 12.18L14.41 12.18C14.18 12.18 14.15 12.19 14.15 12.39ZM17.05 8.33C17.05 8.30 17.08 8.23 17.12 8.13L18.49 4.77C18.54 4.66 18.56 4.61 18.59 4.61C18.61 4.61 18.62 4.63 18.66 4.77L19.82 8.18C19.85 8.25 19.87 8.29 19.87 8.32C19.87 8.36 19.84 8.37 19.74 8.37L17.23 8.37C17.05 8.37 17.05 8.34 17.05 8.33ZM29.81 3.44C29.81 3.68 29.89 3.70 30.06 3.70L30.46 3.70C30.59 3.70 32.84 7.74 33.25 8.50C33.31 8.60 33.35 8.65 33.35 8.81C33.35 10.50 33.33 12.18 33.21 12.18L32.49 12.18C32.27 12.18 32.23 12.19 32.23 12.39C32.23 12.63 32.24 12.68 32.44 12.68C32.63 12.68 33.45 12.64 34.03 12.64C34.86 12.64 35.39 12.68 35.71 12.68C35.88 12.68 35.91 12.61 35.91 12.40C35.91 12.24 35.88 12.18 35.71 12.18L34.75 12.18C34.65 12.18 34.62 9.72 34.62 8.22C34.62 8.18 34.62 8.15 34.66 8.09C35.21 7.22 37.16 3.70 37.23 3.70L37.70 3.70C37.87 3.70 37.97 3.68 37.97 3.44C37.97 3.22 37.88 3.19 37.70 3.19C37.48 3.19 37.24 3.23 36.64 3.23C36.05 3.23 35.71 3.19 35.55 3.19C35.35 3.19 35.31 3.25 35.31 3.49C35.31 3.68 35.38 3.70 35.60 3.70L36.33 3.70C36.34 3.70 36.36 3.71 36.36 3.74C36.36 4.05 34.79 6.99 34.41 7.71C34.30 7.92 34.30 7.88 34.19 7.67C33.78 6.89 32.49 4.56 32.20 3.85C32.14 3.71 32.13 3.70 32.31 3.70L33.14 3.70C33.36 3.70 33.39 3.68 33.39 3.49C33.39 3.25 33.35 3.19 33.19 3.19C32.96 3.19 32.34 3.23 31.54 3.23C30.73 3.23 30.24 3.19 30.06 3.19C29.88 3.19 29.81 3.21 29.81 3.44ZM55.38 3.51C55.38 3.75 55.47 3.77 55.64 3.77L56.17 3.77C56.22 3.77 56.22 4.12 56.22 4.55C56.22 5.66 56.21 8.96 56.21 9.42C56.21 11.13 56.46 12.80 59.32 12.80C60.40 12.80 61.56 12.38 62.22 12.00C62.47 11.86 62.76 11.72 62.85 11.72C63.11 11.72 63.38 12.74 63.71 12.74C64.04 12.74 64.05 12.35 64.05 12.25C64.05 11.96 64.11 10.08 64.15 8.16C64.20 6.12 64.19 3.77 64.30 3.77L64.62 3.77C64.85 3.77 64.92 3.75 64.92 3.56C64.92 3.32 64.88 3.26 64.68 3.26C64.54 3.26 64.01 3.30 63.59 3.30C63.17 3.30 62.37 3.26 62.15 3.26C61.96 3.26 61.87 3.28 61.87 3.51C61.87 3.75 61.98 3.77 62.15 3.77L62.85 3.77C62.92 3.77 62.93 4.30 62.93 4.87L62.93 9.14C62.93 11.19 62.93 11.12 62.59 11.34C62.20 11.61 61.39 12.08 60.21 12.08C58.24 12.08 57.44 11.17 57.44 9.41C57.44 8.82 57.51 3.77 57.62 3.77L58.53 3.77C58.76 3.77 58.80 3.75 58.80 3.56C58.80 3.32 58.79 3.26 58.59 3.26C58.27 3.26 57.39 3.30 56.97 3.30C56.55 3.30 55.86 3.26 55.64 3.26C55.45 3.26 55.38 3.28 55.38 3.51ZM73.16 5.77C73.16 9.07 78.15 8.20 78.15 10.65C78.15 11.59 77.31 12.31 76.33 12.31C75.50 12.31 73.91 11.83 73.88 11.47L73.79 10.15C73.78 9.97 73.71 9.91 73.53 9.91L73.46 9.91C73.25 9.91 73.25 10.00 73.25 10.12C73.25 10.32 73.36 11.66 73.39 12.17C73.40 12.38 74.66 12.85 76.20 12.85C77.77 12.85 79.38 11.87 79.38 10.11C79.38 6.79 74.41 7.87 74.41 5.32C74.41 4.31 75.19 3.56 76.23 3.56C77.25 3.56 78.34 4.58 78.34 4.89C78.34 5.01 78.30 5.73 78.30 5.78C78.30 5.92 78.34 5.99 78.61 5.99C78.85 5.99 78.86 5.94 78.86 5.75C78.86 5.04 78.95 3.68 78.95 3.53C78.95 3.30 78.90 3.29 78.64 3.29C78.41 3.29 78.40 3.32 78.39 3.53C78.39 3.61 78.37 3.78 78.33 3.78C78.27 3.78 78.19 3.74 78.12 3.68C77.32 3.14 76.71 3.08 76.20 3.08C74.68 3.08 73.16 4.17 73.16 5.77ZM97.08 12.39C97.08 12.63 97.10 12.68 97.30 12.68C97.54 12.68 98.04 12.64 98.46 12.64C98.88 12.64 99.37 12.68 99.69 12.68C99.86 12.68 99.89 12.61 99.89 12.40C99.89 12.24 99.86 12.18 99.69 12.18L98.73 12.18C98.67 12.18 98.66 11.54 98.66 10.79C98.66 8.96 98.70 6.13 98.77 4.28C98.80 3.88 98.83 3.91 98.97 4.27L102.23 12.32C102.33 12.54 102.40 12.74 102.51 12.74C102.61 12.74 102.68 12.63 102.76 12.45C103.10 11.79 103.28 11.75 103.54 11.09L106.13 4.47C106.26 4.16 106.30 4.02 106.32 4.47C106.34 5.66 106.39 8.47 106.39 9.74C106.39 10.99 106.34 12.18 106.29 12.18L105.66 12.18C105.43 12.18 105.36 12.19 105.36 12.39C105.36 12.63 105.39 12.68 105.59 12.68C105.78 12.68 106.48 12.64 107.09 12.64C107.51 12.64 108.26 12.68 108.58 12.68C108.75 12.68 108.78 12.61 108.78 12.40C108.78 12.22 108.72 12.18 108.56 12.18L107.83 12.18C107.72 12.18 107.62 8.44 107.62 6.03L107.62 4.77C107.62 4.17 107.65 3.77 107.69 3.70L108.35 3.70C108.57 3.70 108.61 3.68 108.61 3.49C108.61 3.25 108.60 3.19 108.40 3.19C108.08 3.19 107.39 3.23 106.97 3.23L106.30 3.23C106.08 3.23 106.05 3.29 105.94 3.58L103.19 10.72C103.11 10.95 103.08 11.02 102.97 10.74L100.03 3.40C99.96 3.22 99.90 3.19 99.76 3.19C99.68 3.19 99.19 3.23 98.88 3.23C98.38 3.23 97.52 3.19 97.33 3.19C97.19 3.19 97.19 3.26 97.19 3.47C97.19 3.64 97.19 3.70 97.33 3.70L98.03 3.70C98.29 3.70 98.29 3.72 98.29 3.84C98.29 4.82 98.08 9.94 98.04 10.79C98 11.55 98 12.18 97.94 12.18L97.37 12.18C97.15 12.18 97.08 12.19 97.08 12.39ZM116.75 8.15C116.75 11.17 119.08 12.80 121.34 12.80C124.12 12.80 126.10 10.89 126.10 8.06C126.10 5.33 124.35 3.11 121.55 3.11C118.94 3.11 116.75 5.10 116.75 8.15ZM118.15 7.77C118.15 5.64 119.43 3.58 121.41 3.58C123.65 3.58 124.73 5.81 124.73 7.94C124.73 10.08 123.62 12.32 121.35 12.32C119.36 12.32 118.15 10.28 118.15 7.77ZM134.20 12.39C134.20 12.63 134.22 12.68 134.41 12.68C134.60 12.68 134.97 12.64 135.59 12.64C136.22 12.64 136.78 12.68 137.10 12.68C137.27 12.68 137.27 12.61 137.27 12.40C137.27 12.24 137.27 12.18 137.10 12.18L135.90 12.18C135.86 12.18 135.84 11.54 135.84 10.79C135.84 9.46 135.86 7.48 135.86 5.99C135.86 5.25 135.86 4.84 135.87 4.28C135.87 4.02 135.94 4.14 136.07 4.28L142.95 12.66C143.04 12.75 143.12 12.89 143.23 12.89C143.35 12.89 143.42 12.77 143.42 12.54C143.42 12.39 143.58 6.65 143.60 4.48C143.60 4.06 143.63 3.70 143.65 3.70L144.28 3.70C144.51 3.70 144.56 3.68 144.56 3.49C144.56 3.25 144.56 3.19 144.37 3.19C144.17 3.19 143.74 3.23 143.18 3.23C142.56 3.23 141.76 3.19 141.67 3.19C141.50 3.19 141.50 3.26 141.50 3.47C141.50 3.64 141.50 3.70 141.67 3.70L142.97 3.70C142.98 3.70 142.98 4.33 142.98 4.44C142.98 5.85 143.01 8.33 143.01 9.70L143.01 10.29C143.01 10.57 143.00 10.65 142.77 10.37L137.09 3.39C136.98 3.25 136.95 3.19 136.78 3.19C136.70 3.19 136.32 3.23 136.01 3.23C135.72 3.23 134.64 3.19 134.44 3.19C134.27 3.19 134.25 3.26 134.25 3.47C134.25 3.64 134.27 3.70 134.44 3.70L135.35 3.70C135.35 4.17 135.31 8.53 135.24 10.79C135.21 11.69 135.23 12.18 135.11 12.18L134.47 12.18C134.25 12.18 134.20 12.19 134.20 12.39ZM152.60 12.39C152.60 12.63 152.63 12.68 152.82 12.68C153.15 12.68 154.11 12.64 154.53 12.64C154.95 12.64 159.46 12.68 159.78 12.68C159.91 12.68 160.06 12.66 160.06 12.49C160.06 12.07 160.10 11.23 160.10 10.53C160.10 10.39 159.95 10.39 159.82 10.39C159.71 10.39 159.59 10.39 159.59 10.51C159.57 11.06 159.57 11.41 159.54 11.76C159.52 12.01 159.52 12.04 159.42 12.04C159.26 12.04 156.63 12.08 155.13 12.08C155.06 12.08 155.02 10.11 154.98 8.26C154.98 8.06 155.02 8.09 155.16 8.09L157.44 8.09C158.14 8.09 158.17 8.20 158.17 8.30L158.17 9.00C158.17 9.14 158.35 9.14 158.47 9.14C158.56 9.14 158.69 9.13 158.69 9.02C158.69 8.83 158.66 8.33 158.66 7.83C158.66 7.32 158.69 6.83 158.69 6.71C158.69 6.59 158.55 6.58 158.45 6.58C158.34 6.58 158.17 6.59 158.17 6.72L158.17 7.45C158.17 7.62 157.72 7.63 157.44 7.63L155.11 7.63C154.99 7.63 154.98 7.63 154.98 7.45C154.97 6.75 154.95 6.06 154.95 5.46C154.95 5.12 154.95 3.71 155.04 3.71C156.27 3.71 158.77 3.75 158.77 3.81C158.77 3.99 158.73 4.83 158.73 4.89C158.73 5.04 158.80 5.10 158.98 5.10C159.18 5.10 159.25 5.08 159.25 4.94C159.25 3.85 159.31 3.36 159.31 3.09C159.31 2.91 159.22 2.90 159.03 2.90C158.83 2.90 158.83 2.95 158.80 3.11C158.79 3.25 158.86 3.25 157.95 3.25C157.33 3.25 155.19 3.29 154.42 3.29C153.93 3.29 152.99 3.25 152.89 3.25C152.77 3.25 152.71 3.30 152.71 3.49C152.71 3.72 152.78 3.74 152.95 3.74L153.61 3.74C153.66 3.74 153.73 4.79 153.73 5.71C153.73 5.80 153.79 8.27 153.79 9.83L153.79 11.17C153.79 11.84 153.76 12.18 153.73 12.18L152.88 12.18C152.66 12.18 152.60 12.21 152.60 12.39ZM167.65 3.44C167.65 3.68 167.73 3.70 167.90 3.70L168.31 3.70C168.43 3.70 170.69 7.74 171.09 8.50C171.15 8.60 171.19 8.65 171.19 8.81C171.19 10.50 171.18 12.18 171.05 12.18L170.34 12.18C170.11 12.18 170.07 12.19 170.07 12.39C170.07 12.63 170.09 12.68 170.28 12.68C170.48 12.68 171.29 12.64 171.88 12.64C172.70 12.64 173.24 12.68 173.56 12.68C173.73 12.68 173.75 12.61 173.75 12.40C173.75 12.24 173.73 12.18 173.56 12.18L172.59 12.18C172.49 12.18 172.47 9.72 172.47 8.22C172.47 8.18 172.47 8.15 172.51 8.09C173.05 7.22 175 3.70 175.07 3.70L175.55 3.70C175.71 3.70 175.81 3.68 175.81 3.44C175.81 3.22 175.73 3.19 175.55 3.19C175.32 3.19 175.08 3.23 174.48 3.23C173.89 3.23 173.56 3.19 173.39 3.19C173.19 3.19 173.15 3.25 173.15 3.49C173.15 3.68 173.22 3.70 173.45 3.70L174.17 3.70C174.19 3.70 174.20 3.71 174.20 3.74C174.20 4.05 172.63 6.99 172.26 7.71C172.14 7.92 172.14 7.88 172.03 7.67C171.63 6.89 170.34 4.56 170.04 3.85C169.99 3.71 169.97 3.70 170.16 3.70L170.98 3.70C171.21 3.70 171.23 3.68 171.23 3.49C171.23 3.25 171.19 3.19 171.04 3.19C170.80 3.19 170.18 3.23 169.39 3.23C168.57 3.23 168.08 3.19 167.90 3.19C167.72 3.19 167.65 3.21 167.65 3.44ZM182.73 12.07C182.73 12.31 183.18 12.75 183.60 12.75C183.78 12.75 184.23 12.35 184.23 11.90C184.23 11.51 183.65 11.20 183.39 11.20C183.12 11.20 182.73 11.76 182.73 12.07ZM192.82 12.07C192.82 12.31 193.27 12.75 193.69 12.75C193.87 12.75 194.32 12.35 194.32 11.90C194.32 11.51 193.75 11.20 193.48 11.20C193.21 11.20 192.82 11.76 192.82 12.07ZM202.92 12.07C202.92 12.31 203.36 12.75 203.78 12.75C203.97 12.75 204.41 12.35 204.41 11.90C204.41 11.51 203.84 11.20 203.57 11.20C203.31 11.20 202.92 11.76 202.92 12.07ZM212.73 3.51C212.73 3.75 212.81 3.77 212.98 3.77L213.51 3.77C213.57 3.77 213.57 4.12 213.57 4.55C213.57 5.66 213.56 8.96 213.56 9.42C213.56 11.13 213.81 12.80 216.66 12.80C217.74 12.80 218.90 12.38 219.56 12.00C219.81 11.86 220.11 11.72 220.19 11.72C220.46 11.72 220.72 12.74 221.06 12.74C221.38 12.74 221.40 12.35 221.40 12.25C221.40 11.96 221.45 10.08 221.49 8.16C221.55 6.12 221.54 3.77 221.65 3.77L221.97 3.77C222.19 3.77 222.26 3.75 222.26 3.56C222.26 3.32 222.22 3.26 222.03 3.26C221.89 3.26 221.35 3.30 220.93 3.30C220.51 3.30 219.72 3.26 219.49 3.26C219.31 3.26 219.21 3.28 219.21 3.51C219.21 3.75 219.32 3.77 219.49 3.77L220.19 3.77C220.26 3.77 220.28 4.30 220.28 4.87L220.28 9.14C220.28 11.19 220.28 11.12 219.94 11.34C219.55 11.61 218.74 12.08 217.56 12.08C215.59 12.08 214.79 11.17 214.79 9.41C214.79 8.82 214.86 3.77 214.97 3.77L215.88 3.77C216.10 3.77 216.15 3.75 216.15 3.56C216.15 3.32 216.13 3.26 215.94 3.26C215.61 3.26 214.73 3.30 214.31 3.30C213.89 3.30 213.21 3.26 212.98 3.26C212.80 3.26 212.73 3.28 212.73 3.51ZM230.51 5.77C230.51 9.07 235.49 8.20 235.49 10.65C235.49 11.59 234.65 12.31 233.67 12.31C232.85 12.31 231.25 11.83 231.22 11.47L231.14 10.15C231.13 9.97 231.06 9.91 230.87 9.91L230.80 9.91C230.59 9.91 230.59 10.00 230.59 10.12C230.59 10.32 230.71 11.66 230.73 12.17C230.75 12.38 232.01 12.85 233.55 12.85C235.12 12.85 236.73 11.87 236.73 10.11C236.73 6.79 231.76 7.87 231.76 5.32C231.76 4.31 232.54 3.56 233.58 3.56C234.60 3.56 235.69 4.58 235.69 4.89C235.69 5.01 235.65 5.73 235.65 5.78C235.65 5.92 235.69 5.99 235.96 5.99C236.19 5.99 236.21 5.94 236.21 5.75C236.21 5.04 236.29 3.68 236.29 3.53C236.29 3.30 236.25 3.29 235.98 3.29C235.76 3.29 235.75 3.32 235.73 3.53C235.73 3.61 235.72 3.78 235.68 3.78C235.62 3.78 235.54 3.74 235.47 3.68C234.67 3.14 234.05 3.08 233.55 3.08C232.02 3.08 230.51 4.17 230.51 5.77ZM244.69 12.39C244.69 12.63 244.72 12.68 244.92 12.68C245.24 12.68 246.20 12.64 246.62 12.64C247.04 12.64 251.55 12.68 251.87 12.68C252.00 12.68 252.15 12.66 252.15 12.49C252.15 12.07 252.20 11.23 252.20 10.53C252.20 10.39 252.04 10.39 251.92 10.39C251.80 10.39 251.68 10.39 251.68 10.51C251.66 11.06 251.66 11.41 251.64 11.76C251.61 12.01 251.61 12.04 251.51 12.04C251.36 12.04 248.72 12.08 247.23 12.08C247.16 12.08 247.11 10.11 247.07 8.26C247.07 8.06 247.11 8.09 247.25 8.09L249.54 8.09C250.24 8.09 250.26 8.20 250.26 8.30L250.26 9.00C250.26 9.14 250.45 9.14 250.56 9.14C250.66 9.14 250.78 9.13 250.78 9.02C250.78 8.83 250.75 8.33 250.75 7.83C250.75 7.32 250.78 6.83 250.78 6.71C250.78 6.59 250.64 6.58 250.54 6.58C250.43 6.58 250.26 6.59 250.26 6.72L250.26 7.45C250.26 7.62 249.82 7.63 249.54 7.63L247.20 7.63C247.09 7.63 247.07 7.63 247.07 7.45C247.06 6.75 247.04 6.06 247.04 5.46C247.04 5.12 247.04 3.71 247.13 3.71C248.36 3.71 250.87 3.75 250.87 3.81C250.87 3.99 250.82 4.83 250.82 4.89C250.82 5.04 250.89 5.10 251.08 5.10C251.27 5.10 251.34 5.08 251.34 4.94C251.34 3.85 251.40 3.36 251.40 3.09C251.40 2.91 251.31 2.90 251.12 2.90C250.92 2.90 250.92 2.95 250.89 3.11C250.88 3.25 250.95 3.25 250.04 3.25C249.42 3.25 247.28 3.29 246.51 3.29C246.02 3.29 245.08 3.25 244.99 3.25C244.86 3.25 244.80 3.30 244.80 3.49C244.80 3.72 244.87 3.74 245.04 3.74L245.70 3.74C245.76 3.74 245.83 4.79 245.83 5.71C245.83 5.80 245.88 8.27 245.88 9.83L245.88 11.17C245.88 11.84 245.85 12.18 245.83 12.18L244.97 12.18C244.75 12.18 244.69 12.21 244.69 12.39ZM270.03 8.15C270.03 11.17 272.37 12.80 274.62 12.80C277.41 12.80 279.38 10.89 279.38 8.06C279.38 5.33 277.63 3.11 274.83 3.11C272.23 3.11 270.03 5.10 270.03 8.15ZM271.43 7.77C271.43 5.64 272.72 3.58 274.69 3.58C276.93 3.58 278.01 5.81 278.01 7.94C278.01 10.08 276.91 12.32 274.64 12.32C272.65 12.32 271.43 10.28 271.43 7.77ZM287.49 3.51C287.49 3.75 287.57 3.77 287.74 3.77L288.27 3.77C288.33 3.77 288.33 4.12 288.33 4.55C288.33 5.66 288.32 8.96 288.32 9.42C288.32 11.13 288.57 12.80 291.42 12.80C292.50 12.80 293.66 12.38 294.32 12.00C294.57 11.86 294.87 11.72 294.95 11.72C295.22 11.72 295.48 12.74 295.82 12.74C296.14 12.74 296.16 12.35 296.16 12.25C296.16 11.96 296.21 10.08 296.25 8.16C296.31 6.12 296.30 3.77 296.41 3.77L296.73 3.77C296.95 3.77 297.02 3.75 297.02 3.56C297.02 3.32 296.98 3.26 296.79 3.26C296.65 3.26 296.11 3.30 295.69 3.30C295.27 3.30 294.48 3.26 294.25 3.26C294.07 3.26 293.97 3.28 293.97 3.51C293.97 3.75 294.08 3.77 294.25 3.77L294.95 3.77C295.02 3.77 295.04 4.30 295.04 4.87L295.04 9.14C295.04 11.19 295.04 11.12 294.70 11.34C294.31 11.61 293.50 12.08 292.32 12.08C290.35 12.08 289.55 11.17 289.55 9.41C289.55 8.82 289.62 3.77 289.73 3.77L290.64 3.77C290.86 3.77 290.91 3.75 290.91 3.56C290.91 3.32 290.89 3.26 290.70 3.26C290.37 3.26 289.49 3.30 289.07 3.30C288.65 3.30 287.97 3.26 287.74 3.26C287.56 3.26 287.49 3.28 287.49 3.51ZM305.06 3.51C305.06 3.72 305.13 3.79 305.33 3.79L306.14 3.77C306.24 3.77 306.28 6.61 306.28 8.55L306.28 10.42C306.28 11.30 306.26 12.18 306.22 12.18L305.62 12.18C305.40 12.18 305.33 12.19 305.33 12.39C305.33 12.63 305.37 12.68 305.56 12.68C305.69 12.68 306.52 12.64 306.94 12.64C307.36 12.64 308.13 12.68 308.45 12.68C308.62 12.68 308.64 12.61 308.64 12.40C308.64 12.24 308.62 12.18 308.45 12.18L307.64 12.18C307.57 12.18 307.48 9.18 307.48 8.37C307.48 8.30 307.48 8.26 307.59 8.26C307.99 8.26 308.59 8.27 308.88 8.27C311.12 8.32 311.26 10.00 311.26 11.68L311.26 12.49C311.26 12.61 311.32 12.64 311.42 12.64C311.42 12.64 312.86 12.68 313.33 12.68C313.50 12.68 313.56 12.64 313.56 12.53C313.56 12.24 313.50 12.18 313.35 12.18L312.70 12.18C312.61 12.18 312.58 12.14 312.55 11.31C312.47 8.99 311.09 8.34 310.18 8.05C310.04 8.01 310.07 8.01 310.18 7.95C310.77 7.69 312.09 6.94 312.09 5.63C312.09 3.63 310.39 3.21 308.99 3.21C308.67 3.21 307.38 3.29 306.96 3.29C306.54 3.29 305.56 3.26 305.34 3.26C305.16 3.26 305.06 3.28 305.06 3.51ZM307.48 7.80L307.48 4.40C307.48 4.05 307.51 3.68 307.55 3.68C307.76 3.65 308.04 3.65 308.27 3.65C309.57 3.65 310.81 4.47 310.81 5.82C310.81 6.99 310.27 7.57 309.61 7.88C309.57 7.90 309.53 7.90 309.46 7.90C308.98 7.88 308.27 7.88 307.66 7.87C307.50 7.87 307.48 7.85 307.48 7.80ZM331.04 5.77C331.04 9.07 336.03 8.20 336.03 10.65C336.03 11.59 335.19 12.31 334.21 12.31C333.38 12.31 331.79 11.83 331.76 11.47L331.67 10.15C331.66 9.97 331.59 9.91 331.41 9.91L331.34 9.91C331.13 9.91 331.13 10.00 331.13 10.12C331.13 10.32 331.24 11.66 331.27 12.17C331.28 12.38 332.54 12.85 334.08 12.85C335.65 12.85 337.26 11.87 337.26 10.11C337.26 6.79 332.29 7.87 332.29 5.32C332.29 4.31 333.07 3.56 334.11 3.56C335.13 3.56 336.22 4.58 336.22 4.89C336.22 5.01 336.18 5.73 336.18 5.78C336.18 5.92 336.22 5.99 336.49 5.99C336.73 5.99 336.74 5.94 336.74 5.75C336.74 5.04 336.83 3.68 336.83 3.53C336.83 3.30 336.78 3.29 336.52 3.29C336.29 3.29 336.28 3.32 336.27 3.53C336.27 3.61 336.25 3.78 336.21 3.78C336.15 3.78 336.07 3.74 336.00 3.68C335.20 3.14 334.59 3.08 334.08 3.08C332.56 3.08 331.04 4.17 331.04 5.77ZM344.82 5.01C344.82 5.17 345.00 5.17 345.13 5.17C345.28 5.17 345.32 5.15 345.34 4.97L345.45 3.89C345.46 3.81 346.01 3.75 346.77 3.75L348.75 3.75C348.81 3.75 348.84 4.35 348.84 4.97C348.84 6.43 348.78 12.18 348.66 12.18L347.79 12.18C347.56 12.18 347.52 12.19 347.52 12.39C347.52 12.63 347.54 12.68 347.73 12.68C348.05 12.68 349.03 12.64 349.45 12.64C349.87 12.64 350.81 12.68 351.13 12.68C351.30 12.68 351.33 12.61 351.33 12.40C351.33 12.24 351.30 12.18 351.13 12.18L350.14 12.18C350.11 12.18 350.11 11.76 350.11 11.31C350.11 9.56 350.20 5.96 350.20 5.92C350.21 5.18 350.21 3.75 350.31 3.75L351.92 3.75C352.63 3.75 353.46 3.78 353.46 3.85C353.46 3.99 353.42 4.90 353.42 4.97C353.42 5.12 353.49 5.17 353.67 5.17C353.86 5.17 353.93 5.17 353.93 5.03C353.93 3.93 353.99 3.40 353.99 3.14C353.99 2.94 353.91 2.94 353.71 2.94C353.56 2.94 353.50 2.98 353.49 3.16C353.49 3.23 352.84 3.28 352.00 3.28L347.00 3.28C346.35 3.28 345.53 3.28 345.53 3.21L345.53 3.07C345.53 2.94 345.41 2.94 345.31 2.94C345.09 2.94 345.06 3.00 345.04 3.19C344.99 3.89 344.82 4.97 344.82 5.01ZM361.75 3.51C361.75 3.75 361.83 3.77 362.00 3.77L362.53 3.77C362.59 3.77 362.59 4.12 362.59 4.55C362.59 5.66 362.57 8.96 362.57 9.42C362.57 11.13 362.82 12.80 365.68 12.80C366.76 12.80 367.92 12.38 368.58 12.00C368.83 11.86 369.12 11.72 369.21 11.72C369.47 11.72 369.74 12.74 370.08 12.74C370.40 12.74 370.41 12.35 370.41 12.25C370.41 11.96 370.47 10.08 370.51 8.16C370.57 6.12 370.55 3.77 370.66 3.77L370.99 3.77C371.21 3.77 371.28 3.75 371.28 3.56C371.28 3.32 371.24 3.26 371.04 3.26C370.90 3.26 370.37 3.30 369.95 3.30C369.53 3.30 368.73 3.26 368.51 3.26C368.33 3.26 368.23 3.28 368.23 3.51C368.23 3.75 368.34 3.77 368.51 3.77L369.21 3.77C369.28 3.77 369.29 4.30 369.29 4.87L369.29 9.14C369.29 11.19 369.29 11.12 368.96 11.34C368.56 11.61 367.75 12.08 366.58 12.08C364.60 12.08 363.80 11.17 363.80 9.41C363.80 8.82 363.87 3.77 363.99 3.77L364.90 3.77C365.12 3.77 365.16 3.75 365.16 3.56C365.16 3.32 365.15 3.26 364.95 3.26C364.63 3.26 363.75 3.30 363.33 3.30C362.91 3.30 362.22 3.26 362.00 3.26C361.82 3.26 361.75 3.28 361.75 3.51ZM379.32 3.49C379.32 3.72 379.43 3.74 379.60 3.74L380.21 3.74C380.27 3.74 380.34 4.79 380.34 5.71C380.34 5.80 380.39 8.27 380.39 9.83L380.39 11.17C380.39 11.84 380.38 12.18 380.32 12.18L379.74 12.18C379.51 12.18 379.44 12.19 379.44 12.39C379.44 12.63 379.46 12.68 379.65 12.68C379.86 12.68 380.70 12.64 381.12 12.64C381.54 12.64 382.48 12.68 382.80 12.68C382.97 12.68 383.00 12.61 383.00 12.40C383.00 12.24 382.97 12.18 382.80 12.18L381.67 12.18C381.61 12.18 381.63 10.16 381.58 8.33C381.58 8.08 381.57 8.09 381.77 8.09L384.19 8.09C384.89 8.09 384.92 8.19 384.92 8.30L384.92 9.16C384.92 9.28 385.10 9.28 385.21 9.28C385.31 9.28 385.43 9.28 385.43 9.17C385.43 8.99 385.41 8.33 385.41 7.83C385.41 7.32 385.43 6.82 385.43 6.69C385.43 6.58 385.32 6.58 385.20 6.58C385.03 6.58 384.92 6.58 384.92 6.71L384.92 7.45C384.92 7.62 384.47 7.63 384.19 7.63L381.77 7.63C381.56 7.63 381.58 7.66 381.58 7.45C381.57 7.13 381.56 6.15 381.56 5.26C381.56 4.52 381.57 3.71 381.64 3.71C383.04 3.71 385.22 3.75 385.52 3.79C385.52 3.96 385.48 4.82 385.48 4.89C385.48 5.04 385.55 5.10 385.73 5.10C385.92 5.10 385.99 5.08 385.99 4.94C385.99 3.85 386.05 3.36 386.05 3.09C386.05 2.93 385.97 2.90 385.77 2.90C385.64 2.90 385.57 2.90 385.55 3.11C385.53 3.25 385.60 3.25 384.65 3.25C384.05 3.25 381.77 3.29 381.02 3.29C380.53 3.29 379.60 3.25 379.50 3.25C379.37 3.25 379.32 3.30 379.32 3.49ZM394.02 3.49C394.02 3.72 394.13 3.74 394.30 3.74L394.91 3.74C394.97 3.74 395.04 4.79 395.04 5.71C395.04 5.80 395.09 8.27 395.09 9.83L395.09 11.17C395.09 11.84 395.08 12.18 395.02 12.18L394.44 12.18C394.21 12.18 394.14 12.19 394.14 12.39C394.14 12.63 394.16 12.68 394.35 12.68C394.56 12.68 395.40 12.64 395.82 12.64C396.24 12.64 397.18 12.68 397.50 12.68C397.67 12.68 397.70 12.61 397.70 12.40C397.70 12.24 397.67 12.18 397.50 12.18L396.37 12.18C396.31 12.18 396.33 10.16 396.28 8.33C396.28 8.08 396.27 8.09 396.47 8.09L398.89 8.09C399.59 8.09 399.62 8.19 399.62 8.30L399.62 9.16C399.62 9.28 399.80 9.28 399.91 9.28C400.01 9.28 400.13 9.28 400.13 9.17C400.13 8.99 400.11 8.33 400.11 7.83C400.11 7.32 400.13 6.82 400.13 6.69C400.13 6.58 400.02 6.58 399.90 6.58C399.73 6.58 399.62 6.58 399.62 6.71L399.62 7.45C399.62 7.62 399.17 7.63 398.89 7.63L396.47 7.63C396.26 7.63 396.28 7.66 396.28 7.45C396.27 7.13 396.26 6.15 396.26 5.26C396.26 4.52 396.27 3.71 396.34 3.71C397.74 3.71 399.92 3.75 400.22 3.79C400.22 3.96 400.18 4.82 400.18 4.89C400.18 5.04 400.25 5.10 400.43 5.10C400.62 5.10 400.69 5.08 400.69 4.94C400.69 3.85 400.75 3.36 400.75 3.09C400.75 2.93 400.67 2.90 400.47 2.90C400.34 2.90 400.27 2.90 400.25 3.11C400.23 3.25 400.30 3.25 399.35 3.25C398.75 3.25 396.47 3.29 395.72 3.29C395.23 3.29 394.30 3.25 394.20 3.25C394.07 3.25 394.02 3.30 394.02 3.49ZM408.44 12.07C408.44 12.31 408.88 12.75 409.30 12.75C409.49 12.75 409.93 12.35 409.93 11.90C409.93 11.51 409.36 11.20 409.09 11.20C408.83 11.20 408.44 11.76 408.44 12.07ZM418.53 12.07C418.53 12.31 418.98 12.75 419.40 12.75C419.58 12.75 420.03 12.35 420.03 11.90C420.03 11.51 419.45 11.20 419.19 11.20C418.92 11.20 418.53 11.76 418.53 12.07ZM428.62 12.07C428.62 12.31 429.07 12.75 429.49 12.75C429.67 12.75 430.12 12.35 430.12 11.90C430.12 11.51 429.55 11.20 429.28 11.20C429.02 11.20 428.62 11.76 428.62 12.07ZM438.44 12.39C438.44 12.63 438.45 12.68 438.65 12.68C438.83 12.68 439.21 12.64 439.82 12.64C440.45 12.64 441.01 12.68 441.34 12.68C441.50 12.68 441.50 12.61 441.50 12.40C441.50 12.24 441.50 12.18 441.34 12.18L440.13 12.18C440.09 12.18 440.08 11.54 440.08 10.79C440.08 9.46 440.09 7.48 440.09 5.99C440.09 5.25 440.09 4.84 440.10 4.28C440.10 4.02 440.17 4.14 440.30 4.28L447.19 12.66C447.27 12.75 447.36 12.89 447.47 12.89C447.58 12.89 447.65 12.77 447.65 12.54C447.65 12.39 447.82 6.65 447.83 4.48C447.83 4.06 447.86 3.70 447.89 3.70L448.52 3.70C448.74 3.70 448.80 3.68 448.80 3.49C448.80 3.25 448.80 3.19 448.60 3.19C448.41 3.19 447.97 3.23 447.41 3.23C446.80 3.23 446.00 3.19 445.90 3.19C445.73 3.19 445.73 3.26 445.73 3.47C445.73 3.64 445.73 3.70 445.90 3.70L447.20 3.70C447.22 3.70 447.22 4.33 447.22 4.44C447.22 5.85 447.24 8.33 447.24 9.70L447.24 10.29C447.24 10.57 447.23 10.65 447.01 10.37L441.32 3.39C441.21 3.25 441.18 3.19 441.01 3.19C440.93 3.19 440.55 3.23 440.24 3.23C439.95 3.23 438.87 3.19 438.68 3.19C438.51 3.19 438.48 3.26 438.48 3.47C438.48 3.64 438.51 3.70 438.68 3.70L439.59 3.70C439.59 4.17 439.54 8.53 439.47 10.79C439.45 11.69 439.46 12.18 439.35 12.18L438.70 12.18C438.48 12.18 438.44 12.19 438.44 12.39ZM456.90 8.15C456.90 11.17 459.24 12.80 461.50 12.80C464.28 12.80 466.26 10.89 466.26 8.06C466.26 5.33 464.51 3.11 461.71 3.11C459.10 3.11 456.90 5.10 456.90 8.15ZM458.30 7.77C458.30 5.64 459.59 3.58 461.57 3.58C463.81 3.58 464.88 5.81 464.88 7.94C464.88 10.08 463.78 12.32 461.51 12.32C459.52 12.32 458.30 10.28 458.30 7.77ZM484.16 3.51C484.16 3.75 484.25 3.79 484.41 3.79L485.27 3.77C485.32 3.77 485.38 5.52 485.38 7.11L485.38 11.63C485.38 11.93 485.37 12.18 485.34 12.18L484.61 12.18C484.39 12.18 484.32 12.19 484.32 12.39C484.32 12.63 484.34 12.68 484.54 12.68C484.67 12.68 485.62 12.64 486.04 12.64C486.22 12.64 486.74 12.67 487.38 12.67C488.94 12.67 491.34 12.43 491.34 10.23C491.34 8.27 489.52 7.94 488.84 7.84C488.75 7.83 488.74 7.83 488.74 7.81C488.74 7.80 488.78 7.78 488.85 7.76C489.50 7.52 490.94 6.90 490.94 5.54C490.94 3.81 489.47 3.25 487.79 3.25C487.21 3.25 486.61 3.29 486.07 3.29C485.65 3.29 484.64 3.26 484.41 3.26C484.23 3.26 484.16 3.28 484.16 3.51ZM486.61 8.19C486.61 8.12 486.61 8.08 486.72 8.08L487.20 8.08C487.82 8.08 488.46 8.09 488.84 8.22C489.71 8.51 490.03 9.16 490.03 10.14C490.03 11.17 489.57 12.18 487.55 12.18L486.71 12.18C486.63 12.18 486.61 9.02 486.61 8.19ZM486.61 7.59L486.61 6.92C486.61 5.87 486.63 3.71 486.67 3.68C486.72 3.65 487.03 3.63 487.24 3.63C488.66 3.63 489.68 4.41 489.68 5.77C489.68 6.92 488.95 7.46 488.32 7.66C488.24 7.69 488.14 7.70 488.05 7.70C487.97 7.70 487.83 7.69 487.59 7.69L486.79 7.69C486.61 7.69 486.61 7.67 486.61 7.59ZM499.45 3.51C499.45 3.75 499.53 3.77 499.70 3.77L500.23 3.77C500.29 3.77 500.29 4.12 500.29 4.55C500.29 5.66 500.28 8.96 500.28 9.42C500.28 11.13 500.53 12.80 503.38 12.80C504.46 12.80 505.62 12.38 506.28 12.00C506.53 11.86 506.83 11.72 506.91 11.72C507.18 11.72 507.44 12.74 507.78 12.74C508.10 12.74 508.12 12.35 508.12 12.25C508.12 11.96 508.17 10.08 508.21 8.16C508.27 6.12 508.26 3.77 508.37 3.77L508.69 3.77C508.91 3.77 508.98 3.75 508.98 3.56C508.98 3.32 508.94 3.26 508.75 3.26C508.61 3.26 508.07 3.30 507.65 3.30C507.23 3.30 506.44 3.26 506.21 3.26C506.03 3.26 505.93 3.28 505.93 3.51C505.93 3.75 506.04 3.77 506.21 3.77L506.91 3.77C506.98 3.77 507.00 4.30 507.00 4.87L507.00 9.14C507.00 11.19 507.00 11.12 506.66 11.34C506.27 11.61 505.46 12.08 504.28 12.08C502.31 12.08 501.51 11.17 501.51 9.41C501.51 8.82 501.58 3.77 501.69 3.77L502.60 3.77C502.82 3.77 502.87 3.75 502.87 3.56C502.87 3.32 502.85 3.26 502.66 3.26C502.33 3.26 501.45 3.30 501.03 3.30C500.61 3.30 499.93 3.26 499.70 3.26C499.52 3.26 499.45 3.28 499.45 3.51ZM517.02 12.39C517.02 12.63 517.05 12.68 517.24 12.68C517.57 12.68 518.53 12.64 518.95 12.64C519.37 12.64 523.73 12.68 524.05 12.68C524.31 12.68 524.38 12.66 524.40 12.49C524.45 12.08 524.69 10.72 524.69 10.60C524.69 10.47 524.54 10.44 524.37 10.43C524.27 10.42 524.19 10.46 524.17 10.56L524.01 11.76C523.96 12.05 523.95 12.03 523.73 12.04C523.57 12.05 521.07 12.12 519.64 12.12C519.60 12.12 519.55 11.38 519.55 10.54L519.55 6.66C519.55 5.40 519.57 3.70 519.67 3.70L520.65 3.70C520.88 3.70 520.91 3.63 520.91 3.44C520.91 3.23 520.90 3.19 520.66 3.19C520.34 3.19 519.40 3.23 518.98 3.23C518.56 3.23 517.62 3.19 517.40 3.19C517.17 3.19 517.12 3.22 517.12 3.44C517.12 3.65 517.16 3.70 517.36 3.70L518.18 3.70C518.22 3.70 518.25 4.23 518.25 4.90L518.25 8.13C518.25 10.07 518.22 12.18 518.14 12.18L517.30 12.18C517.08 12.18 517.02 12.21 517.02 12.39ZM532.31 12.39C532.31 12.63 532.34 12.68 532.53 12.68C532.85 12.68 533.82 12.64 534.24 12.64C534.66 12.64 539.01 12.68 539.34 12.68C539.60 12.68 539.67 12.66 539.69 12.49C539.74 12.08 539.98 10.72 539.98 10.60C539.98 10.47 539.83 10.44 539.66 10.43C539.56 10.42 539.48 10.46 539.46 10.56L539.29 11.76C539.25 12.05 539.24 12.03 539.01 12.04C538.86 12.05 536.35 12.12 534.93 12.12C534.88 12.12 534.84 11.38 534.84 10.54L534.84 6.66C534.84 5.40 534.86 3.70 534.95 3.70L535.93 3.70C536.17 3.70 536.20 3.63 536.20 3.44C536.20 3.23 536.19 3.19 535.95 3.19C535.63 3.19 534.69 3.23 534.27 3.23C533.85 3.23 532.91 3.19 532.69 3.19C532.46 3.19 532.41 3.22 532.41 3.44C532.41 3.65 532.45 3.70 532.64 3.70L533.47 3.70C533.51 3.70 533.54 4.23 533.54 4.90L533.54 8.13C533.54 10.07 533.51 12.18 533.43 12.18L532.59 12.18C532.36 12.18 532.31 12.21 532.31 12.39ZM547.81 5.77C547.81 9.07 552.79 8.20 552.79 10.65C552.79 11.59 551.95 12.31 550.97 12.31C550.14 12.31 548.55 11.83 548.52 11.47L548.44 10.15C548.42 9.97 548.35 9.91 548.17 9.91L548.10 9.91C547.89 9.91 547.89 10.00 547.89 10.12C547.89 10.32 548.00 11.66 548.03 12.17C548.04 12.38 549.30 12.85 550.84 12.85C552.41 12.85 554.02 11.87 554.02 10.11C554.02 6.79 549.05 7.87 549.05 5.32C549.05 4.31 549.84 3.56 550.87 3.56C551.89 3.56 552.99 4.58 552.99 4.89C552.99 5.01 552.94 5.73 552.94 5.78C552.94 5.92 552.99 5.99 553.25 5.99C553.49 5.99 553.50 5.94 553.50 5.75C553.50 5.04 553.59 3.68 553.59 3.53C553.59 3.30 553.55 3.29 553.28 3.29C553.06 3.29 553.04 3.32 553.03 3.53C553.03 3.61 553.01 3.78 552.97 3.78C552.92 3.78 552.83 3.74 552.76 3.68C551.96 3.14 551.35 3.08 550.84 3.08C549.32 3.08 547.81 4.17 547.81 5.77ZM561.99 12.39C561.99 12.63 561.99 12.68 562.18 12.68C562.51 12.68 563.44 12.64 563.86 12.64C564.28 12.64 565.11 12.68 565.43 12.68C565.60 12.68 565.60 12.61 565.60 12.40C565.60 12.24 565.60 12.18 565.43 12.18L564.51 12.18C564.42 12.18 564.38 9.93 564.38 8.20C564.38 8.01 564.38 8.01 564.51 8.01L569.74 8.01C569.81 8.01 569.83 8.01 569.83 8.18L569.83 9.91C569.83 11.05 569.81 12.18 569.76 12.18L568.99 12.18C568.76 12.18 568.72 12.19 568.72 12.39C568.72 12.63 568.74 12.68 568.93 12.68C569.25 12.68 570.09 12.64 570.51 12.64C570.93 12.64 571.52 12.68 571.84 12.68C572.01 12.68 572.03 12.61 572.03 12.40C572.03 12.24 572.01 12.18 571.84 12.18L571.10 12.18C571.06 12.18 571.05 9.27 571.05 7.04C571.05 5.40 571.05 3.70 571.09 3.70L571.70 3.70C571.93 3.70 571.97 3.68 571.97 3.49C571.97 3.25 571.96 3.19 571.76 3.19C571.62 3.19 570.99 3.23 570.40 3.23C569.73 3.23 569.13 3.19 568.90 3.19C568.71 3.19 568.68 3.22 568.68 3.44C568.68 3.67 568.75 3.70 568.92 3.70L569.72 3.70C569.77 3.70 569.83 4.79 569.83 5.71L569.83 7.42C569.83 7.59 569.83 7.59 569.66 7.59L564.55 7.59C564.38 7.59 564.38 7.59 564.38 7.38C564.38 6.96 564.37 6.23 564.37 5.53C564.37 4.66 564.38 3.70 564.44 3.70L565.21 3.70C565.43 3.70 565.47 3.68 565.47 3.49C565.47 3.25 565.46 3.19 565.26 3.19C564.94 3.19 564.35 3.23 563.75 3.23C563.16 3.23 562.67 3.19 562.45 3.19C562.27 3.19 562.17 3.21 562.17 3.44C562.17 3.68 562.28 3.70 562.45 3.70L563.07 3.70C563.12 3.70 563.14 5.59 563.14 7.18L563.14 8.61C563.14 10.08 563.12 12.18 563.05 12.18L562.24 12.18C562.02 12.18 561.99 12.19 561.99 12.39ZM579.92 12.39C579.92 12.63 579.96 12.68 580.16 12.68C580.48 12.68 581.24 12.64 581.95 12.64C582.61 12.64 583.41 12.68 583.63 12.68C583.80 12.68 583.83 12.61 583.83 12.40C583.83 12.24 583.80 12.18 583.63 12.18L582.67 12.18C582.57 12.18 582.54 9.55 582.54 7.76L582.54 5.87C582.54 5.14 582.57 3.70 582.67 3.70L583.58 3.70C583.80 3.70 583.83 3.68 583.83 3.49C583.83 3.25 583.80 3.19 583.63 3.19C583.31 3.19 582.64 3.23 581.98 3.23C581.17 3.23 580.45 3.19 580.23 3.19C580.05 3.19 579.98 3.21 579.98 3.44C579.98 3.68 580.06 3.70 580.23 3.70L581.15 3.70C581.20 3.70 581.27 4.79 581.27 5.71L581.27 7.08C581.27 8.92 581.25 12.18 581.14 12.18L580.22 12.18C579.99 12.18 579.92 12.19 579.92 12.39ZM591.46 5.01C591.46 5.17 591.64 5.17 591.77 5.17C591.92 5.17 591.96 5.15 591.98 4.97L592.09 3.89C592.10 3.81 592.65 3.75 593.40 3.75L595.39 3.75C595.45 3.75 595.48 4.35 595.48 4.97C595.48 6.43 595.42 12.18 595.29 12.18L594.43 12.18C594.20 12.18 594.16 12.19 594.16 12.39C594.16 12.63 594.17 12.68 594.37 12.68C594.69 12.68 595.67 12.64 596.09 12.64C596.51 12.64 597.45 12.68 597.77 12.68C597.94 12.68 597.97 12.61 597.97 12.40C597.97 12.24 597.94 12.18 597.77 12.18L596.78 12.18C596.75 12.18 596.75 11.76 596.75 11.31C596.75 9.56 596.83 5.96 596.83 5.92C596.85 5.18 596.85 3.75 596.95 3.75L598.56 3.75C599.27 3.75 600.10 3.78 600.10 3.85C600.10 3.99 600.05 4.90 600.05 4.97C600.05 5.12 600.12 5.17 600.31 5.17C600.50 5.17 600.57 5.17 600.57 5.03C600.57 3.93 600.63 3.40 600.63 3.14C600.63 2.94 600.54 2.94 600.35 2.94C600.19 2.94 600.14 2.98 600.12 3.16C600.12 3.23 599.48 3.28 598.64 3.28L593.64 3.28C592.98 3.28 592.17 3.28 592.17 3.21L592.17 3.07C592.17 2.94 592.05 2.94 591.95 2.94C591.72 2.94 591.70 3.00 591.68 3.19C591.63 3.89 591.46 4.97 591.46 5.01ZM606.98 12.07C606.98 12.31 607.43 12.75 607.85 12.75C608.03 12.75 608.48 12.35 608.48 11.90C608.48 11.51 607.91 11.20 607.64 11.20C607.38 11.20 606.98 11.76 606.98 12.07Z"></path></g></svg>