<svg data-v-423bf9ae="" xmlns="http://www.w3.org/2000/svg" viewBox="0 0 633 90" class="iconLeftSlogan"><!----><!----><!----><g data-v-423bf9ae="" id="e340055f-bd02-4a9f-a4b9-a91e80dc86af" fill="white" transform="matrix(5.474453012044838,0,0,5.474453012044838,109.17884549971666,-14.726279392488486)"><path d="M3.53 10.21C3.35 11.19 3.23 11.28 2.77 11.28C2.42 11.28 2.28 11.24 2.28 10.93C2.28 10.78 2.32 10.54 2.38 10.21L3.67 2.87L1.64 2.87L0.35 10.21C0.21 10.99 0.15 11.51 0.15 11.89C0.15 13.41 0.88 13.65 2.32 13.65C3.53 13.65 4.14 13.47 4.56 12.88C4.91 12.40 5.15 11.96 5.50 10.21L6.79 2.87L4.82 2.87ZM11.96 6.16C12.21 5.54 12.33 4.82 12.33 4.17C12.33 3.05 11.75 2.69 10.35 2.69C8.47 2.69 7.95 3.42 7.59 5.08C7.36 6.09 7.31 6.58 7.31 7.11C7.31 7.55 7.42 7.83 7.63 8.06C8.06 8.58 8.81 8.79 9.34 9.25C9.58 9.45 9.66 9.66 9.66 9.97C9.66 10.07 9.65 10.23 9.55 10.68C9.45 11.16 9.31 11.40 8.81 11.40C8.46 11.40 8.32 11.27 8.32 10.91C8.32 10.64 8.39 10.15 8.48 9.93L6.83 9.93C6.58 10.60 6.41 11.51 6.41 12.14C6.41 13.24 7.04 13.65 8.37 13.65C10.29 13.65 11.00 12.88 11.45 10.36C11.56 9.76 11.61 9.30 11.61 8.95C11.61 8.26 11.41 8.01 11.07 7.73C10.65 7.38 10.18 7.24 9.51 6.75C9.30 6.59 9.21 6.43 9.21 6.09C9.21 5.98 9.23 5.77 9.30 5.49C9.41 5.05 9.49 4.83 9.97 4.83C10.32 4.83 10.46 4.94 10.46 5.25C10.46 5.36 10.43 5.52 10.32 6.16ZM16.42 13.47L16.83 11.12L14.60 11.12L14.95 9.11L17.15 9.11L17.53 6.97L15.33 6.97L15.67 5.11L17.91 5.11L18.30 2.87L14.08 2.87L12.22 13.47ZM28.13 13.47L29.97 2.87L27.13 2.87L25.34 7.48L25.26 7.48L25.19 2.87L22.44 2.87L20.58 13.47L22.39 13.47L23.51 7.11L23.58 7.11L23.91 13.47L24.79 13.47L27.36 7.11L27.43 7.11L26.31 13.47ZM33.05 13.47L33.71 9.67L36.57 2.94L36.58 2.87L34.61 2.87L33.28 6.30L33.15 6.30L33.10 2.87L31.05 2.87L31.04 2.94L31.63 9.45L30.93 13.47ZM41.79 13.47L43.26 5.11L44.76 5.11L45.15 2.87L40.18 2.87L39.79 5.11L41.29 5.11L39.82 13.47ZM48.71 13.47L49.11 11.12L46.89 11.12L47.24 9.11L49.43 9.11L49.81 6.97L47.61 6.97L47.95 5.11L50.19 5.11L50.58 2.87L46.37 2.87L44.51 13.47ZM53.93 9.41C53.77 10.28 53.69 10.65 53.49 11.05C53.41 11.21 53.26 11.28 52.99 11.28C52.51 11.28 52.47 11.16 52.47 10.82C52.47 10.50 52.56 9.91 53.00 7.46C53.30 5.75 53.38 5.40 53.54 5.12C53.61 4.94 53.75 4.86 54.07 4.86C54.39 4.86 54.54 4.94 54.56 5.12C54.56 5.32 54.54 5.63 54.35 6.75L56.20 6.75C56.39 5.89 56.56 5.11 56.56 4.34C56.56 3.16 56.04 2.69 54.45 2.69C53.24 2.69 52.63 2.90 52.19 3.53C51.74 4.17 51.49 4.80 51.02 7.46C50.55 10.09 50.41 11.19 50.41 11.98C50.41 13.33 51.09 13.65 52.57 13.65C54.32 13.65 54.98 12.95 55.38 11.44C55.58 10.67 55.68 10.04 55.75 9.41ZM61.71 13.47L63.57 2.87L61.54 2.87L60.82 6.97L59.58 6.97L60.31 2.87L58.28 2.87L56.42 13.47L58.45 13.47L59.21 9.11L60.44 9.11L59.68 13.47ZM71.57 6.16C71.82 5.54 71.95 4.82 71.95 4.17C71.95 3.05 71.36 2.69 69.96 2.69C68.08 2.69 67.56 3.42 67.20 5.08C66.98 6.09 66.92 6.58 66.92 7.11C66.92 7.55 67.03 7.83 67.24 8.06C67.68 8.58 68.42 8.79 68.95 9.25C69.19 9.45 69.27 9.66 69.27 9.97C69.27 10.07 69.26 10.23 69.16 10.68C69.06 11.16 68.92 11.40 68.42 11.40C68.07 11.40 67.93 11.27 67.93 10.91C67.93 10.64 68.00 10.15 68.10 9.93L66.44 9.93C66.19 10.60 66.02 11.51 66.02 12.14C66.02 13.24 66.65 13.65 67.98 13.65C69.90 13.65 70.62 12.88 71.06 10.36C71.18 9.76 71.22 9.30 71.22 8.95C71.22 8.26 71.02 8.01 70.69 7.73C70.27 7.38 69.79 7.24 69.12 6.75C68.91 6.59 68.82 6.43 68.82 6.09C68.82 5.98 68.84 5.77 68.91 5.49C69.02 5.05 69.10 4.83 69.58 4.83C69.93 4.83 70.07 4.94 70.07 5.25C70.07 5.36 70.04 5.52 69.93 6.16ZM74.91 13.47L76.38 5.11L77.88 5.11L78.27 2.87L73.30 2.87L72.91 5.11L74.41 5.11L72.94 13.47ZM81.28 10.21C81.10 11.19 80.99 11.28 80.53 11.28C80.18 11.28 80.04 11.24 80.04 10.93C80.04 10.78 80.08 10.54 80.14 10.21L81.42 2.87L79.39 2.87L78.11 10.21C77.97 10.99 77.91 11.51 77.91 11.89C77.91 13.41 78.64 13.65 80.08 13.65C81.28 13.65 81.90 13.47 82.32 12.88C82.67 12.40 82.91 11.96 83.26 10.21L84.55 2.87L82.57 2.87ZM86.04 13.47L86.76 9.38L88.90 9.38L89.28 7.22L87.14 7.22L87.51 5.11L89.70 5.11L90.09 2.87L85.93 2.87L84.07 13.47ZM91.48 13.47L92.19 9.38L94.33 9.38L94.71 7.22L92.57 7.22L92.95 5.11L95.13 5.11L95.52 2.87L91.36 2.87L89.50 13.47Z"></path></g><!----><g data-v-423bf9ae="" id="c468bd96-5046-4784-b44b-d059c9791343" transform="matrix(1,0,0,1,-5,-5)" stroke="none" fill="white"><path d="M86 5H14a9 9 0 0 0-9 9v72a9 9 0 0 0 9 9h72a9 9 0 0 0 9-9V14a9 9 0 0 0-9-9zm-26.809 7.683c0-.651.526-1.18 1.18-1.18h.65c.649 0 1.18.528 1.18 1.18v2.659a1.18 1.18 0 0 1-1.18 1.179h-.65c-.652 0-1.18-.526-1.18-1.179v-2.659zm-4.91 0c0-.651.525-1.18 1.178-1.18h.65c.652 0 1.182.528 1.182 1.18v2.659a1.18 1.18 0 0 1-1.182 1.179h-.65a1.176 1.176 0 0 1-1.178-1.179v-2.659zm-4.911 0c0-.651.527-1.18 1.18-1.18h.651c.65 0 1.18.528 1.18 1.18v2.659a1.18 1.18 0 0 1-1.18 1.179h-.651c-.652 0-1.18-.526-1.18-1.179v-2.659zm-4.909 0c0-.651.526-1.18 1.179-1.18h.651c.651 0 1.18.528 1.18 1.18v2.659c0 .652-.528 1.179-1.18 1.179h-.651a1.177 1.177 0 0 1-1.179-1.179v-2.659zm-4.911 0c0-.651.528-1.18 1.18-1.18h.651c.651 0 1.18.528 1.18 1.18v2.659c0 .652-.528 1.179-1.18 1.179h-.651c-.651 0-1.18-.526-1.18-1.179v-2.659zm-4.911 0c0-.651.528-1.18 1.18-1.18h.65c.652 0 1.18.528 1.18 1.18v2.659c0 .652-.527 1.179-1.18 1.179h-.65c-.651 0-1.18-.526-1.18-1.179v-2.659zm-4.91 0c0-.651.528-1.18 1.18-1.18h.65c.652 0 1.18.528 1.18 1.18v2.659c0 .652-.527 1.179-1.18 1.179h-.65c-.651 0-1.18-.526-1.18-1.179v-2.659zm-15.716-2.344a3.472 3.472 0 0 1 3.467 3.467 3.47 3.47 0 0 1-3.467 3.465 3.47 3.47 0 0 1-3.465-3.465 3.47 3.47 0 0 1 3.465-3.467zm0 79.321a3.47 3.47 0 0 1-3.465-3.465 3.47 3.47 0 0 1 3.465-3.467 3.471 3.471 0 0 1 3.467 3.467 3.47 3.47 0 0 1-3.467 3.465zm.659-32.373V25.411l2.811-2.813h6.649c.112-.259.317-.459.564-.593v-2.151c0-1.137.888-2.061 2.005-2.14v-.016h38.322v-1.229c-.523-.12-.922-.566-.922-1.127v-2.659c0-.651.526-1.18 1.18-1.18h.648c.651 0 1.182.528 1.182 1.18v2.659c0 .561-.399 1.007-.924 1.127v1.229h2.758l1.037.572 1.04-.004c.21-.395.612-.673 1.091-.673a1.252 1.252 0 0 1 0 2.502c-.475 0-.873-.274-1.085-.665l-1.343.005-1.039-.573H28.605v.001h-1.754a.991.991 0 0 0-.991.991v2.15c.393.211.669.611.669 1.088 0 .69-.56 1.25-1.25 1.25-.438 0-.804-.239-1.028-.58h-3.322v2.578c.393.211.669.611.669 1.088a1.25 1.25 0 0 1-2.5 0c0-.476.276-.875.667-1.087v-2.579h-1.799l-2.13 2.13v30.915l4.649 4.648h7.029l2.256-2.256V41.871a1.546 1.546 0 1 1 1.164-.001v17.812l-1.301 1.301 16.526 16.525h6.405l3.777 3.775a1.547 1.547 0 1 1-.831 2.006h-9.918a1.544 1.544 0 1 1-2.946-.866L28.753 68.529h-3.168c-.12.523-.567.924-1.128.924h-2.658a1.181 1.181 0 0 1-1.181-1.18v-.652c0-.652.528-1.178 1.181-1.178l2.658-.002c.561 0 1.009.398 1.128.924h3.649l14.064 14.062a1.542 1.542 0 0 1 2.294.699h9.92l.007-.021-3.437-3.435h-6.405L28.81 61.805l-.814.814h-7.991l-5.333-5.332zm27.669-25.576l2.298-2.299a1.146 1.146 0 0 1-.178-.586v-2.658c0-.651.526-1.179 1.179-1.179h.651c.651 0 1.18.527 1.18 1.179v2.658a1.18 1.18 0 0 1-1.18 1.18h-.6l-2.87 2.869H23.943l-2.49 2.49c.086.169.146.354.146.557a1.25 1.25 0 1 1-1.25-1.25c.045 0 .083.021.126.025l2.987-2.986h18.879zm-7.702-2.885v-2.658a1.18 1.18 0 0 1 1.18-1.179h.65c.652 0 1.18.527 1.18 1.179v2.658c0 .652-.527 1.18-1.18 1.18h-.65a1.18 1.18 0 0 1-1.18-1.18zm24.552-1.91v-.748c0-.651.526-1.179 1.18-1.179h.65c.649 0 1.18.527 1.18 1.179v2.658a1.18 1.18 0 0 1-1.18 1.18h-.65c-.652 0-1.18-.527-1.18-1.18v-.746h-1.9v.746a1.18 1.18 0 0 1-1.182 1.18h-.65a1.177 1.177 0 0 1-1.178-1.18v-2.658c0-.153.034-.298.087-.433l-1.593-1.592h-8.601l-1.683 1.683c.034.11.069.221.069.342v2.658a1.18 1.18 0 0 1-1.18 1.18h-.65a1.18 1.18 0 0 1-1.18-1.18v-2.658a1.18 1.18 0 0 1 1.18-1.179h.651c.089 0 .167.032.25.05l2.061-2.061h9.564L55.3 25.02c.055-.008.103-.032.159-.032h.65a1.18 1.18 0 0 1 1.182 1.179v.748h1.9zm4.911 1.91v-2.658c0-.651.526-1.179 1.18-1.179h.648c.651 0 1.182.527 1.182 1.179v2.658a1.18 1.18 0 0 1-1.182 1.18h-.648c-.073 0-.137-.029-.206-.042l-5.032 5.032H26.809l-.403.403c.074.16.123.334.123.523a1.25 1.25 0 1 1-1.25-1.25c.062 0 .115.026.174.035l.875-.875h33.233l4.619-4.618a1.166 1.166 0 0 1-.078-.388zm.406 16.243a1.547 1.547 0 1 1 0-3.094 1.547 1.547 0 0 1 0 3.094zm1.547 7.968a1.547 1.547 0 1 1-3.094 0 1.547 1.547 0 0 1 3.094 0zm-6.289-10.196v.65c0 .651-.527 1.179-1.18 1.179l-2.658.001c-.652 0-1.18-.527-1.18-1.18v-.65a1.18 1.18 0 0 1 1.18-1.181h2.658c.652 0 1.18.529 1.18 1.181zm-7.389-2.401a1.544 1.544 0 1 1-3.09 0 1.545 1.545 0 1 1 3.09 0zM41.654 52.662c0-.65.527-1.18 1.18-1.18h2.656a1.18 1.18 0 0 1 1.181 1.18l.001.65a1.18 1.18 0 0 1-1.18 1.18h-2.658c-.652 0-1.18-.527-1.18-1.18v-.65zm-.002-9.171v-.65c0-.651.528-1.181 1.181-1.181h2.657c.652 0 1.18.529 1.18 1.181v.65c0 .651-.527 1.179-1.18 1.179l-2.657.001a1.18 1.18 0 0 1-1.181-1.18zm-16.017 0c0 .651-.527 1.179-1.18 1.179l-2.657.001a1.18 1.18 0 0 1-1.182-1.18v-.65c0-.651.529-1.181 1.182-1.181h2.657c.652 0 1.18.529 1.18 1.181v.65zm.001 4.259v.651c0 .652-.527 1.18-1.18 1.18h-2.658a1.18 1.18 0 0 1-1.181-1.18v-.65c0-.651.528-1.18 1.181-1.18h2.658c.652 0 1.18.528 1.18 1.179zm-3.838 3.732h2.658c.652 0 1.18.528 1.18 1.18l.001.65a1.18 1.18 0 0 1-1.18 1.18h-2.658c-.652 0-1.18-.527-1.18-1.18l-.002-.65c0-.65.529-1.18 1.181-1.18zM49.37 28.826v-2.658c0-.651.527-1.179 1.18-1.179h.651c.65 0 1.18.527 1.18 1.179v2.658a1.18 1.18 0 0 1-1.18 1.18h-.651c-.652 0-1.18-.527-1.18-1.18zm7.571 60.263c-.647 0-1.2-.399-1.43-.964h-9.92a1.545 1.545 0 0 1-2.86 0h-2.354L26.481 74.227h-.896c-.121.524-.567.924-1.128.924h-2.658a1.18 1.18 0 0 1-1.18-1.182l-.002-.648c0-.651.529-1.182 1.181-1.182h2.658c.561 0 1.008.399 1.128.924h1.378L40.86 86.961h1.873a1.544 1.544 0 0 1 2.86 0h9.92a1.544 1.544 0 0 1 2.862 0h8.156l8.791-8.793-18.652-18.65v-5.025h-.74c-.652 0-1.18-.527-1.18-1.18v-.65c0-.65.527-1.18 1.178-1.18h2.658c.652 0 1.18.528 1.18 1.18l.002.65a1.183 1.183 0 0 1-1.182 1.18h-.754v4.543l18.311 18.311 8.021-8.021V28.792l-4.648-4.649h-6.312a1.239 1.239 0 0 1-1.09.669c-.477 0-.877-.276-1.088-.669H66.87l-1.924-1.923H33.399l-1.583 1.581v1.24c.524.12.923.566.923 1.127v2.658c0 .652-.527 1.18-1.18 1.18h-.65a1.18 1.18 0 0 1-1.18-1.18v-2.658c0-.56.399-1.007.924-1.127v-1.722l2.265-2.263h32.51l1.924 1.923h3.674a1.236 1.236 0 0 1 1.088-.669c.478 0 .878.276 1.09.669h6.793l5.332 5.331v41.497L67.012 88.125h-8.639c-.23.564-.783.964-1.432.964zm15.172-28.083a1.547 1.547 0 1 1-.001 3.095 1.547 1.547 0 0 1 .001-3.095zm-1.547-26.998a1.547 1.547 0 1 1 3.094 0 1.547 1.547 0 0 1-3.094 0zm6.724 26.999a1.546 1.546 0 1 1 0 3.092 1.546 1.546 0 0 1 0-3.092zm-1.546-26.999a1.545 1.545 0 1 1 3.092 0 1.545 1.545 0 1 1-3.092 0zm4.888 7.968a1.546 1.546 0 1 1 0 3.092 1.546 1.546 0 0 1 0-3.092zm-.681-3.524v-8.888a.583.583 0 0 1 1.164 0v8.888a.581.581 0 0 1-1.164 0zm.681 13.039a1.546 1.546 0 1 1 0 3.092 1.546 1.546 0 0 1 0-3.092zm.483 6.616v8.889a.581.581 0 1 1-1.164 0v-8.889a.582.582 0 0 1 1.164 0zm4.871 31.553a3.471 3.471 0 0 1-3.467-3.465c0-1.912 1.557-3.467 3.467-3.467s3.465 1.555 3.465 3.467a3.47 3.47 0 0 1-3.465 3.465zm0-71.889a3.47 3.47 0 0 1-3.467-3.465c0-1.911 1.557-3.467 3.467-3.467s3.465 1.556 3.465 3.467a3.47 3.47 0 0 1-3.465 3.465z"></path></g><!----><g data-v-423bf9ae="" id="2d30cb04-b495-47c6-a486-8fe336c50278" fill="white" transform="matrix(0.6644588957119503,0,0,0.6644588957119503,109.65448127849717,57.481702364778016)"><path d="M6.34 9.32L6.34 9.72C6.34 9.76 6.37 9.80 6.40 9.83C6.43 9.86 6.47 9.87 6.52 9.87L8.43 9.87L8.43 12.54C8.20 12.67 7.98 12.78 7.77 12.88C7.56 12.98 7.32 13.08 7.08 13.15C6.85 13.22 6.58 13.27 6.30 13.30C6.02 13.33 5.71 13.34 5.38 13.34C4.76 13.34 4.20 13.24 3.70 13.03C3.19 12.82 2.76 12.53 2.39 12.15C2.03 11.77 1.75 11.30 1.55 10.74C1.36 10.18 1.25 9.56 1.25 8.86C1.25 8.18 1.36 7.56 1.55 7.01C1.75 6.47 2.03 5.99 2.39 5.61C2.76 5.24 3.21 4.94 3.72 4.73C4.24 4.52 4.82 4.42 5.46 4.42C6.64 4.42 7.57 4.58 8.26 4.90C8.30 5.81 8.33 6.31 8.33 6.41C8.34 6.64 8.44 6.75 8.64 6.75L8.97 6.75L8.97 4.51C8.54 4.31 7.98 4.14 7.28 4.00C6.58 3.86 5.99 3.81 5.49 3.81C4.73 3.81 4.05 3.92 3.43 4.16C2.81 4.40 2.30 4.75 1.86 5.18C1.43 5.61 1.11 6.15 0.87 6.78C0.63 7.39 0.52 8.09 0.52 8.86C0.52 9.63 0.63 10.32 0.87 10.95C1.11 11.58 1.43 12.10 1.85 12.54C2.27 12.99 2.79 13.33 3.37 13.57C3.96 13.80 4.61 13.93 5.32 13.93C5.74 13.93 6.12 13.90 6.47 13.86C6.82 13.80 7.14 13.73 7.45 13.65C7.76 13.55 8.04 13.44 8.30 13.30C8.57 13.16 8.82 13.01 9.07 12.84L9.07 9.32ZM20.29 4.44C20.47 4.42 20.55 4.34 20.55 4.19L20.55 3.91L19.38 3.91L18.66 3.91L17.47 3.91L17.47 4.19C17.47 4.34 17.57 4.42 17.75 4.44L17.89 4.44C17.96 4.44 18.06 4.45 18.20 4.45C18.34 4.45 18.49 4.47 18.66 4.47L18.66 13.26C18.49 13.26 18.34 13.27 18.20 13.27C18.06 13.27 17.96 13.29 17.89 13.29L17.75 13.29C17.57 13.30 17.47 13.38 17.47 13.54L17.47 13.82L18.66 13.82L19.38 13.82L20.55 13.82L20.55 13.54C20.55 13.38 20.47 13.30 20.29 13.29L20.15 13.29C20.08 13.29 19.98 13.27 19.84 13.27C19.70 13.27 19.54 13.26 19.38 13.26L19.38 4.47C19.54 4.47 19.70 4.45 19.84 4.45C19.98 4.45 20.08 4.44 20.15 4.44ZM37.94 3.92L37.38 3.92L37.35 3.92L35.88 3.92L35.88 4.19C35.88 4.34 35.97 4.42 36.15 4.44L36.27 4.44C36.33 4.44 36.41 4.45 36.54 4.45C36.67 4.45 36.81 4.47 36.96 4.47L33.75 12.32C33.67 12.53 33.60 12.75 33.54 13.01C33.49 12.77 33.42 12.53 33.33 12.32L30.10 4.47C30.25 4.47 30.41 4.45 30.53 4.45C30.66 4.45 30.74 4.44 30.80 4.44L30.91 4.44C31.09 4.42 31.19 4.34 31.19 4.19L31.19 3.92L29.69 3.92L29.13 3.92L28.53 3.92L28.53 4.19C28.53 4.34 28.63 4.42 28.81 4.44L28.91 4.44C28.95 4.44 29.02 4.45 29.09 4.45C29.16 4.45 29.26 4.47 29.36 4.47L33.22 13.82L33.85 13.82L37.72 4.47C37.81 4.47 37.91 4.45 37.98 4.45C38.05 4.45 38.12 4.44 38.16 4.44L38.25 4.44C38.43 4.42 38.53 4.34 38.53 4.19L38.53 3.92ZM47.77 3.92L46.58 3.92L46.58 4.19C46.58 4.34 46.68 4.42 46.86 4.44L47.00 4.44C47.07 4.44 47.17 4.45 47.31 4.45C47.45 4.45 47.60 4.47 47.77 4.47L47.77 13.26C47.60 13.26 47.45 13.27 47.31 13.27C47.17 13.27 47.07 13.29 47.00 13.29L46.86 13.29C46.68 13.30 46.59 13.38 46.59 13.54L46.59 13.82L47.77 13.82L53.70 13.82L53.70 13.22L53.70 11.76L53.35 11.76C53.16 11.76 53.07 11.89 53.06 12.11C53.06 12.14 53.05 12.19 53.05 12.29C53.05 12.39 53.05 12.53 53.03 12.74C53.02 12.95 53.00 13.09 53.00 13.22L48.48 13.22L48.48 9.09L52.43 9.09L52.43 8.51L48.48 8.51L48.48 4.51L53.00 4.51C53.03 5.12 53.06 5.50 53.06 5.63C53.07 5.85 53.16 5.96 53.35 5.96L53.70 5.96L53.70 4.51L53.70 3.92ZM80.98 3.92L80.26 3.92L78.90 3.92L78.90 4.19C78.90 4.34 79.00 4.42 79.18 4.44L79.35 4.44C79.45 4.44 79.59 4.45 79.76 4.45C79.93 4.45 80.09 4.47 80.26 4.47L80.26 10.04C80.26 10.50 80.19 10.92 80.05 11.33C79.91 11.73 79.72 12.08 79.45 12.38C79.18 12.67 78.88 12.89 78.50 13.06C78.12 13.23 77.70 13.31 77.22 13.31C76.75 13.31 76.31 13.23 75.94 13.06C75.56 12.89 75.24 12.66 74.98 12.36C74.72 12.07 74.54 11.72 74.40 11.33C74.26 10.93 74.19 10.50 74.19 10.04L74.19 4.47C74.35 4.47 74.52 4.45 74.69 4.45C74.86 4.45 75.00 4.44 75.10 4.44L75.26 4.44C75.45 4.42 75.54 4.34 75.54 4.19L75.54 3.92L74.19 3.92L73.47 3.92L72.30 3.92L72.30 4.19C72.30 4.34 72.38 4.42 72.56 4.44L72.70 4.44C72.77 4.44 72.87 4.45 73.01 4.45C73.15 4.45 73.30 4.47 73.47 4.47L73.47 10.04C73.47 10.58 73.56 11.09 73.72 11.56C73.89 12.04 74.14 12.46 74.47 12.81C74.79 13.16 75.19 13.44 75.66 13.64C76.12 13.83 76.65 13.93 77.22 13.93C77.80 13.93 78.32 13.83 78.78 13.64C79.24 13.44 79.65 13.16 79.97 12.81C80.29 12.46 80.54 12.04 80.71 11.56C80.88 11.09 80.98 10.58 80.98 10.04L80.98 4.47C81.14 4.47 81.28 4.45 81.42 4.45C81.56 4.45 81.68 4.44 81.75 4.44L81.87 4.44C82.05 4.42 82.15 4.34 82.15 4.19L82.15 3.92ZM95.90 9.91C95.76 9.65 95.56 9.39 95.33 9.21C95.09 9.03 94.84 8.88 94.54 8.75C94.25 8.62 93.93 8.51 93.62 8.41C93.31 8.32 93.00 8.20 92.71 8.11C92.41 7.99 92.15 7.87 91.91 7.71C91.67 7.56 91.49 7.38 91.35 7.15C91.21 6.93 91.13 6.65 91.13 6.31C91.13 6.06 91.18 5.82 91.28 5.59C91.38 5.35 91.52 5.15 91.70 4.97C91.88 4.79 92.11 4.65 92.39 4.55C92.67 4.45 92.97 4.40 93.34 4.40C94.01 4.40 94.63 4.51 95.19 4.75C95.23 5.54 95.26 5.99 95.26 6.06C95.27 6.29 95.35 6.41 95.55 6.41L95.89 6.41L95.89 4.38C95.00 4.00 94.16 3.81 93.34 3.81C92.88 3.81 92.47 3.88 92.11 4.02C91.74 4.16 91.45 4.34 91.21 4.58C90.97 4.82 90.78 5.08 90.65 5.39C90.52 5.70 90.47 6.02 90.47 6.36C90.47 6.78 90.54 7.14 90.68 7.42C90.82 7.70 91.01 7.92 91.25 8.12C91.49 8.32 91.74 8.46 92.04 8.58C92.33 8.71 92.65 8.82 92.96 8.92C93.27 9.02 93.56 9.11 93.87 9.21C94.16 9.31 94.43 9.45 94.67 9.60C94.91 9.76 95.09 9.94 95.23 10.16C95.37 10.39 95.44 10.68 95.44 11.03C95.44 11.35 95.38 11.66 95.27 11.94C95.16 12.22 95.00 12.46 94.79 12.67C94.58 12.88 94.32 13.05 94.01 13.16C93.70 13.29 93.35 13.33 92.96 13.33C92.18 13.33 91.52 13.20 90.99 12.95C90.97 12.75 90.97 12.54 90.96 12.32C90.94 12.10 90.94 11.91 90.93 11.76C90.92 11.61 90.92 11.52 90.92 11.51C90.90 11.28 90.80 11.17 90.61 11.17L90.27 11.17L90.27 13.02L90.27 13.20L90.27 13.38C91.13 13.75 92.01 13.93 92.93 13.93C93.44 13.93 93.88 13.85 94.28 13.69C94.67 13.54 95.00 13.31 95.27 13.05C95.54 12.78 95.76 12.46 95.90 12.10C96.04 11.73 96.11 11.34 96.11 10.92C96.11 10.51 96.04 10.18 95.90 9.91ZM126.62 4.44C126.80 4.42 126.90 4.34 126.90 4.19L126.90 3.92L125.72 3.92L125.22 3.92C125.15 3.92 125.10 3.92 125.06 3.93C125.02 3.95 124.99 3.99 124.95 4.05L121.06 10.92C121.02 10.99 120.99 11.06 120.96 11.13C120.93 11.20 120.90 11.28 120.88 11.35C120.82 11.20 120.76 11.06 120.69 10.93L116.69 4.05C116.65 3.99 116.62 3.95 116.58 3.93C116.54 3.92 116.49 3.92 116.42 3.92L115.93 3.92L114.74 3.92L114.74 4.19C114.74 4.34 114.84 4.42 115.02 4.44L115.16 4.44C115.23 4.44 115.33 4.45 115.47 4.45C115.61 4.45 115.77 4.47 115.93 4.47L115.93 13.26C115.77 13.26 115.61 13.27 115.47 13.27C115.33 13.27 115.23 13.29 115.16 13.29L115.02 13.29C114.84 13.30 114.74 13.38 114.74 13.54L114.74 13.82L115.93 13.82L116.55 13.82L117.77 13.82L117.77 13.54C117.77 13.38 117.67 13.30 117.49 13.29L117.35 13.29C117.28 13.29 117.17 13.27 117.03 13.27C116.89 13.27 116.72 13.26 116.55 13.26L116.55 5.38C116.55 5.25 116.55 5.12 116.54 4.98L120.54 11.91C120.61 12.04 120.71 12.10 120.82 12.10L120.93 12.10C121.06 12.10 121.14 12.04 121.21 11.91L125.10 4.98C125.09 5.12 125.09 5.25 125.09 5.38L125.09 13.26C124.92 13.26 124.75 13.27 124.61 13.27C124.47 13.27 124.36 13.29 124.29 13.29L124.15 13.29C123.97 13.30 123.87 13.38 123.87 13.54L123.87 13.82L125.09 13.82L125.72 13.82L126.90 13.82L126.90 13.54C126.90 13.38 126.80 13.30 126.62 13.29L126.49 13.29C126.42 13.29 126.31 13.27 126.17 13.27C126.03 13.27 125.89 13.26 125.72 13.26L125.72 4.47C125.89 4.47 126.03 4.45 126.17 4.45C126.31 4.45 126.42 4.44 126.49 4.44ZM144.51 8.86C144.51 8.11 144.38 7.41 144.16 6.79C143.93 6.17 143.61 5.64 143.19 5.19C142.77 4.75 142.28 4.40 141.71 4.16C141.13 3.92 140.48 3.79 139.78 3.79C139.08 3.79 138.45 3.92 137.87 4.16C137.30 4.40 136.79 4.75 136.37 5.19C135.95 5.64 135.63 6.17 135.41 6.79C135.18 7.41 135.06 8.11 135.06 8.86C135.06 9.63 135.18 10.33 135.41 10.95C135.63 11.56 135.95 12.10 136.37 12.54C136.79 12.99 137.30 13.33 137.87 13.57C138.45 13.80 139.08 13.93 139.78 13.93C140.48 13.93 141.13 13.80 141.71 13.57C142.28 13.33 142.77 12.99 143.19 12.54C143.61 12.10 143.93 11.56 144.16 10.95C144.38 10.33 144.51 9.63 144.51 8.86ZM143.75 8.86C143.75 9.56 143.67 10.18 143.47 10.72C143.28 11.27 143.01 11.75 142.66 12.12C142.31 12.50 141.89 12.81 141.40 13.01C140.91 13.20 140.38 13.30 139.78 13.30C139.19 13.30 138.66 13.20 138.17 13.01C137.68 12.81 137.26 12.50 136.91 12.12C136.56 11.75 136.28 11.27 136.08 10.72C135.88 10.18 135.80 9.56 135.80 8.86C135.80 8.18 135.88 7.55 136.08 7.00C136.28 6.45 136.56 5.98 136.91 5.60C137.26 5.22 137.68 4.91 138.17 4.72C138.66 4.52 139.19 4.41 139.78 4.41C140.38 4.41 140.91 4.52 141.40 4.72C141.89 4.91 142.31 5.22 142.66 5.60C143.01 5.98 143.28 6.45 143.47 7.00C143.67 7.55 143.75 8.18 143.75 8.86ZM161.34 3.92L160.71 3.92L159.49 3.92L159.49 4.19C159.49 4.34 159.59 4.42 159.77 4.44L159.91 4.44C159.98 4.44 160.09 4.45 160.23 4.45C160.37 4.45 160.54 4.47 160.71 4.47L160.71 12.22C160.71 12.35 160.71 12.49 160.72 12.63L154.31 4.05C154.27 3.99 154.24 3.95 154.20 3.93C154.15 3.92 154.11 3.91 154.04 3.91L153.69 3.91L152.50 3.91L152.50 4.19C152.50 4.34 152.60 4.42 152.78 4.44L152.92 4.44C152.99 4.44 153.09 4.45 153.23 4.45C153.37 4.45 153.52 4.47 153.69 4.47L153.69 13.26C153.52 13.26 153.37 13.27 153.23 13.27C153.09 13.27 152.99 13.29 152.92 13.29L152.78 13.29C152.60 13.30 152.50 13.38 152.50 13.54L152.50 13.82L153.69 13.82L154.31 13.82L155.53 13.82L155.53 13.54C155.53 13.38 155.43 13.30 155.25 13.29L155.11 13.29C155.04 13.29 154.91 13.27 154.77 13.27C154.63 13.27 154.48 13.26 154.31 13.26L154.31 5.49C154.31 5.36 154.31 5.22 154.29 5.08L160.73 13.68C160.80 13.78 160.87 13.82 160.99 13.82L161.34 13.82L161.34 4.47C161.50 4.47 161.64 4.45 161.78 4.45C161.92 4.45 162.04 4.44 162.11 4.44L162.23 4.44C162.41 4.42 162.51 4.34 162.51 4.19L162.51 3.92ZM171.74 3.92L170.55 3.92L170.55 4.19C170.55 4.34 170.65 4.42 170.83 4.44L170.97 4.44C171.04 4.44 171.14 4.45 171.28 4.45C171.42 4.45 171.57 4.47 171.74 4.47L171.74 13.26C171.57 13.26 171.42 13.27 171.28 13.27C171.14 13.27 171.04 13.29 170.97 13.29L170.83 13.29C170.65 13.30 170.56 13.38 170.56 13.54L170.56 13.82L171.74 13.82L177.67 13.82L177.67 13.22L177.67 11.76L177.32 11.76C177.13 11.76 177.04 11.89 177.03 12.11C177.03 12.14 177.02 12.19 177.02 12.29C177.02 12.39 177.02 12.53 177.00 12.74C176.99 12.95 176.97 13.09 176.97 13.22L172.45 13.22L172.45 9.09L176.40 9.09L176.40 8.51L172.45 8.51L172.45 4.51L176.97 4.51C177.00 5.12 177.03 5.50 177.03 5.63C177.04 5.85 177.13 5.96 177.32 5.96L177.67 5.96L177.67 4.51L177.67 3.92ZM194.39 3.92L194.32 3.92L193.76 3.92L193.65 3.92L192.25 3.92L192.25 4.19C192.25 4.34 192.35 4.42 192.53 4.44L192.64 4.44C192.70 4.44 192.77 4.45 192.88 4.45C192.99 4.45 193.12 4.47 193.26 4.47L190.67 8.64C190.60 8.75 190.54 8.85 190.50 8.95C190.46 9.04 190.41 9.16 190.37 9.25C190.33 9.16 190.29 9.04 190.25 8.95C190.20 8.85 190.15 8.75 190.08 8.64L187.47 4.47C187.61 4.47 187.74 4.45 187.85 4.45C187.96 4.45 188.05 4.44 188.10 4.44L188.20 4.44C188.38 4.42 188.48 4.34 188.48 4.19L188.48 3.92L187.08 3.92L186.97 3.92L186.41 3.92L186.34 3.92L185.89 3.92L185.89 4.19C185.89 4.34 185.99 4.42 186.17 4.44C186.41 4.45 186.59 4.47 186.69 4.47L190.01 9.73L190.01 13.26C189.84 13.26 189.69 13.27 189.55 13.27C189.41 13.27 189.31 13.29 189.24 13.29L189.11 13.29C188.93 13.30 188.83 13.38 188.83 13.54L188.83 13.82L190.01 13.82L190.72 13.82L191.90 13.82L191.90 13.54C191.90 13.38 191.81 13.30 191.63 13.29L191.49 13.29C191.42 13.29 191.32 13.27 191.18 13.27C191.04 13.27 190.89 13.26 190.72 13.26L190.72 9.73L194.04 4.47C194.15 4.47 194.32 4.45 194.56 4.44C194.74 4.42 194.84 4.34 194.84 4.19L194.84 3.92ZM202.20 13.29C202.20 13.47 202.26 13.61 202.38 13.73C202.51 13.86 202.66 13.93 202.85 13.93C202.93 13.93 203.01 13.90 203.10 13.87C203.18 13.85 203.24 13.79 203.29 13.73C203.35 13.68 203.41 13.62 203.43 13.54C203.46 13.45 203.49 13.38 203.49 13.29C203.49 13.20 203.46 13.12 203.43 13.03C203.41 12.95 203.35 12.88 203.29 12.82C203.24 12.77 203.18 12.71 203.10 12.68C203.01 12.66 202.93 12.63 202.85 12.63C202.75 12.63 202.66 12.66 202.58 12.68C202.50 12.71 202.44 12.77 202.38 12.82C202.33 12.88 202.27 12.95 202.24 13.03C202.22 13.12 202.20 13.20 202.20 13.29ZM212.42 13.29C212.42 13.47 212.48 13.61 212.60 13.73C212.73 13.86 212.88 13.93 213.07 13.93C213.15 13.93 213.23 13.90 213.32 13.87C213.40 13.85 213.46 13.79 213.51 13.73C213.57 13.68 213.63 13.62 213.65 13.54C213.68 13.45 213.71 13.38 213.71 13.29C213.71 13.20 213.68 13.12 213.65 13.03C213.63 12.95 213.57 12.88 213.51 12.82C213.46 12.77 213.40 12.71 213.32 12.68C213.23 12.66 213.15 12.63 213.07 12.63C212.97 12.63 212.88 12.66 212.80 12.68C212.72 12.71 212.66 12.77 212.60 12.82C212.55 12.88 212.49 12.95 212.46 13.03C212.44 13.12 212.42 13.20 212.42 13.29ZM222.64 13.29C222.64 13.47 222.70 13.61 222.82 13.73C222.95 13.86 223.10 13.93 223.29 13.93C223.37 13.93 223.45 13.90 223.54 13.87C223.62 13.85 223.68 13.79 223.73 13.73C223.79 13.68 223.85 13.62 223.87 13.54C223.90 13.45 223.93 13.38 223.93 13.29C223.93 13.20 223.90 13.12 223.87 13.03C223.85 12.95 223.79 12.88 223.73 12.82C223.68 12.77 223.62 12.71 223.54 12.68C223.45 12.66 223.37 12.63 223.29 12.63C223.19 12.63 223.10 12.66 223.02 12.68C222.94 12.71 222.88 12.77 222.82 12.82C222.77 12.88 222.71 12.95 222.68 13.03C222.66 13.12 222.64 13.20 222.64 13.29ZM240.90 3.92L240.18 3.92L238.83 3.92L238.83 4.19C238.83 4.34 238.92 4.42 239.11 4.44L239.27 4.44C239.37 4.44 239.51 4.45 239.68 4.45C239.85 4.45 240.02 4.47 240.18 4.47L240.18 10.04C240.18 10.50 240.11 10.92 239.97 11.33C239.83 11.73 239.64 12.08 239.37 12.38C239.11 12.67 238.80 12.89 238.42 13.06C238.04 13.23 237.62 13.31 237.15 13.31C236.67 13.31 236.24 13.23 235.86 13.06C235.48 12.89 235.16 12.66 234.91 12.36C234.64 12.07 234.46 11.72 234.32 11.33C234.18 10.93 234.11 10.50 234.11 10.04L234.11 4.47C234.28 4.47 234.44 4.45 234.61 4.45C234.78 4.45 234.92 4.44 235.02 4.44L235.19 4.44C235.37 4.42 235.47 4.34 235.47 4.19L235.47 3.92L234.11 3.92L233.39 3.92L232.22 3.92L232.22 4.19C232.22 4.34 232.30 4.42 232.48 4.44L232.62 4.44C232.69 4.44 232.79 4.45 232.93 4.45C233.07 4.45 233.23 4.47 233.39 4.47L233.39 10.04C233.39 10.58 233.48 11.09 233.65 11.56C233.81 12.04 234.07 12.46 234.39 12.81C234.71 13.16 235.12 13.44 235.58 13.64C236.04 13.83 236.57 13.93 237.15 13.93C237.72 13.93 238.24 13.83 238.70 13.64C239.16 13.44 239.57 13.16 239.89 12.81C240.21 12.46 240.46 12.04 240.63 11.56C240.80 11.09 240.90 10.58 240.90 10.04L240.90 4.47C241.07 4.47 241.21 4.45 241.35 4.45C241.49 4.45 241.60 4.44 241.67 4.44L241.79 4.44C241.98 4.42 242.07 4.34 242.07 4.19L242.07 3.92ZM255.82 9.91C255.68 9.65 255.49 9.39 255.25 9.21C255.01 9.03 254.76 8.88 254.46 8.75C254.17 8.62 253.85 8.51 253.54 8.41C253.23 8.32 252.92 8.20 252.63 8.11C252.34 7.99 252.07 7.87 251.83 7.71C251.59 7.56 251.41 7.38 251.27 7.15C251.13 6.93 251.05 6.65 251.05 6.31C251.05 6.06 251.10 5.82 251.20 5.59C251.30 5.35 251.44 5.15 251.62 4.97C251.80 4.79 252.03 4.65 252.31 4.55C252.59 4.45 252.90 4.40 253.26 4.40C253.93 4.40 254.55 4.51 255.11 4.75C255.15 5.54 255.18 5.99 255.18 6.06C255.19 6.29 255.28 6.41 255.47 6.41L255.81 6.41L255.81 4.38C254.93 4.00 254.09 3.81 253.26 3.81C252.80 3.81 252.39 3.88 252.03 4.02C251.66 4.16 251.37 4.34 251.13 4.58C250.89 4.82 250.70 5.08 250.57 5.39C250.45 5.70 250.39 6.02 250.39 6.36C250.39 6.78 250.46 7.14 250.60 7.42C250.74 7.70 250.94 7.92 251.17 8.12C251.41 8.32 251.66 8.46 251.96 8.58C252.25 8.71 252.57 8.82 252.88 8.92C253.19 9.02 253.48 9.11 253.79 9.21C254.09 9.31 254.35 9.45 254.59 9.60C254.83 9.76 255.01 9.94 255.15 10.16C255.29 10.39 255.36 10.68 255.36 11.03C255.36 11.35 255.30 11.66 255.19 11.94C255.08 12.22 254.93 12.46 254.72 12.67C254.51 12.88 254.24 13.05 253.93 13.16C253.62 13.29 253.27 13.33 252.88 13.33C252.10 13.33 251.44 13.20 250.91 12.95C250.89 12.75 250.89 12.54 250.88 12.32C250.87 12.10 250.87 11.91 250.85 11.76C250.84 11.61 250.84 11.52 250.84 11.51C250.82 11.28 250.73 11.17 250.53 11.17L250.19 11.17L250.19 13.02L250.19 13.20L250.19 13.38C251.05 13.75 251.93 13.93 252.85 13.93C253.36 13.93 253.81 13.85 254.20 13.69C254.59 13.54 254.93 13.31 255.19 13.05C255.46 12.78 255.68 12.46 255.82 12.10C255.96 11.73 256.03 11.34 256.03 10.92C256.03 10.51 255.96 10.18 255.82 9.91ZM265.48 3.92L264.29 3.92L264.29 4.19C264.29 4.34 264.39 4.42 264.57 4.44L264.71 4.44C264.78 4.44 264.88 4.45 265.02 4.45C265.16 4.45 265.31 4.47 265.48 4.47L265.48 13.26C265.31 13.26 265.16 13.27 265.02 13.27C264.88 13.27 264.78 13.29 264.71 13.29L264.57 13.29C264.39 13.30 264.31 13.38 264.31 13.54L264.31 13.82L265.48 13.82L271.42 13.82L271.42 13.22L271.42 11.76L271.07 11.76C270.87 11.76 270.79 11.89 270.77 12.11C270.77 12.14 270.76 12.19 270.76 12.29C270.76 12.39 270.76 12.53 270.75 12.74C270.73 12.95 270.72 13.09 270.72 13.22L266.20 13.22L266.20 9.09L270.14 9.09L270.14 8.51L266.20 8.51L266.20 4.51L270.72 4.51C270.75 5.12 270.77 5.50 270.77 5.63C270.79 5.85 270.87 5.96 271.07 5.96L271.42 5.96L271.42 4.51L271.42 3.92ZM299.64 8.86C299.64 8.11 299.52 7.41 299.29 6.79C299.07 6.17 298.75 5.64 298.33 5.19C297.91 4.75 297.42 4.40 296.84 4.16C296.27 3.92 295.61 3.79 294.91 3.79C294.21 3.79 293.58 3.92 293.01 4.16C292.43 4.40 291.93 4.75 291.51 5.19C291.09 5.64 290.77 6.17 290.54 6.79C290.32 7.41 290.19 8.11 290.19 8.86C290.19 9.63 290.32 10.33 290.54 10.95C290.77 11.56 291.09 12.10 291.51 12.54C291.93 12.99 292.43 13.33 293.01 13.57C293.58 13.80 294.21 13.93 294.91 13.93C295.61 13.93 296.27 13.80 296.84 13.57C297.42 13.33 297.91 12.99 298.33 12.54C298.75 12.10 299.07 11.56 299.29 10.95C299.52 10.33 299.64 9.63 299.64 8.86ZM298.89 8.86C298.89 9.56 298.80 10.18 298.61 10.72C298.41 11.27 298.14 11.75 297.79 12.12C297.44 12.50 297.02 12.81 296.53 13.01C296.04 13.20 295.51 13.30 294.91 13.30C294.32 13.30 293.79 13.20 293.30 13.01C292.81 12.81 292.39 12.50 292.04 12.12C291.69 11.75 291.41 11.27 291.21 10.72C291.02 10.18 290.93 9.56 290.93 8.86C290.93 8.18 291.02 7.55 291.21 7.00C291.41 6.45 291.69 5.98 292.04 5.60C292.39 5.22 292.81 4.91 293.30 4.72C293.79 4.52 294.32 4.41 294.91 4.41C295.51 4.41 296.04 4.52 296.53 4.72C297.02 4.91 297.44 5.22 297.79 5.60C298.14 5.98 298.41 6.45 298.61 7.00C298.80 7.55 298.89 8.18 298.89 8.86ZM315.88 3.92L315.17 3.92L313.81 3.92L313.81 4.19C313.81 4.34 313.91 4.42 314.09 4.44L314.26 4.44C314.36 4.44 314.50 4.45 314.66 4.45C314.83 4.45 315 4.47 315.17 4.47L315.17 10.04C315.17 10.50 315.10 10.92 314.96 11.33C314.82 11.73 314.62 12.08 314.36 12.38C314.09 12.67 313.78 12.89 313.40 13.06C313.03 13.23 312.61 13.31 312.13 13.31C311.65 13.31 311.22 13.23 310.84 13.06C310.46 12.89 310.14 12.66 309.89 12.36C309.62 12.07 309.44 11.72 309.30 11.33C309.16 10.93 309.09 10.50 309.09 10.04L309.09 4.47C309.26 4.47 309.43 4.45 309.60 4.45C309.76 4.45 309.90 4.44 310.00 4.44L310.17 4.44C310.35 4.42 310.45 4.34 310.45 4.19L310.45 3.92L309.09 3.92L308.38 3.92L307.20 3.92L307.20 4.19C307.20 4.34 307.29 4.42 307.47 4.44L307.61 4.44C307.68 4.44 307.78 4.45 307.92 4.45C308.06 4.45 308.21 4.47 308.38 4.47L308.38 10.04C308.38 10.58 308.46 11.09 308.63 11.56C308.80 12.04 309.05 12.46 309.37 12.81C309.69 13.16 310.10 13.44 310.56 13.64C311.02 13.83 311.56 13.93 312.13 13.93C312.70 13.93 313.22 13.83 313.68 13.64C314.15 13.44 314.55 13.16 314.87 12.81C315.20 12.46 315.45 12.04 315.62 11.56C315.78 11.09 315.88 10.58 315.88 10.04L315.88 4.47C316.05 4.47 316.19 4.45 316.33 4.45C316.47 4.45 316.58 4.44 316.65 4.44L316.78 4.44C316.96 4.42 317.06 4.34 317.06 4.19L317.06 3.92ZM333.07 13.29L332.98 13.29L332.79 13.29C332.71 13.29 332.63 13.27 332.54 13.27L329.57 9.53C329.49 9.42 329.38 9.32 329.27 9.25C329.70 9.21 330.09 9.11 330.44 8.96C330.79 8.81 331.07 8.61 331.32 8.37C331.56 8.13 331.76 7.85 331.88 7.55C332.01 7.24 332.08 6.89 332.08 6.51C332.08 5.66 331.80 5.03 331.24 4.58C330.68 4.14 329.83 3.92 328.68 3.92L326.27 3.92L325.09 3.92L325.09 4.19C325.09 4.34 325.18 4.42 325.36 4.44L325.50 4.44C325.57 4.44 325.67 4.45 325.81 4.45C325.95 4.45 326.10 4.47 326.27 4.47L326.27 13.26C326.10 13.26 325.95 13.27 325.81 13.27C325.67 13.27 325.57 13.29 325.50 13.29L325.36 13.29C325.18 13.30 325.08 13.38 325.08 13.54L325.08 13.82L326.27 13.82L326.98 13.82L328.16 13.82L328.16 13.54C328.16 13.38 328.06 13.30 327.88 13.29L327.74 13.29C327.67 13.29 327.57 13.27 327.43 13.27C327.29 13.27 327.15 13.26 326.98 13.26L326.98 9.34L328.16 9.34C328.36 9.34 328.50 9.35 328.58 9.39C328.66 9.44 328.75 9.52 328.83 9.62L332.01 13.64C332.07 13.71 332.11 13.75 332.16 13.78C332.22 13.80 332.29 13.82 332.36 13.82L332.43 13.82L332.98 13.82L333.34 13.82L333.34 13.54C333.34 13.38 333.26 13.30 333.07 13.29ZM328.58 8.81L326.98 8.81L326.98 4.48L328.68 4.48C329.56 4.48 330.23 4.66 330.69 5.00C331.16 5.33 331.38 5.87 331.38 6.57C331.38 6.92 331.32 7.21 331.20 7.49C331.07 7.77 330.88 7.99 330.64 8.19C330.40 8.39 330.11 8.55 329.76 8.65C329.41 8.75 329.01 8.81 328.58 8.81ZM357.64 9.91C357.50 9.65 357.31 9.39 357.07 9.21C356.83 9.03 356.58 8.88 356.29 8.75C355.99 8.62 355.67 8.51 355.36 8.41C355.05 8.32 354.75 8.20 354.45 8.11C354.16 7.99 353.89 7.87 353.65 7.71C353.42 7.56 353.23 7.38 353.09 7.15C352.95 6.93 352.87 6.65 352.87 6.31C352.87 6.06 352.93 5.82 353.02 5.59C353.12 5.35 353.26 5.15 353.44 4.97C353.63 4.79 353.85 4.65 354.13 4.55C354.41 4.45 354.72 4.40 355.08 4.40C355.75 4.40 356.37 4.51 356.93 4.75C356.97 5.54 357 5.99 357 6.06C357.01 6.29 357.10 6.41 357.29 6.41L357.63 6.41L357.63 4.38C356.75 4.00 355.91 3.81 355.08 3.81C354.62 3.81 354.21 3.88 353.85 4.02C353.49 4.16 353.19 4.34 352.95 4.58C352.72 4.82 352.52 5.08 352.39 5.39C352.27 5.70 352.21 6.02 352.21 6.36C352.21 6.78 352.28 7.14 352.42 7.42C352.56 7.70 352.76 7.92 353.00 8.12C353.23 8.32 353.49 8.46 353.78 8.58C354.07 8.71 354.40 8.82 354.70 8.92C355.01 9.02 355.31 9.11 355.61 9.21C355.91 9.31 356.17 9.45 356.41 9.60C356.65 9.76 356.83 9.94 356.97 10.16C357.11 10.39 357.18 10.68 357.18 11.03C357.18 11.35 357.13 11.66 357.01 11.94C356.90 12.22 356.75 12.46 356.54 12.67C356.33 12.88 356.06 13.05 355.75 13.16C355.45 13.29 355.10 13.33 354.70 13.33C353.92 13.33 353.26 13.20 352.73 12.95C352.72 12.75 352.72 12.54 352.70 12.32C352.69 12.10 352.69 11.91 352.67 11.76C352.66 11.61 352.66 11.52 352.66 11.51C352.65 11.28 352.55 11.17 352.35 11.17L352.02 11.17L352.02 13.02L352.02 13.20L352.02 13.38C352.87 13.75 353.75 13.93 354.68 13.93C355.18 13.93 355.63 13.85 356.02 13.69C356.41 13.54 356.75 13.31 357.01 13.05C357.28 12.78 357.50 12.46 357.64 12.10C357.78 11.73 357.85 11.34 357.85 10.92C357.85 10.51 357.78 10.18 357.64 9.91ZM373.63 3.92L373.44 3.92L366.14 3.92L365.93 3.92L365.83 3.92L365.83 5.96L366.18 5.96C366.38 5.96 366.46 5.85 366.48 5.63C366.48 5.53 366.51 5.17 366.53 4.52L369.43 4.52L369.43 13.26C369.26 13.26 369.12 13.27 368.98 13.27C368.84 13.27 368.73 13.29 368.66 13.29L368.54 13.29C368.35 13.30 368.26 13.38 368.26 13.54L368.26 13.82L369.43 13.82L370.15 13.82L371.34 13.82L371.34 13.54C371.34 13.38 371.24 13.30 371.06 13.29L370.92 13.29C370.85 13.29 370.75 13.27 370.61 13.27C370.47 13.27 370.31 13.26 370.15 13.26L370.15 4.52L373.03 4.52C373.07 5.24 373.09 5.60 373.09 5.63C373.10 5.85 373.20 5.96 373.39 5.96L373.73 5.96L373.73 3.92ZM390.15 3.92L389.44 3.92L388.08 3.92L388.08 4.19C388.08 4.34 388.18 4.42 388.36 4.44L388.53 4.44C388.63 4.44 388.77 4.45 388.93 4.45C389.10 4.45 389.27 4.47 389.44 4.47L389.44 10.04C389.44 10.50 389.37 10.92 389.23 11.33C389.09 11.73 388.89 12.08 388.63 12.38C388.36 12.67 388.05 12.89 387.67 13.06C387.30 13.23 386.88 13.31 386.40 13.31C385.92 13.31 385.49 13.23 385.11 13.06C384.73 12.89 384.41 12.66 384.16 12.36C383.89 12.07 383.71 11.72 383.57 11.33C383.43 10.93 383.36 10.50 383.36 10.04L383.36 4.47C383.53 4.47 383.70 4.45 383.87 4.45C384.03 4.45 384.17 4.44 384.27 4.44L384.44 4.44C384.62 4.42 384.72 4.34 384.72 4.19L384.72 3.92L383.36 3.92L382.65 3.92L381.47 3.92L381.47 4.19C381.47 4.34 381.56 4.42 381.74 4.44L381.88 4.44C381.95 4.44 382.05 4.45 382.19 4.45C382.33 4.45 382.48 4.47 382.65 4.47L382.65 10.04C382.65 10.58 382.73 11.09 382.90 11.56C383.07 12.04 383.32 12.46 383.64 12.81C383.96 13.16 384.37 13.44 384.83 13.64C385.29 13.83 385.83 13.93 386.40 13.93C386.97 13.93 387.49 13.83 387.95 13.64C388.42 13.44 388.82 13.16 389.14 12.81C389.47 12.46 389.72 12.04 389.89 11.56C390.05 11.09 390.15 10.58 390.15 10.04L390.15 4.47C390.32 4.47 390.46 4.45 390.60 4.45C390.74 4.45 390.85 4.44 390.92 4.44L391.05 4.44C391.23 4.42 391.33 4.34 391.33 4.19L391.33 3.92ZM406.48 3.92L406.13 3.92L400.54 3.92L399.35 3.92L399.35 4.19C399.35 4.34 399.45 4.42 399.63 4.44L399.77 4.44C399.84 4.44 399.94 4.45 400.08 4.45C400.22 4.45 400.37 4.47 400.54 4.47L400.54 13.26C400.37 13.26 400.22 13.27 400.08 13.27C399.94 13.27 399.84 13.29 399.77 13.29L399.63 13.29C399.45 13.30 399.35 13.38 399.35 13.54L399.35 13.82L400.54 13.82L401.25 13.82L402.43 13.82L402.43 13.54C402.43 13.38 402.35 13.30 402.16 13.29L402.02 13.29C401.95 13.29 401.86 13.27 401.72 13.27C401.58 13.27 401.42 13.26 401.25 13.26L401.25 9.27L404.95 9.27L404.95 8.67L401.25 8.67L401.25 4.51L405.86 4.51C405.89 5.18 405.92 5.56 405.92 5.63C405.93 5.85 406.03 5.96 406.22 5.96L406.56 5.96L406.56 3.92ZM421.81 3.92L421.46 3.92L415.87 3.92L414.68 3.92L414.68 4.19C414.68 4.34 414.78 4.42 414.96 4.44L415.10 4.44C415.17 4.44 415.27 4.45 415.41 4.45C415.55 4.45 415.70 4.47 415.87 4.47L415.87 13.26C415.70 13.26 415.55 13.27 415.41 13.27C415.27 13.27 415.17 13.29 415.10 13.29L414.96 13.29C414.78 13.30 414.68 13.38 414.68 13.54L414.68 13.82L415.87 13.82L416.58 13.82L417.76 13.82L417.76 13.54C417.76 13.38 417.68 13.30 417.49 13.29L417.35 13.29C417.28 13.29 417.19 13.27 417.05 13.27C416.91 13.27 416.75 13.26 416.58 13.26L416.58 9.27L420.28 9.27L420.28 8.67L416.58 8.67L416.58 4.51L421.19 4.51C421.22 5.18 421.25 5.56 421.25 5.63C421.26 5.85 421.36 5.96 421.55 5.96L421.89 5.96L421.89 3.92ZM429.03 13.29C429.03 13.47 429.09 13.61 429.21 13.73C429.34 13.86 429.49 13.93 429.67 13.93C429.76 13.93 429.84 13.90 429.93 13.87C430.01 13.85 430.07 13.79 430.12 13.73C430.18 13.68 430.23 13.62 430.26 13.54C430.29 13.45 430.32 13.38 430.32 13.29C430.32 13.20 430.29 13.12 430.26 13.03C430.23 12.95 430.18 12.88 430.12 12.82C430.07 12.77 430.01 12.71 429.93 12.68C429.84 12.66 429.76 12.63 429.67 12.63C429.58 12.63 429.49 12.66 429.41 12.68C429.32 12.71 429.27 12.77 429.21 12.82C429.16 12.88 429.10 12.95 429.07 13.03C429.04 13.12 429.03 13.20 429.03 13.29ZM439.25 13.29C439.25 13.47 439.31 13.61 439.43 13.73C439.56 13.86 439.71 13.93 439.89 13.93C439.98 13.93 440.06 13.90 440.15 13.87C440.23 13.85 440.29 13.79 440.34 13.73C440.40 13.68 440.45 13.62 440.48 13.54C440.51 13.45 440.54 13.38 440.54 13.29C440.54 13.20 440.51 13.12 440.48 13.03C440.45 12.95 440.40 12.88 440.34 12.82C440.29 12.77 440.23 12.71 440.15 12.68C440.06 12.66 439.98 12.63 439.89 12.63C439.80 12.63 439.71 12.66 439.63 12.68C439.54 12.71 439.49 12.77 439.43 12.82C439.38 12.88 439.32 12.95 439.29 13.03C439.26 13.12 439.25 13.20 439.25 13.29ZM449.47 13.29C449.47 13.47 449.53 13.61 449.65 13.73C449.78 13.86 449.93 13.93 450.11 13.93C450.20 13.93 450.28 13.90 450.37 13.87C450.45 13.85 450.51 13.79 450.56 13.73C450.62 13.68 450.67 13.62 450.70 13.54C450.73 13.45 450.76 13.38 450.76 13.29C450.76 13.20 450.73 13.12 450.70 13.03C450.67 12.95 450.62 12.88 450.56 12.82C450.51 12.77 450.45 12.71 450.37 12.68C450.28 12.66 450.20 12.63 450.11 12.63C450.02 12.63 449.93 12.66 449.85 12.68C449.76 12.71 449.71 12.77 449.65 12.82C449.60 12.88 449.54 12.95 449.51 13.03C449.48 13.12 449.47 13.20 449.47 13.29ZM468.24 3.92L467.61 3.92L466.40 3.92L466.40 4.19C466.40 4.34 466.49 4.42 466.68 4.44L466.82 4.44C466.89 4.44 467.00 4.45 467.14 4.45C467.28 4.45 467.45 4.47 467.61 4.47L467.61 12.22C467.61 12.35 467.61 12.49 467.63 12.63L461.22 4.05C461.17 3.99 461.15 3.95 461.10 3.93C461.06 3.92 461.02 3.91 460.95 3.91L460.60 3.91L459.41 3.91L459.41 4.19C459.41 4.34 459.51 4.42 459.69 4.44L459.83 4.44C459.90 4.44 460.00 4.45 460.14 4.45C460.28 4.45 460.43 4.47 460.60 4.47L460.60 13.26C460.43 13.26 460.28 13.27 460.14 13.27C460.00 13.27 459.90 13.29 459.83 13.29L459.69 13.29C459.51 13.30 459.41 13.38 459.41 13.54L459.41 13.82L460.60 13.82L461.22 13.82L462.43 13.82L462.43 13.54C462.43 13.38 462.34 13.30 462.15 13.29L462.01 13.29C461.94 13.29 461.82 13.27 461.68 13.27C461.54 13.27 461.38 13.26 461.22 13.26L461.22 5.49C461.22 5.36 461.22 5.22 461.20 5.08L467.64 13.68C467.71 13.78 467.78 13.82 467.89 13.82L468.24 13.82L468.24 4.47C468.41 4.47 468.55 4.45 468.69 4.45C468.83 4.45 468.94 4.44 469.01 4.44L469.14 4.44C469.32 4.42 469.42 4.34 469.42 4.19L469.42 3.92ZM486.72 8.86C486.72 8.11 486.60 7.41 486.37 6.79C486.15 6.17 485.83 5.64 485.41 5.19C484.99 4.75 484.50 4.40 483.92 4.16C483.35 3.92 482.69 3.79 481.99 3.79C481.29 3.79 480.66 3.92 480.09 4.16C479.51 4.40 479.01 4.75 478.59 5.19C478.17 5.64 477.85 6.17 477.62 6.79C477.40 7.41 477.27 8.11 477.27 8.86C477.27 9.63 477.40 10.33 477.62 10.95C477.85 11.56 478.17 12.10 478.59 12.54C479.01 12.99 479.51 13.33 480.09 13.57C480.66 13.80 481.29 13.93 481.99 13.93C482.69 13.93 483.35 13.80 483.92 13.57C484.50 13.33 484.99 12.99 485.41 12.54C485.83 12.10 486.15 11.56 486.37 10.95C486.60 10.33 486.72 9.63 486.72 8.86ZM485.97 8.86C485.97 9.56 485.88 10.18 485.69 10.72C485.49 11.27 485.23 11.75 484.88 12.12C484.53 12.50 484.11 12.81 483.62 13.01C483.13 13.20 482.59 13.30 481.99 13.30C481.40 13.30 480.87 13.20 480.38 13.01C479.89 12.81 479.47 12.50 479.12 12.12C478.77 11.75 478.49 11.27 478.30 10.72C478.10 10.18 478.02 9.56 478.02 8.86C478.02 8.18 478.10 7.55 478.30 7.00C478.49 6.45 478.77 5.98 479.12 5.60C479.47 5.22 479.89 4.91 480.38 4.72C480.87 4.52 481.40 4.41 481.99 4.41C482.59 4.41 483.13 4.52 483.62 4.72C484.11 4.91 484.53 5.22 484.88 5.60C485.23 5.98 485.49 6.45 485.69 7.00C485.88 7.55 485.97 8.18 485.97 8.86ZM512.48 9.52C512.06 9.11 511.46 8.86 510.68 8.75C511.00 8.67 511.28 8.55 511.53 8.40C511.78 8.25 512.01 8.08 512.18 7.87C512.34 7.66 512.48 7.43 512.57 7.20C512.65 6.96 512.71 6.71 512.71 6.44C512.71 6.05 512.62 5.68 512.50 5.38C512.37 5.07 512.16 4.80 511.90 4.58C511.63 4.37 511.29 4.20 510.87 4.09C510.45 3.98 509.96 3.92 509.40 3.92L506.56 3.92L505.37 3.92L505.37 4.19C505.37 4.34 505.47 4.42 505.65 4.44L505.79 4.44C505.86 4.44 505.96 4.45 506.10 4.45C506.24 4.45 506.39 4.47 506.56 4.47L506.56 13.26C506.39 13.26 506.24 13.27 506.10 13.27C505.96 13.27 505.86 13.29 505.79 13.29L505.65 13.29C505.47 13.30 505.39 13.38 505.39 13.54L505.39 13.82L506.56 13.82L509.77 13.82C510.30 13.82 510.76 13.76 511.18 13.64C511.60 13.51 511.95 13.34 512.23 13.10C512.51 12.87 512.74 12.59 512.89 12.25C513.04 11.91 513.11 11.54 513.11 11.12C513.11 10.46 512.90 9.93 512.48 9.52ZM507.28 4.48L509.40 4.48C510.29 4.48 510.94 4.66 511.36 5.00C511.78 5.35 511.99 5.84 511.99 6.51C511.99 6.76 511.95 7.03 511.85 7.27C511.76 7.50 511.60 7.71 511.39 7.91C511.18 8.11 510.92 8.26 510.59 8.37C510.27 8.48 509.88 8.55 509.42 8.55L507.28 8.55ZM511.73 12.68C511.28 13.06 510.62 13.24 509.75 13.24L507.28 13.24L507.28 9.07L509.77 9.07C510.19 9.07 510.55 9.11 510.87 9.21C511.20 9.31 511.48 9.45 511.70 9.62C511.92 9.80 512.09 10.00 512.22 10.25C512.33 10.50 512.40 10.79 512.40 11.10C512.40 11.79 512.18 12.31 511.73 12.68ZM529.62 3.92L528.91 3.92L527.55 3.92L527.55 4.19C527.55 4.34 527.65 4.42 527.83 4.44L528.00 4.44C528.09 4.44 528.23 4.45 528.40 4.45C528.57 4.45 528.74 4.47 528.91 4.47L528.91 10.04C528.91 10.50 528.84 10.92 528.70 11.33C528.56 11.73 528.36 12.08 528.09 12.38C527.83 12.67 527.52 12.89 527.14 13.06C526.76 13.23 526.34 13.31 525.87 13.31C525.39 13.31 524.96 13.23 524.58 13.06C524.20 12.89 523.88 12.66 523.63 12.36C523.36 12.07 523.18 11.72 523.04 11.33C522.90 10.93 522.83 10.50 522.83 10.04L522.83 4.47C523.00 4.47 523.17 4.45 523.33 4.45C523.50 4.45 523.64 4.44 523.74 4.44L523.91 4.44C524.09 4.42 524.19 4.34 524.19 4.19L524.19 3.92L522.83 3.92L522.12 3.92L520.94 3.92L520.94 4.19C520.94 4.34 521.02 4.42 521.21 4.44L521.35 4.44C521.42 4.44 521.51 4.45 521.65 4.45C521.79 4.45 521.95 4.47 522.12 4.47L522.12 10.04C522.12 10.58 522.20 11.09 522.37 11.56C522.54 12.04 522.79 12.46 523.11 12.81C523.43 13.16 523.84 13.44 524.30 13.64C524.76 13.83 525.29 13.93 525.87 13.93C526.44 13.93 526.96 13.83 527.42 13.64C527.88 13.44 528.29 13.16 528.61 12.81C528.93 12.46 529.19 12.04 529.35 11.56C529.52 11.09 529.62 10.58 529.62 10.04L529.62 4.47C529.79 4.47 529.93 4.45 530.07 4.45C530.21 4.45 530.32 4.44 530.39 4.44L530.52 4.44C530.70 4.42 530.80 4.34 530.80 4.19L530.80 3.92ZM545.19 11.97C544.99 11.97 544.91 12.08 544.89 12.31C544.89 12.32 544.89 12.38 544.88 12.43C544.87 12.49 544.87 12.59 544.85 12.71C544.84 12.84 544.82 13.01 544.81 13.20L540.72 13.20L540.72 4.47C540.89 4.47 541.03 4.45 541.17 4.45C541.31 4.45 541.42 4.44 541.49 4.44L541.62 4.44C541.80 4.42 541.90 4.34 541.90 4.19L541.90 3.92L540.72 3.92L540.01 3.92L538.82 3.92L538.82 4.19C538.82 4.34 538.92 4.42 539.10 4.44L539.24 4.44C539.31 4.44 539.41 4.45 539.55 4.45C539.69 4.45 539.84 4.47 540.01 4.47L540.01 13.26C539.84 13.26 539.69 13.27 539.55 13.27C539.41 13.27 539.31 13.29 539.24 13.29L539.10 13.29C538.92 13.30 538.82 13.38 538.82 13.54L538.82 13.82L540.01 13.82L545.29 13.82L545.41 13.82L545.54 13.82L545.54 13.55L545.54 12.99L545.54 11.97L545.26 11.97ZM560.34 11.97C560.14 11.97 560.06 12.08 560.04 12.31C560.04 12.32 560.04 12.38 560.03 12.43C560.01 12.49 560.01 12.59 560.00 12.71C559.99 12.84 559.97 13.01 559.96 13.20L555.87 13.20L555.87 4.47C556.04 4.47 556.18 4.45 556.32 4.45C556.46 4.45 556.57 4.44 556.64 4.44L556.77 4.44C556.95 4.42 557.05 4.34 557.05 4.19L557.05 3.92L555.87 3.92L555.16 3.92L553.97 3.92L553.97 4.19C553.97 4.34 554.06 4.42 554.25 4.44L554.39 4.44C554.46 4.44 554.55 4.45 554.69 4.45C554.83 4.45 554.99 4.47 555.16 4.47L555.16 13.26C554.99 13.26 554.83 13.27 554.69 13.27C554.55 13.27 554.46 13.29 554.39 13.29L554.25 13.29C554.06 13.30 553.97 13.38 553.97 13.54L553.97 13.82L555.16 13.82L560.43 13.82L560.56 13.82L560.69 13.82L560.69 13.55L560.69 12.99L560.69 11.97L560.41 11.97ZM574.84 9.91C574.70 9.65 574.50 9.39 574.27 9.21C574.03 9.03 573.78 8.88 573.48 8.75C573.19 8.62 572.87 8.51 572.56 8.41C572.25 8.32 571.94 8.20 571.65 8.11C571.35 7.99 571.09 7.87 570.85 7.71C570.61 7.56 570.43 7.38 570.29 7.15C570.15 6.93 570.07 6.65 570.07 6.31C570.07 6.06 570.12 5.82 570.22 5.59C570.32 5.35 570.46 5.15 570.64 4.97C570.82 4.79 571.05 4.65 571.33 4.55C571.61 4.45 571.91 4.40 572.28 4.40C572.95 4.40 573.57 4.51 574.13 4.75C574.17 5.54 574.20 5.99 574.20 6.06C574.21 6.29 574.29 6.41 574.49 6.41L574.83 6.41L574.83 4.38C573.94 4.00 573.10 3.81 572.28 3.81C571.82 3.81 571.41 3.88 571.05 4.02C570.68 4.16 570.39 4.34 570.15 4.58C569.91 4.82 569.72 5.08 569.59 5.39C569.46 5.70 569.41 6.02 569.41 6.36C569.41 6.78 569.48 7.14 569.62 7.42C569.76 7.70 569.95 7.92 570.19 8.12C570.43 8.32 570.68 8.46 570.98 8.58C571.27 8.71 571.59 8.82 571.90 8.92C572.21 9.02 572.50 9.11 572.81 9.21C573.10 9.31 573.37 9.45 573.61 9.60C573.85 9.76 574.03 9.94 574.17 10.16C574.31 10.39 574.38 10.68 574.38 11.03C574.38 11.35 574.32 11.66 574.21 11.94C574.10 12.22 573.94 12.46 573.73 12.67C573.52 12.88 573.26 13.05 572.95 13.16C572.64 13.29 572.29 13.33 571.90 13.33C571.12 13.33 570.46 13.20 569.93 12.95C569.91 12.75 569.91 12.54 569.90 12.32C569.88 12.10 569.88 11.91 569.87 11.76C569.86 11.61 569.86 11.52 569.86 11.51C569.84 11.28 569.74 11.17 569.55 11.17L569.21 11.17L569.21 13.02L569.21 13.20L569.21 13.38C570.07 13.75 570.95 13.93 571.87 13.93C572.38 13.93 572.82 13.85 573.22 13.69C573.61 13.54 573.94 13.31 574.21 13.05C574.48 12.78 574.70 12.46 574.84 12.10C574.98 11.73 575.05 11.34 575.05 10.92C575.05 10.51 574.98 10.18 574.84 9.91ZM593.04 4.44C593.22 4.42 593.32 4.34 593.32 4.19L593.32 3.92L592.14 3.92L591.42 3.92L590.24 3.92L590.24 4.19C590.24 4.34 590.34 4.42 590.52 4.44L590.65 4.44C590.72 4.44 590.83 4.45 590.97 4.45C591.11 4.45 591.25 4.47 591.42 4.47L591.42 8.53L585.21 8.53L585.21 4.47C585.38 4.47 585.54 4.45 585.68 4.45C585.82 4.45 585.91 4.44 585.98 4.44L586.12 4.44C586.31 4.42 586.39 4.34 586.39 4.19L586.39 3.92L585.21 3.92L584.50 3.92L583.31 3.92L583.31 4.19C583.31 4.34 583.41 4.42 583.59 4.44L583.73 4.44C583.80 4.44 583.90 4.45 584.04 4.45C584.18 4.45 584.33 4.47 584.50 4.47L584.50 13.26C584.33 13.26 584.18 13.27 584.04 13.27C583.90 13.27 583.80 13.29 583.73 13.29L583.59 13.29C583.41 13.30 583.31 13.38 583.31 13.54L583.31 13.82L584.50 13.82L585.21 13.82L586.39 13.82L586.39 13.54C586.39 13.38 586.31 13.30 586.12 13.29L585.98 13.29C585.91 13.29 585.82 13.27 585.68 13.27C585.54 13.27 585.38 13.26 585.21 13.26L585.21 9.07L591.42 9.07L591.42 13.26C591.25 13.26 591.11 13.27 590.97 13.27C590.83 13.27 590.72 13.29 590.65 13.29L590.52 13.29C590.34 13.30 590.24 13.38 590.24 13.54L590.24 13.82L591.42 13.82L592.14 13.82L593.32 13.82L593.32 13.54C593.32 13.38 593.22 13.30 593.04 13.29L592.91 13.29C592.84 13.29 592.73 13.27 592.59 13.27C592.45 13.27 592.31 13.26 592.14 13.26L592.14 4.47C592.31 4.47 592.45 4.45 592.59 4.45C592.73 4.45 592.84 4.44 592.91 4.44ZM604.48 4.44C604.66 4.42 604.74 4.34 604.74 4.19L604.74 3.91L603.57 3.91L602.85 3.91L601.66 3.91L601.66 4.19C601.66 4.34 601.76 4.42 601.94 4.44L602.08 4.44C602.15 4.44 602.25 4.45 602.39 4.45C602.53 4.45 602.69 4.47 602.85 4.47L602.85 13.26C602.69 13.26 602.53 13.27 602.39 13.27C602.25 13.27 602.15 13.29 602.08 13.29L601.94 13.29C601.76 13.30 601.66 13.38 601.66 13.54L601.66 13.82L602.85 13.82L603.57 13.82L604.74 13.82L604.74 13.54C604.74 13.38 604.66 13.30 604.48 13.29L604.34 13.29C604.27 13.29 604.17 13.27 604.03 13.27C603.89 13.27 603.74 13.26 603.57 13.26L603.57 4.47C603.74 4.47 603.89 4.45 604.03 4.45C604.17 4.45 604.27 4.44 604.34 4.44ZM620.61 3.92L620.41 3.92L613.12 3.92L612.91 3.92L612.81 3.92L612.81 5.96L613.16 5.96C613.35 5.96 613.44 5.85 613.45 5.63C613.45 5.53 613.48 5.17 613.51 4.52L616.41 4.52L616.41 13.26C616.24 13.26 616.10 13.27 615.96 13.27C615.82 13.27 615.71 13.29 615.64 13.29L615.51 13.29C615.33 13.30 615.23 13.38 615.23 13.54L615.23 13.82L616.41 13.82L617.12 13.82L618.31 13.82L618.31 13.54C618.31 13.38 618.21 13.30 618.03 13.29L617.89 13.29C617.82 13.29 617.72 13.27 617.58 13.27C617.44 13.27 617.29 13.26 617.12 13.26L617.12 4.52L620.00 4.52C620.05 5.24 620.06 5.60 620.06 5.63C620.07 5.85 620.17 5.96 620.37 5.96L620.70 5.96L620.70 3.92ZM627.83 13.29C627.83 13.47 627.89 13.61 628.01 13.73C628.14 13.86 628.29 13.93 628.47 13.93C628.56 13.93 628.64 13.90 628.73 13.87C628.81 13.85 628.87 13.79 628.92 13.73C628.98 13.68 629.03 13.62 629.06 13.54C629.09 13.45 629.12 13.38 629.12 13.29C629.12 13.20 629.09 13.12 629.06 13.03C629.03 12.95 628.98 12.88 628.92 12.82C628.87 12.77 628.81 12.71 628.73 12.68C628.64 12.66 628.56 12.63 628.47 12.63C628.38 12.63 628.29 12.66 628.21 12.68C628.12 12.71 628.07 12.77 628.01 12.82C627.96 12.88 627.90 12.95 627.87 13.03C627.84 13.12 627.83 13.20 627.83 13.29Z"></path></g></svg>