<svg data-v-423bf9ae="" xmlns="http://www.w3.org/2000/svg" viewBox="0 0 530 101" class="iconLeftSlogan"><!----><!----><!----><g data-v-423bf9ae="" id="967c0f31-3092-4bbe-a98f-59ab8eff8c43" fill="white" transform="matrix(3.7641155319627186,0,0,3.7641155319627186,81.42130002123449,-8.657466259282977)"><path d="M11.13 4.24L14.25 4.24L14.25 4.24Q14.05 4.31 13.64 4.61L13.64 4.61L13.64 4.61Q13.24 4.92 13.04 5.04L13.04 5.04L13.04 5.04Q12.84 5.17 12.70 5.17L12.70 5.17L12.20 5.17L10.74 11.42L10.74 11.42Q10.45 12.58 9.78 13.15L9.78 13.15L12.04 13.15L12.04 13.15Q11.84 13.21 11.44 13.52L11.44 13.52L11.44 13.52Q11.03 13.82 10.83 13.95L10.83 13.95L10.83 13.95Q10.64 14.08 10.49 14.08L10.49 14.08L8.24 14.08L8.24 14.08Q8.81 13.46 8.94 13.16L8.94 13.16L8.94 13.16Q9.07 12.86 9.13 12.61L9.13 12.61L9.13 12.61Q7.86 13.38 7.14 13.68L7.14 13.68L7.14 13.68Q5.72 14.27 4.63 14.27L4.63 14.27L4.63 14.27Q2.86 14.27 2.39 13.18L2.39 13.18L2.39 13.18Q2.21 12.78 2.21 12.32L2.21 12.32L2.21 12.32Q2.21 11.63 2.39 10.84L2.39 10.84L3.71 5.17L2.56 5.17L2.56 5.17Q2.63 5.13 2.75 5.04L2.75 5.04L2.75 5.04Q2.87 4.96 3.02 4.85L3.02 4.85L3.02 4.85Q3.18 4.75 3.35 4.64L3.35 4.64L3.35 4.64Q3.51 4.53 3.66 4.44L3.66 4.44L3.66 4.44Q4.01 4.24 4.11 4.24L4.11 4.24L6.95 4.24L6.95 4.24Q6.75 4.31 6.35 4.61L6.35 4.61L6.35 4.61Q5.95 4.92 5.75 5.04L5.75 5.04L5.75 5.04Q5.55 5.17 5.41 5.17L5.41 5.17L5.04 5.17L3.81 10.45L3.81 10.45Q3.71 10.89 3.71 11.37L3.71 11.37L3.71 11.37Q3.71 11.85 3.92 12.24L3.92 12.24L3.92 12.24Q4.12 12.63 4.46 12.87L4.46 12.87L4.46 12.87Q5.11 13.32 6.22 13.32L6.22 13.32L6.22 13.32Q7.24 13.32 8.53 12.71L8.53 12.71L8.53 12.71Q8.91 12.54 9.19 12.37L9.19 12.37L10.86 5.17L9.58 5.17L9.58 5.17Q9.65 5.13 9.77 5.04L9.77 5.04L9.77 5.04Q9.89 4.96 10.05 4.85L10.05 4.85L10.05 4.85Q10.20 4.75 10.37 4.64L10.37 4.64L10.37 4.64Q10.53 4.53 10.68 4.44L10.68 4.44L10.68 4.44Q11.03 4.24 11.13 4.24L11.13 4.24ZM14.13 12.41L14.13 12.41L14.13 12.41Q13.92 12.59 13.92 12.77L13.92 12.77L13.92 12.77Q13.92 12.94 14.10 13.05L14.10 13.05L14.10 13.05Q14.28 13.15 14.52 13.21L14.52 13.21L14.52 13.21Q14.94 13.30 15.38 13.30L15.38 13.30L15.38 13.30Q15.82 13.30 16.06 13.04L16.06 13.04L16.06 13.04Q16.30 12.78 16.30 12.39L16.30 12.39L16.30 12.39Q16.30 11.99 16.10 11.77L16.10 11.77L16.10 11.77Q15.89 11.56 15.59 11.41L15.59 11.41L15.59 11.41Q15.29 11.27 14.93 11.15L14.93 11.15L14.93 11.15Q14.57 11.03 14.27 10.89L14.27 10.89L14.27 10.89Q13.56 10.55 13.56 10.01L13.56 10.01L13.56 10.01Q13.56 9.43 14.33 8.76L14.33 8.76L14.33 8.76Q14.99 8.17 15.96 7.74L15.96 7.74L15.96 7.74Q16.91 7.31 17.47 7.31L17.47 7.31L17.47 7.31Q17.96 7.31 18.19 7.42L18.19 7.42L18.19 7.42Q18.42 7.53 18.42 7.62L18.42 7.62L18.42 7.62Q18.42 7.80 17.99 8.01L17.99 8.01L17.99 8.01Q17.17 8.42 16.69 8.78L16.69 8.78L16.69 8.78Q16.87 8.67 16.87 8.56L16.87 8.56L16.87 8.56Q16.87 8.44 16.75 8.39L16.75 8.39L16.75 8.39Q16.63 8.33 16.47 8.30L16.47 8.30L16.47 8.30Q16.21 8.25 15.94 8.25L15.94 8.25L15.94 8.25Q15.09 8.25 15.09 9.07L15.09 9.07L15.09 9.07Q15.09 9.66 15.96 9.95L15.96 9.95L15.96 9.95Q16.21 10.04 16.46 10.12L16.46 10.12L16.46 10.12Q16.72 10.21 16.97 10.30L16.97 10.30L16.97 10.30Q17.22 10.40 17.41 10.53L17.41 10.53L17.41 10.53Q17.84 10.83 17.84 11.28L17.84 11.28L17.84 11.28Q17.84 11.72 17.63 12.10L17.63 12.10L17.63 12.10Q17.42 12.47 17.07 12.79L17.07 12.79L17.07 12.79Q16.72 13.12 16.27 13.38L16.27 13.38L16.27 13.38Q15.83 13.65 15.36 13.84L15.36 13.84L15.36 13.84Q14.39 14.25 13.68 14.25L13.68 14.25L13.68 14.25Q12.97 14.25 12.56 13.96L12.56 13.96L12.56 13.96Q12.40 13.85 12.40 13.70L12.40 13.70L12.40 13.70Q12.40 13.54 12.50 13.42L12.50 13.42L12.50 13.42Q12.61 13.29 12.76 13.18L12.76 13.18L12.76 13.18Q12.92 13.06 13.12 12.96L13.12 12.96L13.12 12.96Q13.32 12.86 13.51 12.76L13.51 12.76L13.51 12.76Q14.03 12.50 14.13 12.41ZM24.08 8.15L24.08 8.15L24.08 8.15Q24.08 9.58 20.18 11.53L20.18 11.53L20.18 11.53Q20.25 13.25 21.98 13.25L21.98 13.25L21.98 13.25Q22.76 13.25 23.60 12.82L23.60 12.82L23.60 12.82Q22.63 13.75 21.17 14.08L21.17 14.08L21.17 14.08Q20.71 14.18 20.28 14.18L20.28 14.18L20.28 14.18Q19.84 14.18 19.53 14.02L19.53 14.02L19.53 14.02Q19.22 13.87 19.02 13.61L19.02 13.61L19.02 13.61Q18.65 13.10 18.65 12.41L18.65 12.41L18.65 12.41Q18.65 11.72 18.86 11.15L18.86 11.15L18.86 11.15Q19.07 10.59 19.42 10.05L19.42 10.05L19.42 10.05Q19.77 9.51 20.23 9.02L20.23 9.02L20.23 9.02Q20.70 8.54 21.23 8.18L21.23 8.18L21.23 8.18Q22.37 7.38 23.34 7.38L23.34 7.38L23.34 7.38Q23.69 7.38 23.88 7.60L23.88 7.60L23.88 7.60Q24.08 7.81 24.08 8.15ZM22.37 9.52L22.37 9.52L22.37 9.52Q22.54 9.25 22.54 9.03L22.54 9.03L22.54 9.03Q22.54 8.80 22.36 8.57L22.36 8.57L22.36 8.57Q22.19 8.34 21.88 8.34L21.88 8.34L21.88 8.34Q21.56 8.34 21.34 8.49L21.34 8.49L21.34 8.49Q21.12 8.65 20.94 8.89L20.94 8.89L20.94 8.89Q20.76 9.14 20.62 9.45L20.62 9.45L20.62 9.45Q20.49 9.76 20.39 10.08L20.39 10.08L20.39 10.08Q20.22 10.68 20.19 11.20L20.19 11.20L20.19 11.20Q20.86 11.03 21.71 10.25L21.71 10.25L21.71 10.25Q22.21 9.79 22.37 9.52ZM29.44 13.15L31.63 13.15L31.63 13.15Q30.24 14.08 30.08 14.08L30.08 14.08L27.84 14.08L27.84 14.08Q28.39 13.64 28.94 12.24L28.94 12.24L28.94 12.24Q29.78 10.14 31.28 5.17L31.28 5.17L29.56 5.17L29.56 5.17Q30.28 4.63 30.67 4.44L30.67 4.44L30.67 4.44Q31.06 4.25 31.10 4.25L31.10 4.25L32.83 4.25L32.83 4.25Q33.17 5.20 33.52 6.14L33.52 6.14L33.52 6.14Q33.87 7.08 34.14 7.80L34.14 7.80L34.14 7.80Q34.40 8.52 34.58 9.00L34.58 9.00L34.58 9.00Q34.77 9.47 34.94 9.95L34.94 9.95L34.94 9.95Q35.31 11.01 35.50 11.92L35.50 11.92L35.50 11.92Q36.45 10.74 37.36 9.56L37.36 9.56L37.36 9.56Q38.27 8.38 38.96 7.51L38.96 7.51L38.96 7.51Q39.64 6.63 40.07 6.06L40.07 6.06L40.07 6.06Q40.50 5.50 40.79 5.17L40.79 5.17L40.79 5.17Q41.08 4.85 41.28 4.73L41.28 4.73L41.28 4.73Q41.47 4.60 41.70 4.48L41.70 4.48L41.70 4.48Q41.92 4.35 42.15 4.24L42.15 4.24L42.15 4.24Q42.37 4.13 42.52 4.04L42.52 4.04L42.52 4.04Q42.25 5.58 41.96 7.11L41.96 7.11L41.96 7.11Q41.67 8.63 41.50 9.58L41.50 9.58L41.50 9.58Q41.32 10.53 41.27 10.88L41.27 10.88L41.27 10.88Q41.21 11.23 41.13 11.62L41.13 11.62L41.13 11.62Q40.91 12.58 40.41 13.15L40.41 13.15L42.44 13.15L42.44 13.15Q42.25 13.21 41.84 13.52L41.84 13.52L41.84 13.52Q41.42 13.84 41.22 13.96L41.22 13.96L41.22 13.96Q41.03 14.08 40.89 14.08L40.89 14.08L38.86 14.08L38.86 14.08Q39.26 13.64 39.43 13.04L39.43 13.04L39.43 13.04Q39.66 12.23 40.07 10.01L40.07 10.01L40.07 10.01Q40.48 7.79 40.72 6.38L40.72 6.38L40.72 6.38Q39.83 7.48 38.97 8.58L38.97 8.58L38.97 8.58Q38.10 9.67 37.53 10.39L37.53 10.39L37.53 10.39Q36.96 11.10 36.71 11.43L36.71 11.43L36.71 11.43Q36.46 11.75 36.27 12.01L36.27 12.01L36.27 12.01Q36.07 12.26 35.93 12.46L35.93 12.46L35.93 12.46Q35.79 12.65 35.68 12.76L35.68 12.76L35.68 12.76Q35.57 12.88 35.37 13.01L35.37 13.01L35.37 13.01Q35.16 13.14 34.91 13.28L34.91 13.28L34.91 13.28Q34.67 13.43 34.43 13.56L34.43 13.56L34.43 13.56Q34.20 13.69 34.09 13.75L34.09 13.75L34.09 13.75Q33.99 12.65 33.65 11.64L33.65 11.64L33.65 11.64Q33.31 10.64 33.08 10.04L33.08 10.04L33.08 10.04Q32.85 9.44 32.63 8.83L32.63 8.83L31.96 7.02L31.96 7.02Q30.86 10.48 30.52 11.30L30.52 11.30L30.52 11.30Q30.18 12.11 29.95 12.52L29.95 12.52L29.95 12.52Q29.72 12.93 29.44 13.15L29.44 13.15ZM49.98 7.42L49.98 7.42L49.98 7.42Q50.39 7.42 50.39 7.81L50.39 7.81L50.39 7.81Q50.39 7.90 50.37 7.98L50.37 7.98L49.43 12.02L49.43 12.02Q48.88 14.36 47.33 16.16L47.33 16.16L47.33 16.16Q46.24 17.44 44.84 17.96L44.84 17.96L44.84 17.96Q44.13 18.24 43.34 18.24L43.34 18.24L43.34 18.24Q42.72 18.24 42.38 17.98L42.38 17.98L42.38 17.98Q42.25 17.88 42.25 17.75L42.25 17.75L42.25 17.75Q42.25 17.62 42.36 17.49L42.36 17.49L42.36 17.49Q42.46 17.37 42.63 17.25L42.63 17.25L42.63 17.25Q42.80 17.13 43.00 17.01L43.00 17.01L43.00 17.01Q43.21 16.89 43.41 16.79L43.41 16.79L43.41 16.79Q43.92 16.52 44.03 16.44L44.03 16.44L44.03 16.44Q43.78 16.59 43.78 16.77L43.78 16.77L43.78 16.77Q43.78 16.95 43.92 17.05L43.92 17.05L43.92 17.05Q44.06 17.14 44.26 17.21L44.26 17.21L44.26 17.21Q44.60 17.32 45.01 17.32L45.01 17.32L45.01 17.32Q45.42 17.32 45.79 17.11L45.79 17.11L45.79 17.11Q46.17 16.89 46.47 16.54L46.47 16.54L46.47 16.54Q46.76 16.18 46.98 15.73L46.98 15.73L46.98 15.73Q47.20 15.28 47.37 14.80L47.37 14.80L47.37 14.80Q47.56 14.25 47.86 13.04L47.86 13.04L47.86 13.04Q46.07 14.21 44.91 14.21L44.91 14.21L44.91 14.21Q43.75 14.21 43.75 13.06L43.75 13.06L43.75 13.06Q43.75 12.76 43.83 12.44L43.83 12.44L44.39 10.02L44.39 10.02Q44.55 9.30 44.55 9.00L44.55 9.00L44.55 9.00Q44.55 8.31 44.00 8.31L44.00 8.31L44.00 8.31Q43.77 8.31 43.48 8.41L43.48 8.41L43.48 8.41Q44.20 7.90 44.48 7.73L44.48 7.73L44.48 7.73Q45.12 7.37 45.61 7.37L45.61 7.37L45.61 7.37Q46.18 7.37 46.18 7.92L46.18 7.92L46.18 7.92Q46.18 8.19 45.88 9.40L45.88 9.40L45.88 9.40Q45.59 10.61 45.49 11.06L45.49 11.06L45.49 11.06Q45.32 11.79 45.32 12.12L45.32 12.12L45.32 12.12Q45.32 12.46 45.41 12.68L45.41 12.68L45.41 12.68Q45.51 12.90 45.68 13.03L45.68 13.03L45.68 13.03Q46.01 13.28 46.66 13.28L46.66 13.28L46.66 13.28Q47.35 13.28 47.96 12.63L47.96 12.63L48.75 9.21L48.75 9.21Q48.82 8.93 48.82 8.76L48.82 8.76L48.82 8.76Q48.82 8.34 48.47 8.34L48.47 8.34L48.47 8.34Q48.30 8.34 48.13 8.41L48.13 8.41L48.13 8.41Q48.30 8.29 48.53 8.12L48.53 8.12L48.53 8.12Q48.77 7.96 49.03 7.80L49.03 7.80L49.03 7.80Q49.64 7.42 49.98 7.42ZM59.00 5.17L55.43 5.17L55.43 5.17Q56.82 4.25 56.97 4.25L56.97 4.25L64.68 4.25L64.68 4.25Q64.57 4.27 64.18 4.55L64.18 4.55L64.18 4.55Q63.78 4.84 63.63 4.94L63.63 4.94L63.63 4.94Q63.29 5.17 63.14 5.17L63.14 5.17L60.33 5.17L58.88 11.43L58.88 11.43Q58.67 12.27 58.26 12.83L58.26 12.83L58.26 12.83Q58.11 13.04 57.92 13.15L57.92 13.15L60.18 13.15L60.18 13.15Q60.05 13.18 59.66 13.47L59.66 13.47L59.66 13.47Q59.27 13.75 59.12 13.85L59.12 13.85L59.12 13.85Q58.78 14.08 58.63 14.08L58.63 14.08L56.25 14.08L56.25 14.08Q56.76 13.70 56.92 13.45L56.92 13.45L56.92 13.45Q57.18 13.04 57.31 12.45L57.31 12.45L59.00 5.17ZM67.03 8.15L67.03 8.15L67.03 8.15Q67.03 9.58 63.13 11.53L63.13 11.53L63.13 11.53Q63.20 13.25 64.93 13.25L64.93 13.25L64.93 13.25Q65.71 13.25 66.55 12.82L66.55 12.82L66.55 12.82Q65.58 13.75 64.12 14.08L64.12 14.08L64.12 14.08Q63.66 14.18 63.23 14.18L63.23 14.18L63.23 14.18Q62.79 14.18 62.48 14.02L62.48 14.02L62.48 14.02Q62.17 13.87 61.97 13.61L61.97 13.61L61.97 13.61Q61.60 13.10 61.60 12.41L61.60 12.41L61.60 12.41Q61.60 11.72 61.81 11.15L61.81 11.15L61.81 11.15Q62.02 10.59 62.37 10.05L62.37 10.05L62.37 10.05Q62.72 9.51 63.18 9.02L63.18 9.02L63.18 9.02Q63.65 8.54 64.18 8.18L64.18 8.18L64.18 8.18Q65.32 7.38 66.29 7.38L66.29 7.38L66.29 7.38Q66.64 7.38 66.83 7.60L66.83 7.60L66.83 7.60Q67.03 7.81 67.03 8.15ZM65.32 9.52L65.32 9.52L65.32 9.52Q65.49 9.25 65.49 9.03L65.49 9.03L65.49 9.03Q65.49 8.80 65.31 8.57L65.31 8.57L65.31 8.57Q65.14 8.34 64.83 8.34L64.83 8.34L64.83 8.34Q64.51 8.34 64.29 8.49L64.29 8.49L64.29 8.49Q64.07 8.65 63.89 8.89L63.89 8.89L63.89 8.89Q63.71 9.14 63.57 9.45L63.57 9.45L63.57 9.45Q63.44 9.76 63.34 10.08L63.34 10.08L63.34 10.08Q63.17 10.68 63.14 11.20L63.14 11.20L63.14 11.20Q63.81 11.03 64.66 10.25L64.66 10.25L64.66 10.25Q65.16 9.79 65.32 9.52ZM72.65 8.79L72.65 8.79L72.65 8.79Q72.70 8.76 72.77 8.68L72.77 8.68L72.77 8.68Q72.84 8.59 72.84 8.55L72.84 8.55L72.84 8.55Q72.84 8.51 72.75 8.45L72.75 8.45L72.75 8.45Q72.67 8.39 72.53 8.34L72.53 8.34L72.53 8.34Q72.40 8.29 72.24 8.24L72.24 8.24L72.24 8.24Q72.08 8.20 71.92 8.17L71.92 8.17L71.92 8.17Q71.58 8.11 71.32 8.11L71.32 8.11L71.32 8.11Q71.06 8.11 70.73 8.24L70.73 8.24L70.73 8.24Q70.40 8.38 70.14 8.62L70.14 8.62L70.14 8.62Q69.88 8.85 69.68 9.17L69.68 9.17L69.68 9.17Q69.49 9.48 69.36 9.83L69.36 9.83L69.36 9.83Q69.11 10.53 69.11 11.15L69.11 11.15L69.11 11.15Q69.11 11.78 69.27 12.15L69.27 12.15L69.27 12.15Q69.43 12.53 69.71 12.78L69.71 12.78L69.71 12.78Q70.27 13.26 71.28 13.26L71.28 13.26L71.28 13.26Q72.10 13.26 72.93 12.85L72.93 12.85L72.93 12.85Q71.89 13.76 70.50 14.08L70.50 14.08L70.50 14.08Q70.05 14.19 69.60 14.19L69.60 14.19L69.60 14.19Q69.16 14.19 68.77 14.06L68.77 14.06L68.77 14.06Q68.39 13.92 68.11 13.67L68.11 13.67L68.11 13.67Q67.54 13.13 67.54 12.18L67.54 12.18L67.54 12.18Q67.54 11.02 68.45 9.81L68.45 9.81L68.45 9.81Q69.30 8.68 70.57 7.95L70.57 7.95L70.57 7.95Q71.89 7.20 73.01 7.20L73.01 7.20L73.01 7.20Q73.76 7.20 74.25 7.50L74.25 7.50L74.25 7.50Q74.37 7.56 74.37 7.64L74.37 7.64L74.37 7.64Q74.37 7.71 74.26 7.82L74.26 7.82L74.26 7.82Q74.15 7.92 73.98 8.05L73.98 8.05L73.98 8.05Q73.81 8.18 73.61 8.31L73.61 8.31L73.61 8.31Q73.40 8.44 73.21 8.54L73.21 8.54L73.21 8.54Q72.79 8.78 72.65 8.79ZM76.23 4.42L76.23 4.42L76.23 4.42Q76.23 3.92 75.82 3.92L75.82 3.92L75.82 3.92Q75.56 3.92 75.19 4.02L75.19 4.02L75.19 4.02Q76.15 3.38 78.11 2.30L78.11 2.30L76.65 8.57L76.65 8.57Q77.65 7.84 78.63 7.55L78.63 7.55L78.63 7.55Q78.98 7.44 79.27 7.44L79.27 7.44L79.27 7.44Q79.55 7.44 79.78 7.52L79.78 7.52L79.78 7.52Q80.01 7.59 80.19 7.72L80.19 7.72L80.19 7.72Q80.57 8.04 80.57 8.54L80.57 8.54L80.57 8.54Q80.57 8.67 80.53 8.83L80.53 8.83L79.73 12.30L79.73 12.30Q79.65 12.59 79.65 12.86L79.65 12.86L79.65 12.86Q79.65 13.13 79.79 13.23L79.79 13.23L79.79 13.23Q79.92 13.33 80.13 13.33L80.13 13.33L80.13 13.33Q80.34 13.33 80.51 13.27L80.51 13.27L80.51 13.27Q80.68 13.21 80.82 13.16L80.82 13.16L80.82 13.16Q79.75 14.19 78.74 14.19L78.74 14.19L78.74 14.19Q78.13 14.19 78.13 13.62L78.13 13.62L78.13 13.62Q78.13 13.39 78.19 13.16L78.19 13.16L78.19 13.16Q78.25 12.93 78.31 12.70L78.31 12.70L78.90 10.14L78.90 10.14Q79.03 9.63 79.03 9.30L79.03 9.30L79.03 9.30Q79.03 8.97 78.94 8.80L78.94 8.80L78.94 8.80Q78.86 8.63 78.71 8.54L78.71 8.54L78.71 8.54Q78.46 8.39 77.97 8.39L77.97 8.39L77.97 8.39Q77.48 8.39 77.19 8.60L77.19 8.60L77.19 8.60Q76.90 8.81 76.70 9.13L76.70 9.13L76.70 9.13Q76.40 9.63 76.19 10.53L76.19 10.53L75.71 12.59L75.71 12.59Q75.66 12.83 75.66 12.95L75.66 12.95L75.66 12.95Q75.66 13.28 75.95 13.28L75.95 13.28L75.95 13.28Q76.06 13.28 76.39 13.16L76.39 13.16L76.39 13.16Q75.97 13.83 75.25 14.10L75.25 14.10L75.25 14.10Q75.01 14.19 74.81 14.19L74.81 14.19L74.81 14.19Q74.61 14.19 74.50 14.14L74.50 14.14L74.50 14.14Q74.40 14.09 74.35 14L74.35 14L74.35 14Q74.24 13.83 74.24 13.58L74.24 13.58L74.24 13.58Q74.24 13.22 74.33 12.80L74.33 12.80L76.15 5.00L76.15 5.00Q76.23 4.67 76.23 4.42ZM86.53 11.90L86.53 11.90L86.53 11.90Q86.21 12.17 86.21 12.40L86.21 12.40L86.21 12.40Q86.21 12.64 86.33 12.77L86.33 12.77L86.33 12.77Q86.45 12.90 86.65 12.99L86.65 12.99L86.65 12.99Q86.84 13.08 87.08 13.15L87.08 13.15L87.08 13.15Q87.32 13.21 87.55 13.24L87.55 13.24L87.55 13.24Q87.99 13.30 88.40 13.30L88.40 13.30L88.40 13.30Q88.82 13.30 89.27 13.19L89.27 13.19L89.27 13.19Q89.73 13.08 90.08 12.84L90.08 12.84L90.08 12.84Q90.86 12.30 90.86 11.28L90.86 11.28L90.86 11.28Q90.86 10.27 89.48 9.72L89.48 9.72L89.48 9.72Q89.08 9.56 88.67 9.42L88.67 9.42L88.67 9.42Q88.26 9.28 87.86 9.13L87.86 9.13L87.86 9.13Q87.47 8.98 87.16 8.78L87.16 8.78L87.16 8.78Q86.47 8.34 86.47 7.64L86.47 7.64L86.47 7.64Q86.47 6.79 87.49 5.89L87.49 5.89L87.49 5.89Q88.35 5.13 89.67 4.58L89.67 4.58L89.67 4.58Q90.92 4.05 91.72 4.05L91.72 4.05L91.72 4.05Q92.35 4.05 92.73 4.17L92.73 4.17L92.73 4.17Q93.10 4.29 93.19 4.35L93.19 4.35L93.19 4.35Q93.29 4.42 93.29 4.50L93.29 4.50L93.29 4.50Q93.29 4.59 93.17 4.70L93.17 4.70L93.17 4.70Q93.05 4.82 92.87 4.96L92.87 4.96L92.87 4.96Q92.68 5.09 92.46 5.24L92.46 5.24L92.46 5.24Q92.24 5.38 92.03 5.50L92.03 5.50L92.03 5.50Q91.51 5.79 91.40 5.83L91.40 5.83L91.40 5.83Q91.71 5.62 91.71 5.46L91.71 5.46L91.71 5.46Q91.71 5.30 91.52 5.22L91.52 5.22L91.52 5.22Q91.32 5.13 91.07 5.07L91.07 5.07L91.07 5.07Q90.64 4.99 90.22 4.99L90.22 4.99L90.22 4.99Q89.80 4.99 89.40 5.07L89.40 5.07L89.40 5.07Q89.00 5.15 88.70 5.35L88.70 5.35L88.70 5.35Q88.03 5.79 88.03 6.70L88.03 6.70L88.03 6.70Q88.03 7.72 89.40 8.22L89.40 8.22L89.40 8.22Q89.79 8.36 90.20 8.49L90.20 8.49L90.20 8.49Q90.60 8.61 90.99 8.75L90.99 8.75L90.99 8.75Q91.38 8.89 91.68 9.10L91.68 9.10L91.68 9.10Q92.37 9.56 92.37 10.22L92.37 10.22L92.37 10.22Q92.37 10.89 92.09 11.41L92.09 11.41L92.09 11.41Q91.81 11.93 91.34 12.37L91.34 12.37L91.34 12.37Q90.88 12.81 90.28 13.16L90.28 13.16L90.28 13.16Q89.69 13.51 89.06 13.75L89.06 13.75L89.06 13.75Q87.75 14.25 86.70 14.25L86.70 14.25L86.70 14.25Q86.17 14.25 85.71 14.12L85.71 14.12L85.71 14.12Q85.25 13.99 85.06 13.89L85.06 13.89L85.06 13.89Q84.63 13.67 84.63 13.38L84.63 13.38L84.63 13.38Q84.63 12.80 86.53 11.90ZM94.32 14.21L94.32 14.21L94.32 14.21Q93.37 14.21 93.37 13.15L93.37 13.15L93.37 13.15Q93.37 12.83 93.46 12.41L93.46 12.41L94.45 8.16L93.56 8.16L93.56 8.16Q93.82 7.98 94.09 7.81L94.09 7.81L94.09 7.81Q94.35 7.64 94.62 7.46L94.62 7.46L94.83 6.49L94.83 6.49Q95.26 6.23 95.46 6.09L95.46 6.09L95.46 6.09Q95.66 5.95 95.77 5.89L95.77 5.89L95.77 5.89Q95.89 5.82 96.02 5.76L96.02 5.76L96.02 5.76Q96.33 5.61 96.38 5.56L96.38 5.56L96.00 7.23L98.18 7.23L98.18 7.23Q98.07 7.25 97.64 7.56L97.64 7.56L97.64 7.56Q96.84 8.16 96.64 8.16L96.64 8.16L95.78 8.16L94.92 11.82L94.92 11.82Q94.83 12.24 94.83 12.60L94.83 12.60L94.83 12.60Q94.83 13.33 95.76 13.33L95.76 13.33L95.76 13.33Q96.06 13.33 96.31 13.22L96.31 13.22L96.31 13.22Q96.57 13.11 96.67 13.07L96.67 13.07L96.67 13.07Q96.01 13.86 94.96 14.12L94.96 14.12L94.96 14.12Q94.63 14.21 94.32 14.21ZM104.32 7.43L104.32 7.43L104.32 7.43Q104.70 7.43 104.70 7.84L104.70 7.84L104.70 7.84Q104.70 7.96 104.67 8.09L104.67 8.09L103.66 12.43L103.66 12.43Q103.65 12.50 103.63 12.58L103.63 12.58L103.63 12.58Q103.62 12.65 103.62 12.73L103.62 12.73L103.62 12.73Q103.62 13.04 103.81 13.14L103.81 13.14L103.81 13.14Q104.00 13.25 104.21 13.25L104.21 13.25L104.21 13.25Q104.54 13.25 104.88 13.14L104.88 13.14L104.88 13.14Q104.58 13.23 104.36 13.41L104.36 13.41L104.36 13.41Q104.15 13.59 103.91 13.77L103.91 13.77L103.91 13.77Q103.35 14.19 102.73 14.19L102.73 14.19L102.73 14.19Q102.12 14.19 102.12 13.62L102.12 13.62L102.12 13.62Q102.12 13.43 102.18 13.09L102.18 13.09L102.18 13.09Q100.43 14.22 99.27 14.22L99.27 14.22L99.27 14.22Q98.16 14.22 98.16 12.87L98.16 12.87L98.16 12.87Q98.16 12.44 98.29 11.85L98.29 11.85L98.83 9.55L98.83 9.55Q98.93 9.11 98.93 8.89L98.93 8.89L98.93 8.89Q98.93 8.32 98.33 8.32L98.33 8.32L98.33 8.32Q98.08 8.32 97.82 8.42L97.82 8.42L97.82 8.42Q98.03 8.26 98.29 8.08L98.29 8.08L98.29 8.08Q98.54 7.90 98.81 7.74L98.81 7.74L98.81 7.74Q99.46 7.38 99.94 7.38L99.94 7.38L99.94 7.38Q100.50 7.38 100.50 7.94L100.50 7.94L100.50 7.94Q100.50 8.20 100.35 8.81L100.35 8.81L100.35 8.81Q99.75 11.27 99.70 11.61L99.70 11.61L99.70 11.61Q99.65 11.94 99.65 12.21L99.65 12.21L99.65 12.21Q99.65 12.48 99.74 12.69L99.74 12.69L99.74 12.69Q99.84 12.91 100.02 13.04L100.02 13.04L100.02 13.04Q100.33 13.29 100.99 13.29L100.99 13.29L100.99 13.29Q101.42 13.29 101.97 12.92L101.97 12.92L101.97 12.92Q102.12 12.82 102.27 12.74L102.27 12.74L103.11 9.13L103.11 9.13Q103.15 8.96 103.15 8.79L103.15 8.79L103.15 8.79Q103.15 8.35 102.79 8.35L102.79 8.35L102.79 8.35Q102.63 8.35 102.46 8.42L102.46 8.42L102.46 8.42Q103.80 7.43 104.32 7.43ZM104.43 16.65L104.43 16.65L104.43 16.65Q104.19 16.81 104.19 16.99L104.19 16.99L104.19 16.99Q104.19 17.29 104.54 17.27L104.54 17.27L104.55 17.27L104.55 17.27Q105.47 16.17 105.98 13.93L105.98 13.93L107.30 8.22L106.44 8.22L106.44 8.22Q107.08 7.80 107.46 7.55L107.46 7.55L107.46 7.55Q107.78 6.15 107.98 5.65L107.98 5.65L107.98 5.65Q108.19 5.15 108.39 4.84L108.39 4.84L108.39 4.84Q108.60 4.52 108.90 4.23L108.90 4.23L108.90 4.23Q109.47 3.70 110.65 3.03L110.65 3.03L110.65 3.03Q111.77 2.38 112.64 2.38L112.64 2.38L112.64 2.38Q112.93 2.38 113.28 2.49L113.28 2.49L113.28 2.49Q113.97 2.69 113.97 2.91L113.97 2.91L113.97 2.91Q113.97 3.14 112.81 3.79L112.81 3.79L112.81 3.79Q112.37 4.03 112.23 4.04L112.23 4.04L112.23 4.04Q112.42 3.86 112.42 3.83L112.42 3.83L112.42 3.83Q112.42 3.64 111.84 3.46L111.84 3.46L111.84 3.46Q111.34 3.30 111.12 3.30L111.12 3.30L111.12 3.30Q110.65 3.30 110.35 3.39L110.35 3.39L110.35 3.39Q109.51 4.27 109.07 6.28L109.07 6.28L109.07 6.28Q108.96 6.81 108.85 7.29L108.85 7.29L111.41 7.29L111.41 7.29Q111.28 7.32 110.85 7.64L110.85 7.64L110.85 7.64Q110.42 7.96 110.21 8.09L110.21 8.09L110.21 8.09Q110.00 8.22 109.87 8.22L109.87 8.22L108.64 8.22L107.33 13.81L107.33 13.81Q107.12 14.73 106.48 15.74L106.48 15.74L106.48 15.74Q105.42 17.42 104.02 18.01L104.02 18.01L104.02 18.01Q103.54 18.20 103.10 18.20L103.10 18.20L103.10 18.20Q102.66 18.20 102.66 17.96L102.66 17.96L102.66 17.96Q102.66 17.59 103.80 17.00L103.80 17.00L103.80 17.00Q104.28 16.75 104.43 16.65ZM109.38 16.65L109.38 16.65L109.38 16.65Q109.14 16.81 109.14 16.99L109.14 16.99L109.14 16.99Q109.14 17.29 109.48 17.27L109.48 17.27L109.50 17.27L109.50 17.27Q110.42 16.17 110.93 13.93L110.93 13.93L112.25 8.22L111.39 8.22L111.39 8.22Q112.03 7.80 112.41 7.55L112.41 7.55L112.41 7.55Q112.72 6.15 112.93 5.65L112.93 5.65L112.93 5.65Q113.13 5.15 113.34 4.84L113.34 4.84L113.34 4.84Q113.55 4.52 113.85 4.23L113.85 4.23L113.85 4.23Q114.42 3.70 115.60 3.03L115.60 3.03L115.60 3.03Q116.72 2.38 117.59 2.38L117.59 2.38L117.59 2.38Q117.88 2.38 118.23 2.49L118.23 2.49L118.23 2.49Q118.92 2.69 118.92 2.91L118.92 2.91L118.92 2.91Q118.92 3.14 117.76 3.79L117.76 3.79L117.76 3.79Q117.32 4.03 117.18 4.04L117.18 4.04L117.18 4.04Q117.37 3.86 117.37 3.83L117.37 3.83L117.37 3.83Q117.37 3.64 116.79 3.46L116.79 3.46L116.79 3.46Q116.29 3.30 116.07 3.30L116.07 3.30L116.07 3.30Q115.60 3.30 115.29 3.39L115.29 3.39L115.29 3.39Q114.46 4.27 114.02 6.28L114.02 6.28L114.02 6.28Q113.91 6.81 113.80 7.29L113.80 7.29L116.36 7.29L116.36 7.29Q116.22 7.32 115.80 7.64L115.80 7.64L115.80 7.64Q115.37 7.96 115.16 8.09L115.16 8.09L115.16 8.09Q114.95 8.22 114.82 8.22L114.82 8.22L113.59 8.22L112.28 13.81L112.28 13.81Q112.07 14.73 111.43 15.74L111.43 15.74L111.43 15.74Q110.37 17.42 108.97 18.01L108.97 18.01L108.97 18.01Q108.49 18.20 108.05 18.20L108.05 18.20L108.05 18.20Q107.61 18.20 107.61 17.96L107.61 17.96L107.61 17.96Q107.61 17.59 108.75 17.00L108.75 17.00L108.75 17.00Q109.23 16.75 109.38 16.65Z"></path></g><!----><g data-v-423bf9ae="" id="c8d0cf05-2524-4871-9e6c-292703445686" transform="matrix(1.0566665649414062,0,0,1.0566665649414062,-15.719995117187494,-1.3294901328092195)" stroke="none" fill="white"><path d="M79.4 20.3c-.9 0-1.6.7-1.6 1.6 0 .8.5 1.4 1.3 1.6v10.7l-8.3 8.3h-9.4c-1.2-2.9-3.3-5.4-5.9-7.1v-28h14.8v-.7H54.9v28.2c-1-.6-2-1.1-3-1.5v-7l-3.2-3.2c.2-.3.3-.6.3-.9 0-.9-.7-1.6-1.6-1.6-.9 0-1.6.7-1.6 1.6 0 .9.7 1.6 1.6 1.6.3 0 .6-.1.9-.3l3 3v6.5c-1.6-.5-3.3-.8-5.1-.8h-.4V4.9H73v-.6H45v28.1c-.9.1-1.7.2-2.5.4V11.9l-8-8c.1-.2.2-.5.2-.8 0-.9-.7-1.6-1.6-1.6-.9 0-1.6.7-1.6 1.6 0 .9.7 1.6 1.6 1.6.4 0 .7-.1 1-.3l7.8 7.8V33c-.8.2-1.5.5-2.2.8V23.5h-2v-7.1L26.9 5.7c.1-.2.2-.5.2-.8 0-.9-.7-1.6-1.6-1.6-.9 0-1.6.7-1.6 1.6s.7 1.6 1.6 1.6c.3 0 .7-.1.9-.3L37 16.7v7.5h2v9.7c-1.1.5-2 1.1-3 1.8V17.6L26.4 8l-.4.5 9.4 9.4v18.4c-1.4 1.2-2.6 2.5-3.5 4.1h-9.8v.6h9.4c-.5 1-1 2-1.3 3.1H15.6v.6H30c-.3 1.3-.5 2.6-.6 4h-2.8c-.1-.7-.8-1.3-1.6-1.3-.9 0-1.6.7-1.6 1.6 0 .9.7 1.6 1.6 1.6.8 0 1.4-.5 1.6-1.3h2.8c0 .8.1 1.6.2 2.3H18.3v.6h11.4c.2.8.4 1.7.7 2.4H18.2c-.1-.7-.8-1.3-1.6-1.3-.9 0-1.6.7-1.6 1.6s.7 1.6 1.6 1.6c.8 0 1.4-.5 1.6-1.3h12.5c.4.9.8 1.7 1.3 2.5H15.6v.6h16.9c.8 1.2 1.8 2.3 2.9 3.2V78L26 87.6l.4.4 9.6-9.6V62.3c.5.4 1 .7 1.6 1.1v3.2c-.7.1-1.3.8-1.3 1.6 0 .9.7 1.6 1.6 1.6s1.6-.7 1.6-1.6c0-.8-.5-1.4-1.3-1.6v-2.8c.8.4 1.6.8 2.4 1.1v12.3h.6V65c1.2.4 2.4.6 3.7.7v13.1h-4.3v17.8h.6V79.3h4.3V65.6h.4c.5 0 1 0 1.5-.1v10.2h.6V65.5c.4-.1.8-.1 1.2-.2V82h.8V65.2c1.6-.4 3.1-1 4.5-1.8v4h10.8v20.5c-.7.2-1.2.8-1.2 1.5 0 .9.7 1.6 1.6 1.6.9 0 1.6-.7 1.6-1.6 0-.8-.6-1.5-1.4-1.6V66.7H55.1V63c3-2 5.4-4.9 6.6-8.4h6.5v-2.3h2.4v17h.6V51.6h-3.6V54H62c.4-1.2.6-2.4.7-3.7h9.2v15.9h.6V49.6h-9.8V49c0-1.3-.1-2.5-.4-3.7h6.6v3.1H74v13.9c-.7.1-1.3.8-1.3 1.6 0 .9.7 1.6 1.6 1.6s1.6-.7 1.6-1.6c0-.8-.5-1.4-1.3-1.6V47.7h-5.1v-3.1h-7.3c-.1-.5-.3-1.1-.5-1.6H71l8.7-8.7V23.4c.7-.1 1.3-.8 1.3-1.6s-.7-1.5-1.6-1.5zm-32 3c-.5 0-1-.4-1-1 0-.5.4-1 1-1 .5 0 1 .4 1 1-.1.5-.5 1-1 1zM33.1 4c-.5 0-1-.4-1-1 0-.5.4-1 1-1 .5 0 1 .4 1 1s-.5 1-1 1zm-6.8 1.5l-.1.1c-.2.1-.4.2-.6.2-.5 0-1-.4-1-1 0-.5.4-1 1-1 .5 0 1 .4 1 1-.1.3-.2.5-.3.7zM25.1 50c-.5 0-1-.4-1-1 0-.5.4-1 1-1 .5 0 1 .4 1 1 0 .5-.5 1-1 1zm-8.5 6c-.5 0-1-.4-1-1 0-.5.4-1 1-1 .5 0 1 .4 1 1s-.5 1-1 1zm22.3 12c0 .5-.4 1-1 1-.5 0-1-.4-1-1 0-.5.4-1 1-1 .6.1 1 .5 1 1zm27.8 21.3c0 .5-.4 1-1 1-.5 0-1-.4-1-1 0-.5.4-1 1-1 .5.1 1 .5 1 1zm8.5-25.5c0 .5-.4 1-1 1-.5 0-1-.4-1-1 0-.5.4-1 1-1 .6.1 1 .5 1 1zm-29.1.9c-8.7 0-15.7-7-15.7-15.7s7-15.7 15.7-15.7 15.7 7 15.7 15.7-7.1 15.7-15.7 15.7zm33.3-41.9c-.5 0-1-.4-1-1 0-.5.4-1 1-1 .5 0 1 .4 1 1-.1.6-.5 1-1 1z"></path><path d="M38.1 38.9l-2.2 2.2v18h20.3V38.9H38.1zm16.4 18.6h-17V42.4l1.9-1.9h15.1v17z"></path><path d="M38.3 43v13.7h15.4V41.3H40z"></path></g><!----><g data-v-423bf9ae="" id="e9a0ebf0-e22b-4921-9dae-012af0689182" fill="white" transform="matrix(0.5341722373866048,0,0,0.5341722373866048,89.10433087670017,56.96590209574797)"><path d="M4.69 11.65L2.37 11.65L2.37 15.68L1.19 15.68L1.19 5.88L4.69 5.88L4.69 5.88Q5.45 5.88 6.01 6.10L6.01 6.10L6.01 6.10Q6.57 6.31 6.94 6.68L6.94 6.68L6.94 6.68Q7.31 7.04 7.50 7.53L7.50 7.53L7.50 7.53Q7.69 8.01 7.69 8.54L7.69 8.54L7.69 8.96L7.69 8.96Q7.69 9.49 7.50 9.98L7.50 9.98L7.50 9.98Q7.31 10.47 6.93 10.84L6.93 10.84L6.93 10.84Q6.55 11.21 5.99 11.43L5.99 11.43L5.99 11.43Q5.43 11.65 4.69 11.65L4.69 11.65ZM2.37 6.97L2.37 10.56L4.55 10.56L4.55 10.56Q6.51 10.56 6.51 8.88L6.51 8.88L6.51 8.62L6.51 8.62Q6.51 7.88 6.03 7.43L6.03 7.43L6.03 7.43Q5.54 6.97 4.55 6.97L4.55 6.97L2.37 6.97ZM22.67 15.68L21.95 13.24L17.75 13.24L17.04 15.68L15.78 15.68L18.75 5.88L20.96 5.88L23.93 15.68L22.67 15.68ZM19.94 6.38L19.77 6.38L18.07 12.15L21.63 12.15L19.94 6.38ZM34.83 15.68L34.83 12.24L34.58 12.24L31.51 5.88L32.83 5.88L35.34 11.23L35.50 11.23L38.01 5.88L39.33 5.88L36.26 12.24L36.01 12.24L36.01 15.68L34.83 15.68ZM63.20 5.88L64.37 5.88L64.37 12.38L64.37 12.38Q64.37 13.57 64.92 14.17L64.92 14.17L64.92 14.17Q65.48 14.78 66.56 14.78L66.56 14.78L66.56 14.78Q67.63 14.78 68.19 14.17L68.19 14.17L68.19 14.17Q68.74 13.57 68.74 12.38L68.74 12.38L68.74 5.88L69.92 5.88L69.92 12.38L69.92 12.38Q69.92 14.08 69.02 14.98L69.02 14.98L69.02 14.98Q68.12 15.88 66.56 15.88L66.56 15.88L66.56 15.88Q64.99 15.88 64.09 14.98L64.09 14.98L64.09 14.98Q63.20 14.08 63.20 12.38L63.20 12.38L63.20 5.88ZM84.43 9.21L84.43 8.71L84.43 8.71Q84.43 8.23 84.25 7.87L84.25 7.87L84.25 7.87Q84.06 7.50 83.73 7.27L83.73 7.27L83.73 7.27Q83.41 7.03 82.99 6.90L82.99 6.90L82.99 6.90Q82.57 6.78 82.11 6.78L82.11 6.78L82.11 6.78Q81.70 6.78 81.34 6.88L81.34 6.88L81.34 6.88Q80.98 6.99 80.69 7.18L80.69 7.18L80.69 7.18Q80.40 7.38 80.23 7.66L80.23 7.66L80.23 7.66Q80.07 7.95 80.07 8.33L80.07 8.33L80.07 8.41L80.07 8.41Q80.07 8.82 80.23 9.11L80.23 9.11L80.23 9.11Q80.40 9.39 80.73 9.60L80.73 9.60L80.73 9.60Q81.06 9.80 81.55 9.93L81.55 9.93L81.55 9.93Q82.04 10.07 82.70 10.16L82.70 10.16L82.70 10.16Q84.24 10.40 84.97 11.07L84.97 11.07L84.97 11.07Q85.69 11.73 85.69 12.85L85.69 12.85L85.69 13.02L85.69 13.02Q85.69 13.65 85.48 14.17L85.48 14.17L85.48 14.17Q85.26 14.70 84.83 15.08L84.83 15.08L84.83 15.08Q84.41 15.46 83.78 15.67L83.78 15.67L83.78 15.67Q83.15 15.88 82.32 15.88L82.32 15.88L82.32 15.88Q81.38 15.88 80.66 15.60L80.66 15.60L80.66 15.60Q79.94 15.33 79.46 14.85L79.46 14.85L79.46 14.85Q78.97 14.36 78.72 13.71L78.72 13.71L78.72 13.71Q78.47 13.06 78.47 12.29L78.47 12.29L78.47 11.87L79.65 11.87L79.65 12.21L79.65 12.21Q79.65 13.50 80.35 14.14L80.35 14.14L80.35 14.14Q81.06 14.78 82.32 14.78L82.32 14.78L82.32 14.78Q83.41 14.78 83.97 14.30L83.97 14.30L83.97 14.30Q84.52 13.82 84.52 13.02L84.52 13.02L84.52 12.94L84.52 12.94Q84.52 12.17 83.95 11.76L83.95 11.76L83.95 11.76Q83.38 11.35 82.11 11.17L82.11 11.17L82.11 11.17Q81.37 11.07 80.77 10.87L80.77 10.87L80.77 10.87Q80.18 10.67 79.76 10.34L79.76 10.34L79.76 10.34Q79.34 10.01 79.11 9.55L79.11 9.55L79.11 9.55Q78.89 9.09 78.89 8.46L78.89 8.46L78.89 8.29L78.89 8.29Q78.89 7.71 79.13 7.24L79.13 7.24L79.13 7.24Q79.37 6.76 79.79 6.41L79.79 6.41L79.79 6.41Q80.22 6.06 80.81 5.87L80.81 5.87L80.81 5.87Q81.41 5.68 82.12 5.68L82.12 5.68L82.12 5.68Q82.95 5.68 83.60 5.92L83.60 5.92L83.60 5.92Q84.25 6.16 84.70 6.56L84.70 6.56L84.70 6.56Q85.15 6.96 85.38 7.50L85.38 7.50L85.38 7.50Q85.61 8.04 85.61 8.62L85.61 8.62L85.61 9.21L84.43 9.21ZM109.62 15.68L109.62 5.88L111.86 5.88L113.18 15.18L113.34 15.18L114.66 5.88L116.90 5.88L116.90 15.68L115.81 15.68L115.81 6.38L115.64 6.38L114.32 15.68L112.20 15.68L110.88 6.38L110.71 6.38L110.71 15.68L109.62 15.68ZM125.38 11.87L125.38 9.69L125.38 9.69Q125.38 7.78 126.29 6.73L126.29 6.73L126.29 6.73Q127.20 5.68 128.83 5.68L128.83 5.68L128.83 5.68Q130.45 5.68 131.36 6.73L131.36 6.73L131.36 6.73Q132.27 7.78 132.27 9.69L132.27 9.69L132.27 11.87L132.27 11.87Q132.27 13.83 131.36 14.85L131.36 14.85L131.36 14.85Q130.45 15.88 128.83 15.88L128.83 15.88L128.83 15.88Q127.20 15.88 126.29 14.85L126.29 14.85L126.29 14.85Q125.38 13.83 125.38 11.87L125.38 11.87ZM128.83 14.78L128.83 14.78L128.83 14.78Q129.96 14.78 130.53 14.01L130.53 14.01L130.53 14.01Q131.10 13.23 131.10 11.79L131.10 11.79L131.10 9.77L131.10 9.77Q131.10 8.43 130.53 7.60L130.53 7.60L130.53 7.60Q129.96 6.78 128.83 6.78L128.83 6.78L128.83 6.78Q127.69 6.78 127.13 7.60L127.13 7.60L127.13 7.60Q126.56 8.43 126.56 9.77L126.56 9.77L126.56 11.79L126.56 11.79Q126.56 13.23 127.13 14.01L127.13 14.01L127.13 14.01Q127.69 14.78 128.83 14.78ZM143.49 5.88L146.31 15.18L146.48 15.18L146.48 5.88L147.66 5.88L147.66 15.68L145.31 15.68L142.48 6.38L142.31 6.38L142.31 15.68L141.13 15.68L141.13 5.88L143.49 5.88ZM157.00 15.68L157.00 5.88L162.93 5.88L162.93 6.97L158.17 6.97L158.17 10.22L162.85 10.22L162.85 11.31L158.17 11.31L158.17 14.59L163.02 14.59L163.02 15.68L157.00 15.68ZM174.94 15.68L174.94 12.24L174.69 12.24L171.63 5.88L172.94 5.88L175.45 11.23L175.62 11.23L178.12 5.88L179.44 5.88L176.37 12.24L176.12 12.24L176.12 15.68L174.94 15.68ZM190.12 14.90L190.12 14.90L190.12 14.90Q190.12 14.49 190.41 14.20L190.41 14.20L190.41 14.20Q190.69 13.92 191.10 13.92L191.10 13.92L191.10 13.92Q191.51 13.92 191.79 14.20L191.79 14.20L191.79 14.20Q192.08 14.49 192.08 14.90L192.08 14.90L192.08 14.90Q192.08 15.30 191.79 15.59L191.79 15.59L191.79 15.59Q191.51 15.88 191.10 15.88L191.10 15.88L191.10 15.88Q190.69 15.88 190.41 15.59L190.41 15.59L190.41 15.59Q190.12 15.30 190.12 14.90ZM205.69 14.90L205.69 14.90L205.69 14.90Q205.69 14.49 205.98 14.20L205.98 14.20L205.98 14.20Q206.26 13.92 206.67 13.92L206.67 13.92L206.67 13.92Q207.07 13.92 207.36 14.20L207.36 14.20L207.36 14.20Q207.65 14.49 207.65 14.90L207.65 14.90L207.65 14.90Q207.65 15.30 207.36 15.59L207.36 15.59L207.36 15.59Q207.07 15.88 206.67 15.88L206.67 15.88L206.67 15.88Q206.26 15.88 205.98 15.59L205.98 15.59L205.98 15.59Q205.69 15.30 205.69 14.90ZM221.26 14.90L221.26 14.90L221.26 14.90Q221.26 14.49 221.54 14.20L221.54 14.20L221.54 14.20Q221.83 13.92 222.24 13.92L222.24 13.92L222.24 13.92Q222.64 13.92 222.93 14.20L222.93 14.20L222.93 14.20Q223.22 14.49 223.22 14.90L223.22 14.90L223.22 14.90Q223.22 15.30 222.93 15.59L222.93 15.59L222.93 15.59Q222.64 15.88 222.24 15.88L222.24 15.88L222.24 15.88Q221.83 15.88 221.54 15.59L221.54 15.59L221.54 15.59Q221.26 15.30 221.26 14.90ZM234.44 5.88L235.62 5.88L235.62 12.38L235.62 12.38Q235.62 13.57 236.17 14.17L236.17 14.17L236.17 14.17Q236.73 14.78 237.80 14.78L237.80 14.78L237.80 14.78Q238.88 14.78 239.44 14.17L239.44 14.17L239.44 14.17Q239.99 13.57 239.99 12.38L239.99 12.38L239.99 5.88L241.16 5.88L241.16 12.38L241.16 12.38Q241.16 14.08 240.27 14.98L240.27 14.98L240.27 14.98Q239.37 15.88 237.80 15.88L237.80 15.88L237.80 15.88Q236.24 15.88 235.34 14.98L235.34 14.98L235.34 14.98Q234.44 14.08 234.44 12.38L234.44 12.38L234.44 5.88ZM255.68 9.21L255.68 8.71L255.68 8.71Q255.68 8.23 255.49 7.87L255.49 7.87L255.49 7.87Q255.30 7.50 254.98 7.27L254.98 7.27L254.98 7.27Q254.66 7.03 254.24 6.90L254.24 6.90L254.24 6.90Q253.82 6.78 253.36 6.78L253.36 6.78L253.36 6.78Q252.95 6.78 252.59 6.88L252.59 6.88L252.59 6.88Q252.22 6.99 251.94 7.18L251.94 7.18L251.94 7.18Q251.65 7.38 251.48 7.66L251.48 7.66L251.48 7.66Q251.31 7.95 251.31 8.33L251.31 8.33L251.31 8.41L251.31 8.41Q251.31 8.82 251.48 9.11L251.48 9.11L251.48 9.11Q251.65 9.39 251.98 9.60L251.98 9.60L251.98 9.60Q252.31 9.80 252.80 9.93L252.80 9.93L252.80 9.93Q253.29 10.07 253.95 10.16L253.95 10.16L253.95 10.16Q255.49 10.40 256.21 11.07L256.21 11.07L256.21 11.07Q256.94 11.73 256.94 12.85L256.94 12.85L256.94 13.02L256.94 13.02Q256.94 13.65 256.73 14.17L256.73 14.17L256.73 14.17Q256.51 14.70 256.08 15.08L256.08 15.08L256.08 15.08Q255.65 15.46 255.02 15.67L255.02 15.67L255.02 15.67Q254.39 15.88 253.57 15.88L253.57 15.88L253.57 15.88Q252.63 15.88 251.91 15.60L251.91 15.60L251.91 15.60Q251.19 15.33 250.71 14.85L250.71 14.85L250.71 14.85Q250.22 14.36 249.97 13.71L249.97 13.71L249.97 13.71Q249.72 13.06 249.72 12.29L249.72 12.29L249.72 11.87L250.89 11.87L250.89 12.21L250.89 12.21Q250.89 13.50 251.60 14.14L251.60 14.14L251.60 14.14Q252.31 14.78 253.57 14.78L253.57 14.78L253.57 14.78Q254.66 14.78 255.21 14.30L255.21 14.30L255.21 14.30Q255.77 13.82 255.77 13.02L255.77 13.02L255.77 12.94L255.77 12.94Q255.77 12.17 255.20 11.76L255.20 11.76L255.20 11.76Q254.63 11.35 253.36 11.17L253.36 11.17L253.36 11.17Q252.62 11.07 252.02 10.87L252.02 10.87L252.02 10.87Q251.43 10.67 251.01 10.34L251.01 10.34L251.01 10.34Q250.59 10.01 250.36 9.55L250.36 9.55L250.36 9.55Q250.14 9.09 250.14 8.46L250.14 8.46L250.14 8.29L250.14 8.29Q250.14 7.71 250.38 7.24L250.38 7.24L250.38 7.24Q250.61 6.76 251.04 6.41L251.04 6.41L251.04 6.41Q251.47 6.06 252.06 5.87L252.06 5.87L252.06 5.87Q252.66 5.68 253.37 5.68L253.37 5.68L253.37 5.68Q254.20 5.68 254.85 5.92L254.85 5.92L254.85 5.92Q255.50 6.16 255.95 6.56L255.95 6.56L255.95 6.56Q256.40 6.96 256.63 7.50L256.63 7.50L256.63 7.50Q256.86 8.04 256.86 8.62L256.86 8.62L256.86 9.21L255.68 9.21ZM265.97 15.68L265.97 5.88L271.91 5.88L271.91 6.97L267.15 6.97L267.15 10.22L271.82 10.22L271.82 11.31L267.15 11.31L267.15 14.59L271.99 14.59L271.99 15.68L265.97 15.68ZM296.63 11.87L296.63 9.69L296.63 9.69Q296.63 7.78 297.54 6.73L297.54 6.73L297.54 6.73Q298.45 5.68 300.08 5.68L300.08 5.68L300.08 5.68Q301.70 5.68 302.61 6.73L302.61 6.73L302.61 6.73Q303.52 7.78 303.52 9.69L303.52 9.69L303.52 11.87L303.52 11.87Q303.52 13.83 302.61 14.85L302.61 14.85L302.61 14.85Q301.70 15.88 300.08 15.88L300.08 15.88L300.08 15.88Q298.45 15.88 297.54 14.85L297.54 14.85L297.54 14.85Q296.63 13.83 296.63 11.87L296.63 11.87ZM300.08 14.78L300.08 14.78L300.08 14.78Q301.21 14.78 301.78 14.01L301.78 14.01L301.78 14.01Q302.34 13.23 302.34 11.79L302.34 11.79L302.34 9.77L302.34 9.77Q302.34 8.43 301.78 7.60L301.78 7.60L301.78 7.60Q301.21 6.78 300.08 6.78L300.08 6.78L300.08 6.78Q298.94 6.78 298.38 7.60L298.38 7.60L298.38 7.60Q297.81 8.43 297.81 9.77L297.81 9.77L297.81 11.79L297.81 11.79Q297.81 13.23 298.38 14.01L298.38 14.01L298.38 14.01Q298.94 14.78 300.08 14.78ZM312.28 5.88L313.46 5.88L313.46 12.38L313.46 12.38Q313.46 13.57 314.01 14.17L314.01 14.17L314.01 14.17Q314.57 14.78 315.64 14.78L315.64 14.78L315.64 14.78Q316.72 14.78 317.28 14.17L317.28 14.17L317.28 14.17Q317.83 13.57 317.83 12.38L317.83 12.38L317.83 5.88L319.00 5.88L319.00 12.38L319.00 12.38Q319.00 14.08 318.11 14.98L318.11 14.98L318.11 14.98Q317.21 15.88 315.64 15.88L315.64 15.88L315.64 15.88Q314.08 15.88 313.18 14.98L313.18 14.98L313.18 14.98Q312.28 14.08 312.28 12.38L312.28 12.38L312.28 5.88ZM334.28 12.15L334.28 15.68L333.10 15.68L333.10 12.40L333.10 12.40Q333.10 12.04 332.93 11.84L332.93 11.84L332.93 11.84Q332.77 11.65 332.35 11.65L332.35 11.65L329.29 11.65L329.29 15.68L328.12 15.68L328.12 5.88L331.62 5.88L331.62 5.88Q332.37 5.88 332.93 6.10L332.93 6.10L332.93 6.10Q333.49 6.31 333.87 6.68L333.87 6.68L333.87 6.68Q334.24 7.04 334.43 7.53L334.43 7.53L334.43 7.53Q334.61 8.01 334.61 8.54L334.61 8.54L334.61 8.96L334.61 8.96Q334.61 9.51 334.31 10.05L334.31 10.05L334.31 10.05Q334.01 10.60 333.38 10.89L333.38 10.89L333.38 11.06L333.38 11.06Q333.80 11.13 334.04 11.40L334.04 11.40L334.04 11.40Q334.28 11.66 334.28 12.15L334.28 12.15ZM329.29 6.97L329.29 10.56L331.48 10.56L331.48 10.56Q332.47 10.56 332.95 10.13L332.95 10.13L332.95 10.13Q333.44 9.70 333.44 8.88L333.44 8.88L333.44 8.62L333.44 8.62Q333.44 7.88 332.95 7.43L332.95 7.43L332.95 7.43Q332.47 6.97 331.48 6.97L331.48 6.97L329.29 6.97ZM364.66 9.21L364.66 8.71L364.66 8.71Q364.66 8.23 364.47 7.87L364.47 7.87L364.47 7.87Q364.28 7.50 363.96 7.27L363.96 7.27L363.96 7.27Q363.64 7.03 363.22 6.90L363.22 6.90L363.22 6.90Q362.80 6.78 362.33 6.78L362.33 6.78L362.33 6.78Q361.93 6.78 361.56 6.88L361.56 6.88L361.56 6.88Q361.20 6.99 360.91 7.18L360.91 7.18L360.91 7.18Q360.63 7.38 360.46 7.66L360.46 7.66L360.46 7.66Q360.29 7.95 360.29 8.33L360.29 8.33L360.29 8.41L360.29 8.41Q360.29 8.82 360.46 9.11L360.46 9.11L360.46 9.11Q360.63 9.39 360.95 9.60L360.95 9.60L360.95 9.60Q361.28 9.80 361.77 9.93L361.77 9.93L361.77 9.93Q362.26 10.07 362.92 10.16L362.92 10.16L362.92 10.16Q364.46 10.40 365.19 11.07L365.19 11.07L365.19 11.07Q365.92 11.73 365.92 12.85L365.92 12.85L365.92 13.02L365.92 13.02Q365.92 13.65 365.70 14.17L365.70 14.17L365.70 14.17Q365.48 14.70 365.06 15.08L365.06 15.08L365.06 15.08Q364.63 15.46 364.00 15.67L364.00 15.67L364.00 15.67Q363.37 15.88 362.54 15.88L362.54 15.88L362.54 15.88Q361.61 15.88 360.88 15.60L360.88 15.60L360.88 15.60Q360.16 15.33 359.68 14.85L359.68 14.85L359.68 14.85Q359.20 14.36 358.95 13.71L358.95 13.71L358.95 13.71Q358.69 13.06 358.69 12.29L358.69 12.29L358.69 11.87L359.87 11.87L359.87 12.21L359.87 12.21Q359.87 13.50 360.58 14.14L360.58 14.14L360.58 14.14Q361.28 14.78 362.54 14.78L362.54 14.78L362.54 14.78Q363.64 14.78 364.19 14.30L364.19 14.30L364.19 14.30Q364.74 13.82 364.74 13.02L364.74 13.02L364.74 12.94L364.74 12.94Q364.74 12.17 364.17 11.76L364.17 11.76L364.17 11.76Q363.61 11.35 362.33 11.17L362.33 11.17L362.33 11.17Q361.59 11.07 361.00 10.87L361.00 10.87L361.00 10.87Q360.40 10.67 359.98 10.34L359.98 10.34L359.98 10.34Q359.56 10.01 359.34 9.55L359.34 9.55L359.34 9.55Q359.11 9.09 359.11 8.46L359.11 8.46L359.11 8.29L359.11 8.29Q359.11 7.71 359.35 7.24L359.35 7.24L359.35 7.24Q359.59 6.76 360.02 6.41L360.02 6.41L360.02 6.41Q360.44 6.06 361.04 5.87L361.04 5.87L361.04 5.87Q361.63 5.68 362.35 5.68L362.35 5.68L362.35 5.68Q363.17 5.68 363.82 5.92L363.82 5.92L363.82 5.92Q364.48 6.16 364.92 6.56L364.92 6.56L364.92 6.56Q365.37 6.96 365.60 7.50L365.60 7.50L365.60 7.50Q365.83 8.04 365.83 8.62L365.83 8.62L365.83 9.21L364.66 9.21ZM374.47 6.97L374.47 5.88L381.36 5.88L381.36 6.97L378.50 6.97L378.50 15.68L377.33 15.68L377.33 6.97L374.47 6.97ZM390.12 5.88L391.30 5.88L391.30 12.38L391.30 12.38Q391.30 13.57 391.85 14.17L391.85 14.17L391.85 14.17Q392.41 14.78 393.48 14.78L393.48 14.78L393.48 14.78Q394.56 14.78 395.11 14.17L395.11 14.17L395.11 14.17Q395.67 13.57 395.67 12.38L395.67 12.38L395.67 5.88L396.84 5.88L396.84 12.38L396.84 12.38Q396.84 14.08 395.95 14.98L395.95 14.98L395.95 14.98Q395.05 15.88 393.48 15.88L393.48 15.88L393.48 15.88Q391.92 15.88 391.02 14.98L391.02 14.98L391.02 14.98Q390.12 14.08 390.12 12.38L390.12 12.38L390.12 5.88ZM406.10 15.68L406.10 5.88L412.12 5.88L412.12 6.97L407.27 6.97L407.27 10.22L412.03 10.22L412.03 11.31L407.27 11.31L407.27 15.68L406.10 15.68ZM421.67 15.68L421.67 5.88L427.69 5.88L427.69 6.97L422.84 6.97L422.84 10.22L427.60 10.22L427.60 11.31L422.84 11.31L422.84 15.68L421.67 15.68ZM439.21 14.90L439.21 14.90L439.21 14.90Q439.21 14.49 439.49 14.20L439.49 14.20L439.49 14.20Q439.78 13.92 440.19 13.92L440.19 13.92L440.19 13.92Q440.59 13.92 440.88 14.20L440.88 14.20L440.88 14.20Q441.17 14.49 441.17 14.90L441.17 14.90L441.17 14.90Q441.17 15.30 440.88 15.59L440.88 15.59L440.88 15.59Q440.59 15.88 440.19 15.88L440.19 15.88L440.19 15.88Q439.78 15.88 439.49 15.59L439.49 15.59L439.49 15.59Q439.21 15.30 439.21 14.90ZM454.78 14.90L454.78 14.90L454.78 14.90Q454.78 14.49 455.06 14.20L455.06 14.20L455.06 14.20Q455.35 13.92 455.76 13.92L455.76 13.92L455.76 13.92Q456.16 13.92 456.45 14.20L456.45 14.20L456.45 14.20Q456.74 14.49 456.74 14.90L456.74 14.90L456.74 14.90Q456.74 15.30 456.45 15.59L456.45 15.59L456.45 15.59Q456.16 15.88 455.76 15.88L455.76 15.88L455.76 15.88Q455.35 15.88 455.06 15.59L455.06 15.59L455.06 15.59Q454.78 15.30 454.78 14.90ZM470.34 14.90L470.34 14.90L470.34 14.90Q470.34 14.49 470.63 14.20L470.63 14.20L470.63 14.20Q470.92 13.92 471.32 13.92L471.32 13.92L471.32 13.92Q471.73 13.92 472.02 14.20L472.02 14.20L472.02 14.20Q472.30 14.49 472.30 14.90L472.30 14.90L472.30 14.90Q472.30 15.30 472.02 15.59L472.02 15.59L472.02 15.59Q471.73 15.88 471.32 15.88L471.32 15.88L471.32 15.88Q470.92 15.88 470.63 15.59L470.63 15.59L470.63 15.59Q470.34 15.30 470.34 14.90ZM485.98 5.88L488.81 15.18L488.98 15.18L488.98 5.88L490.15 5.88L490.15 15.68L487.80 15.68L484.97 6.38L484.81 6.38L484.81 15.68L483.63 15.68L483.63 5.88L485.98 5.88ZM499.02 11.87L499.02 9.69L499.02 9.69Q499.02 7.78 499.93 6.73L499.93 6.73L499.93 6.73Q500.84 5.68 502.46 5.68L502.46 5.68L502.46 5.68Q504.08 5.68 504.99 6.73L504.99 6.73L504.99 6.73Q505.90 7.78 505.90 9.69L505.90 9.69L505.90 11.87L505.90 11.87Q505.90 13.83 504.99 14.85L504.99 14.85L504.99 14.85Q504.08 15.88 502.46 15.88L502.46 15.88L502.46 15.88Q500.84 15.88 499.93 14.85L499.93 14.85L499.93 14.85Q499.02 13.83 499.02 11.87L499.02 11.87ZM502.46 14.78L502.46 14.78L502.46 14.78Q503.59 14.78 504.16 14.01L504.16 14.01L504.16 14.01Q504.73 13.23 504.73 11.79L504.73 11.79L504.73 9.77L504.73 9.77Q504.73 8.43 504.16 7.60L504.16 7.60L504.16 7.60Q503.59 6.78 502.46 6.78L502.46 6.78L502.46 6.78Q501.33 6.78 500.76 7.60L500.76 7.60L500.76 7.60Q500.19 8.43 500.19 9.77L500.19 9.77L500.19 11.79L500.19 11.79Q500.19 13.23 500.76 14.01L500.76 14.01L500.76 14.01Q501.33 14.78 502.46 14.78ZM530.11 15.68L530.11 14.59L530.95 14.59L530.95 6.97L530.11 6.97L530.11 5.88L534.07 5.88L534.07 5.88Q534.77 5.88 535.31 6.08L535.31 6.08L535.31 6.08Q535.85 6.27 536.22 6.61L536.22 6.61L536.22 6.61Q536.59 6.94 536.78 7.41L536.78 7.41L536.78 7.41Q536.97 7.88 536.97 8.43L536.97 8.43L536.97 8.60L536.97 8.60Q536.97 9.00 536.84 9.34L536.84 9.34L536.84 9.34Q536.72 9.67 536.49 9.94L536.49 9.94L536.49 9.94Q536.27 10.21 535.97 10.39L535.97 10.39L535.97 10.39Q535.67 10.58 535.32 10.68L535.32 10.68L535.32 10.85L535.32 10.85Q536.02 11.05 536.49 11.60L536.49 11.60L536.49 11.60Q536.97 12.15 536.97 12.95L536.97 12.95L536.97 13.12L536.97 13.12Q536.97 13.66 536.78 14.13L536.78 14.13L536.78 14.13Q536.59 14.60 536.22 14.95L536.22 14.95L536.22 14.95Q535.85 15.29 535.31 15.48L535.31 15.48L535.31 15.48Q534.77 15.68 534.07 15.68L534.07 15.68L530.11 15.68ZM532.13 11.31L532.13 14.59L533.99 14.59L533.99 14.59Q534.81 14.59 535.33 14.17L535.33 14.17L535.33 14.17Q535.85 13.76 535.85 13.03L535.85 13.03L535.85 12.95L535.85 12.95Q535.85 12.19 535.36 11.75L535.36 11.75L535.36 11.75Q534.87 11.31 534.03 11.31L534.03 11.31L532.13 11.31ZM532.13 6.97L532.13 10.22L534.03 10.22L534.03 10.22Q534.87 10.22 535.36 9.79L535.36 9.79L535.36 9.79Q535.85 9.35 535.85 8.60L535.85 8.60L535.85 8.51L535.85 8.51Q535.85 7.80 535.33 7.38L535.33 7.38L535.33 7.38Q534.81 6.97 533.99 6.97L533.99 6.97L532.13 6.97ZM545.80 5.88L546.98 5.88L546.98 12.38L546.98 12.38Q546.98 13.57 547.53 14.17L547.53 14.17L547.53 14.17Q548.09 14.78 549.16 14.78L549.16 14.78L549.16 14.78Q550.24 14.78 550.79 14.17L550.79 14.17L550.79 14.17Q551.35 13.57 551.35 12.38L551.35 12.38L551.35 5.88L552.52 5.88L552.52 12.38L552.52 12.38Q552.52 14.08 551.63 14.98L551.63 14.98L551.63 14.98Q550.73 15.88 549.16 15.88L549.16 15.88L549.16 15.88Q547.60 15.88 546.70 14.98L546.70 14.98L546.70 14.98Q545.80 14.08 545.80 12.38L545.80 12.38L545.80 5.88ZM561.67 15.68L561.67 5.88L562.84 5.88L562.84 14.59L567.97 14.59L567.97 15.68L561.67 15.68ZM577.23 15.68L577.23 5.88L578.41 5.88L578.41 14.59L583.53 14.59L583.53 15.68L577.23 15.68ZM598.18 9.21L598.18 8.71L598.18 8.71Q598.18 8.23 597.99 7.87L597.99 7.87L597.99 7.87Q597.80 7.50 597.48 7.27L597.48 7.27L597.48 7.27Q597.16 7.03 596.74 6.90L596.74 6.90L596.74 6.90Q596.32 6.78 595.85 6.78L595.85 6.78L595.85 6.78Q595.45 6.78 595.08 6.88L595.08 6.88L595.08 6.88Q594.72 6.99 594.43 7.18L594.43 7.18L594.43 7.18Q594.15 7.38 593.98 7.66L593.98 7.66L593.98 7.66Q593.81 7.95 593.81 8.33L593.81 8.33L593.81 8.41L593.81 8.41Q593.81 8.82 593.98 9.11L593.98 9.11L593.98 9.11Q594.15 9.39 594.47 9.60L594.47 9.60L594.47 9.60Q594.80 9.80 595.29 9.93L595.29 9.93L595.29 9.93Q595.78 10.07 596.44 10.16L596.44 10.16L596.44 10.16Q597.98 10.40 598.71 11.07L598.71 11.07L598.71 11.07Q599.44 11.73 599.44 12.85L599.44 12.85L599.44 13.02L599.44 13.02Q599.44 13.65 599.22 14.17L599.22 14.17L599.22 14.17Q599.00 14.70 598.58 15.08L598.58 15.08L598.58 15.08Q598.15 15.46 597.52 15.67L597.52 15.67L597.52 15.67Q596.89 15.88 596.06 15.88L596.06 15.88L596.06 15.88Q595.13 15.88 594.40 15.60L594.40 15.60L594.40 15.60Q593.68 15.33 593.20 14.85L593.20 14.85L593.20 14.85Q592.72 14.36 592.47 13.71L592.47 13.71L592.47 13.71Q592.21 13.06 592.21 12.29L592.21 12.29L592.21 11.87L593.39 11.87L593.39 12.21L593.39 12.21Q593.39 13.50 594.10 14.14L594.10 14.14L594.10 14.14Q594.80 14.78 596.06 14.78L596.06 14.78L596.06 14.78Q597.16 14.78 597.71 14.30L597.71 14.30L597.71 14.30Q598.26 13.82 598.26 13.02L598.26 13.02L598.26 12.94L598.26 12.94Q598.26 12.17 597.69 11.76L597.69 11.76L597.69 11.76Q597.13 11.35 595.85 11.17L595.85 11.17L595.85 11.17Q595.11 11.07 594.52 10.87L594.52 10.87L594.52 10.87Q593.92 10.67 593.50 10.34L593.50 10.34L593.50 10.34Q593.08 10.01 592.86 9.55L592.86 9.55L592.86 9.55Q592.63 9.09 592.63 8.46L592.63 8.46L592.63 8.29L592.63 8.29Q592.63 7.71 592.87 7.24L592.87 7.24L592.87 7.24Q593.11 6.76 593.54 6.41L593.54 6.41L593.54 6.41Q593.96 6.06 594.56 5.87L594.56 5.87L594.56 5.87Q595.15 5.68 595.87 5.68L595.87 5.68L595.87 5.68Q596.69 5.68 597.34 5.92L597.34 5.92L597.34 5.92Q598.00 6.16 598.44 6.56L598.44 6.56L598.44 6.56Q598.89 6.96 599.12 7.50L599.12 7.50L599.12 7.50Q599.35 8.04 599.35 8.62L599.35 8.62L599.35 9.21L598.18 9.21ZM608.17 15.68L608.17 5.88L609.35 5.88L609.35 10.22L613.52 10.22L613.52 5.88L614.70 5.88L614.70 15.68L613.52 15.68L613.52 11.31L609.35 11.31L609.35 15.68L608.17 15.68ZM623.90 6.97L623.90 5.88L630.11 5.88L630.11 6.97L627.59 6.97L627.59 14.59L630.11 14.59L630.11 15.68L623.90 15.68L623.90 14.59L626.42 14.59L626.42 6.97L623.90 6.97ZM639.13 6.97L639.13 5.88L646.02 5.88L646.02 6.97L643.16 6.97L643.16 15.68L641.98 15.68L641.98 6.97L639.13 6.97ZM657.16 14.90L657.16 14.90L657.16 14.90Q657.16 14.49 657.45 14.20L657.45 14.20L657.45 14.20Q657.73 13.92 658.14 13.92L658.14 13.92L658.14 13.92Q658.55 13.92 658.83 14.20L658.83 14.20L658.83 14.20Q659.12 14.49 659.12 14.90L659.12 14.90L659.12 14.90Q659.12 15.30 658.83 15.59L658.83 15.59L658.83 15.59Q658.55 15.88 658.14 15.88L658.14 15.88L658.14 15.88Q657.73 15.88 657.45 15.59L657.45 15.59L657.45 15.59Q657.16 15.30 657.16 14.90Z"></path></g></svg>