<svg data-v-423bf9ae="" xmlns="http://www.w3.org/2000/svg" viewBox="0 0 432 90" class="iconLeft"><!----><!----><!----><g data-v-423bf9ae="" id="ce989b2a-3ddf-49d9-ae50-07c183782255" fill="black" transform="matrix(3.8510909256179984,0,0,3.8510909256179984,109.9999949263298,1.367136839708273)"><path d="M6.80 4.66L6.80 4.66L6.80 4.66Q6.02 7.06 6.02 9.62L6.02 9.62L6.02 9.62Q6.02 12.18 6.41 12.18L6.41 12.18L6.41 12.18Q6.50 12.18 6.57 12.11L6.57 12.11L6.57 12.11Q7.38 11.27 7.46 10.21L7.46 10.21L7.46 10.21Q7.46 9.93 7.53 9.93L7.53 9.93L7.53 9.93Q7.60 9.93 7.74 10.16L7.74 10.16L7.74 10.16Q7.88 10.39 7.88 10.99L7.88 10.99L7.88 10.99Q7.88 11.59 7.40 12.54L7.40 12.54L7.40 12.54Q6.92 13.50 6.31 13.50L6.31 13.50L6.31 13.50Q5.98 13.50 5.70 13.23L5.70 13.23L5.70 13.23Q5.42 12.96 5.32 12.54L5.32 12.54L5.32 12.54Q5.22 12.11 5.15 11.54L5.15 11.54L5.15 11.54Q5.07 10.98 5.00 10.28L5.00 10.28L5.00 10.28Q4.93 9.58 4.87 9.20L4.87 9.20L4.87 9.20Q4.77 9.58 4.51 10.72L4.51 10.72L4.51 10.72Q4.24 11.87 4.09 12.43L4.09 12.43L4.09 12.43Q3.71 13.72 2.90 13.72L2.90 13.72L2.90 13.72Q2.51 13.72 2.21 13.49L2.21 13.49L2.21 13.49Q1.92 13.26 1.85 12.88L1.85 12.88L1.85 12.88Q1.68 12.10 1.68 11.00L1.68 11.00L1.68 11.00Q1.68 9.90 1.94 8.72L1.94 8.72L1.94 8.72Q2.20 7.55 2.47 6.68L2.47 6.68L2.47 6.68Q2.74 5.82 2.74 5.67L2.74 5.67L2.74 5.67Q2.74 5.52 2.67 5.52L2.67 5.52L2.67 5.52Q2.60 5.52 2.45 5.68L2.45 5.68L2.45 5.68Q2.30 5.85 2.09 6.17L2.09 6.17L2.09 6.17Q1.89 6.48 1.79 6.70L1.79 6.70L1.79 6.70Q1.68 6.92 1.48 7.36L1.48 7.36L1.48 7.36Q1.29 7.81 1.20 7.98L1.20 7.98L1.20 7.98Q1.01 8.39 0.69 8.39L0.69 8.39L0.69 8.39Q0.38 8.39 0.19 8.01L0.19 8.01L0.19 8.01Q0 7.63 0 7.31L0 7.31L0 7.31Q0 6.99 0.24 6.72L0.24 6.72L0.24 6.72Q1.13 5.71 2.10 4.02L2.10 4.02L2.30 4.17L2.30 4.17Q2.62 4.07 2.69 4.07L2.69 4.07L2.69 4.07Q2.77 4.07 2.87 4.11L2.87 4.11L2.87 4.11Q2.97 4.14 3.22 4.21L3.22 4.21L3.22 4.21Q3.47 4.28 3.56 4.32L3.56 4.32L3.56 4.32Q3.65 4.35 3.82 4.45L3.82 4.45L3.82 4.45Q3.99 4.54 4.05 4.63L4.05 4.63L4.05 4.63Q4.21 4.96 4.21 5.33L4.21 5.33L4.21 5.33Q4.21 5.71 4.13 6.05L4.13 6.05L4.13 6.05Q4.05 6.40 3.49 8.41L3.49 8.41L3.49 8.41Q2.93 10.42 2.80 11.51L2.80 11.51L2.80 11.63L2.80 11.63Q2.80 11.87 2.88 11.87L2.88 11.87L2.88 11.87Q2.97 11.87 3.05 11.65L3.05 11.65L3.05 11.65Q4.09 9.13 5.28 5.49L5.28 5.49L5.28 5.49Q5.36 5.21 5.36 5.07L5.36 5.07L5.26 4.65L5.26 4.65Q5.26 4.49 5.42 4.41L5.42 4.41L5.42 4.41Q5.64 4.26 6.04 4.09L6.04 4.09L6.04 4.09Q6.44 3.92 6.66 3.92L6.66 3.92L6.66 3.92Q6.89 3.92 6.89 4.15L6.89 4.15L6.89 4.15Q6.89 4.38 6.80 4.66ZM10.88 7.43L10.88 7.43L10.88 7.43Q11.24 7.43 11.75 7.72L11.75 7.72L11.75 7.72Q12.25 8.01 12.25 8.39L12.25 8.39L12.25 8.39Q12.25 8.78 11.95 9.09L11.95 9.09L11.95 9.09Q11.65 9.39 11.27 9.39L11.27 9.39L11.27 9.39Q10.70 9.39 10.47 8.86L10.47 8.86L10.47 8.86Q10.44 8.78 10.38 8.78L10.38 8.78L10.38 8.78Q10.32 8.78 9.92 8.95L9.92 8.95L9.92 8.95Q9.52 9.11 9.38 9.18L9.38 9.18L9.38 9.18Q9.24 9.25 9.24 9.32L9.24 9.32L9.24 9.32Q9.24 9.38 9.44 9.48L9.44 9.48L9.44 9.48Q11.93 10.15 11.93 11.54L11.93 11.54L11.93 11.54Q11.93 12.03 11.54 12.55L11.54 12.55L11.54 12.55Q11.16 13.08 10.46 13.41L10.46 13.41L10.46 13.41Q9.76 13.75 9.11 13.75L9.11 13.75L9.11 13.75Q8.47 13.75 8.21 13.40L8.21 13.40L8.21 13.40Q7.95 13.05 7.95 12.39L7.95 12.39L7.95 12.39Q7.95 11.73 8.41 11.41L8.41 11.41L8.41 11.41Q9.03 11.00 9.42 11.00L9.42 11.00L9.42 11.00Q9.52 11.00 9.52 11.05L9.52 11.05L9.52 11.05Q9.52 11.10 9.30 11.23L9.30 11.23L9.30 11.23Q9.09 11.35 8.84 11.59L8.84 11.59L8.84 11.59Q8.60 11.83 8.60 11.98L8.60 11.98L8.60 11.98Q8.60 12.12 8.93 12.12L8.93 12.12L8.93 12.12Q9.83 12.12 10.70 11.62L10.70 11.62L10.70 11.62Q10.89 11.52 10.89 11.39L10.89 11.39L10.89 11.39Q10.89 11.26 10.60 11.12L10.60 11.12L10.60 11.12Q10.30 10.98 9.61 10.71L9.61 10.71L9.61 10.71Q8.92 10.44 8.52 10.25L8.52 10.25L8.52 10.25Q8.12 10.07 8.12 9.63L8.12 9.63L8.12 9.63Q8.12 9.51 8.18 9.27L8.18 9.27L8.18 9.27Q8.25 9.04 8.26 8.96L8.26 8.96L8.26 8.96Q8.33 8.47 8.70 8.29L8.70 8.29L8.70 8.29Q9.07 8.11 10.30 7.53L10.30 7.53L10.30 7.53Q10.51 7.43 10.88 7.43ZM16.69 11.89L16.69 11.89L16.69 11.89Q16.69 14.01 14.53 14.01L14.53 14.01L14.53 14.01Q13.64 14.01 13.22 13.55L13.22 13.55L13.22 13.55Q12.81 13.09 12.50 12.14L12.50 12.14L12.50 12.14Q12.39 11.77 12.39 11.36L12.39 11.36L12.39 11.36Q12.39 10.95 12.76 10.25L12.76 10.25L12.76 10.25Q13.13 9.56 13.58 9.04L13.58 9.04L13.58 9.04Q13.64 8.27 13.93 8.27L13.93 8.27L13.93 8.27Q14.08 8.27 14.14 8.46L14.14 8.46L14.14 8.46Q14.43 8.19 14.85 7.94L14.85 7.94L14.85 7.94Q15.27 7.69 15.61 7.69L15.61 7.69L15.61 7.69Q15.95 7.69 16.30 8.08L16.30 8.08L16.30 8.08Q16.66 8.47 16.66 8.88L16.66 8.88L16.66 8.88Q16.66 9.30 16.09 10.01L16.09 10.01L16.09 10.01Q15.01 11.35 14.39 11.35L14.39 11.35L14.39 11.35Q13.94 11.35 13.69 10.61L13.69 10.61L13.69 10.61Q13.68 10.64 13.56 10.84L13.56 10.84L13.56 10.84Q13.44 11.05 13.39 11.14L13.39 11.14L13.39 11.14Q13.34 11.24 13.26 11.41L13.26 11.41L13.26 11.41Q13.12 11.73 13.12 11.98L13.12 11.98L13.12 11.98Q13.12 12.56 13.69 12.56L13.69 12.56L13.69 12.56Q14.64 12.56 15.31 12.16L15.31 12.16L15.31 12.16Q15.97 11.76 16.63 10.95L16.63 10.95L16.63 10.95Q16.69 11.56 16.69 11.89ZM14.41 10.19L14.41 10.19Q14.63 10.19 15.07 9.65L15.07 9.65L15.07 9.65Q15.51 9.10 15.51 8.90L15.51 8.90L15.51 8.90Q15.51 8.69 15.37 8.69L15.37 8.69L15.37 8.69Q15.22 8.69 14.86 9.06L14.86 9.06L14.86 9.06Q14.50 9.42 14.29 9.69L14.29 9.69L14.29 9.69Q14.27 9.86 14.27 9.94L14.27 9.94L14.27 9.94Q14.27 10.19 14.41 10.19L14.41 10.19ZM29.74 9.23L29.74 9.23L29.74 9.23Q29.81 9.23 29.81 9.38L29.81 9.38L29.81 9.38Q29.81 9.53 29.79 9.69L29.79 9.69L29.79 9.69Q29.57 12.35 28.46 13.58L28.46 13.58L28.46 13.58Q28.10 13.99 27.27 14.01L27.27 14.01L27.27 14.01Q26.26 13.65 26.26 12.24L26.26 12.24L26.26 12.24Q26.26 11.98 26.32 11.60L26.32 11.60L26.32 11.60Q26.38 11.21 27.26 6.17L27.26 6.17L27.26 6.17Q26.03 8.67 25.68 12.25L25.68 12.25L25.68 12.25Q25.63 12.67 25.61 12.88L25.61 12.88L25.61 12.88Q25.55 13.33 25.23 13.33L25.23 13.33L25.23 13.33Q24.79 13.33 24.30 12.67L24.30 12.67L24.30 12.67Q24.14 12.45 24.14 12.11L24.14 12.11L24.14 12.11Q24.14 11.77 24.16 11.37L24.16 11.37L24.16 11.37Q24.18 10.96 24.23 10.47L24.23 10.47L24.23 10.47Q24.29 9.98 24.32 9.69L24.32 9.69L24.32 9.69Q24.35 9.39 24.45 8.79L24.45 8.79L24.45 8.79Q24.56 8.19 24.58 8.02L24.58 8.02L24.58 8.02Q24.61 7.84 24.74 7.13L24.74 7.13L24.74 7.13Q24.88 6.41 24.89 6.33L24.89 6.33L24.89 6.33Q24.68 6.54 24.52 6.96L24.52 6.96L24.52 6.96Q24.36 7.38 24.26 7.64L24.26 7.64L24.26 7.64Q24.16 7.90 24.07 8.26L24.07 8.26L24.07 8.26Q23.97 8.62 23.90 8.89L23.90 8.89L23.90 8.89Q23.83 9.16 23.74 9.53L23.74 9.53L23.74 9.53Q23.65 9.91 23.60 10.11L23.60 10.11L23.60 10.11Q23.51 10.47 23.28 11.47L23.28 11.47L23.28 11.47Q23.06 12.46 23.00 12.72L23.00 12.72L23.00 12.72Q22.93 12.98 22.90 13.14L22.90 13.14L22.90 13.14Q22.86 13.30 22.84 13.36L22.84 13.36L22.84 13.36Q22.82 13.43 22.76 13.54L22.76 13.54L22.76 13.54Q22.65 13.73 22.41 13.73L22.41 13.73L22.41 13.73Q22.16 13.73 21.99 13.56L21.99 13.56L21.99 13.56Q21.81 13.38 21.76 13.25L21.76 13.25L21.76 13.25Q21.70 13.12 21.61 12.87L21.61 12.87L21.61 12.87Q21.52 12.63 21.52 12.49L21.52 12.49L21.52 12.49Q21.52 12.35 21.60 12.00L21.60 12.00L21.60 12.00Q21.69 11.65 21.80 11.13L21.80 11.13L21.80 11.13Q21.92 10.61 21.96 10.46L21.96 10.46L21.96 10.46Q21.99 10.32 22.10 9.84L22.10 9.84L22.10 9.84Q22.20 9.37 22.25 9.17L22.25 9.17L22.25 9.17Q22.29 8.97 22.37 8.55L22.37 8.55L22.37 8.55Q22.46 8.12 22.50 7.88L22.50 7.88L22.50 7.88Q22.54 7.63 22.61 7.25L22.61 7.25L22.61 7.25Q22.68 6.86 22.72 6.57L22.72 6.57L22.72 6.57Q22.86 5.64 22.89 5.28L22.89 5.28L22.89 5.18L22.89 5.18Q22.89 4.93 22.78 4.93L22.78 4.93L22.78 4.93Q22.67 4.93 22.41 5.32L22.41 5.32L22.41 5.32Q22.16 5.71 22.06 5.92L22.06 5.92L22.06 5.92Q21.97 6.13 21.92 6.50L21.92 6.50L21.92 6.50Q21.73 8.44 20.92 9.66L20.92 9.66L20.92 9.66Q20.82 9.80 20.61 9.80L20.61 9.80L20.61 9.80Q20.40 9.80 20.17 9.58L20.17 9.58L20.17 9.58Q19.94 9.35 19.94 9.11L19.94 9.11L19.94 9.11Q19.94 7.69 20.90 5.81L20.90 5.81L20.90 5.81Q21.28 5.10 21.52 3.70L21.52 3.70L21.52 3.70Q21.90 4.26 21.99 4.44L21.99 4.44L21.99 4.44Q22.08 4.62 22.19 4.62L22.19 4.62L22.19 4.62Q22.25 4.62 22.44 4.45L22.44 4.45L22.44 4.45Q22.64 4.28 23.02 4.28L23.02 4.28L23.02 4.28Q23.41 4.28 23.65 4.48L23.65 4.48L23.65 4.48Q23.88 4.68 23.95 4.93L23.95 4.93L23.95 4.93Q24.01 5.18 24.04 5.68L24.04 5.68L24.04 5.68Q24.12 5.61 24.33 5.42L24.33 5.42L24.33 5.42Q24.78 5.03 25.12 5.03L25.12 5.03L25.12 5.03Q25.47 5.03 25.74 5.40L25.74 5.40L25.74 5.40Q26.01 5.77 25.98 6.16L25.98 6.16L25.98 6.16Q26.15 5.96 26.60 5.19L26.60 5.19L26.60 5.19Q26.92 4.69 27.45 4.69L27.45 4.69L27.45 4.69Q28.34 4.69 28.34 5.49L28.34 5.49L28.34 5.49Q28.34 5.85 28 7.50L28 7.50L28 7.50Q27.66 9.16 27.51 10.23L27.51 10.23L27.51 10.23Q27.36 11.30 27.36 12.25L27.36 12.25L27.36 12.52L27.36 12.52Q27.82 12.12 28.26 11.53L28.26 11.53L28.26 11.53Q28.70 10.93 28.91 10.58L28.91 10.58L28.91 10.58Q29.12 10.22 29.57 9.42L29.57 9.42L29.57 9.42Q29.69 9.23 29.74 9.23ZM29.78 8.04L29.78 8.04L29.78 8.04Q29.78 7.83 30.06 7.85L30.06 7.85L30.06 7.85Q30.14 7.85 30.27 7.85L30.27 7.85L30.27 7.85Q30.39 7.85 30.80 7.72L30.80 7.72L30.80 7.72Q31.21 7.59 31.44 7.59L31.44 7.59L31.44 7.59Q31.68 7.59 31.90 7.78L31.90 7.78L31.90 7.78Q32.12 7.97 32.30 8.26L32.30 8.26L32.30 8.26Q32.48 8.55 32.48 8.87L32.48 8.87L32.48 8.87Q32.48 9.18 31.87 10.54L31.87 10.54L31.87 10.54Q31.26 11.89 31.26 11.98L31.26 11.98L31.26 11.98Q31.26 12.08 31.37 12.08L31.37 12.08L31.37 12.08Q31.60 12.08 32.31 11.27L32.31 11.27L32.31 11.27Q32.47 11.09 32.66 10.79L32.66 10.79L32.66 10.79Q32.84 10.49 32.94 10.33L32.94 10.33L32.94 10.33Q33.04 10.18 33.21 9.80L33.21 9.80L33.21 9.80Q33.39 9.42 33.45 9.31L33.45 9.31L33.45 9.31Q33.71 8.75 33.91 8.25L33.91 8.25L33.91 8.25Q34.02 8.01 34.24 8.01L34.24 8.01L34.24 8.01Q34.47 8.01 34.66 8.27L34.66 8.27L34.66 8.27Q34.86 8.54 34.86 8.81L34.86 8.81L34.86 8.81Q34.86 9.27 34.13 12.70L34.13 12.70L34.13 12.70Q33.40 16.13 33.33 16.51L33.33 16.51L33.33 16.51Q33.25 16.88 33.18 18.21L33.18 18.21L33.18 18.21Q33.18 18.65 32.89 18.65L32.89 18.65L32.89 18.65Q32.79 18.65 32.70 18.61L32.70 18.61L32.70 18.61Q31.68 18.19 31.68 16.81L31.68 16.81L31.68 15.88L31.68 15.88Q31.68 15.58 31.86 15.58L31.86 15.58L31.86 15.58Q32.03 15.58 32.22 15.82L32.22 15.82L32.22 15.82Q32.41 16.06 32.42 16.09L32.42 16.09L33.18 12.35L33.18 12.35Q32.55 13.10 32.19 13.36L32.19 13.36L32.19 13.36Q31.82 13.62 31.31 13.62L31.31 13.62L31.31 13.62Q30.80 13.62 30.49 13.15L30.49 13.15L30.49 13.15Q30.18 12.67 30.18 12.07L30.18 12.07L30.18 12.07Q30.18 10.82 31.07 9.13L31.07 9.13L31.07 9.13Q30.67 9.23 30.43 9.23L30.43 9.23L30.43 9.23Q30.18 9.23 30.07 8.97L30.07 8.97L30.07 8.97Q30.02 8.86 29.90 8.49L29.90 8.49L29.90 8.49Q29.78 8.12 29.78 8.04ZM40.40 11.89L40.40 11.89L40.36 10.78L40.36 10.78Q40.36 8.15 41.20 5.81L41.20 5.81L41.20 5.81Q40.60 5.74 40.47 5.74L40.47 5.74L40.47 5.74Q39.91 5.74 39.56 5.96L39.56 5.96L39.56 5.96Q39.20 6.17 38.84 6.47L38.84 6.47L38.84 6.47Q38.30 6.92 37.73 6.92L37.73 6.92L37.73 6.92Q37.49 6.92 37.37 6.81L37.37 6.81L37.37 6.81Q37.24 6.71 37.21 6.59L37.21 6.59L37.21 6.59Q37.18 6.48 37.17 6.26L37.17 6.26L37.17 6.26Q37.16 6.03 37.13 5.91L37.13 5.91L37.13 5.91Q37.10 5.78 37.10 5.66L37.10 5.66L37.10 5.66Q37.10 5.53 37.31 5.35L37.31 5.35L37.31 5.35Q38.51 4.28 40.91 4.28L40.91 4.28L40.91 4.28Q41.37 4.28 41.83 4.33L41.83 4.33L41.94 4.07L41.94 4.07Q42.01 4.17 42.13 4.34L42.13 4.34L42.39 4.34L42.39 4.34Q43.71 4.34 45.28 3.81L45.28 3.81L45.28 3.81Q45.39 3.78 45.43 3.78L45.43 3.78L45.43 3.78Q45.65 3.78 45.65 4.02L45.65 4.02L45.65 4.02Q45.65 4.26 45.40 4.51L45.40 4.51L45.40 4.51Q44.16 5.88 42.08 5.85L42.08 5.85L42.08 5.85Q41.73 7.21 41.61 9.17L41.61 9.17L41.61 9.17Q41.48 11.13 41.45 11.40L41.45 11.40L41.45 11.40Q41.43 11.66 41.43 11.86L41.43 11.86L41.43 11.86Q41.43 12.05 41.55 12.63L41.55 12.63L41.55 12.63Q41.68 13.20 41.68 13.29L41.68 13.29L41.68 13.29Q41.68 13.69 41.26 13.69L41.26 13.69L41.26 13.69Q40.61 13.69 39.91 12.26L39.91 12.26L39.91 12.26Q39.77 12.01 39.77 11.78L39.77 11.78L39.77 11.78Q39.77 11.55 39.89 11.55L39.89 11.55L39.89 11.55Q40.00 11.55 40.16 11.77L40.16 11.77L40.16 11.77Q40.32 12.00 40.36 12.00L40.36 12.00L40.36 12.00Q40.40 12.00 40.40 11.89ZM46.87 11.89L46.87 11.89L46.87 11.89Q46.87 14.01 44.72 14.01L44.72 14.01L44.72 14.01Q43.82 14.01 43.41 13.55L43.41 13.55L43.41 13.55Q42.99 13.09 42.69 12.14L42.69 12.14L42.69 12.14Q42.57 11.77 42.57 11.36L42.57 11.36L42.57 11.36Q42.57 10.95 42.95 10.25L42.95 10.25L42.95 10.25Q43.32 9.56 43.76 9.04L43.76 9.04L43.76 9.04Q43.82 8.27 44.11 8.27L44.11 8.27L44.11 8.27Q44.27 8.27 44.32 8.46L44.32 8.46L44.32 8.46Q44.62 8.19 45.04 7.94L45.04 7.94L45.04 7.94Q45.46 7.69 45.79 7.69L45.79 7.69L45.79 7.69Q46.13 7.69 46.49 8.08L46.49 8.08L46.49 8.08Q46.84 8.47 46.84 8.88L46.84 8.88L46.84 8.88Q46.84 9.30 46.27 10.01L46.27 10.01L46.27 10.01Q45.19 11.35 44.58 11.35L44.58 11.35L44.58 11.35Q44.13 11.35 43.88 10.61L43.88 10.61L43.88 10.61Q43.86 10.64 43.74 10.84L43.74 10.84L43.74 10.84Q43.62 11.05 43.57 11.14L43.57 11.14L43.57 11.14Q43.53 11.24 43.44 11.41L43.44 11.41L43.44 11.41Q43.30 11.73 43.30 11.98L43.30 11.98L43.30 11.98Q43.30 12.56 43.88 12.56L43.88 12.56L43.88 12.56Q44.83 12.56 45.49 12.16L45.49 12.16L45.49 12.16Q46.16 11.76 46.82 10.95L46.82 10.95L46.82 10.95Q46.87 11.56 46.87 11.89ZM44.59 10.19L44.59 10.19Q44.81 10.19 45.25 9.65L45.25 9.65L45.25 9.65Q45.70 9.10 45.70 8.90L45.70 8.90L45.70 8.90Q45.70 8.69 45.55 8.69L45.55 8.69L45.55 8.69Q45.40 8.69 45.04 9.06L45.04 9.06L45.04 9.06Q44.69 9.42 44.48 9.69L44.48 9.69L44.48 9.69Q44.45 9.86 44.45 9.94L44.45 9.94L44.45 9.94Q44.45 10.19 44.59 10.19L44.59 10.19ZM50.92 11.47L50.92 11.47L50.92 11.47Q50.92 12.36 50.34 13.20L50.34 13.20L50.34 13.20Q49.77 14.04 48.89 14.04L48.89 14.04L48.89 14.04Q48.19 14.04 47.77 13.20L47.77 13.20L47.77 13.20Q47.36 12.35 47.36 11.40L47.36 11.40L47.36 11.40Q47.36 10.46 47.87 9.34L47.87 9.34L47.87 9.34Q48.38 8.22 49.21 7.55L49.21 7.55L49.21 7.55Q49.39 7.38 49.67 7.38L49.67 7.38L49.67 7.38Q49.95 7.38 50.33 7.70L50.33 7.70L50.33 7.70Q50.53 7.88 50.53 8.46L50.53 8.46L50.53 8.46Q50.53 9.03 50.19 10.25L50.19 10.25L50.19 10.25Q50.11 10.56 49.97 10.56L49.97 10.56L49.97 10.56Q49.70 10.56 49.56 9.06L49.56 9.06L49.56 9.06Q49.55 8.82 49.53 8.76L49.53 8.76L49.53 8.76Q48.85 9.52 48.46 10.48L48.46 10.48L48.46 10.48Q48.08 11.44 48.08 12.33L48.08 12.33L48.08 12.33Q48.08 12.80 48.38 12.80L48.38 12.80L48.38 12.80Q48.92 12.80 50.06 11.84L50.06 11.84L50.06 11.84Q50.27 11.66 50.37 11.57L50.37 11.57L50.37 11.57Q50.47 11.48 50.67 11.30L50.67 11.30L50.67 11.30Q50.86 11.13 50.89 11.10L50.89 11.10L50.89 11.10Q50.92 11.23 50.92 11.47ZM55.79 11.77L55.79 11.77L55.79 11.77Q55.79 12.88 55.38 13.47L55.38 13.47L55.38 13.47Q55.08 13.86 54.85 13.86L54.85 13.86L54.85 13.86Q54.63 13.86 54.40 13.64L54.40 13.64L54.40 13.64Q53.62 12.73 53.62 11.45L53.62 11.45L53.62 11.45Q53.62 11.03 53.72 10.58L53.72 10.58L53.72 10.58Q53.89 9.81 53.89 9.59L53.89 9.59L53.89 9.59Q53.89 9.37 53.86 9.37L53.86 9.37L53.86 9.37Q53.77 9.37 52.75 13.22L52.75 13.22L52.75 13.22Q52.63 13.61 52.49 13.61L52.49 13.61L52.49 13.61Q52.11 13.61 51.59 12.31L51.59 12.31L51.59 12.31Q51.31 11.69 51.31 10.82L51.31 10.82L51.31 10.82Q51.31 9.84 51.43 9.17L51.43 9.17L51.43 9.17Q51.55 8.50 51.58 8.34L51.58 8.34L51.58 8.34Q51.60 8.18 51.68 7.82L51.68 7.82L51.68 7.82Q51.76 7.46 51.79 7.35L51.79 7.35L51.79 7.35Q51.95 6.65 52.01 6.36L52.01 6.36L52.01 6.36Q51.66 6.36 51.66 6.15L51.66 6.15L51.66 6.15Q51.66 6.05 51.74 5.94L51.74 5.94L51.74 5.94Q52.51 4.72 52.84 3.78L52.84 3.78L52.84 3.78Q52.89 3.54 53.06 3.54L53.06 3.54L53.06 3.54Q53.28 3.54 53.40 3.98L53.40 3.98L53.40 3.98Q53.51 4.41 53.51 4.73L53.51 4.73L53.51 4.73Q53.51 5.54 52.98 6.03L52.98 6.03L52.98 6.03Q52.35 9.94 52.35 10.14L52.35 10.14L52.35 10.14Q52.35 10.33 52.40 10.33L52.40 10.33L52.40 10.33Q52.46 10.33 52.61 10.07L52.61 10.07L52.61 10.07Q52.75 9.81 53.07 9.08L53.07 9.08L53.07 9.08Q53.40 8.34 53.61 7.99L53.61 7.99L53.61 7.99Q53.91 7.48 54.39 7.48L54.39 7.48L54.39 7.48Q55.15 7.48 55.15 8.89L55.15 8.89L55.15 8.89Q55.15 10.04 54.61 11.79L54.61 11.79L54.61 11.79Q54.60 11.84 54.60 11.90L54.60 11.90L54.60 11.90Q54.60 12.05 54.75 12.05L54.75 12.05L54.75 12.05Q54.89 12.05 55.27 11.65L55.27 11.65L55.27 11.65Q55.64 11.24 55.71 11.24L55.71 11.24L55.71 11.24Q55.79 11.24 55.79 11.77ZM64.32 4.07L64.32 4.07L64.32 4.07Q64.93 4.80 64.93 4.94L64.93 4.94L64.93 4.94Q64.93 5.08 64.79 5.25L64.79 5.25L64.79 5.25Q64.13 5.99 63.25 6.75L63.25 6.75L63.25 6.75Q63.06 6.92 62.96 6.92L62.96 6.92L62.96 6.92Q62.82 6.92 62.82 6.70L62.82 6.70L62.82 6.70Q62.82 6.48 63.01 6.12L63.01 6.12L63.01 6.12Q63.20 5.75 63.20 5.70L63.20 5.70L63.20 5.70Q63.20 5.64 63.15 5.64L63.15 5.64L63.15 5.64Q63.10 5.64 63.01 5.67L63.01 5.67L63.01 5.67Q61.40 6.24 60.77 7.48L60.77 7.48L60.77 7.48Q60.63 7.76 60.63 7.94L60.63 7.94L60.63 7.94Q60.63 8.30 61.19 8.62L61.19 8.62L61.19 8.62Q61.28 8.68 61.95 9.03L61.95 9.03L61.95 9.03Q63.31 9.76 63.66 10.21L63.66 10.21L63.66 10.21Q64.22 10.91 64.22 11.58L64.22 11.58L64.22 11.58Q64.22 11.84 64.07 12.13L64.07 12.13L64.07 12.13Q63.92 12.42 63.70 12.56L63.70 12.56L63.70 12.56Q61.33 14.03 59.49 14.03L59.49 14.03L59.49 14.03Q58.51 14.03 58.51 13.13L58.51 13.13L58.51 13.13Q58.51 12.84 58.70 12.57L58.70 12.57L58.70 12.57Q58.37 12.33 58.37 12.06L58.37 12.06L58.37 12.06Q58.37 11.79 58.74 11.51L58.74 11.51L58.74 11.51Q59.64 10.84 61.63 10.84L61.63 10.84L61.63 10.84Q61.84 10.84 62.13 10.98L62.13 10.98L62.13 10.98Q62.43 11.13 62.61 11.30L62.61 11.30L62.61 11.30Q62.96 11.10 62.96 10.95L62.96 10.95L62.96 10.95Q62.96 10.79 62.78 10.64L62.78 10.64L62.78 10.64Q62.51 10.44 61.79 10.12L61.79 10.12L61.79 10.12Q61.07 9.80 60.87 9.69L60.87 9.69L60.87 9.69Q60.28 9.35 59.97 8.72L59.97 8.72L59.97 8.72Q59.65 8.09 59.65 7.38L59.65 7.38L59.65 7.38Q59.65 6.68 60.01 6.10L60.01 6.10L60.01 6.10Q60.37 5.52 61.01 5.08L61.01 5.08L61.01 5.08Q61.99 4.42 63.46 3.88L63.46 3.88L63.46 3.88Q63.66 3.82 63.77 3.82L63.77 3.82L63.77 3.82Q64.09 3.82 64.32 4.07ZM61.66 11.83L61.66 11.83L61.66 11.83Q61.52 11.80 61.33 11.80L61.33 11.80L61.33 11.80Q61.15 11.80 60.63 11.97L60.63 11.97L60.63 11.97Q60.10 12.14 60.10 12.35L60.10 12.35L60.10 12.35Q60.10 12.43 60.20 12.43L60.20 12.43L60.20 12.43Q60.58 12.43 61.66 11.83ZM66.74 7.57L66.74 7.57L67.84 7.52L67.84 7.52Q68.28 7.52 68.28 8.08L68.28 8.08L68.28 8.08Q68.28 8.36 68.10 8.50L68.10 8.50L68.10 8.50Q67.65 8.90 66.56 9.06L66.56 9.06L66.56 9.06Q66.42 10.39 66.42 11.27L66.42 11.27L66.42 11.27Q66.42 12.15 66.54 12.15L66.54 12.15L66.54 12.15Q66.63 12.15 67.13 11.70L67.13 11.70L67.13 11.70Q67.63 11.26 67.69 11.26L67.69 11.26L67.69 11.26Q67.93 11.26 67.93 11.98L67.93 11.98L67.93 11.98Q67.93 12.70 67.66 13.40L67.66 13.40L67.66 13.40Q67.40 14.10 66.91 14.10L66.91 14.10L66.91 14.10Q66.70 14.10 66.49 13.95L66.49 13.95L66.49 13.95Q66.28 13.80 66.17 13.66L66.17 13.66L66.17 13.66Q66.07 13.51 65.88 13.22L65.88 13.22L65.88 13.22Q65.69 12.92 65.65 12.87L65.65 12.87L65.65 12.87Q65.27 12.35 65.23 11.84L65.23 11.84L65.23 11.84Q65.20 11.33 65.20 10.64L65.20 10.64L65.20 10.64Q65.20 9.95 65.28 9.16L65.28 9.16L65.28 9.16Q64.85 9.14 64.56 8.85L64.56 8.85L64.56 8.85Q64.27 8.55 64.11 8.14L64.11 8.14L64.11 8.14Q63.95 7.73 63.95 7.67L63.95 7.67L63.95 7.67Q63.95 7.49 64.16 7.49L64.16 7.49L65.51 7.57L65.51 7.57Q65.58 7.14 65.73 6.37L65.73 6.37L65.73 6.37Q65.97 5.25 65.97 5.07L65.97 5.07L65.94 4.80L65.94 4.80Q65.94 4.58 66.19 4.58L66.19 4.58L66.19 4.58Q66.44 4.58 66.81 4.83L66.81 4.83L66.81 4.83Q67.17 5.08 67.17 5.31L67.17 5.31L67.17 5.31Q67.17 5.40 67.07 5.70L67.07 5.70L67.07 5.70Q66.95 6.15 66.74 7.57ZM68.42 7.28L68.80 7.36L69.47 7.24L69.47 7.24Q69.79 7.24 70.07 7.48L70.07 7.48L70.07 7.48Q70.10 7.50 70.25 7.62L70.25 7.62L70.25 7.62Q70.39 7.73 70.48 7.80L70.48 7.80L70.48 7.80Q70.70 8.01 70.70 8.16L70.70 8.16L70.70 8.16Q70.70 8.30 70.45 9.00L70.45 9.00L70.45 9.00Q70.20 9.70 69.92 10.49L69.92 10.49L69.92 10.49Q69.55 11.45 69.55 11.55L69.55 11.55L69.55 11.55Q69.55 11.65 69.62 11.65L69.62 11.65L69.62 11.65Q69.73 11.65 70.46 10.32L70.46 10.32L70.46 10.32Q71.19 8.99 71.57 8.23L71.57 8.23L71.57 8.23Q71.71 7.97 71.96 7.97L71.96 7.97L71.96 7.97Q72.55 7.97 72.55 8.46L72.55 8.46L72.55 8.46Q72.55 8.74 72.18 10.04L72.18 10.04L72.18 10.04Q71.72 11.76 71.72 11.91L71.72 11.91L71.72 11.91Q71.72 12.05 71.80 12.05L71.80 12.05L71.80 12.05Q71.88 12.05 72.11 11.32L72.11 11.32L72.11 11.32Q72.35 10.58 72.45 10.58L72.45 10.58L72.45 10.58Q72.51 10.58 72.59 10.71L72.59 10.71L72.59 10.71Q72.94 11.44 72.94 12.05L72.94 12.05L72.94 12.05Q72.94 12.67 72.51 13.47L72.51 13.47L72.51 13.47Q72.31 13.85 71.96 13.85L71.96 13.85L71.96 13.85Q71.74 13.85 71.64 13.73L71.64 13.73L71.64 13.73Q71.36 13.41 71.30 13.30L71.30 13.30L71.30 13.30Q71.04 12.96 70.87 12.10L70.87 12.10L70.87 12.10Q70.77 12.28 70.62 12.61L70.62 12.61L70.62 12.61Q70.29 13.36 70.03 13.69L70.03 13.69L70.03 13.69Q69.86 13.93 69.60 13.93L69.60 13.93L69.60 13.93Q69.34 13.93 69.03 13.57L69.03 13.57L69.03 13.57Q68.57 12.94 68.57 12.15L68.57 12.15L68.57 12.15Q68.56 11.37 68.72 10.68L68.72 10.68L68.72 10.68Q68.88 10.00 69.22 9.02L69.22 9.02L69.26 8.85L69.26 8.85Q69.26 8.74 69.16 8.74L69.16 8.74L68.84 8.82L68.84 8.82Q68.60 8.82 68.50 8.54L68.50 8.54L68.50 8.54Q68.28 8.04 68.28 7.45L68.28 7.45L68.28 7.45Q68.28 7.28 68.42 7.28L68.42 7.28ZM73.72 7.64L73.72 7.64L73.68 8.05L73.68 8.05Q73.68 8.27 73.81 8.27L73.81 8.27L73.81 8.27Q73.86 8.27 73.93 8.20L73.93 8.20L73.93 8.20Q74.42 7.71 74.98 6.44L74.98 6.44L74.98 6.44Q75.54 5.17 76.12 4.10L76.12 4.10L76.12 4.10Q76.27 3.78 76.54 3.78L76.54 3.78L76.54 3.78Q76.80 3.78 76.95 3.98L76.95 3.98L76.95 3.98Q77.10 4.17 77.10 4.42L77.10 4.42L77.10 4.42Q77.10 4.66 76.96 4.84L76.96 4.84L76.96 4.84Q76.10 6.13 75.19 9.07L75.19 9.07L75.19 9.07Q75.80 8.85 76.47 8.23L76.47 8.23L76.47 8.23Q76.73 8.01 77.05 8.01L77.05 8.01L77.05 8.01Q77.36 8.01 77.79 8.27L77.79 8.27L77.79 8.27Q78.22 8.53 78.22 8.84L78.22 8.84L78.22 8.84Q78.22 9.16 77.67 9.55L77.67 9.55L77.67 9.55Q77.11 9.94 76.61 10.18L76.61 10.18L76.61 10.18Q77.21 10.98 77.48 11.70L77.48 11.70L77.48 11.70Q77.76 12.43 77.76 13.36L77.76 13.36L77.76 13.36Q77.76 15.79 75.85 18.68L75.85 18.68L75.85 18.68Q75.66 18.96 75.41 19.04L75.41 19.04L75.41 19.04Q75.17 19.12 74.84 19.12L74.84 19.12L74.84 19.12Q74.51 19.12 74.39 19.04L74.39 19.04L74.39 19.04Q74.27 18.96 74.17 18.79L74.17 18.79L74.17 18.79Q74.06 18.62 73.86 18.31L73.86 18.31L73.86 18.31Q73.65 18.00 73.56 17.82L73.56 17.82L73.56 17.82Q73.08 16.88 73.08 15.53L73.08 15.53L73.08 15.53Q73.08 14.38 73.22 13.29L73.22 13.29L73.22 13.29Q73.42 11.91 73.64 10.42L73.64 10.42L73.64 10.42Q73.43 10.16 73.43 9.89L73.43 9.89L73.43 9.89Q73.43 9.62 73.65 9.46L73.65 9.46L73.65 9.46Q73.32 8.71 73.27 8.48L73.27 8.48L73.27 8.48Q73.22 8.25 73.22 8.02L73.22 8.02L73.22 8.02Q73.22 7.27 73.49 7.27L73.49 7.27L73.49 7.27Q73.58 7.27 73.65 7.40L73.65 7.40L73.65 7.40Q73.72 7.53 73.72 7.64ZM74.76 17.71L74.76 17.71Q75.60 16.81 76.14 15.30L76.14 15.30L76.14 15.30Q76.68 13.79 76.68 12.44L76.68 12.44L76.68 12.44Q76.68 11.09 75.63 10.54L75.63 10.54L75.63 10.54Q75.18 10.65 74.75 10.71L74.75 10.71L74.75 10.71Q74.12 13.45 74.12 16.87L74.12 16.87L74.12 16.87Q74.12 17.91 74.47 17.91L74.47 17.91L74.47 17.91Q74.59 17.91 74.76 17.71L74.76 17.71ZM78.86 7.64L78.86 7.64L78.82 8.05L78.82 8.05Q78.82 8.27 78.95 8.27L78.95 8.27L78.95 8.27Q79.00 8.27 79.07 8.20L79.07 8.20L79.07 8.20Q79.56 7.71 80.12 6.44L80.12 6.44L80.12 6.44Q80.68 5.17 81.26 4.10L81.26 4.10L81.26 4.10Q81.41 3.78 81.68 3.78L81.68 3.78L81.68 3.78Q81.94 3.78 82.09 3.98L82.09 3.98L82.09 3.98Q82.24 4.17 82.24 4.42L82.24 4.42L82.24 4.42Q82.24 4.66 82.10 4.84L82.10 4.84L82.10 4.84Q81.24 6.13 80.33 9.07L80.33 9.07L80.33 9.07Q80.93 8.85 81.61 8.23L81.61 8.23L81.61 8.23Q81.87 8.01 82.19 8.01L82.19 8.01L82.19 8.01Q82.50 8.01 82.93 8.27L82.93 8.27L82.93 8.27Q83.36 8.53 83.36 8.84L83.36 8.84L83.36 8.84Q83.36 9.16 82.80 9.55L82.80 9.55L82.80 9.55Q82.25 9.94 81.75 10.18L81.75 10.18L81.75 10.18Q82.35 10.98 82.62 11.70L82.62 11.70L82.62 11.70Q82.89 12.43 82.89 13.36L82.89 13.36L82.89 13.36Q82.89 15.79 80.99 18.68L80.99 18.68L80.99 18.68Q80.79 18.96 80.55 19.04L80.55 19.04L80.55 19.04Q80.30 19.12 79.98 19.12L79.98 19.12L79.98 19.12Q79.65 19.12 79.53 19.04L79.53 19.04L79.53 19.04Q79.41 18.96 79.30 18.79L79.30 18.79L79.30 18.79Q79.20 18.62 79.00 18.31L79.00 18.31L79.00 18.31Q78.79 18.00 78.69 17.82L78.69 17.82L78.69 17.82Q78.22 16.88 78.22 15.53L78.22 15.53L78.22 15.53Q78.22 14.38 78.36 13.29L78.36 13.29L78.36 13.29Q78.55 11.91 78.78 10.42L78.78 10.42L78.78 10.42Q78.57 10.16 78.57 9.89L78.57 9.89L78.57 9.89Q78.57 9.62 78.79 9.46L78.79 9.46L78.79 9.46Q78.46 8.71 78.41 8.48L78.41 8.48L78.41 8.48Q78.36 8.25 78.36 8.02L78.36 8.02L78.36 8.02Q78.36 7.27 78.62 7.27L78.62 7.27L78.62 7.27Q78.72 7.27 78.79 7.40L78.79 7.40L78.79 7.40Q78.86 7.53 78.86 7.64ZM79.90 17.71L79.90 17.71Q80.74 16.81 81.28 15.30L81.28 15.30L81.28 15.30Q81.82 13.79 81.82 12.44L81.82 12.44L81.82 12.44Q81.82 11.09 80.77 10.54L80.77 10.54L80.77 10.54Q80.32 10.65 79.88 10.71L79.88 10.71L79.88 10.71Q79.25 13.45 79.25 16.87L79.25 16.87L79.25 16.87Q79.25 17.91 79.60 17.91L79.60 17.91L79.60 17.91Q79.73 17.91 79.90 17.71L79.90 17.71Z"></path></g><!----><g data-v-423bf9ae="" id="bcd66a6e-c74d-450d-bf15-980d32b2e0f9" transform="matrix(1,0,0,1,-5,-5)" stroke="none" fill="black"><path d="M86 5H14a9 9 0 0 0-9 9v72a9 9 0 0 0 9 9h72a9 9 0 0 0 9-9V14a9 9 0 0 0-9-9zm-26.809 7.683c0-.651.526-1.18 1.18-1.18h.65c.649 0 1.18.528 1.18 1.18v2.659a1.18 1.18 0 0 1-1.18 1.179h-.65c-.652 0-1.18-.526-1.18-1.179v-2.659zm-4.91 0c0-.651.525-1.18 1.178-1.18h.65c.652 0 1.182.528 1.182 1.18v2.659a1.18 1.18 0 0 1-1.182 1.179h-.65a1.176 1.176 0 0 1-1.178-1.179v-2.659zm-4.911 0c0-.651.527-1.18 1.18-1.18h.651c.65 0 1.18.528 1.18 1.18v2.659a1.18 1.18 0 0 1-1.18 1.179h-.651c-.652 0-1.18-.526-1.18-1.179v-2.659zm-4.909 0c0-.651.526-1.18 1.179-1.18h.651c.651 0 1.18.528 1.18 1.18v2.659c0 .652-.528 1.179-1.18 1.179h-.651a1.177 1.177 0 0 1-1.179-1.179v-2.659zm-4.911 0c0-.651.528-1.18 1.18-1.18h.651c.651 0 1.18.528 1.18 1.18v2.659c0 .652-.528 1.179-1.18 1.179h-.651c-.651 0-1.18-.526-1.18-1.179v-2.659zm-4.911 0c0-.651.528-1.18 1.18-1.18h.65c.652 0 1.18.528 1.18 1.18v2.659c0 .652-.527 1.179-1.18 1.179h-.65c-.651 0-1.18-.526-1.18-1.179v-2.659zm-4.91 0c0-.651.528-1.18 1.18-1.18h.65c.652 0 1.18.528 1.18 1.18v2.659c0 .652-.527 1.179-1.18 1.179h-.65c-.651 0-1.18-.526-1.18-1.179v-2.659zm-15.716-2.344a3.472 3.472 0 0 1 3.467 3.467 3.47 3.47 0 0 1-3.467 3.465 3.47 3.47 0 0 1-3.465-3.465 3.47 3.47 0 0 1 3.465-3.467zm0 79.321a3.47 3.47 0 0 1-3.465-3.465 3.47 3.47 0 0 1 3.465-3.467 3.471 3.471 0 0 1 3.467 3.467 3.47 3.47 0 0 1-3.467 3.465zm.659-32.373V25.411l2.811-2.813h6.649c.112-.259.317-.459.564-.593v-2.151c0-1.137.888-2.061 2.005-2.14v-.016h38.322v-1.229c-.523-.12-.922-.566-.922-1.127v-2.659c0-.651.526-1.18 1.18-1.18h.648c.651 0 1.182.528 1.182 1.18v2.659c0 .561-.399 1.007-.924 1.127v1.229h2.758l1.037.572 1.04-.004c.21-.395.612-.673 1.091-.673a1.252 1.252 0 0 1 0 2.502c-.475 0-.873-.274-1.085-.665l-1.343.005-1.039-.573H28.605v.001h-1.754a.991.991 0 0 0-.991.991v2.15c.393.211.669.611.669 1.088 0 .69-.56 1.25-1.25 1.25-.438 0-.804-.239-1.028-.58h-3.322v2.578c.393.211.669.611.669 1.088a1.25 1.25 0 0 1-2.5 0c0-.476.276-.875.667-1.087v-2.579h-1.799l-2.13 2.13v30.915l4.649 4.648h7.029l2.256-2.256V41.871a1.546 1.546 0 1 1 1.164-.001v17.812l-1.301 1.301 16.526 16.525h6.405l3.777 3.775a1.547 1.547 0 1 1-.831 2.006h-9.918a1.544 1.544 0 1 1-2.946-.866L28.753 68.529h-3.168c-.12.523-.567.924-1.128.924h-2.658a1.181 1.181 0 0 1-1.181-1.18v-.652c0-.652.528-1.178 1.181-1.178l2.658-.002c.561 0 1.009.398 1.128.924h3.649l14.064 14.062a1.542 1.542 0 0 1 2.294.699h9.92l.007-.021-3.437-3.435h-6.405L28.81 61.805l-.814.814h-7.991l-5.333-5.332zm27.669-25.576l2.298-2.299a1.146 1.146 0 0 1-.178-.586v-2.658c0-.651.526-1.179 1.179-1.179h.651c.651 0 1.18.527 1.18 1.179v2.658a1.18 1.18 0 0 1-1.18 1.18h-.6l-2.87 2.869H23.943l-2.49 2.49c.086.169.146.354.146.557a1.25 1.25 0 1 1-1.25-1.25c.045 0 .083.021.126.025l2.987-2.986h18.879zm-7.702-2.885v-2.658a1.18 1.18 0 0 1 1.18-1.179h.65c.652 0 1.18.527 1.18 1.179v2.658c0 .652-.527 1.18-1.18 1.18h-.65a1.18 1.18 0 0 1-1.18-1.18zm24.552-1.91v-.748c0-.651.526-1.179 1.18-1.179h.65c.649 0 1.18.527 1.18 1.179v2.658a1.18 1.18 0 0 1-1.18 1.18h-.65c-.652 0-1.18-.527-1.18-1.18v-.746h-1.9v.746a1.18 1.18 0 0 1-1.182 1.18h-.65a1.177 1.177 0 0 1-1.178-1.18v-2.658c0-.153.034-.298.087-.433l-1.593-1.592h-8.601l-1.683 1.683c.034.11.069.221.069.342v2.658a1.18 1.18 0 0 1-1.18 1.18h-.65a1.18 1.18 0 0 1-1.18-1.18v-2.658a1.18 1.18 0 0 1 1.18-1.179h.651c.089 0 .167.032.25.05l2.061-2.061h9.564L55.3 25.02c.055-.008.103-.032.159-.032h.65a1.18 1.18 0 0 1 1.182 1.179v.748h1.9zm4.911 1.91v-2.658c0-.651.526-1.179 1.18-1.179h.648c.651 0 1.182.527 1.182 1.179v2.658a1.18 1.18 0 0 1-1.182 1.18h-.648c-.073 0-.137-.029-.206-.042l-5.032 5.032H26.809l-.403.403c.074.16.123.334.123.523a1.25 1.25 0 1 1-1.25-1.25c.062 0 .115.026.174.035l.875-.875h33.233l4.619-4.618a1.166 1.166 0 0 1-.078-.388zm.406 16.243a1.547 1.547 0 1 1 0-3.094 1.547 1.547 0 0 1 0 3.094zm1.547 7.968a1.547 1.547 0 1 1-3.094 0 1.547 1.547 0 0 1 3.094 0zm-6.289-10.196v.65c0 .651-.527 1.179-1.18 1.179l-2.658.001c-.652 0-1.18-.527-1.18-1.18v-.65a1.18 1.18 0 0 1 1.18-1.181h2.658c.652 0 1.18.529 1.18 1.181zm-7.389-2.401a1.544 1.544 0 1 1-3.09 0 1.545 1.545 0 1 1 3.09 0zM41.654 52.662c0-.65.527-1.18 1.18-1.18h2.656a1.18 1.18 0 0 1 1.181 1.18l.001.65a1.18 1.18 0 0 1-1.18 1.18h-2.658c-.652 0-1.18-.527-1.18-1.18v-.65zm-.002-9.171v-.65c0-.651.528-1.181 1.181-1.181h2.657c.652 0 1.18.529 1.18 1.181v.65c0 .651-.527 1.179-1.18 1.179l-2.657.001a1.18 1.18 0 0 1-1.181-1.18zm-16.017 0c0 .651-.527 1.179-1.18 1.179l-2.657.001a1.18 1.18 0 0 1-1.182-1.18v-.65c0-.651.529-1.181 1.182-1.181h2.657c.652 0 1.18.529 1.18 1.181v.65zm.001 4.259v.651c0 .652-.527 1.18-1.18 1.18h-2.658a1.18 1.18 0 0 1-1.181-1.18v-.65c0-.651.528-1.18 1.181-1.18h2.658c.652 0 1.18.528 1.18 1.179zm-3.838 3.732h2.658c.652 0 1.18.528 1.18 1.18l.001.65a1.18 1.18 0 0 1-1.18 1.18h-2.658c-.652 0-1.18-.527-1.18-1.18l-.002-.65c0-.65.529-1.18 1.181-1.18zM49.37 28.826v-2.658c0-.651.527-1.179 1.18-1.179h.651c.65 0 1.18.527 1.18 1.179v2.658a1.18 1.18 0 0 1-1.18 1.18h-.651c-.652 0-1.18-.527-1.18-1.18zm7.571 60.263c-.647 0-1.2-.399-1.43-.964h-9.92a1.545 1.545 0 0 1-2.86 0h-2.354L26.481 74.227h-.896c-.121.524-.567.924-1.128.924h-2.658a1.18 1.18 0 0 1-1.18-1.182l-.002-.648c0-.651.529-1.182 1.181-1.182h2.658c.561 0 1.008.399 1.128.924h1.378L40.86 86.961h1.873a1.544 1.544 0 0 1 2.86 0h9.92a1.544 1.544 0 0 1 2.862 0h8.156l8.791-8.793-18.652-18.65v-5.025h-.74c-.652 0-1.18-.527-1.18-1.18v-.65c0-.65.527-1.18 1.178-1.18h2.658c.652 0 1.18.528 1.18 1.18l.002.65a1.183 1.183 0 0 1-1.182 1.18h-.754v4.543l18.311 18.311 8.021-8.021V28.792l-4.648-4.649h-6.312a1.239 1.239 0 0 1-1.09.669c-.477 0-.877-.276-1.088-.669H66.87l-1.924-1.923H33.399l-1.583 1.581v1.24c.524.12.923.566.923 1.127v2.658c0 .652-.527 1.18-1.18 1.18h-.65a1.18 1.18 0 0 1-1.18-1.18v-2.658c0-.56.399-1.007.924-1.127v-1.722l2.265-2.263h32.51l1.924 1.923h3.674a1.236 1.236 0 0 1 1.088-.669c.478 0 .878.276 1.09.669h6.793l5.332 5.331v41.497L67.012 88.125h-8.639c-.23.564-.783.964-1.432.964zm15.172-28.083a1.547 1.547 0 1 1-.001 3.095 1.547 1.547 0 0 1 .001-3.095zm-1.547-26.998a1.547 1.547 0 1 1 3.094 0 1.547 1.547 0 0 1-3.094 0zm6.724 26.999a1.546 1.546 0 1 1 0 3.092 1.546 1.546 0 0 1 0-3.092zm-1.546-26.999a1.545 1.545 0 1 1 3.092 0 1.545 1.545 0 1 1-3.092 0zm4.888 7.968a1.546 1.546 0 1 1 0 3.092 1.546 1.546 0 0 1 0-3.092zm-.681-3.524v-8.888a.583.583 0 0 1 1.164 0v8.888a.581.581 0 0 1-1.164 0zm.681 13.039a1.546 1.546 0 1 1 0 3.092 1.546 1.546 0 0 1 0-3.092zm.483 6.616v8.889a.581.581 0 1 1-1.164 0v-8.889a.582.582 0 0 1 1.164 0zm4.871 31.553a3.471 3.471 0 0 1-3.467-3.465c0-1.912 1.557-3.467 3.467-3.467s3.465 1.555 3.465 3.467a3.47 3.47 0 0 1-3.465 3.465zm0-71.889a3.47 3.47 0 0 1-3.467-3.465c0-1.911 1.557-3.467 3.467-3.467s3.465 1.556 3.465 3.467a3.47 3.47 0 0 1-3.465 3.465z"></path></g><!----></svg>