<svg data-v-423bf9ae="" xmlns="http://www.w3.org/2000/svg" viewBox="0 0 602 102" class="iconLeftSlogan"><!----><!----><!----><g data-v-423bf9ae="" id="8ed25969-8633-4efd-9345-5bb32bc77289" fill="#ffffff" transform="matrix(3.7712133357605775,0,0,3.7712133357605775,117.69217626275804,-3.356379695669986)"><path d="M5.41 12.74C7.93 12.74 9.91 11.22 9.91 9.26L9.91 2.10L7.23 2.10L7.23 8.75C7.23 9.68 6.42 10.41 5.41 10.41C4.39 10.41 3.59 9.68 3.59 8.75L3.59 2.10L0.91 2.10L0.91 9.26C0.91 11.22 2.89 12.74 5.41 12.74ZM14.19 12.74C15.89 12.74 16.85 11.73 16.85 10.40C16.85 8.94 15.63 8.37 14.61 7.96C14.23 7.81 14.04 7.74 14.04 7.58C14.04 7.46 14.14 7.32 14.47 7.32C14.93 7.32 15.35 7.58 15.59 7.81L16.73 6.32C16.12 5.81 15.28 5.46 14.28 5.46C12.50 5.46 11.50 6.62 11.50 7.79C11.50 9.28 13.13 9.71 13.76 9.96C14.33 10.17 14.47 10.33 14.47 10.48C14.47 10.66 14.30 10.76 14.00 10.76C13.74 10.76 13.28 10.69 12.90 10.08L11.08 11.03C11.53 12.18 12.92 12.74 14.19 12.74ZM21.51 5.44C19.16 5.44 17.59 6.84 17.59 9.10C17.59 11.34 19.15 12.74 21.58 12.74C23.63 12.74 24.90 11.73 25.22 10.20L22.75 10.20C22.63 10.66 22.23 10.92 21.56 10.92C20.63 10.92 20.27 10.43 20.20 9.52L25.31 9.52L25.31 9.08C25.32 6.84 23.84 5.44 21.51 5.44ZM21.56 7.35C22.19 7.35 22.54 7.61 22.70 8.09L20.34 8.09C20.51 7.61 20.88 7.35 21.56 7.35ZM40.06 2.10L36.94 8.79L33.85 2.10L30.94 2.10L30.94 12.60L33.62 12.60L33.62 6.95L36.23 12.60L37.66 12.60L40.27 6.98L40.27 12.60L42.95 12.60L42.95 2.10ZM49.60 5.60L48.02 9.87L46.43 5.60L43.75 5.60L46.69 12.78L45.05 16.80L47.78 16.80L48.88 13.97L52.24 5.60ZM63.95 2.10L56.14 2.10L56.14 4.43L58.71 4.43L58.71 12.60L61.37 12.60L61.37 4.43L63.95 4.43ZM68.18 5.44C65.84 5.44 64.26 6.84 64.26 9.10C64.26 11.34 65.82 12.74 68.25 12.74C70.30 12.74 71.58 11.73 71.89 10.20L69.42 10.20C69.30 10.66 68.90 10.92 68.23 10.92C67.31 10.92 66.94 10.43 66.87 9.52L71.98 9.52L71.98 9.08C72.00 6.84 70.51 5.44 68.18 5.44ZM68.23 7.35C68.86 7.35 69.21 7.61 69.37 8.09L67.01 8.09C67.18 7.61 67.55 7.35 68.23 7.35ZM76.91 12.74C79.15 12.74 80.62 11.46 80.85 9.63L78.21 9.63C78.02 10.13 77.53 10.47 76.91 10.48C76.09 10.47 75.51 9.89 75.51 9.10C75.51 8.31 76.09 7.74 76.91 7.72C77.53 7.74 78.02 8.07 78.21 8.58L80.85 8.58C80.62 6.74 79.15 5.46 76.91 5.46C74.45 5.46 72.92 6.98 72.92 9.10C72.92 11.22 74.45 12.74 76.91 12.74ZM86.92 5.46C86.05 5.46 85.31 5.90 84.81 6.62L84.81 0.89L82.22 0.89L82.22 12.60L84.81 12.60L84.81 8.82C84.81 8.28 85.26 7.72 85.89 7.72C86.45 7.72 86.82 8.16 86.82 8.66L86.82 12.60L89.41 12.60L89.41 8.17C89.41 6.62 88.32 5.46 86.92 5.46ZM98.79 12.74C100.80 12.74 102.53 11.57 102.53 9.56C102.53 5.57 97.77 6.56 97.77 4.97C97.77 4.52 98.12 4.31 98.54 4.31C99.07 4.31 99.65 4.62 100.21 5.22L101.96 3.52C101.13 2.55 99.89 1.96 98.58 1.96C96.92 1.96 95.08 2.92 95.08 5.16C95.08 8.80 99.86 7.93 99.86 9.52C99.86 9.94 99.51 10.24 98.82 10.24C97.91 10.24 97.18 9.75 96.81 8.96L94.62 10.33C95.32 11.66 96.86 12.74 98.79 12.74ZM108.41 7.53L108.41 5.60L106.80 5.60L106.80 3.03L104.21 3.03L104.21 5.60L103.04 5.60L103.04 7.53L104.21 7.53L104.21 9.91C104.21 11.50 105.58 12.74 107.19 12.74C107.70 12.74 108.20 12.64 108.38 12.51L108.38 10.50L107.52 10.50C107.08 10.50 106.80 10.15 106.80 9.59L106.80 7.53ZM113.00 12.74C115.31 12.74 116.52 11.62 116.52 9.85L116.52 5.60L113.93 5.60L113.93 9.52C113.93 10.06 113.52 10.48 113.00 10.48C112.49 10.48 112.11 10.06 112.11 9.52L112.11 5.60L109.50 5.60L109.50 9.85C109.50 11.62 110.71 12.74 113.00 12.74ZM122.82 5.60L121.22 5.60L121.22 4.04C121.22 3.48 121.49 3.13 121.92 3.13L122.78 3.13L122.78 1.12C122.61 1.00 122.12 0.89 121.59 0.89C119.98 0.89 118.62 2.13 118.62 3.75L118.62 5.60L117.44 5.60L117.44 7.53L118.62 7.53L118.62 12.60L121.22 12.60L121.22 7.53L122.82 7.53ZM128.24 5.60L126.65 5.60L126.65 4.04C126.65 3.48 126.91 3.13 127.35 3.13L128.21 3.13L128.21 1.12C128.03 1.00 127.54 0.89 127.02 0.89C125.41 0.89 124.04 2.13 124.04 3.75L124.04 5.60L122.87 5.60L122.87 7.53L124.04 7.53L124.04 12.60L126.65 12.60L126.65 7.53L128.24 7.53Z"></path></g><!----><g data-v-423bf9ae="" id="faa0fa1b-d1d2-425f-996a-f933a4edc464" transform="matrix(1.0599998474121093,0,0,1.0599998474121093,-1.699989204407025,-1.699985103608192)" stroke="none" fill="#004c54"><path d="M7.6 18.1v20l21.8 21.8c-.4 1-.7 2.1-.7 3.2 0 4.5 3.7 8.2 8.2 8.2s8.2-3.7 8.2-8.2c0-4.5-3.7-8.2-8.2-8.2-1.1 0-2.2.2-3.2.7l-20.1-20V18.1c3-1.2 5.2-4.1 5.2-7.6 0-4.5-3.7-8.2-8.2-8.2S2.4 6 2.4 10.5c0 3.5 2.1 6.4 5.2 7.6zm32.4 45c0 1.7-1.4 3.2-3.2 3.2-1.7 0-3.2-1.4-3.2-3.2s1.4-3.2 3.2-3.2c1.8.1 3.2 1.5 3.2 3.2zM10.6 7.4c1.7 0 3.2 1.4 3.2 3.2 0 1.7-1.4 3.2-3.2 3.2-1.7 0-3.2-1.4-3.2-3.2 0-1.8 1.4-3.2 3.2-3.2zM92.4 29.3V18.1c3-1.2 5.2-4.1 5.2-7.6 0-4.5-3.7-8.2-8.2-8.2-3.4 0-6.4 2.1-7.6 5.2H44.4c-1.2-3-4.1-5.2-7.6-5.2-4.5 0-8.2 3.7-8.2 8.2s3.7 8.2 8.2 8.2c3.4 0 6.4-2.1 7.6-5.2h37.4c.8 2.1 2.5 3.7 4.6 4.6v11.2c-3 1.2-5.2 4.1-5.2 7.6 0 1.1.2 2.2.7 3.2L66.4 55.7c-1-.4-2.1-.7-3.2-.7-4.5 0-8.2 3.7-8.2 8.2 0 4.5 3.7 8.2 8.2 8.2s8.2-3.7 8.2-8.2c0-1.1-.2-2.2-.7-3.2l15.6-15.6c1 .4 2.1.7 3.2.7 4.5 0 8.2-3.7 8.2-8.2-.1-3.5-2.2-6.4-5.3-7.6zM36.9 13.7c-1.7 0-3.2-1.4-3.2-3.2 0-1.7 1.4-3.2 3.2-3.2 1.7 0 3.2 1.4 3.2 3.2-.1 1.8-1.5 3.2-3.2 3.2zm52.5-6.3c1.7 0 3.2 1.4 3.2 3.2 0 1.7-1.4 3.2-3.2 3.2s-3.2-1.4-3.2-3.2c.1-1.8 1.5-3.2 3.2-3.2zM63.1 66.3c-1.7 0-3.2-1.4-3.2-3.2s1.4-3.2 3.2-3.2 3.2 1.4 3.2 3.2-1.4 3.2-3.2 3.2zM89.4 40c-1.7 0-3.2-1.4-3.2-3.2 0-1.7 1.4-3.2 3.2-3.2s3.2 1.4 3.2 3.2c0 1.8-1.4 3.2-3.2 3.2zM97.6 63.1c0-4.5-3.7-8.2-8.2-8.2-4.5 0-8.2 3.7-8.2 8.2 0 3.4 2.1 6.4 5.2 7.6v11.2c-2.1.8-3.7 2.5-4.6 4.6H70.7c-1.2-3-4.1-5.2-7.6-5.2-4.5 0-8.2 3.7-8.2 8.2s3.7 8.2 8.2 8.2c3.4 0 6.4-2.1 7.6-5.2h11.2c1.2 3 4.1 5.2 7.6 5.2 4.5 0 8.2-3.7 8.2-8.2 0-3.4-2.1-6.4-5.2-7.6V70.7c3-1.2 5.1-4.1 5.1-7.6zM89.4 60c1.7 0 3.2 1.4 3.2 3.2s-1.4 3.2-3.2 3.2-3.2-1.4-3.2-3.2 1.5-3.2 3.2-3.2zM63.1 92.6c-1.7 0-3.2-1.4-3.2-3.2s1.4-3.2 3.2-3.2 3.2 1.4 3.2 3.2-1.4 3.2-3.2 3.2zm26.3 0c-1.7 0-3.2-1.4-3.2-3.2s1.4-3.2 3.2-3.2 3.2 1.4 3.2 3.2-1.4 3.2-3.2 3.2z"></path><path d="M55.8 40.4c1.3 2.7 4.1 4.7 7.4 4.7 4.5 0 8.2-3.7 8.2-8.2s-3.7-8.2-8.2-8.2c-3.2 0-6 1.9-7.4 4.7H44.2c-1.3-2.7-4.1-4.7-7.4-4.7-4.5 0-8.2 3.7-8.2 8.2s3.7 8.2 8.2 8.2c3.2 0 6-1.9 7.4-4.7H47V75L35.6 86.4H18.1c-.8-2.1-2.5-3.7-4.6-4.6V70.7c3-1.2 5.2-4.1 5.2-7.6 0-4.5-3.7-8.2-8.2-8.2s-8.2 3.7-8.2 8.2c0 3.4 2.1 6.4 5.2 7.6v11.2c-3 1.2-5.2 4.1-5.2 7.6 0 4.5 3.7 8.2 8.2 8.2 3.4 0 6.4-2.1 7.6-5.2h20l14.9-15V40.4h2.8zM10.6 60c1.7 0 3.2 1.4 3.2 3.2s-1.4 3.2-3.2 3.2c-1.7 0-3.2-1.4-3.2-3.2S8.8 60 10.6 60zm0 32.6c-1.7 0-3.2-1.4-3.2-3.2s1.4-3.2 3.2-3.2c1.7 0 3.2 1.4 3.2 3.2s-1.5 3.2-3.2 3.2zm52.5-58.9c1.7 0 3.2 1.4 3.2 3.2 0 1.7-1.4 3.2-3.2 3.2S60 38.6 60 36.9c0-1.8 1.4-3.2 3.1-3.2zM36.9 40c-1.7 0-3.2-1.4-3.2-3.2 0-1.7 1.4-3.2 3.2-3.2 1.7 0 3.2 1.4 3.2 3.2-.1 1.8-1.5 3.2-3.2 3.2z"></path></g><!----><g data-v-423bf9ae="" id="f4f4d24f-aece-4c4e-a069-75cb7f9ad28b" fill="#ffffff" transform="matrix(0.617486732599541,0,0,0.617486732599541,119.9075300894676,57.07928759162689)"><path d="M9.17 10.72L9.17 10.72L9.17 10.72Q9.53 10.72 9.74 10.98L9.74 10.98L9.74 10.98Q9.95 11.23 9.95 11.68L9.95 11.68L9.95 11.68Q9.95 11.79 9.94 11.91L9.94 11.91L9.94 11.91Q9.93 12.03 9.90 12.11L9.90 12.11L9.90 12.11Q9.60 12.04 9.25 12.03L9.25 12.03L9.25 12.03Q9.17 12.64 8.81 13.32L8.81 13.32L8.81 13.32Q8.44 14 7.92 14.60L7.92 14.60L7.92 14.60Q7.41 15.19 6.79 15.64L6.79 15.64L6.79 15.64Q6.17 16.09 5.57 16.24L5.57 16.24L5.57 16.24Q3.70 16.20 2.83 15.27L2.83 15.27L2.83 15.27Q1.97 14.34 1.97 12.36L1.97 12.36L1.97 12.36Q1.97 10.92 2.51 9.57L2.51 9.57L2.51 9.57Q3.04 8.22 3.92 7.17L3.92 7.17L3.92 7.17Q4.80 6.12 5.94 5.48L5.94 5.48L5.94 5.48Q7.08 4.84 8.32 4.84L8.32 4.84L8.32 4.84Q9.28 4.84 9.82 5.25L9.82 5.25L9.82 5.25Q10.36 5.66 10.36 6.40L10.36 6.40L10.36 6.40Q10.36 6.89 10.13 7.31L10.13 7.31L10.13 7.31Q9.90 7.73 9.37 8.22L9.37 8.22L9.37 8.22Q9.04 8.12 8.81 7.88L8.81 7.88L8.81 7.88Q8.57 7.63 8.51 7.31L8.51 7.31L8.51 7.31Q8.99 6.96 9.18 6.66L9.18 6.66L9.18 6.66Q9.38 6.37 9.38 5.96L9.38 5.96L9.38 5.96Q9.38 5.32 8.61 5.32L8.61 5.32L8.61 5.32Q7.98 5.32 7.26 5.79L7.26 5.79L7.26 5.79Q6.54 6.26 5.81 7.14L5.81 7.14L5.81 7.14Q4.77 8.39 4.30 9.71L4.30 9.71L4.30 9.71Q3.82 11.03 3.82 12.68L3.82 12.68L3.82 12.68Q3.82 13.30 3.95 13.80L3.95 13.80L3.95 13.80Q4.07 14.31 4.28 14.69L4.28 14.69L4.28 14.69Q4.49 15.06 4.78 15.29L4.78 15.29L4.78 15.29Q5.07 15.51 5.40 15.54L5.40 15.54L5.40 15.54Q5.85 15.44 6.30 15.09L6.30 15.09L6.30 15.09Q6.75 14.73 7.12 14.25L7.12 14.25L7.12 14.25Q7.49 13.76 7.75 13.21L7.75 13.21L7.75 13.21Q8.01 12.66 8.06 12.15L8.06 12.15L8.06 12.15Q7.67 12.24 7.32 12.31L7.32 12.31L7.32 12.31Q6.96 12.39 6.64 12.39L6.64 12.39L6.64 12.39Q6.22 12.39 5.90 12.18L5.90 12.18L5.90 12.18Q5.59 11.97 5.47 11.61L5.47 11.61L5.47 11.61Q5.73 11.47 6.21 11.31L6.21 11.31L6.21 11.31Q6.69 11.16 7.24 11.03L7.24 11.03L7.24 11.03Q7.78 10.89 8.31 10.81L8.31 10.81L8.31 10.81Q8.83 10.72 9.17 10.72ZM17.93 14.38L17.93 14.38L17.93 14.38Q17.93 13.87 18.10 13.07L18.10 13.07L18.10 13.07Q18.26 12.26 18.52 11.33L18.52 11.33L18.52 11.33Q18.77 10.40 19.11 9.43L19.11 9.43L19.11 9.43Q19.45 8.46 19.80 7.60L19.80 7.60L19.80 7.60Q20.15 6.75 20.48 6.10L20.48 6.10L20.48 6.10Q20.82 5.46 21.08 5.18L21.08 5.18L21.08 5.18Q21.22 5.19 21.46 5.29L21.46 5.29L21.46 5.29Q21.69 5.38 21.92 5.50L21.92 5.50L21.92 5.50Q22.16 5.63 22.36 5.78L22.36 5.78L22.36 5.78Q22.55 5.92 22.61 6.05L22.61 6.05L22.61 6.05Q22.20 6.41 21.80 7.15L21.80 7.15L21.80 7.15Q21.41 7.88 21.04 8.82L21.04 8.82L21.04 8.82Q20.66 9.76 20.34 10.80L20.34 10.80L20.34 10.80Q20.02 11.84 19.78 12.82L19.78 12.82L19.78 12.82Q19.54 13.80 19.41 14.64L19.41 14.64L19.41 14.64Q19.28 15.48 19.28 16.00L19.28 16.00L19.28 16.00Q19.28 16.24 19.32 16.30L19.32 16.30L19.32 16.30Q19.01 16.28 18.87 16.19L18.87 16.19L18.87 16.19Q18.73 16.10 18.66 16.00L18.66 16.00L18.66 16.00Q18.58 15.89 18.52 15.79L18.52 15.79L18.52 15.79Q18.45 15.68 18.33 15.62L18.33 15.62L18.33 15.62Q18.23 15.58 18.16 15.43L18.16 15.43L18.16 15.43Q18.09 15.27 18.04 15.09L18.04 15.09L18.04 15.09Q17.99 14.90 17.96 14.70L17.96 14.70L17.96 14.70Q17.93 14.50 17.93 14.38ZM33.38 16.07L33.38 16.07L33.38 16.07Q33.05 16.24 32.69 16.24L32.69 16.24L32.69 16.24Q32.24 16.18 31.83 16.02L31.83 16.02L31.83 16.02Q31.42 15.85 31.22 15.61L31.22 15.61L31.22 15.61Q31.11 14.92 31.04 14.35L31.04 14.35L31.04 14.35Q30.97 13.78 30.93 13.27L30.93 13.27L30.93 13.27Q30.88 12.75 30.87 12.29L30.87 12.29L30.87 12.29Q30.86 11.82 30.86 11.34L30.86 11.34L30.86 11.34Q30.86 10.71 30.87 10.01L30.87 10.01L30.87 10.01Q30.88 9.31 30.91 8.52L30.91 8.52L30.91 8.52Q30.93 7.73 30.94 6.82L30.94 6.82L30.94 6.82Q30.95 5.92 30.95 4.86L30.95 4.86L30.95 4.86Q31.14 4.86 31.50 4.96L31.50 4.96L31.50 4.96Q31.86 5.07 32.22 5.21L32.22 5.21L32.22 5.21Q32.58 5.35 32.86 5.49L32.86 5.49L32.86 5.49Q33.14 5.64 33.17 5.74L33.17 5.74L33.17 5.74Q33.03 6.13 32.92 6.76L32.92 6.76L32.92 6.76Q32.82 7.39 32.75 8.16L32.75 8.16L32.75 8.16Q32.69 8.93 32.66 9.79L32.66 9.79L32.66 9.79Q32.63 10.64 32.63 11.48L32.63 11.48L32.63 11.48Q32.63 12.11 32.65 12.61L32.65 12.61L32.65 12.61Q32.66 13.10 32.68 13.50L32.68 13.50L32.68 13.50Q32.70 13.90 32.75 14.25L32.75 14.25L32.75 14.25Q32.79 14.59 32.84 14.92L32.84 14.92L32.84 14.92Q33.24 13.73 33.70 12.54L33.70 12.54L33.70 12.54Q34.17 11.35 34.67 10.25L34.67 10.25L34.67 10.25Q35.17 9.16 35.66 8.20L35.66 8.20L35.66 8.20Q36.15 7.25 36.59 6.54L36.59 6.54L36.59 6.54Q37.03 5.84 37.38 5.43L37.38 5.43L37.38 5.43Q37.73 5.01 37.95 4.98L37.95 4.98L37.95 4.98Q38.11 5.01 38.28 5.10L38.28 5.10L38.28 5.10Q38.46 5.19 38.61 5.32L38.61 5.32L38.61 5.32Q38.77 5.45 38.89 5.60L38.89 5.60L38.89 5.60Q39.02 5.75 39.09 5.91L39.09 5.91L39.09 5.91Q38.57 6.09 37.98 6.76L37.98 6.76L37.98 6.76Q37.38 7.43 36.78 8.38L36.78 8.38L36.78 8.38Q36.18 9.32 35.61 10.44L35.61 10.44L35.61 10.44Q35.04 11.55 34.59 12.61L34.59 12.61L34.59 12.61Q34.13 13.68 33.81 14.60L33.81 14.60L33.81 14.60Q33.49 15.53 33.38 16.07ZM50.34 9.21L50.34 9.21L50.34 9.21Q50.81 9.21 51.07 9.46L51.07 9.46L51.07 9.46Q51.32 9.72 51.32 10.16L51.32 10.16L51.32 10.16Q51.32 10.28 51.30 10.39L51.30 10.39L51.30 10.39Q51.28 10.51 51.25 10.60L51.25 10.60L51.25 10.60Q51.07 10.57 50.85 10.55L50.85 10.55L50.85 10.55Q50.62 10.53 50.32 10.53L50.32 10.53L50.32 10.53Q49.71 10.53 49.10 10.63L49.10 10.63L49.10 10.63Q48.48 10.74 47.92 10.81L47.92 10.81L47.92 10.81Q47.60 11.55 47.33 12.24L47.33 12.24L47.33 12.24Q47.07 12.94 46.88 13.51L46.88 13.51L46.88 13.51Q46.69 14.08 46.59 14.50L46.59 14.50L46.59 14.50Q46.48 14.92 46.47 15.13L46.47 15.13L46.47 15.13Q47.60 14.90 48.76 14.73L48.76 14.73L48.76 14.73Q49.91 14.56 51.18 14.48L51.18 14.48L51.18 14.48Q51.34 14.71 51.44 14.99L51.44 14.99L51.44 14.99Q51.55 15.27 51.55 15.60L51.55 15.60L51.55 15.60Q51.55 15.68 51.55 15.78L51.55 15.78L51.55 15.78Q51.55 15.88 51.52 15.97L51.52 15.97L51.52 15.97Q51.13 15.96 50.69 15.95L50.69 15.95L50.69 15.95Q50.26 15.95 49.56 15.95L49.56 15.95L49.56 15.95Q49.10 15.95 48.69 15.97L48.69 15.97L48.69 15.97Q48.27 15.99 47.85 16.03L47.85 16.03L47.85 16.03Q47.43 16.07 46.96 16.14L46.96 16.14L46.96 16.14Q46.49 16.21 45.91 16.31L45.91 16.31L45.91 16.31Q45.26 16.06 44.66 15.08L44.66 15.08L44.66 15.08Q44.90 14.57 45.33 13.54L45.33 13.54L45.33 13.54Q45.75 12.52 46.41 10.79L46.41 10.79L46.41 10.79Q45.78 10.60 45.58 10.09L45.58 10.09L45.58 10.09Q45.65 10.02 45.99 9.92L45.99 9.92L45.99 9.92Q46.33 9.81 46.82 9.70L46.82 9.70L46.82 9.70Q47.03 9.16 47.17 8.75L47.17 8.75L47.17 8.75Q47.32 8.34 47.43 7.99L47.43 7.99L47.43 7.99Q47.54 7.63 47.64 7.29L47.64 7.29L47.64 7.29Q47.73 6.94 47.81 6.54L47.81 6.54L47.81 6.54Q47.32 6.51 47.04 6.27L47.04 6.27L47.04 6.27Q46.76 6.02 46.76 5.63L46.76 5.63L46.76 5.63Q46.76 5.52 46.80 5.36L46.80 5.36L46.80 5.36Q46.83 5.21 46.87 5.10L46.87 5.10L46.87 5.10Q47.15 5.14 47.41 5.15L47.41 5.15L47.41 5.15Q47.67 5.17 48.09 5.17L48.09 5.17L48.09 5.17Q48.97 5.17 49.74 5.12L49.74 5.12L49.74 5.12Q50.51 5.07 51.14 5.01L51.14 5.01L51.14 5.01Q51.76 4.96 52.21 4.91L52.21 4.91L52.21 4.91Q52.65 4.86 52.89 4.86L52.89 4.86L52.89 4.86Q53.21 4.86 53.47 5.19L53.47 5.19L53.47 5.19Q53.72 5.53 53.84 6.15L53.84 6.15L53.84 6.15Q53.41 6.10 53.14 6.09L53.14 6.09L53.14 6.09Q52.86 6.08 52.65 6.08L52.65 6.08L52.65 6.08Q51.88 6.08 51.25 6.15L51.25 6.15L51.25 6.15Q50.61 6.23 50.02 6.31L50.02 6.31L50.02 6.31Q49.94 6.44 49.83 6.64L49.83 6.64L49.83 6.64Q49.73 6.83 49.56 7.18L49.56 7.18L49.56 7.18Q49.39 7.53 49.15 8.06L49.15 8.06L49.15 8.06Q48.90 8.60 48.55 9.39L48.55 9.39L48.55 9.39Q49.08 9.31 49.55 9.26L49.55 9.26L49.55 9.26Q50.02 9.21 50.34 9.21ZM75.80 5.75L75.80 5.75L75.80 5.75Q75.18 6.58 74.68 7.57L74.68 7.57L74.68 7.57Q74.17 8.57 73.81 9.61L73.81 9.61L73.81 9.61Q73.46 10.65 73.27 11.67L73.27 11.67L73.27 11.67Q73.08 12.68 73.08 13.57L73.08 13.57L73.08 13.57Q73.08 14.66 73.40 15.15L73.40 15.15L73.40 15.15Q73.72 15.64 74.51 15.64L74.51 15.64L74.51 15.64Q75.42 15.64 76.10 15.00L76.10 15.00L76.10 15.00Q76.79 14.36 77.39 13.24L77.39 13.24L77.39 13.24Q77.78 12.52 78.06 11.65L78.06 11.65L78.06 11.65Q78.34 10.78 78.52 9.86L78.52 9.86L78.52 9.86Q78.69 8.95 78.78 8.02L78.78 8.02L78.78 8.02Q78.86 7.08 78.86 6.23L78.86 6.23L78.86 6.23Q78.86 5.68 78.85 5.43L78.85 5.43L78.85 5.43Q78.83 5.18 78.81 5.03L78.81 5.03L78.81 5.03Q78.85 5.03 79.02 5.05L79.02 5.05L79.02 5.05Q79.18 5.08 79.40 5.12L79.40 5.12L79.40 5.12Q79.62 5.17 79.84 5.24L79.84 5.24L79.84 5.24Q80.05 5.31 80.21 5.39L80.21 5.39L80.21 5.39Q80.14 6.45 79.95 7.59L79.95 7.59L79.95 7.59Q79.76 8.72 79.45 9.83L79.45 9.83L79.45 9.83Q79.14 10.93 78.74 11.96L78.74 11.96L78.74 11.96Q78.33 12.98 77.83 13.79L77.83 13.79L77.83 13.79Q77.08 14.99 76.16 15.67L76.16 15.67L76.16 15.67Q75.24 16.35 73.98 16.35L73.98 16.35L73.98 16.35Q72.69 16.35 71.97 15.60L71.97 15.60L71.97 15.60Q71.26 14.85 71.26 13.33L71.26 13.33L71.26 13.33Q71.26 12.45 71.46 11.33L71.46 11.33L71.46 11.33Q71.65 10.22 71.98 9.07L71.98 9.07L71.98 9.07Q72.31 7.91 72.74 6.81L72.74 6.81L72.74 6.81Q73.18 5.71 73.65 4.84L73.65 4.84L73.65 4.84Q73.89 4.86 74.21 4.94L74.21 4.94L74.21 4.94Q74.54 5.03 74.84 5.16L74.84 5.16L74.84 5.16Q75.15 5.29 75.41 5.45L75.41 5.45L75.41 5.45Q75.67 5.61 75.80 5.75ZM96.31 5.74L96.31 5.74L96.31 5.74Q96.35 5.98 96.37 6.07L96.37 6.07L96.37 6.07Q96.39 6.16 96.39 6.31L96.39 6.31L96.39 6.31Q96.39 6.78 96.19 7.18L96.19 7.18L96.19 7.18Q95.98 7.57 95.63 7.74L95.63 7.74L95.63 7.74Q95.35 7.36 94.95 7.09L94.95 7.09L94.95 7.09Q94.54 6.82 94.06 6.64L94.06 6.64L94.06 6.64Q93.58 6.47 93.06 6.38L93.06 6.38L93.06 6.38Q92.54 6.30 92.05 6.30L92.05 6.30L92.05 6.30Q91.56 6.30 91.13 6.38L91.13 6.38L91.13 6.38Q90.71 6.45 90.38 6.59L90.38 6.59L90.38 6.59Q90.05 6.72 89.86 6.92L89.86 6.92L89.86 6.92Q89.67 7.11 89.67 7.36L89.67 7.36L89.67 7.36Q89.71 7.67 90.05 7.99L90.05 7.99L90.05 7.99Q90.38 8.30 90.87 8.60L90.87 8.60L90.87 8.60Q91.36 8.90 91.96 9.20L91.96 9.20L91.96 9.20Q92.55 9.49 93.13 9.76L93.13 9.76L93.13 9.76Q93.84 10.09 94.36 10.38L94.36 10.38L94.36 10.38Q94.88 10.67 95.21 11.01L95.21 11.01L95.21 11.01Q95.55 11.35 95.72 11.79L95.72 11.79L95.72 11.79Q95.89 12.22 95.89 12.84L95.89 12.84L95.89 12.84Q95.89 13.55 95.65 14.18L95.65 14.18L95.65 14.18Q95.41 14.80 94.95 15.26L94.95 15.26L94.95 15.26Q94.50 15.72 93.86 15.98L93.86 15.98L93.86 15.98Q93.21 16.24 92.41 16.24L92.41 16.24L92.41 16.24Q91.63 16.24 90.72 16.00L90.72 16.00L90.72 16.00Q89.81 15.76 89.02 15.35L89.02 15.35L89.02 15.35Q88.23 14.94 87.70 14.40L87.70 14.40L87.70 14.40Q87.18 13.86 87.18 13.26L87.18 13.26L87.18 13.26Q87.18 12.98 87.34 12.54L87.34 12.54L87.34 12.54Q87.50 12.11 87.92 11.63L87.92 11.63L87.92 11.63Q87.96 12.05 88.38 12.63L88.38 12.63L88.38 12.63Q88.79 13.20 89.61 13.69L89.61 13.69L89.61 13.69Q90.38 14.14 91.20 14.34L91.20 14.34L91.20 14.34Q92.02 14.55 92.74 14.55L92.74 14.55L92.74 14.55Q93.52 14.55 94.01 14.35L94.01 14.35L94.01 14.35Q94.50 14.15 94.78 13.88L94.78 13.88L94.78 13.88Q95.06 13.61 95.17 13.33L95.17 13.33L95.17 13.33Q95.28 13.05 95.30 12.88L95.30 12.88L95.30 12.88Q95.28 12.60 95.04 12.34L95.04 12.34L95.04 12.34Q94.79 12.08 94.38 11.84L94.38 11.84L94.38 11.84Q93.97 11.59 93.42 11.34L93.42 11.34L93.42 11.34Q92.88 11.09 92.29 10.84L92.29 10.84L92.29 10.84Q91.41 10.44 90.77 10.10L90.77 10.10L90.77 10.10Q90.13 9.76 89.72 9.40L89.72 9.40L89.72 9.40Q89.31 9.04 89.12 8.65L89.12 8.65L89.12 8.65Q88.93 8.26 88.93 7.76L88.93 7.76L88.93 7.76Q88.93 6.97 89.40 6.27L89.40 6.27L89.40 6.27Q89.88 5.57 90.78 5.21L90.78 5.21L90.78 5.21Q91.22 5.01 91.73 4.93L91.73 4.93L91.73 4.93Q92.25 4.84 92.74 4.84L92.74 4.84L92.74 4.84Q93.66 4.84 94.54 5.10L94.54 5.10L94.54 5.10Q95.42 5.35 96.31 5.74ZM120.12 16.21L120.12 16.21L120.12 16.21Q120.09 16.23 120.06 16.23L120.06 16.23L120.06 16.23Q120.04 16.23 119.95 16.23L119.95 16.23L119.95 16.23Q119.76 16.23 119.50 16.16L119.50 16.16L119.50 16.16Q119.24 16.10 118.99 16.01L118.99 16.01L118.99 16.01Q118.75 15.92 118.57 15.81L118.57 15.81L118.57 15.81Q118.40 15.69 118.36 15.61L118.36 15.61L118.36 15.61Q118.34 15.41 118.34 15.20L118.34 15.20L118.34 15.20Q118.34 14.99 118.34 14.80L118.34 14.80L118.34 14.80Q118.34 13.23 118.57 11.52L118.57 11.52L118.57 11.52Q118.80 9.81 119.34 7.83L119.34 7.83L119.34 7.83Q119.39 7.63 119.45 7.33L119.45 7.33L119.45 7.33Q119.52 7.03 119.59 6.68L119.59 6.68L119.59 6.68Q119.25 6.94 118.79 7.53L118.79 7.53L118.79 7.53Q118.33 8.11 117.82 8.90L117.82 8.90L117.82 8.90Q117.31 9.69 116.79 10.63L116.79 10.63L116.79 10.63Q116.28 11.58 115.86 12.55L115.86 12.55L115.86 12.55Q115.44 13.52 115.14 14.48L115.14 14.48L115.14 14.48Q114.84 15.43 114.77 16.24L114.77 16.24L114.77 16.24Q114.10 16.04 113.84 15.85L113.84 15.85L113.84 15.85Q113.58 15.65 113.58 15.37L113.58 15.37L113.58 15.37Q113.58 15.12 113.74 14.66L113.74 14.66L113.74 14.66Q113.89 14.20 114.17 13.57L114.17 13.57L114.17 13.57Q114.45 12.94 114.86 12.16L114.86 12.16L114.86 12.16Q115.26 11.38 115.75 10.49L115.75 10.49L115.75 10.49Q116.31 9.46 116.85 8.57L116.85 8.57L116.85 8.57Q117.39 7.67 117.91 6.94L117.91 6.94L117.91 6.94Q118.43 6.22 118.92 5.68L118.92 5.68L118.92 5.68Q119.42 5.15 119.91 4.87L119.91 4.87L119.91 4.87Q120.11 4.87 120.43 4.97L120.43 4.97L120.43 4.97Q120.76 5.07 121.08 5.21L121.08 5.21L121.08 5.21Q121.39 5.35 121.64 5.49L121.64 5.49L121.64 5.49Q121.88 5.64 121.91 5.74L121.91 5.74L121.91 5.74Q121.72 6.13 121.45 6.92L121.45 6.92L121.45 6.92Q121.18 7.70 120.91 8.69L120.91 8.69L120.91 8.69Q120.64 9.69 120.39 10.80L120.39 10.80L120.39 10.80Q120.15 11.91 120.01 12.94L120.01 12.94L120.01 12.94Q120.33 12.17 120.76 11.33L120.76 11.33L120.76 11.33Q121.18 10.50 121.66 9.68L121.66 9.68L121.66 9.68Q122.14 8.86 122.63 8.09L122.63 8.09L122.63 8.09Q123.13 7.32 123.61 6.69L123.61 6.69L123.61 6.69Q124.08 6.05 124.49 5.57L124.49 5.57L124.49 5.57Q124.91 5.10 125.23 4.87L125.23 4.87L125.23 4.87Q125.43 4.87 125.75 4.97L125.75 4.97L125.75 4.97Q126.08 5.07 126.40 5.21L126.40 5.21L126.40 5.21Q126.71 5.35 126.96 5.49L126.96 5.49L126.96 5.49Q127.20 5.64 127.23 5.74L127.23 5.74L127.23 5.74Q126.78 6.54 126.45 7.69L126.45 7.69L126.45 7.69Q126.11 8.83 125.88 10.09L125.88 10.09L125.88 10.09Q125.65 11.35 125.53 12.59L125.53 12.59L125.53 12.59Q125.41 13.83 125.41 14.81L125.41 14.81L125.41 14.81Q125.41 15.13 125.41 15.48L125.41 15.48L125.41 15.48Q125.41 15.83 125.44 16.21L125.44 16.21L125.44 16.21Q125.24 16.21 124.97 16.16L124.97 16.16L124.97 16.16Q124.70 16.11 124.44 16.03L124.44 16.03L124.44 16.03Q124.18 15.95 123.97 15.84L123.97 15.84L123.97 15.84Q123.76 15.74 123.68 15.61L123.68 15.61L123.68 15.61Q123.66 15.41 123.66 15.20L123.66 15.20L123.66 15.20Q123.66 14.99 123.66 14.80L123.66 14.80L123.66 14.80Q123.66 13.23 123.89 11.52L123.89 11.52L123.89 11.52Q124.12 9.81 124.66 7.83L124.66 7.83L124.66 7.83Q124.71 7.63 124.78 7.29L124.78 7.29L124.78 7.29Q124.85 6.96 124.92 6.59L124.92 6.59L124.92 6.59Q124.53 6.79 124.03 7.34L124.03 7.34L124.03 7.34Q123.54 7.90 123.02 8.69L123.02 8.69L123.02 8.69Q122.51 9.48 122.02 10.44L122.02 10.44L122.02 10.44Q121.52 11.41 121.12 12.41L121.12 12.41L121.12 12.41Q120.72 13.41 120.45 14.40L120.45 14.40L120.45 14.40Q120.18 15.39 120.12 16.21ZM140.81 4.98L140.81 4.98L140.81 4.98Q141.08 5.10 141.36 5.27L141.36 5.27L141.36 5.27Q141.64 5.45 141.88 5.63L141.88 5.63L141.88 5.63Q142.11 5.81 142.27 5.98L142.27 5.98L142.27 5.98Q142.44 6.16 142.45 6.27L142.45 6.27L142.45 6.27Q142.21 6.22 141.97 6.20L141.97 6.20L141.97 6.20Q141.74 6.17 141.54 6.17L141.54 6.17L141.54 6.17Q140.91 6.17 140.29 6.48L140.29 6.48L140.29 6.48Q139.66 6.79 139.10 7.32L139.10 7.32L139.10 7.32Q138.54 7.85 138.07 8.57L138.07 8.57L138.07 8.57Q137.59 9.28 137.25 10.09L137.25 10.09L137.25 10.09Q136.91 10.91 136.71 11.77L136.71 11.77L136.71 11.77Q136.51 12.64 136.51 13.48L136.51 13.48L136.51 13.48Q136.51 14.57 136.88 15.11L136.88 15.11L136.88 15.11Q137.24 15.64 137.94 15.64L137.94 15.64L137.94 15.64Q138.28 15.64 138.67 15.51L138.67 15.51L138.67 15.51Q139.06 15.37 139.47 15.13L139.47 15.13L139.47 15.13Q139.87 14.90 140.27 14.56L140.27 14.56L140.27 14.56Q140.66 14.22 140.99 13.82L140.99 13.82L140.99 13.82Q141.48 13.23 141.88 12.48L141.88 12.48L141.88 12.48Q142.27 11.73 142.54 10.89L142.54 10.89L142.54 10.89Q142.81 10.05 142.96 9.16L142.96 9.16L142.96 9.16Q143.11 8.27 143.11 7.42L143.11 7.42L143.11 7.42Q143.11 7.08 143.09 6.85L143.09 6.85L143.09 6.85Q143.08 6.62 143.06 6.46L143.06 6.46L143.06 6.46Q143.04 6.30 143.02 6.20L143.02 6.20L143.02 6.20Q143.01 6.10 143.00 6.03L143.00 6.03L143.00 6.03Q143.16 6.12 143.37 6.24L143.37 6.24L143.37 6.24Q143.57 6.36 143.74 6.59L143.74 6.59L143.74 6.59Q143.92 6.82 144.04 7.20L144.04 7.20L144.04 7.20Q144.16 7.57 144.16 8.18L144.16 8.18L144.16 8.18Q144.16 9.16 143.93 10.10L143.93 10.10L143.93 10.10Q143.70 11.05 143.28 11.90L143.28 11.90L143.28 11.90Q142.87 12.75 142.31 13.50L142.31 13.50L142.31 13.50Q141.75 14.24 141.11 14.80L141.11 14.80L141.11 14.80Q140.27 15.54 139.31 15.95L139.31 15.95L139.31 15.95Q138.36 16.35 137.48 16.35L137.48 16.35L137.48 16.35Q136.19 16.35 135.51 15.53L135.51 15.53L135.51 15.53Q134.83 14.71 134.83 13.12L134.83 13.12L134.83 13.12Q134.83 12.26 135.02 11.31L135.02 11.31L135.02 11.31Q135.21 10.36 135.55 9.44L135.55 9.44L135.55 9.44Q135.90 8.51 136.37 7.68L136.37 7.68L136.37 7.68Q136.85 6.85 137.42 6.21L137.42 6.21L137.42 6.21Q137.98 5.57 138.63 5.19L138.63 5.19L138.63 5.19Q139.29 4.82 139.97 4.82L139.97 4.82L139.97 4.82Q140.20 4.82 140.39 4.85L140.39 4.85L140.39 4.85Q140.59 4.89 140.81 4.98ZM152.73 16.24L152.73 16.24L152.73 16.24Q151.93 16.00 151.65 15.79L151.65 15.79L151.65 15.79Q151.37 15.57 151.37 15.19L151.37 15.19L151.37 15.19Q151.37 14.77 151.56 14.01L151.56 14.01L151.56 14.01Q151.76 13.24 152.07 12.31L152.07 12.31L152.07 12.31Q152.39 11.37 152.80 10.35L152.80 10.35L152.80 10.35Q153.20 9.32 153.62 8.39L153.62 8.39L153.62 8.39Q154.04 7.45 154.44 6.67L154.44 6.67L154.44 6.67Q154.84 5.89 155.15 5.46L155.15 5.46L155.05 4.87L155.05 4.87Q155.25 4.87 155.60 4.97L155.60 4.97L155.60 4.97Q155.95 5.07 156.30 5.21L156.30 5.21L156.30 5.21Q156.66 5.35 156.93 5.49L156.93 5.49L156.93 5.49Q157.21 5.64 157.23 5.74L157.23 5.74L157.23 5.74Q157.16 6.08 157.12 6.76L157.12 6.76L157.12 6.76Q157.08 7.43 157.08 8.20L157.08 8.20L157.08 8.20Q157.08 9.73 157.20 11.19L157.20 11.19L157.20 11.19Q157.32 12.66 157.75 14.17L157.75 14.17L157.75 14.17Q157.98 13.05 158.23 11.94L158.23 11.94L158.23 11.94Q158.49 10.82 158.77 9.81L158.77 9.81L158.77 9.81Q159.05 8.79 159.33 7.92L159.33 7.92L159.33 7.92Q159.61 7.06 159.87 6.40L159.87 6.40L159.87 6.40Q160.13 5.75 160.36 5.38L160.36 5.38L160.36 5.38Q160.58 5.01 160.76 4.98L160.76 4.98L160.76 4.98Q160.92 5.01 161.10 5.10L161.10 5.10L161.10 5.10Q161.28 5.19 161.45 5.32L161.45 5.32L161.45 5.32Q161.62 5.45 161.76 5.60L161.76 5.60L161.76 5.60Q161.90 5.75 161.98 5.91L161.98 5.91L161.98 5.91Q161.53 6.09 161.09 6.76L161.09 6.76L161.09 6.76Q160.65 7.43 160.25 8.39L160.25 8.39L160.25 8.39Q159.85 9.35 159.51 10.47L159.51 10.47L159.51 10.47Q159.17 11.59 158.91 12.68L158.91 12.68L158.91 12.68Q158.65 13.76 158.50 14.69L158.50 14.69L158.50 14.69Q158.35 15.61 158.34 16.17L158.34 16.17L158.34 16.17Q158.34 16.20 158.35 16.21L158.35 16.21L158.35 16.21Q158.31 16.23 158.26 16.23L158.26 16.23L158.26 16.23Q158.21 16.23 158.17 16.23L158.17 16.23L158.17 16.23Q157.53 16.23 157.03 16.07L157.03 16.07L157.03 16.07Q156.53 15.90 156.38 15.61L156.38 15.61L156.38 15.61Q156.09 14.43 155.89 13.34L155.89 13.34L155.89 13.34Q155.69 12.25 155.56 11.16L155.56 11.16L155.56 11.16Q155.43 10.07 155.35 8.95L155.35 8.95L155.35 8.95Q155.27 7.84 155.23 6.62L155.23 6.62L155.23 6.62Q154.97 7.04 154.67 7.72L154.67 7.72L154.67 7.72Q154.38 8.40 154.10 9.21L154.10 9.21L154.10 9.21Q153.82 10.02 153.56 10.92L153.56 10.92L153.56 10.92Q153.30 11.82 153.10 12.67L153.10 12.67L153.10 12.67Q152.91 13.52 152.80 14.29L152.80 14.29L152.80 14.29Q152.68 15.05 152.68 15.61L152.68 15.61L152.68 15.61Q152.68 15.90 152.69 16.03L152.69 16.03L152.69 16.03Q152.70 16.16 152.73 16.24ZM173.82 9.21L173.82 9.21L173.82 9.21Q174.29 9.21 174.54 9.46L174.54 9.46L174.54 9.46Q174.80 9.72 174.80 10.16L174.80 10.16L174.80 10.16Q174.80 10.28 174.78 10.39L174.78 10.39L174.78 10.39Q174.76 10.51 174.73 10.60L174.73 10.60L174.73 10.60Q174.55 10.57 174.33 10.55L174.33 10.55L174.33 10.55Q174.10 10.53 173.80 10.53L173.80 10.53L173.80 10.53Q173.19 10.53 172.58 10.63L172.58 10.63L172.58 10.63Q171.96 10.74 171.40 10.81L171.40 10.81L171.40 10.81Q171.08 11.55 170.81 12.24L170.81 12.24L170.81 12.24Q170.55 12.94 170.36 13.51L170.36 13.51L170.36 13.51Q170.17 14.08 170.06 14.50L170.06 14.50L170.06 14.50Q169.96 14.92 169.95 15.13L169.95 15.13L169.95 15.13Q171.08 14.90 172.23 14.73L172.23 14.73L172.23 14.73Q173.39 14.56 174.66 14.48L174.66 14.48L174.66 14.48Q174.82 14.71 174.92 14.99L174.92 14.99L174.92 14.99Q175.03 15.27 175.03 15.60L175.03 15.60L175.03 15.60Q175.03 15.68 175.03 15.78L175.03 15.78L175.03 15.78Q175.03 15.88 175 15.97L175 15.97L175 15.97Q174.61 15.96 174.17 15.95L174.17 15.95L174.17 15.95Q173.74 15.95 173.04 15.95L173.04 15.95L173.04 15.95Q172.58 15.95 172.16 15.97L172.16 15.97L172.16 15.97Q171.75 15.99 171.33 16.03L171.33 16.03L171.33 16.03Q170.91 16.07 170.44 16.14L170.44 16.14L170.44 16.14Q169.97 16.21 169.39 16.31L169.39 16.31L169.39 16.31Q168.74 16.06 168.14 15.08L168.14 15.08L168.14 15.08Q168.38 14.57 168.80 13.54L168.80 13.54L168.80 13.54Q169.23 12.52 169.89 10.79L169.89 10.79L169.89 10.79Q169.26 10.60 169.06 10.09L169.06 10.09L169.06 10.09Q169.13 10.02 169.47 9.92L169.47 9.92L169.47 9.92Q169.81 9.81 170.30 9.70L170.30 9.70L170.30 9.70Q170.51 9.16 170.65 8.75L170.65 8.75L170.65 8.75Q170.80 8.34 170.91 7.99L170.91 7.99L170.91 7.99Q171.02 7.63 171.11 7.29L171.11 7.29L171.11 7.29Q171.21 6.94 171.29 6.54L171.29 6.54L171.29 6.54Q170.80 6.51 170.52 6.27L170.52 6.27L170.52 6.27Q170.24 6.02 170.24 5.63L170.24 5.63L170.24 5.63Q170.24 5.52 170.27 5.36L170.27 5.36L170.27 5.36Q170.31 5.21 170.35 5.10L170.35 5.10L170.35 5.10Q170.63 5.14 170.89 5.15L170.89 5.15L170.89 5.15Q171.15 5.17 171.57 5.17L171.57 5.17L171.57 5.17Q172.45 5.17 173.22 5.12L173.22 5.12L173.22 5.12Q173.99 5.07 174.61 5.01L174.61 5.01L174.61 5.01Q175.24 4.96 175.69 4.91L175.69 4.91L175.69 4.91Q176.13 4.86 176.37 4.86L176.37 4.86L176.37 4.86Q176.69 4.86 176.95 5.19L176.95 5.19L176.95 5.19Q177.20 5.53 177.32 6.15L177.32 6.15L177.32 6.15Q176.89 6.10 176.62 6.09L176.62 6.09L176.62 6.09Q176.34 6.08 176.13 6.08L176.13 6.08L176.13 6.08Q175.36 6.08 174.73 6.15L174.73 6.15L174.73 6.15Q174.09 6.23 173.50 6.31L173.50 6.31L173.50 6.31Q173.42 6.44 173.31 6.64L173.31 6.64L173.31 6.64Q173.21 6.83 173.04 7.18L173.04 7.18L173.04 7.18Q172.87 7.53 172.63 8.06L172.63 8.06L172.63 8.06Q172.38 8.60 172.03 9.39L172.03 9.39L172.03 9.39Q172.56 9.31 173.03 9.26L173.03 9.26L173.03 9.26Q173.50 9.21 173.82 9.21ZM188.52 10.35L188.52 10.35L188.52 10.35Q189.57 9.20 190.41 7.91L190.41 7.91L190.41 7.91Q191.24 6.62 191.95 5.01L191.95 5.01L191.95 5.01Q192.32 5.05 192.65 5.21L192.65 5.21L192.65 5.21Q192.99 5.36 193.19 5.56L193.19 5.56L193.19 5.56Q192.42 6.48 191.79 7.24L191.79 7.24L191.79 7.24Q191.17 7.99 190.65 8.66L190.65 8.66L190.65 8.66Q190.13 9.32 189.69 9.93L189.69 9.93L189.69 9.93Q189.25 10.54 188.83 11.16L188.83 11.16L188.83 11.16Q188.62 11.87 188.44 12.60L188.44 12.60L188.44 12.60Q188.26 13.33 188.12 13.99L188.12 13.99L188.12 13.99Q187.98 14.66 187.90 15.22L187.90 15.22L187.90 15.22Q187.82 15.79 187.82 16.20L187.82 16.20L187.82 16.20Q187.67 16.20 187.33 16.14L187.33 16.14L187.33 16.14Q187.00 16.07 186.65 15.99L186.65 15.99L186.65 15.99Q186.30 15.90 186.01 15.82L186.01 15.82L186.01 15.82Q185.72 15.74 185.67 15.68L185.67 15.68L185.67 15.68Q185.89 15.30 186.11 14.75L186.11 14.75L186.11 14.75Q186.33 14.20 186.54 13.59L186.54 13.59L186.54 13.59Q186.75 12.98 186.94 12.36L186.94 12.36L186.94 12.36Q187.14 11.73 187.31 11.20L187.31 11.20L187.31 11.20Q186.96 10.11 186.63 9.15L186.63 9.15L186.63 9.15Q186.30 8.19 185.99 7.41L185.99 7.41L185.99 7.41Q185.68 6.64 185.40 6.08L185.40 6.08L185.40 6.08Q185.12 5.52 184.87 5.22L184.87 5.22L184.87 5.22Q185.01 5.17 185.30 5.11L185.30 5.11L185.30 5.11Q185.58 5.05 185.93 5.00L185.93 5.00L185.93 5.00Q186.27 4.94 186.63 4.91L186.63 4.91L186.63 4.91Q186.98 4.87 187.26 4.86L187.26 4.86L187.26 4.86Q187.26 5.21 187.33 5.71L187.33 5.71L187.33 5.71Q187.39 6.22 187.49 6.79L187.49 6.79L187.49 6.79Q187.60 7.36 187.74 7.95L187.74 7.95L187.74 7.95Q187.88 8.54 188.02 9.03L188.02 9.03L188.02 9.03Q188.16 9.52 188.29 9.88L188.29 9.88L188.29 9.88Q188.43 10.23 188.52 10.35ZM198.52 15.71L198.52 15.71L198.52 15.71Q198.30 15.68 198.05 15.52L198.05 15.52L198.05 15.52Q197.81 15.36 197.74 15.16L197.74 15.16L197.74 15.16Q197.74 14.99 197.78 14.73L197.78 14.73L197.78 14.73Q197.83 14.46 197.90 14.19L197.90 14.19L197.90 14.19Q197.97 13.92 198.04 13.67L198.04 13.67L198.04 13.67Q198.11 13.43 198.14 13.30L198.14 13.30L198.14 13.30Q198.31 13.30 198.57 13.38L198.57 13.38L198.57 13.38Q198.83 13.47 199.10 13.62L199.10 13.62L199.10 13.62Q199.37 13.76 199.62 13.95L199.62 13.95L199.62 13.95Q199.86 14.14 199.99 14.34L199.99 14.34L199.99 14.34Q199.86 14.62 199.67 14.87L199.67 14.87L199.67 14.87Q199.47 15.12 199.25 15.31L199.25 15.31L199.25 15.31Q199.04 15.50 198.84 15.60L198.84 15.60L198.84 15.60Q198.65 15.71 198.52 15.71ZM208.89 15.71L208.89 15.71L208.89 15.71Q208.67 15.68 208.42 15.52L208.42 15.52L208.42 15.52Q208.18 15.36 208.11 15.16L208.11 15.16L208.11 15.16Q208.11 14.99 208.16 14.73L208.16 14.73L208.16 14.73Q208.21 14.46 208.28 14.19L208.28 14.19L208.28 14.19Q208.35 13.92 208.42 13.67L208.42 13.67L208.42 13.67Q208.49 13.43 208.52 13.30L208.52 13.30L208.52 13.30Q208.68 13.30 208.94 13.38L208.94 13.38L208.94 13.38Q209.20 13.47 209.47 13.62L209.47 13.62L209.47 13.62Q209.75 13.76 209.99 13.95L209.99 13.95L209.99 13.95Q210.24 14.14 210.36 14.34L210.36 14.34L210.36 14.34Q210.24 14.62 210.04 14.87L210.04 14.87L210.04 14.87Q209.85 15.12 209.63 15.31L209.63 15.31L209.63 15.31Q209.41 15.50 209.22 15.60L209.22 15.60L209.22 15.60Q209.02 15.71 208.89 15.71ZM219.27 15.71L219.27 15.71L219.27 15.71Q219.04 15.68 218.80 15.52L218.80 15.52L218.80 15.52Q218.55 15.36 218.48 15.16L218.48 15.16L218.48 15.16Q218.48 14.99 218.53 14.73L218.53 14.73L218.53 14.73Q218.58 14.46 218.65 14.19L218.65 14.19L218.65 14.19Q218.72 13.92 218.79 13.67L218.79 13.67L218.79 13.67Q218.86 13.43 218.89 13.30L218.89 13.30L218.89 13.30Q219.06 13.30 219.32 13.38L219.32 13.38L219.32 13.38Q219.58 13.47 219.85 13.62L219.85 13.62L219.85 13.62Q220.12 13.76 220.37 13.95L220.37 13.95L220.37 13.95Q220.61 14.14 220.74 14.34L220.74 14.34L220.74 14.34Q220.61 14.62 220.42 14.87L220.42 14.87L220.42 14.87Q220.22 15.12 220.00 15.31L220.00 15.31L220.00 15.31Q219.79 15.50 219.59 15.60L219.59 15.60L219.59 15.60Q219.39 15.71 219.27 15.71ZM234.36 5.75L234.36 5.75L234.36 5.75Q233.74 6.58 233.24 7.57L233.24 7.57L233.24 7.57Q232.74 8.57 232.38 9.61L232.38 9.61L232.38 9.61Q232.02 10.65 231.83 11.67L231.83 11.67L231.83 11.67Q231.64 12.68 231.64 13.57L231.64 13.57L231.64 13.57Q231.64 14.66 231.97 15.15L231.97 15.15L231.97 15.15Q232.29 15.64 233.07 15.64L233.07 15.64L233.07 15.64Q233.98 15.64 234.67 15.00L234.67 15.00L234.67 15.00Q235.35 14.36 235.96 13.24L235.96 13.24L235.96 13.24Q236.35 12.52 236.63 11.65L236.63 11.65L236.63 11.65Q236.91 10.78 237.08 9.86L237.08 9.86L237.08 9.86Q237.26 8.95 237.34 8.02L237.34 8.02L237.34 8.02Q237.43 7.08 237.43 6.23L237.43 6.23L237.43 6.23Q237.43 5.68 237.41 5.43L237.41 5.43L237.41 5.43Q237.40 5.18 237.37 5.03L237.37 5.03L237.37 5.03Q237.41 5.03 237.58 5.05L237.58 5.05L237.58 5.05Q237.75 5.08 237.96 5.12L237.96 5.12L237.96 5.12Q238.18 5.17 238.40 5.24L238.40 5.24L238.40 5.24Q238.62 5.31 238.77 5.39L238.77 5.39L238.77 5.39Q238.70 6.45 238.51 7.59L238.51 7.59L238.51 7.59Q238.32 8.72 238.01 9.83L238.01 9.83L238.01 9.83Q237.71 10.93 237.30 11.96L237.30 11.96L237.30 11.96Q236.89 12.98 236.39 13.79L236.39 13.79L236.39 13.79Q235.65 14.99 234.72 15.67L234.72 15.67L234.72 15.67Q233.80 16.35 232.54 16.35L232.54 16.35L232.54 16.35Q231.25 16.35 230.54 15.60L230.54 15.60L230.54 15.60Q229.82 14.85 229.82 13.33L229.82 13.33L229.82 13.33Q229.82 12.45 230.02 11.33L230.02 11.33L230.02 11.33Q230.22 10.22 230.54 9.07L230.54 9.07L230.54 9.07Q230.87 7.91 231.31 6.81L231.31 6.81L231.31 6.81Q231.74 5.71 232.22 4.84L232.22 4.84L232.22 4.84Q232.46 4.86 232.78 4.94L232.78 4.94L232.78 4.94Q233.10 5.03 233.41 5.16L233.41 5.16L233.41 5.16Q233.72 5.29 233.97 5.45L233.97 5.45L233.97 5.45Q234.23 5.61 234.36 5.75ZM254.87 5.74L254.87 5.74L254.87 5.74Q254.91 5.98 254.93 6.07L254.93 6.07L254.93 6.07Q254.95 6.16 254.95 6.31L254.95 6.31L254.95 6.31Q254.95 6.78 254.75 7.18L254.75 7.18L254.75 7.18Q254.55 7.57 254.20 7.74L254.20 7.74L254.20 7.74Q253.92 7.36 253.51 7.09L253.51 7.09L253.51 7.09Q253.11 6.82 252.62 6.64L252.62 6.64L252.62 6.64Q252.14 6.47 251.62 6.38L251.62 6.38L251.62 6.38Q251.10 6.30 250.61 6.30L250.61 6.30L250.61 6.30Q250.12 6.30 249.70 6.38L249.70 6.38L249.70 6.38Q249.27 6.45 248.94 6.59L248.94 6.59L248.94 6.59Q248.61 6.72 248.42 6.92L248.42 6.92L248.42 6.92Q248.23 7.11 248.23 7.36L248.23 7.36L248.23 7.36Q248.28 7.67 248.61 7.99L248.61 7.99L248.61 7.99Q248.95 8.30 249.44 8.60L249.44 8.60L249.44 8.60Q249.93 8.90 250.52 9.20L250.52 9.20L250.52 9.20Q251.12 9.49 251.69 9.76L251.69 9.76L251.69 9.76Q252.41 10.09 252.92 10.38L252.92 10.38L252.92 10.38Q253.44 10.67 253.78 11.01L253.78 11.01L253.78 11.01Q254.11 11.35 254.28 11.79L254.28 11.79L254.28 11.79Q254.45 12.22 254.45 12.84L254.45 12.84L254.45 12.84Q254.45 13.55 254.21 14.18L254.21 14.18L254.21 14.18Q253.97 14.80 253.52 15.26L253.52 15.26L253.52 15.26Q253.06 15.72 252.42 15.98L252.42 15.98L252.42 15.98Q251.78 16.24 250.98 16.24L250.98 16.24L250.98 16.24Q250.19 16.24 249.28 16.00L249.28 16.00L249.28 16.00Q248.37 15.76 247.58 15.35L247.58 15.35L247.58 15.35Q246.79 14.94 246.27 14.40L246.27 14.40L246.27 14.40Q245.74 13.86 245.74 13.26L245.74 13.26L245.74 13.26Q245.74 12.98 245.90 12.54L245.90 12.54L245.90 12.54Q246.06 12.11 246.48 11.63L246.48 11.63L246.48 11.63Q246.53 12.05 246.94 12.63L246.94 12.63L246.94 12.63Q247.35 13.20 248.18 13.69L248.18 13.69L248.18 13.69Q248.95 14.14 249.77 14.34L249.77 14.34L249.77 14.34Q250.59 14.55 251.30 14.55L251.30 14.55L251.30 14.55Q252.08 14.55 252.57 14.35L252.57 14.35L252.57 14.35Q253.06 14.15 253.34 13.88L253.34 13.88L253.34 13.88Q253.62 13.61 253.74 13.33L253.74 13.33L253.74 13.33Q253.85 13.05 253.86 12.88L253.86 12.88L253.86 12.88Q253.85 12.60 253.60 12.34L253.60 12.34L253.60 12.34Q253.36 12.08 252.94 11.84L252.94 11.84L252.94 11.84Q252.53 11.59 251.99 11.34L251.99 11.34L251.99 11.34Q251.44 11.09 250.85 10.84L250.85 10.84L250.85 10.84Q249.97 10.44 249.33 10.10L249.33 10.10L249.33 10.10Q248.70 9.76 248.28 9.40L248.28 9.40L248.28 9.40Q247.87 9.04 247.68 8.65L247.68 8.65L247.68 8.65Q247.49 8.26 247.49 7.76L247.49 7.76L247.49 7.76Q247.49 6.97 247.97 6.27L247.97 6.27L247.97 6.27Q248.44 5.57 249.34 5.21L249.34 5.21L249.34 5.21Q249.79 5.01 250.30 4.93L250.30 4.93L250.30 4.93Q250.81 4.84 251.30 4.84L251.30 4.84L251.30 4.84Q252.22 4.84 253.11 5.10L253.11 5.10L253.11 5.10Q253.99 5.35 254.87 5.74ZM268.35 9.21L268.35 9.21L268.35 9.21Q268.81 9.21 269.07 9.46L269.07 9.46L269.07 9.46Q269.33 9.72 269.33 10.16L269.33 10.16L269.33 10.16Q269.33 10.28 269.31 10.39L269.31 10.39L269.31 10.39Q269.29 10.51 269.26 10.60L269.26 10.60L269.26 10.60Q269.08 10.57 268.86 10.55L268.86 10.55L268.86 10.55Q268.63 10.53 268.32 10.53L268.32 10.53L268.32 10.53Q267.72 10.53 267.11 10.63L267.11 10.63L267.11 10.63Q266.49 10.74 265.93 10.81L265.93 10.81L265.93 10.81Q265.61 11.55 265.34 12.24L265.34 12.24L265.34 12.24Q265.08 12.94 264.89 13.51L264.89 13.51L264.89 13.51Q264.70 14.08 264.59 14.50L264.59 14.50L264.59 14.50Q264.49 14.92 264.47 15.13L264.47 15.13L264.47 15.13Q265.61 14.90 266.76 14.73L266.76 14.73L266.76 14.73Q267.92 14.56 269.19 14.48L269.19 14.48L269.19 14.48Q269.35 14.71 269.45 14.99L269.45 14.99L269.45 14.99Q269.56 15.27 269.56 15.60L269.56 15.60L269.56 15.60Q269.56 15.68 269.56 15.78L269.56 15.78L269.56 15.78Q269.56 15.88 269.53 15.97L269.53 15.97L269.53 15.97Q269.14 15.96 268.70 15.95L268.70 15.95L268.70 15.95Q268.27 15.95 267.57 15.95L267.57 15.95L267.57 15.95Q267.11 15.95 266.69 15.97L266.69 15.97L266.69 15.97Q266.28 15.99 265.86 16.03L265.86 16.03L265.86 16.03Q265.44 16.07 264.97 16.14L264.97 16.14L264.97 16.14Q264.50 16.21 263.91 16.31L263.91 16.31L263.91 16.31Q263.27 16.06 262.67 15.08L262.67 15.08L262.67 15.08Q262.91 14.57 263.33 13.54L263.33 13.54L263.33 13.54Q263.76 12.52 264.42 10.79L264.42 10.79L264.42 10.79Q263.79 10.60 263.59 10.09L263.59 10.09L263.59 10.09Q263.66 10.02 264.00 9.92L264.00 9.92L264.00 9.92Q264.33 9.81 264.82 9.70L264.82 9.70L264.82 9.70Q265.03 9.16 265.18 8.75L265.18 8.75L265.18 8.75Q265.33 8.34 265.44 7.99L265.44 7.99L265.44 7.99Q265.55 7.63 265.64 7.29L265.64 7.29L265.64 7.29Q265.73 6.94 265.82 6.54L265.82 6.54L265.82 6.54Q265.33 6.51 265.05 6.27L265.05 6.27L265.05 6.27Q264.77 6.02 264.77 5.63L264.77 5.63L264.77 5.63Q264.77 5.52 264.80 5.36L264.80 5.36L264.80 5.36Q264.84 5.21 264.88 5.10L264.88 5.10L264.88 5.10Q265.16 5.14 265.42 5.15L265.42 5.15L265.42 5.15Q265.68 5.17 266.10 5.17L266.10 5.17L266.10 5.17Q266.98 5.17 267.75 5.12L267.75 5.12L267.75 5.12Q268.52 5.07 269.14 5.01L269.14 5.01L269.14 5.01Q269.77 4.96 270.21 4.91L270.21 4.91L270.21 4.91Q270.66 4.86 270.90 4.86L270.90 4.86L270.90 4.86Q271.22 4.86 271.47 5.19L271.47 5.19L271.47 5.19Q271.73 5.53 271.85 6.15L271.85 6.15L271.85 6.15Q271.42 6.10 271.14 6.09L271.14 6.09L271.14 6.09Q270.87 6.08 270.66 6.08L270.66 6.08L270.66 6.08Q269.89 6.08 269.25 6.15L269.25 6.15L269.25 6.15Q268.62 6.23 268.03 6.31L268.03 6.31L268.03 6.31Q267.95 6.44 267.84 6.64L267.84 6.64L267.84 6.64Q267.74 6.83 267.57 7.18L267.57 7.18L267.57 7.18Q267.40 7.53 267.15 8.06L267.15 8.06L267.15 8.06Q266.91 8.60 266.56 9.39L266.56 9.39L266.56 9.39Q267.09 9.31 267.56 9.26L267.56 9.26L267.56 9.26Q268.03 9.21 268.35 9.21ZM294.88 4.98L294.88 4.98L294.88 4.98Q295.15 5.10 295.43 5.27L295.43 5.27L295.43 5.27Q295.71 5.45 295.95 5.63L295.95 5.63L295.95 5.63Q296.18 5.81 296.34 5.98L296.34 5.98L296.34 5.98Q296.51 6.16 296.52 6.27L296.52 6.27L296.52 6.27Q296.28 6.22 296.04 6.20L296.04 6.20L296.04 6.20Q295.81 6.17 295.61 6.17L295.61 6.17L295.61 6.17Q294.98 6.17 294.36 6.48L294.36 6.48L294.36 6.48Q293.73 6.79 293.17 7.32L293.17 7.32L293.17 7.32Q292.61 7.85 292.14 8.57L292.14 8.57L292.14 8.57Q291.66 9.28 291.32 10.09L291.32 10.09L291.32 10.09Q290.98 10.91 290.78 11.77L290.78 11.77L290.78 11.77Q290.58 12.64 290.58 13.48L290.58 13.48L290.58 13.48Q290.58 14.57 290.95 15.11L290.95 15.11L290.95 15.11Q291.31 15.64 292.01 15.64L292.01 15.64L292.01 15.64Q292.35 15.64 292.74 15.51L292.74 15.51L292.74 15.51Q293.13 15.37 293.54 15.13L293.54 15.13L293.54 15.13Q293.94 14.90 294.34 14.56L294.34 14.56L294.34 14.56Q294.73 14.22 295.06 13.82L295.06 13.82L295.06 13.82Q295.55 13.23 295.95 12.48L295.95 12.48L295.95 12.48Q296.34 11.73 296.61 10.89L296.61 10.89L296.61 10.89Q296.88 10.05 297.03 9.16L297.03 9.16L297.03 9.16Q297.18 8.27 297.18 7.42L297.18 7.42L297.18 7.42Q297.18 7.08 297.16 6.85L297.16 6.85L297.16 6.85Q297.15 6.62 297.13 6.46L297.13 6.46L297.13 6.46Q297.11 6.30 297.09 6.20L297.09 6.20L297.09 6.20Q297.08 6.10 297.07 6.03L297.07 6.03L297.07 6.03Q297.23 6.12 297.44 6.24L297.44 6.24L297.44 6.24Q297.64 6.36 297.81 6.59L297.81 6.59L297.81 6.59Q297.99 6.82 298.11 7.20L298.11 7.20L298.11 7.20Q298.23 7.57 298.23 8.18L298.23 8.18L298.23 8.18Q298.23 9.16 298.00 10.10L298.00 10.10L298.00 10.10Q297.77 11.05 297.35 11.90L297.35 11.90L297.35 11.90Q296.94 12.75 296.38 13.50L296.38 13.50L296.38 13.50Q295.82 14.24 295.18 14.80L295.18 14.80L295.18 14.80Q294.34 15.54 293.38 15.95L293.38 15.95L293.38 15.95Q292.43 16.35 291.55 16.35L291.55 16.35L291.55 16.35Q290.26 16.35 289.58 15.53L289.58 15.53L289.58 15.53Q288.90 14.71 288.90 13.12L288.90 13.12L288.90 13.12Q288.90 12.26 289.09 11.31L289.09 11.31L289.09 11.31Q289.28 10.36 289.62 9.44L289.62 9.44L289.62 9.44Q289.97 8.51 290.44 7.68L290.44 7.68L290.44 7.68Q290.92 6.85 291.49 6.21L291.49 6.21L291.49 6.21Q292.05 5.57 292.70 5.19L292.70 5.19L292.70 5.19Q293.36 4.82 294.04 4.82L294.04 4.82L294.04 4.82Q294.27 4.82 294.46 4.85L294.46 4.85L294.46 4.85Q294.66 4.89 294.88 4.98ZM310.93 5.75L310.93 5.75L310.93 5.75Q310.31 6.58 309.81 7.57L309.81 7.57L309.81 7.57Q309.30 8.57 308.94 9.61L308.94 9.61L308.94 9.61Q308.59 10.65 308.40 11.67L308.40 11.67L308.40 11.67Q308.21 12.68 308.21 13.57L308.21 13.57L308.21 13.57Q308.21 14.66 308.53 15.15L308.53 15.15L308.53 15.15Q308.85 15.64 309.64 15.64L309.64 15.64L309.64 15.64Q310.55 15.64 311.23 15.00L311.23 15.00L311.23 15.00Q311.92 14.36 312.52 13.24L312.52 13.24L312.52 13.24Q312.91 12.52 313.19 11.65L313.19 11.65L313.19 11.65Q313.47 10.78 313.65 9.86L313.65 9.86L313.65 9.86Q313.82 8.95 313.91 8.02L313.91 8.02L313.91 8.02Q313.99 7.08 313.99 6.23L313.99 6.23L313.99 6.23Q313.99 5.68 313.98 5.43L313.98 5.43L313.98 5.43Q313.96 5.18 313.94 5.03L313.94 5.03L313.94 5.03Q313.98 5.03 314.15 5.05L314.15 5.05L314.15 5.05Q314.31 5.08 314.53 5.12L314.53 5.12L314.53 5.12Q314.75 5.17 314.96 5.24L314.96 5.24L314.96 5.24Q315.18 5.31 315.34 5.39L315.34 5.39L315.34 5.39Q315.27 6.45 315.08 7.59L315.08 7.59L315.08 7.59Q314.89 8.72 314.58 9.83L314.58 9.83L314.58 9.83Q314.27 10.93 313.87 11.96L313.87 11.96L313.87 11.96Q313.46 12.98 312.96 13.79L312.96 13.79L312.96 13.79Q312.21 14.99 311.29 15.67L311.29 15.67L311.29 15.67Q310.37 16.35 309.11 16.35L309.11 16.35L309.11 16.35Q307.82 16.35 307.10 15.60L307.10 15.60L307.10 15.60Q306.39 14.85 306.39 13.33L306.39 13.33L306.39 13.33Q306.39 12.45 306.59 11.33L306.59 11.33L306.59 11.33Q306.78 10.22 307.11 9.07L307.11 9.07L307.11 9.07Q307.44 7.91 307.87 6.81L307.87 6.81L307.87 6.81Q308.31 5.71 308.78 4.84L308.78 4.84L308.78 4.84Q309.02 4.86 309.34 4.94L309.34 4.94L309.34 4.94Q309.67 5.03 309.97 5.16L309.97 5.16L309.97 5.16Q310.28 5.29 310.54 5.45L310.54 5.45L310.54 5.45Q310.80 5.61 310.93 5.75ZM331.83 7.46L331.83 7.46L331.83 7.46Q331.83 8.13 331.53 8.73L331.53 8.73L331.53 8.73Q331.23 9.32 330.69 9.79L330.69 9.79L330.69 9.79Q330.16 10.26 329.45 10.58L329.45 10.58L329.45 10.58Q328.73 10.91 327.89 11.02L327.89 11.02L327.89 11.02Q328.10 11.65 328.40 12.31L328.40 12.31L328.40 12.31Q328.71 12.98 329.06 13.59L329.06 13.59L329.06 13.59Q329.41 14.21 329.78 14.73L329.78 14.73L329.78 14.73Q330.16 15.25 330.53 15.58L330.53 15.58L330.53 15.58Q330.46 15.72 330.32 15.86L330.32 15.86L330.32 15.86Q330.19 16.00 330.01 16.12L330.01 16.12L330.01 16.12Q329.84 16.24 329.65 16.32L329.65 16.32L329.65 16.32Q329.46 16.39 329.29 16.39L329.29 16.39L329.29 16.39Q328.99 16.39 328.71 16.10L328.71 16.10L328.71 16.10Q328.43 15.81 328.14 15.17L328.14 15.17L328.14 15.17Q327.85 14.53 327.54 13.52L327.54 13.52L327.54 13.52Q327.22 12.50 326.84 11.07L326.84 11.07L326.84 11.07Q326.69 11.07 326.54 11.07L326.54 11.07L326.54 11.07Q326.38 11.07 326.30 11.05L326.30 11.05L326.30 11.05Q326.20 10.99 326.09 10.85L326.09 10.85L326.09 10.85Q325.71 11.66 325.42 12.38L325.42 12.38L325.42 12.38Q325.12 13.09 324.89 13.76L324.89 13.76L324.89 13.76Q324.66 14.42 324.48 15.04L324.48 15.04L324.48 15.04Q324.31 15.67 324.18 16.31L324.18 16.31L324.18 16.31Q323.71 16.20 323.36 15.90L323.36 15.90L323.36 15.90Q323.01 15.61 322.70 15.08L322.70 15.08L322.70 15.08Q322.76 14.95 322.82 14.83L322.82 14.83L322.82 14.83Q322.88 14.71 322.98 14.50L322.98 14.50L322.98 14.50Q323.08 14.28 323.22 13.94L323.22 13.94L323.22 13.94Q323.37 13.61 323.62 13.05L323.62 13.05L323.62 13.05Q323.86 12.49 324.20 11.68L324.20 11.68L324.20 11.68Q324.55 10.86 325.04 9.70L325.04 9.70L325.04 9.70Q325.26 9.18 325.42 8.79L325.42 8.79L325.42 8.79Q325.58 8.40 325.71 8.04L325.71 8.04L325.71 8.04Q325.84 7.69 325.94 7.33L325.94 7.33L325.94 7.33Q326.05 6.97 326.16 6.51L326.16 6.51L326.16 6.51Q325.51 6.73 324.96 7.01L324.96 7.01L324.96 7.01Q324.41 7.28 324.04 7.59L324.04 7.59L324.04 7.59Q323.92 7.50 323.78 7.34L323.78 7.34L323.78 7.34Q323.65 7.17 323.54 6.96L323.54 6.96L323.54 6.96Q323.43 6.76 323.34 6.55L323.34 6.55L323.34 6.55Q323.26 6.34 323.25 6.17L323.25 6.17L323.25 6.17Q323.67 5.89 324.27 5.66L324.27 5.66L324.27 5.66Q324.88 5.42 325.57 5.24L325.57 5.24L325.57 5.24Q326.26 5.07 326.97 4.97L326.97 4.97L326.97 4.97Q327.68 4.87 328.30 4.87L328.30 4.87L328.30 4.87Q329.98 4.87 330.90 5.56L330.90 5.56L330.90 5.56Q331.83 6.26 331.83 7.46ZM328.24 6.02L328.41 6.29L328.41 6.29Q328.31 6.41 328.10 6.79L328.10 6.79L328.10 6.79Q327.89 7.17 327.62 7.69L327.62 7.69L327.62 7.69Q327.35 8.22 327.05 8.83L327.05 8.83L327.05 8.83Q326.75 9.45 326.47 10.05L326.47 10.05L326.47 10.05Q327.52 10.05 328.40 9.86L328.40 9.86L328.40 9.86Q329.28 9.66 329.92 9.30L329.92 9.30L329.92 9.30Q330.57 8.95 330.92 8.46L330.92 8.46L330.92 8.46Q331.28 7.98 331.28 7.39L331.28 7.39L331.28 7.39Q331.28 6.69 330.78 6.32L330.78 6.32L330.78 6.32Q330.27 5.95 329.22 5.95L329.22 5.95L329.22 5.95Q328.99 5.95 328.75 5.97L328.75 5.97L328.75 5.97Q328.51 5.99 328.24 6.02L328.24 6.02ZM358.44 5.74L358.44 5.74L358.44 5.74Q358.48 5.98 358.50 6.07L358.50 6.07L358.50 6.07Q358.53 6.16 358.53 6.31L358.53 6.31L358.53 6.31Q358.53 6.78 358.32 7.18L358.32 7.18L358.32 7.18Q358.12 7.57 357.77 7.74L357.77 7.74L357.77 7.74Q357.49 7.36 357.08 7.09L357.08 7.09L357.08 7.09Q356.68 6.82 356.19 6.64L356.19 6.64L356.19 6.64Q355.71 6.47 355.19 6.38L355.19 6.38L355.19 6.38Q354.68 6.30 354.19 6.30L354.19 6.30L354.19 6.30Q353.70 6.30 353.27 6.38L353.27 6.38L353.27 6.38Q352.84 6.45 352.51 6.59L352.51 6.59L352.51 6.59Q352.18 6.72 351.99 6.92L351.99 6.92L351.99 6.92Q351.81 7.11 351.81 7.36L351.81 7.36L351.81 7.36Q351.85 7.67 352.18 7.99L352.18 7.99L352.18 7.99Q352.52 8.30 353.01 8.60L353.01 8.60L353.01 8.60Q353.50 8.90 354.09 9.20L354.09 9.20L354.09 9.20Q354.69 9.49 355.26 9.76L355.26 9.76L355.26 9.76Q355.98 10.09 356.50 10.38L356.50 10.38L356.50 10.38Q357.01 10.67 357.35 11.01L357.35 11.01L357.35 11.01Q357.69 11.35 357.85 11.79L357.85 11.79L357.85 11.79Q358.02 12.22 358.02 12.84L358.02 12.84L358.02 12.84Q358.02 13.55 357.78 14.18L357.78 14.18L357.78 14.18Q357.55 14.80 357.09 15.26L357.09 15.26L357.09 15.26Q356.64 15.72 355.99 15.98L355.99 15.98L355.99 15.98Q355.35 16.24 354.55 16.24L354.55 16.24L354.55 16.24Q353.77 16.24 352.86 16.00L352.86 16.00L352.86 16.00Q351.95 15.76 351.15 15.35L351.15 15.35L351.15 15.35Q350.36 14.94 349.84 14.40L349.84 14.40L349.84 14.40Q349.31 13.86 349.31 13.26L349.31 13.26L349.31 13.26Q349.31 12.98 349.47 12.54L349.47 12.54L349.47 12.54Q349.64 12.11 350.06 11.63L350.06 11.63L350.06 11.63Q350.10 12.05 350.51 12.63L350.51 12.63L350.51 12.63Q350.92 13.20 351.75 13.69L351.75 13.69L351.75 13.69Q352.52 14.14 353.34 14.34L353.34 14.34L353.34 14.34Q354.16 14.55 354.87 14.55L354.87 14.55L354.87 14.55Q355.66 14.55 356.15 14.35L356.15 14.35L356.15 14.35Q356.64 14.15 356.92 13.88L356.92 13.88L356.92 13.88Q357.20 13.61 357.31 13.33L357.31 13.33L357.31 13.33Q357.42 13.05 357.43 12.88L357.43 12.88L357.43 12.88Q357.42 12.60 357.17 12.34L357.17 12.34L357.17 12.34Q356.93 12.08 356.52 11.84L356.52 11.84L356.52 11.84Q356.10 11.59 355.56 11.34L355.56 11.34L355.56 11.34Q355.01 11.09 354.42 10.84L354.42 10.84L354.42 10.84Q353.54 10.44 352.90 10.10L352.90 10.10L352.90 10.10Q352.27 9.76 351.85 9.40L351.85 9.40L351.85 9.40Q351.44 9.04 351.25 8.65L351.25 8.65L351.25 8.65Q351.06 8.26 351.06 7.76L351.06 7.76L351.06 7.76Q351.06 6.97 351.54 6.27L351.54 6.27L351.54 6.27Q352.02 5.57 352.91 5.21L352.91 5.21L352.91 5.21Q353.36 5.01 353.87 4.93L353.87 4.93L353.87 4.93Q354.38 4.84 354.87 4.84L354.87 4.84L354.87 4.84Q355.80 4.84 356.68 5.10L356.68 5.10L356.68 5.10Q357.56 5.35 358.44 5.74ZM368.42 6.69L368.42 6.69L368.42 6.69Q367.86 6.69 367.56 6.38L367.56 6.38L367.56 6.38Q367.26 6.06 367.26 5.61L367.26 5.61L367.26 5.61Q367.26 5.50 367.30 5.35L367.30 5.35L367.30 5.35Q367.33 5.19 367.39 5.08L367.39 5.08L367.39 5.08Q367.57 5.17 367.93 5.20L367.93 5.20L367.93 5.20Q368.28 5.24 368.76 5.24L368.76 5.24L368.76 5.24Q369.47 5.24 370.38 5.17L370.38 5.17L370.38 5.17Q371.28 5.11 372.11 5.04L372.11 5.04L372.11 5.04Q372.93 4.97 373.56 4.91L373.56 4.91L373.56 4.91Q374.19 4.84 374.37 4.84L374.37 4.84L374.37 4.84Q374.89 4.84 375.12 5.23L375.12 5.23L375.12 5.23Q375.35 5.61 375.47 6.26L375.47 6.26L375.47 6.26Q375.10 6.23 374.74 6.21L374.74 6.21L374.74 6.21Q374.39 6.19 374.14 6.19L374.14 6.19L374.14 6.19Q373.69 6.19 373.23 6.22L373.23 6.22L373.23 6.22Q372.78 6.24 372.32 6.30L372.32 6.30L372.32 6.30Q372.12 6.71 371.88 7.26L371.88 7.26L371.88 7.26Q371.64 7.81 371.41 8.41L371.41 8.41L371.41 8.41Q371.18 9.02 370.97 9.61L370.97 9.61L370.97 9.61Q370.76 10.21 370.61 10.68L370.61 10.68L370.61 10.68Q370.30 11.61 370.07 12.39L370.07 12.39L370.07 12.39Q369.84 13.17 369.66 13.85L369.66 13.85L369.66 13.85Q369.49 14.53 369.36 15.15L369.36 15.15L369.36 15.15Q369.24 15.76 369.14 16.35L369.14 16.35L369.14 16.35Q368.20 16.21 367.57 15.18L367.57 15.18L367.57 15.18Q367.68 14.74 367.84 14.23L367.84 14.23L367.84 14.23Q368.00 13.72 368.22 13.07L368.22 13.07L368.22 13.07Q368.44 12.42 368.73 11.59L368.73 11.59L368.73 11.59Q369.03 10.77 369.40 9.72L369.40 9.72L369.40 9.72Q369.54 9.32 369.70 8.90L369.70 8.90L369.70 8.90Q369.85 8.47 370.00 8.05L370.00 8.05L370.00 8.05Q370.15 7.63 370.26 7.24L370.26 7.24L370.26 7.24Q370.38 6.85 370.47 6.52L370.47 6.52L370.47 6.52Q369.88 6.59 369.35 6.64L369.35 6.64L369.35 6.64Q368.83 6.69 368.42 6.69ZM386.26 5.75L386.26 5.75L386.26 5.75Q385.64 6.58 385.14 7.57L385.14 7.57L385.14 7.57Q384.64 8.57 384.28 9.61L384.28 9.61L384.28 9.61Q383.92 10.65 383.73 11.67L383.73 11.67L383.73 11.67Q383.54 12.68 383.54 13.57L383.54 13.57L383.54 13.57Q383.54 14.66 383.87 15.15L383.87 15.15L383.87 15.15Q384.19 15.64 384.97 15.64L384.97 15.64L384.97 15.64Q385.88 15.64 386.57 15.00L386.57 15.00L386.57 15.00Q387.25 14.36 387.86 13.24L387.86 13.24L387.86 13.24Q388.25 12.52 388.53 11.65L388.53 11.65L388.53 11.65Q388.81 10.78 388.98 9.86L388.98 9.86L388.98 9.86Q389.16 8.95 389.24 8.02L389.24 8.02L389.24 8.02Q389.33 7.08 389.33 6.23L389.33 6.23L389.33 6.23Q389.33 5.68 389.31 5.43L389.31 5.43L389.31 5.43Q389.30 5.18 389.27 5.03L389.27 5.03L389.27 5.03Q389.31 5.03 389.48 5.05L389.48 5.05L389.48 5.05Q389.65 5.08 389.86 5.12L389.86 5.12L389.86 5.12Q390.08 5.17 390.30 5.24L390.30 5.24L390.30 5.24Q390.52 5.31 390.67 5.39L390.67 5.39L390.67 5.39Q390.60 6.45 390.41 7.59L390.41 7.59L390.41 7.59Q390.22 8.72 389.91 9.83L389.91 9.83L389.91 9.83Q389.61 10.93 389.20 11.96L389.20 11.96L389.20 11.96Q388.79 12.98 388.29 13.79L388.29 13.79L388.29 13.79Q387.55 14.99 386.62 15.67L386.62 15.67L386.62 15.67Q385.70 16.35 384.44 16.35L384.44 16.35L384.44 16.35Q383.15 16.35 382.44 15.60L382.44 15.60L382.44 15.60Q381.72 14.85 381.72 13.33L381.72 13.33L381.72 13.33Q381.72 12.45 381.92 11.33L381.92 11.33L381.92 11.33Q382.12 10.22 382.44 9.07L382.44 9.07L382.44 9.07Q382.77 7.91 383.21 6.81L383.21 6.81L383.21 6.81Q383.64 5.71 384.12 4.84L384.12 4.84L384.12 4.84Q384.36 4.86 384.68 4.94L384.68 4.94L384.68 4.94Q385.00 5.03 385.31 5.16L385.31 5.16L385.31 5.16Q385.62 5.29 385.87 5.45L385.87 5.45L385.87 5.45Q386.13 5.61 386.26 5.75ZM403.51 9.34L403.51 9.34L403.51 9.34Q403.96 9.34 404.21 9.59L404.21 9.59L404.21 9.59Q404.47 9.84 404.47 10.29L404.47 10.29L404.47 10.29Q404.47 10.40 404.46 10.52L404.46 10.52L404.46 10.52Q404.45 10.64 404.40 10.72L404.40 10.72L404.40 10.72Q404.22 10.70 404.00 10.68L404.00 10.68L404.00 10.68Q403.77 10.65 403.47 10.65L403.47 10.65L403.47 10.65Q402.84 10.65 402.21 10.77L402.21 10.77L402.21 10.77Q401.58 10.88 401.00 10.95L401.00 10.95L401.00 10.95Q400.37 12.43 399.97 13.73L399.97 13.73L399.97 13.73Q399.56 15.04 399.34 16.31L399.34 16.31L399.34 16.31Q398.86 16.20 398.50 15.90L398.50 15.90L398.50 15.90Q398.13 15.61 397.81 15.08L397.81 15.08L397.81 15.08Q397.91 14.85 398.05 14.54L398.05 14.54L398.05 14.54Q398.19 14.22 398.38 13.74L398.38 13.74L398.38 13.74Q398.58 13.26 398.85 12.56L398.85 12.56L398.85 12.56Q399.13 11.87 399.50 10.91L399.50 10.91L399.50 10.91Q398.92 10.71 398.73 10.22L398.73 10.22L398.73 10.22Q398.80 10.15 399.13 10.06L399.13 10.06L399.13 10.06Q399.45 9.97 399.91 9.86L399.91 9.86L399.91 9.86Q400.12 9.31 400.27 8.88L400.27 8.88L400.27 8.88Q400.43 8.46 400.55 8.07L400.55 8.07L400.55 8.07Q400.68 7.69 400.78 7.32L400.78 7.32L400.78 7.32Q400.89 6.94 400.97 6.52L400.97 6.52L400.90 6.52L400.90 6.52Q400.37 6.52 400.04 6.27L400.04 6.27L400.04 6.27Q399.71 6.02 399.71 5.61L399.71 5.61L399.71 5.61Q399.71 5.50 399.75 5.35L399.75 5.35L399.75 5.35Q399.78 5.19 399.84 5.08L399.84 5.08L399.84 5.08Q400.11 5.12 400.36 5.14L400.36 5.14L400.36 5.14Q400.62 5.15 401.04 5.15L401.04 5.15L401.04 5.15Q401.93 5.15 402.70 5.10L402.70 5.10L402.70 5.10Q403.47 5.05 404.09 5.00L404.09 5.00L404.09 5.00Q404.71 4.94 405.16 4.89L405.16 4.89L405.16 4.89Q405.61 4.84 405.85 4.84L405.85 4.84L405.85 4.84Q406.17 4.84 406.42 5.18L406.42 5.18L406.42 5.18Q406.67 5.52 406.81 6.13L406.81 6.13L406.81 6.13Q406.36 6.09 406.09 6.08L406.09 6.08L406.09 6.08Q405.82 6.06 405.61 6.06L405.61 6.06L405.61 6.06Q404.89 6.06 404.30 6.13L404.30 6.13L404.30 6.13Q403.70 6.19 403.17 6.27L403.17 6.27L403.17 6.27Q403.09 6.40 402.98 6.59L402.98 6.59L402.98 6.59Q402.88 6.79 402.71 7.15L402.71 7.15L402.71 7.15Q402.54 7.50 402.28 8.08L402.28 8.08L402.28 8.08Q402.02 8.65 401.63 9.53L401.63 9.53L401.63 9.53Q402.18 9.45 402.67 9.39L402.67 9.39L402.67 9.39Q403.17 9.34 403.51 9.34ZM418.22 9.34L418.22 9.34L418.22 9.34Q418.67 9.34 418.93 9.59L418.93 9.59L418.93 9.59Q419.19 9.84 419.19 10.29L419.19 10.29L419.19 10.29Q419.19 10.40 419.17 10.52L419.17 10.52L419.17 10.52Q419.16 10.64 419.12 10.72L419.12 10.72L419.12 10.72Q418.94 10.70 418.71 10.68L418.71 10.68L418.71 10.68Q418.49 10.65 418.18 10.65L418.18 10.65L418.18 10.65Q417.55 10.65 416.92 10.77L416.92 10.77L416.92 10.77Q416.29 10.88 415.72 10.95L415.72 10.95L415.72 10.95Q415.09 12.43 414.68 13.73L414.68 13.73L414.68 13.73Q414.27 15.04 414.05 16.31L414.05 16.31L414.05 16.31Q413.57 16.20 413.21 15.90L413.21 15.90L413.21 15.90Q412.85 15.61 412.52 15.08L412.52 15.08L412.52 15.08Q412.62 14.85 412.76 14.54L412.76 14.54L412.76 14.54Q412.90 14.22 413.10 13.74L413.10 13.74L413.10 13.74Q413.29 13.26 413.57 12.56L413.57 12.56L413.57 12.56Q413.84 11.87 414.22 10.91L414.22 10.91L414.22 10.91Q413.63 10.71 413.45 10.22L413.45 10.22L413.45 10.22Q413.52 10.15 413.84 10.06L413.84 10.06L413.84 10.06Q414.16 9.97 414.62 9.86L414.62 9.86L414.62 9.86Q414.83 9.31 414.99 8.88L414.99 8.88L414.99 8.88Q415.14 8.46 415.27 8.07L415.27 8.07L415.27 8.07Q415.39 7.69 415.50 7.32L415.50 7.32L415.50 7.32Q415.60 6.94 415.69 6.52L415.69 6.52L415.62 6.52L415.62 6.52Q415.09 6.52 414.76 6.27L414.76 6.27L414.76 6.27Q414.43 6.02 414.43 5.61L414.43 5.61L414.43 5.61Q414.43 5.50 414.46 5.35L414.46 5.35L414.46 5.35Q414.50 5.19 414.55 5.08L414.55 5.08L414.55 5.08Q414.82 5.12 415.08 5.14L415.08 5.14L415.08 5.14Q415.34 5.15 415.76 5.15L415.76 5.15L415.76 5.15Q416.64 5.15 417.41 5.10L417.41 5.10L417.41 5.10Q418.18 5.05 418.80 5.00L418.80 5.00L418.80 5.00Q419.43 4.94 419.87 4.89L419.87 4.89L419.87 4.89Q420.32 4.84 420.56 4.84L420.56 4.84L420.56 4.84Q420.88 4.84 421.13 5.18L421.13 5.18L421.13 5.18Q421.39 5.52 421.53 6.13L421.53 6.13L421.53 6.13Q421.08 6.09 420.80 6.08L420.80 6.08L420.80 6.08Q420.53 6.06 420.32 6.06L420.32 6.06L420.32 6.06Q419.61 6.06 419.01 6.13L419.01 6.13L419.01 6.13Q418.42 6.19 417.89 6.27L417.89 6.27L417.89 6.27Q417.80 6.40 417.70 6.59L417.70 6.59L417.70 6.59Q417.59 6.79 417.42 7.15L417.42 7.15L417.42 7.15Q417.26 7.50 417.00 8.08L417.00 8.08L417.00 8.08Q416.74 8.65 416.35 9.53L416.35 9.53L416.35 9.53Q416.89 9.45 417.39 9.39L417.39 9.39L417.39 9.39Q417.89 9.34 418.22 9.34ZM426.86 15.71L426.86 15.71L426.86 15.71Q426.64 15.68 426.39 15.52L426.39 15.52L426.39 15.52Q426.15 15.36 426.08 15.16L426.08 15.16L426.08 15.16Q426.08 14.99 426.12 14.73L426.12 14.73L426.12 14.73Q426.17 14.46 426.24 14.19L426.24 14.19L426.24 14.19Q426.31 13.92 426.38 13.67L426.38 13.67L426.38 13.67Q426.45 13.43 426.48 13.30L426.48 13.30L426.48 13.30Q426.65 13.30 426.91 13.38L426.91 13.38L426.91 13.38Q427.17 13.47 427.44 13.62L427.44 13.62L427.44 13.62Q427.71 13.76 427.96 13.95L427.96 13.95L427.96 13.95Q428.20 14.14 428.33 14.34L428.33 14.34L428.33 14.34Q428.20 14.62 428.01 14.87L428.01 14.87L428.01 14.87Q427.81 15.12 427.59 15.31L427.59 15.31L427.59 15.31Q427.38 15.50 427.18 15.60L427.18 15.60L427.18 15.60Q426.99 15.71 426.86 15.71ZM437.23 15.71L437.23 15.71L437.23 15.71Q437.01 15.68 436.76 15.52L436.76 15.52L436.76 15.52Q436.52 15.36 436.45 15.16L436.45 15.16L436.45 15.16Q436.45 14.99 436.50 14.73L436.50 14.73L436.50 14.73Q436.55 14.46 436.62 14.19L436.62 14.19L436.62 14.19Q436.69 13.92 436.76 13.67L436.76 13.67L436.76 13.67Q436.83 13.43 436.86 13.30L436.86 13.30L436.86 13.30Q437.02 13.30 437.28 13.38L437.28 13.38L437.28 13.38Q437.54 13.47 437.81 13.62L437.81 13.62L437.81 13.62Q438.09 13.76 438.33 13.95L438.33 13.95L438.33 13.95Q438.58 14.14 438.70 14.34L438.70 14.34L438.70 14.34Q438.58 14.62 438.38 14.87L438.38 14.87L438.38 14.87Q438.19 15.12 437.97 15.31L437.97 15.31L437.97 15.31Q437.75 15.50 437.56 15.60L437.56 15.60L437.56 15.60Q437.36 15.71 437.23 15.71ZM447.61 15.71L447.61 15.71L447.61 15.71Q447.38 15.68 447.14 15.52L447.14 15.52L447.14 15.52Q446.89 15.36 446.82 15.16L446.82 15.16L446.82 15.16Q446.82 14.99 446.87 14.73L446.87 14.73L446.87 14.73Q446.92 14.46 446.99 14.19L446.99 14.19L446.99 14.19Q447.06 13.92 447.13 13.67L447.13 13.67L447.13 13.67Q447.20 13.43 447.23 13.30L447.23 13.30L447.23 13.30Q447.40 13.30 447.66 13.38L447.66 13.38L447.66 13.38Q447.92 13.47 448.19 13.62L448.19 13.62L448.19 13.62Q448.46 13.76 448.71 13.95L448.71 13.95L448.71 13.95Q448.95 14.14 449.08 14.34L449.08 14.34L449.08 14.34Q448.95 14.62 448.76 14.87L448.76 14.87L448.76 14.87Q448.56 15.12 448.34 15.31L448.34 15.31L448.34 15.31Q448.13 15.50 447.93 15.60L447.93 15.60L447.93 15.60Q447.73 15.71 447.61 15.71ZM458.89 16.24L458.89 16.24L458.89 16.24Q458.09 16.00 457.81 15.79L457.81 15.79L457.81 15.79Q457.53 15.57 457.53 15.19L457.53 15.19L457.53 15.19Q457.53 14.77 457.73 14.01L457.73 14.01L457.73 14.01Q457.93 13.24 458.24 12.31L458.24 12.31L458.24 12.31Q458.56 11.37 458.96 10.35L458.96 10.35L458.96 10.35Q459.37 9.32 459.79 8.39L459.79 8.39L459.79 8.39Q460.21 7.45 460.61 6.67L460.61 6.67L460.61 6.67Q461.01 5.89 461.31 5.46L461.31 5.46L461.22 4.87L461.22 4.87Q461.41 4.87 461.76 4.97L461.76 4.97L461.76 4.97Q462.11 5.07 462.47 5.21L462.47 5.21L462.47 5.21Q462.83 5.35 463.10 5.49L463.10 5.49L463.10 5.49Q463.37 5.64 463.40 5.74L463.40 5.74L463.40 5.74Q463.33 6.08 463.29 6.76L463.29 6.76L463.29 6.76Q463.25 7.43 463.25 8.20L463.25 8.20L463.25 8.20Q463.25 9.73 463.36 11.19L463.36 11.19L463.36 11.19Q463.48 12.66 463.92 14.17L463.92 14.17L463.92 14.17Q464.14 13.05 464.40 11.94L464.40 11.94L464.40 11.94Q464.66 10.82 464.94 9.81L464.94 9.81L464.94 9.81Q465.22 8.79 465.50 7.92L465.50 7.92L465.50 7.92Q465.78 7.06 466.04 6.40L466.04 6.40L466.04 6.40Q466.30 5.75 466.52 5.38L466.52 5.38L466.52 5.38Q466.75 5.01 466.93 4.98L466.93 4.98L466.93 4.98Q467.08 5.01 467.26 5.10L467.26 5.10L467.26 5.10Q467.45 5.19 467.61 5.32L467.61 5.32L467.61 5.32Q467.78 5.45 467.92 5.60L467.92 5.60L467.92 5.60Q468.06 5.75 468.15 5.91L468.15 5.91L468.15 5.91Q467.70 6.09 467.26 6.76L467.26 6.76L467.26 6.76Q466.82 7.43 466.42 8.39L466.42 8.39L466.42 8.39Q466.02 9.35 465.67 10.47L465.67 10.47L465.67 10.47Q465.33 11.59 465.07 12.68L465.07 12.68L465.07 12.68Q464.81 13.76 464.67 14.69L464.67 14.69L464.67 14.69Q464.52 15.61 464.51 16.17L464.51 16.17L464.51 16.17Q464.51 16.20 464.52 16.21L464.52 16.21L464.52 16.21Q464.48 16.23 464.43 16.23L464.43 16.23L464.43 16.23Q464.38 16.23 464.34 16.23L464.34 16.23L464.34 16.23Q463.69 16.23 463.20 16.07L463.20 16.07L463.20 16.07Q462.70 15.90 462.55 15.61L462.55 15.61L462.55 15.61Q462.25 14.43 462.06 13.34L462.06 13.34L462.06 13.34Q461.86 12.25 461.73 11.16L461.73 11.16L461.73 11.16Q461.59 10.07 461.52 8.95L461.52 8.95L461.52 8.95Q461.44 7.84 461.40 6.62L461.40 6.62L461.40 6.62Q461.13 7.04 460.84 7.72L460.84 7.72L460.84 7.72Q460.54 8.40 460.26 9.21L460.26 9.21L460.26 9.21Q459.98 10.02 459.72 10.92L459.72 10.92L459.72 10.92Q459.47 11.82 459.27 12.67L459.27 12.67L459.27 12.67Q459.07 13.52 458.96 14.29L458.96 14.29L458.96 14.29Q458.85 15.05 458.85 15.61L458.85 15.61L458.85 15.61Q458.85 15.90 458.86 16.03L458.86 16.03L458.86 16.03Q458.86 16.16 458.89 16.24ZM480.66 4.98L480.66 4.98L480.66 4.98Q480.93 5.10 481.21 5.27L481.21 5.27L481.21 5.27Q481.49 5.45 481.73 5.63L481.73 5.63L481.73 5.63Q481.96 5.81 482.13 5.98L482.13 5.98L482.13 5.98Q482.29 6.16 482.30 6.27L482.30 6.27L482.30 6.27Q482.06 6.22 481.82 6.20L481.82 6.20L481.82 6.20Q481.59 6.17 481.39 6.17L481.39 6.17L481.39 6.17Q480.76 6.17 480.14 6.48L480.14 6.48L480.14 6.48Q479.51 6.79 478.95 7.32L478.95 7.32L478.95 7.32Q478.39 7.85 477.92 8.57L477.92 8.57L477.92 8.57Q477.44 9.28 477.10 10.09L477.10 10.09L477.10 10.09Q476.76 10.91 476.56 11.77L476.56 11.77L476.56 11.77Q476.36 12.64 476.36 13.48L476.36 13.48L476.36 13.48Q476.36 14.57 476.73 15.11L476.73 15.11L476.73 15.11Q477.09 15.64 477.79 15.64L477.79 15.64L477.79 15.64Q478.13 15.64 478.52 15.51L478.52 15.51L478.52 15.51Q478.91 15.37 479.32 15.13L479.32 15.13L479.32 15.13Q479.72 14.90 480.12 14.56L480.12 14.56L480.12 14.56Q480.51 14.22 480.84 13.82L480.84 13.82L480.84 13.82Q481.33 13.23 481.73 12.48L481.73 12.48L481.73 12.48Q482.12 11.73 482.39 10.89L482.39 10.89L482.39 10.89Q482.66 10.05 482.81 9.16L482.81 9.16L482.81 9.16Q482.96 8.27 482.96 7.42L482.96 7.42L482.96 7.42Q482.96 7.08 482.94 6.85L482.94 6.85L482.94 6.85Q482.93 6.62 482.91 6.46L482.91 6.46L482.91 6.46Q482.89 6.30 482.87 6.20L482.87 6.20L482.87 6.20Q482.86 6.10 482.85 6.03L482.85 6.03L482.85 6.03Q483.01 6.12 483.22 6.24L483.22 6.24L483.22 6.24Q483.42 6.36 483.59 6.59L483.59 6.59L483.59 6.59Q483.77 6.82 483.89 7.20L483.89 7.20L483.89 7.20Q484.01 7.57 484.01 8.18L484.01 8.18L484.01 8.18Q484.01 9.16 483.78 10.10L483.78 10.10L483.78 10.10Q483.55 11.05 483.13 11.90L483.13 11.90L483.13 11.90Q482.72 12.75 482.16 13.50L482.16 13.50L482.16 13.50Q481.60 14.24 480.96 14.80L480.96 14.80L480.96 14.80Q480.12 15.54 479.16 15.95L479.16 15.95L479.16 15.95Q478.21 16.35 477.33 16.35L477.33 16.35L477.33 16.35Q476.04 16.35 475.36 15.53L475.36 15.53L475.36 15.53Q474.68 14.71 474.68 13.12L474.68 13.12L474.68 13.12Q474.68 12.26 474.87 11.31L474.87 11.31L474.87 11.31Q475.06 10.36 475.40 9.44L475.40 9.44L475.40 9.44Q475.75 8.51 476.22 7.68L476.22 7.68L476.22 7.68Q476.70 6.85 477.27 6.21L477.27 6.21L477.27 6.21Q477.83 5.57 478.48 5.19L478.48 5.19L478.48 5.19Q479.14 4.82 479.82 4.82L479.82 4.82L479.82 4.82Q480.05 4.82 480.24 4.85L480.24 4.85L480.24 4.85Q480.44 4.89 480.66 4.98ZM511.31 7.46L511.31 7.46L511.31 7.46Q511.31 8.33 510.83 9.01L510.83 9.01L510.83 9.01Q510.36 9.69 509.53 10.14L509.53 10.14L509.53 10.14Q510.06 10.50 510.38 11.03L510.38 11.03L510.38 11.03Q510.69 11.55 510.69 12.18L510.69 12.18L510.69 12.18Q510.69 12.94 510.24 13.67L510.24 13.67L510.24 13.67Q509.78 14.41 509.03 14.97L509.03 14.97L509.03 14.97Q508.27 15.54 507.30 15.89L507.30 15.89L507.30 15.89Q506.34 16.24 505.33 16.24L505.33 16.24L505.33 16.24Q504.24 16.24 503.42 15.83L503.42 15.83L503.42 15.83Q502.60 15.41 502.14 14.66L502.14 14.66L502.14 14.66Q502.28 14.24 502.51 13.62L502.51 13.62L502.51 13.62Q502.74 12.99 503.02 12.30L503.02 12.30L503.02 12.30Q503.30 11.61 503.59 10.92L503.59 10.92L503.59 10.92Q503.87 10.23 504.13 9.69L504.13 9.69L504.13 9.69Q504.66 8.50 505.08 7.71L505.08 7.71L505.08 7.71Q505.50 6.93 505.85 6.47L505.85 6.47L505.85 6.47Q505.08 6.71 504.45 7.01L504.45 7.01L504.45 7.01Q503.82 7.31 503.52 7.59L503.52 7.59L503.52 7.59Q503.40 7.50 503.26 7.34L503.26 7.34L503.26 7.34Q503.13 7.17 503.01 6.96L503.01 6.96L503.01 6.96Q502.89 6.76 502.82 6.55L502.82 6.55L502.82 6.55Q502.74 6.34 502.73 6.17L502.73 6.17L502.73 6.17Q503.09 5.92 503.67 5.69L503.67 5.69L503.67 5.69Q504.25 5.46 504.94 5.29L504.94 5.29L504.94 5.29Q505.62 5.12 506.34 5.03L506.34 5.03L506.34 5.03Q507.07 4.93 507.72 4.93L507.72 4.93L507.72 4.93Q509.40 4.93 510.36 5.60L510.36 5.60L510.36 5.60Q511.31 6.27 511.31 7.46ZM505.97 10.81L505.97 10.81L505.97 10.81Q505.71 10.68 505.48 10.43L505.48 10.43L505.48 10.43Q505.16 11.14 504.88 11.83L504.88 11.83L504.88 11.83Q504.59 12.52 504.36 13.10L504.36 13.10L504.36 13.10Q504.14 13.69 504 14.13L504 14.13L504 14.13Q503.86 14.56 503.85 14.76L503.85 14.76L503.85 14.76Q504.04 14.87 504.31 14.92L504.31 14.92L504.31 14.92Q504.59 14.98 504.99 14.98L504.99 14.98L504.99 14.98Q505.95 14.98 506.81 14.71L506.81 14.71L506.81 14.71Q507.68 14.45 508.34 13.99L508.34 13.99L508.34 13.99Q509.00 13.54 509.39 12.95L509.39 12.95L509.39 12.95Q509.78 12.36 509.78 11.72L509.78 11.72L509.78 11.72Q509.78 10.79 508.98 10.39L508.98 10.39L508.98 10.39Q507.89 10.84 506.52 10.84L506.52 10.84L506.52 10.84Q506.32 10.84 506.22 10.84L506.22 10.84L506.22 10.84Q506.11 10.84 505.97 10.81ZM508.69 5.95L508.69 5.95L508.69 5.95Q508.40 5.95 508.07 5.98L508.07 5.98L508.07 5.98Q507.74 6.02 507.37 6.09L507.37 6.09L507.37 6.09Q507.43 6.15 507.46 6.21L507.46 6.21L507.46 6.21Q507.50 6.27 507.53 6.34L507.53 6.34L507.53 6.34Q507.40 6.51 507.22 6.83L507.22 6.83L507.22 6.83Q507.04 7.15 506.81 7.58L506.81 7.58L506.81 7.58Q506.59 8.01 506.34 8.53L506.34 8.53L506.34 8.53Q506.10 9.04 505.85 9.59L505.85 9.59L505.85 9.59Q506.09 9.53 506.43 9.50L506.43 9.50L506.43 9.50Q506.77 9.46 507.11 9.46L507.11 9.46L507.11 9.46Q507.29 9.46 507.46 9.48L507.46 9.48L507.46 9.48Q507.64 9.49 507.81 9.52L507.81 9.52L507.81 9.52Q508.48 9.41 509.02 9.19L509.02 9.19L509.02 9.19Q509.56 8.97 509.95 8.69L509.95 8.69L509.95 8.69Q510.34 8.40 510.55 8.05L510.55 8.05L510.55 8.05Q510.76 7.70 510.76 7.31L510.76 7.31L510.76 7.31Q510.76 6.64 510.23 6.29L510.23 6.29L510.23 6.29Q509.70 5.95 508.69 5.95ZM524.10 5.75L524.10 5.75L524.10 5.75Q523.49 6.58 522.98 7.57L522.98 7.57L522.98 7.57Q522.48 8.57 522.12 9.61L522.12 9.61L522.12 9.61Q521.77 10.65 521.58 11.67L521.58 11.67L521.58 11.67Q521.39 12.68 521.39 13.57L521.39 13.57L521.39 13.57Q521.39 14.66 521.71 15.15L521.71 15.15L521.71 15.15Q522.03 15.64 522.82 15.64L522.82 15.64L522.82 15.64Q523.73 15.64 524.41 15.00L524.41 15.00L524.41 15.00Q525.10 14.36 525.70 13.24L525.70 13.24L525.70 13.24Q526.09 12.52 526.37 11.65L526.37 11.65L526.37 11.65Q526.65 10.78 526.83 9.86L526.83 9.86L526.83 9.86Q527.00 8.95 527.09 8.02L527.09 8.02L527.09 8.02Q527.17 7.08 527.17 6.23L527.17 6.23L527.17 6.23Q527.17 5.68 527.16 5.43L527.16 5.43L527.16 5.43Q527.14 5.18 527.11 5.03L527.11 5.03L527.11 5.03Q527.16 5.03 527.32 5.05L527.32 5.05L527.32 5.05Q527.49 5.08 527.71 5.12L527.71 5.12L527.71 5.12Q527.93 5.17 528.14 5.24L528.14 5.24L528.14 5.24Q528.36 5.31 528.51 5.39L528.51 5.39L528.51 5.39Q528.44 6.45 528.25 7.59L528.25 7.59L528.25 7.59Q528.07 8.72 527.76 9.83L527.76 9.83L527.76 9.83Q527.45 10.93 527.04 11.96L527.04 11.96L527.04 11.96Q526.64 12.98 526.13 13.79L526.13 13.79L526.13 13.79Q525.39 14.99 524.47 15.67L524.47 15.67L524.47 15.67Q523.54 16.35 522.28 16.35L522.28 16.35L522.28 16.35Q521.00 16.35 520.28 15.60L520.28 15.60L520.28 15.60Q519.57 14.85 519.57 13.33L519.57 13.33L519.57 13.33Q519.57 12.45 519.76 11.33L519.76 11.33L519.76 11.33Q519.96 10.22 520.29 9.07L520.29 9.07L520.29 9.07Q520.62 7.91 521.05 6.81L521.05 6.81L521.05 6.81Q521.49 5.71 521.96 4.84L521.96 4.84L521.96 4.84Q522.20 4.86 522.52 4.94L522.52 4.94L522.52 4.94Q522.84 5.03 523.15 5.16L523.15 5.16L523.15 5.16Q523.46 5.29 523.72 5.45L523.72 5.45L523.72 5.45Q523.98 5.61 524.10 5.75ZM540.69 14.38L540.69 14.38L540.69 14.38Q541.04 14.98 541.04 15.54L541.04 15.54L541.04 15.54Q541.04 15.67 541.02 15.77L541.02 15.77L541.02 15.77Q541.00 15.88 540.97 15.99L540.97 15.99L540.97 15.99Q540.74 15.96 540.48 15.95L540.48 15.95L540.48 15.95Q540.22 15.93 539.94 15.93L539.94 15.93L539.94 15.93Q539.60 15.93 539.26 15.95L539.26 15.95L539.26 15.95Q538.92 15.97 538.50 16.02L538.50 16.02L538.50 16.02Q538.08 16.06 537.56 16.13L537.56 16.13L537.56 16.13Q537.04 16.20 536.35 16.31L536.35 16.31L536.35 16.31Q536.03 16.20 535.71 15.87L535.71 15.87L535.71 15.87Q535.39 15.54 535.11 15.08L535.11 15.08L535.11 15.08Q535.25 14.77 535.46 14.31L535.46 14.31L535.46 14.31Q535.67 13.86 535.95 13.21L535.95 13.21L535.95 13.21Q536.23 12.56 536.57 11.68L536.57 11.68L536.57 11.68Q536.91 10.81 537.31 9.66L537.31 9.66L537.31 9.66Q537.56 8.90 537.74 8.33L537.74 8.33L537.74 8.33Q537.92 7.76 538.07 7.22L538.07 7.22L538.07 7.22Q538.22 6.68 538.36 6.09L538.36 6.09L538.36 6.09Q538.50 5.50 538.66 4.73L538.66 4.73L538.66 4.73Q539.22 4.84 539.64 5.14L539.64 5.14L539.64 5.14Q540.05 5.45 540.43 6.01L540.43 6.01L540.43 6.01Q540.32 6.19 540.13 6.59L540.13 6.59L540.13 6.59Q539.95 7 539.71 7.58L539.71 7.58L539.71 7.58Q539.46 8.16 539.17 8.90L539.17 8.90L539.17 8.90Q538.87 9.63 538.55 10.47L538.55 10.47L538.55 10.47Q538.24 11.30 537.95 12.03L537.95 12.03L537.95 12.03Q537.66 12.75 537.42 13.34L537.42 13.34L537.42 13.34Q537.19 13.93 537.05 14.35L537.05 14.35L537.05 14.35Q536.91 14.77 536.91 14.98L536.91 14.98L536.91 14.98Q537.14 14.97 537.32 14.95L537.32 14.95L537.32 14.95Q537.50 14.94 537.70 14.90L537.70 14.90L537.70 14.90Q537.89 14.87 538.13 14.82L538.13 14.82L538.13 14.82Q538.36 14.77 538.68 14.69L538.68 14.69L538.68 14.69Q538.96 14.62 539.20 14.57L539.20 14.57L539.20 14.57Q539.43 14.52 539.66 14.48L539.66 14.48L539.66 14.48Q539.90 14.45 540.14 14.43L540.14 14.43L540.14 14.43Q540.39 14.41 540.69 14.38ZM554.69 14.38L554.69 14.38L554.69 14.38Q555.04 14.98 555.04 15.54L555.04 15.54L555.04 15.54Q555.04 15.67 555.02 15.77L555.02 15.77L555.02 15.77Q555.00 15.88 554.97 15.99L554.97 15.99L554.97 15.99Q554.74 15.96 554.48 15.95L554.48 15.95L554.48 15.95Q554.22 15.93 553.94 15.93L553.94 15.93L553.94 15.93Q553.60 15.93 553.26 15.95L553.26 15.95L553.26 15.95Q552.92 15.97 552.50 16.02L552.50 16.02L552.50 16.02Q552.08 16.06 551.56 16.13L551.56 16.13L551.56 16.13Q551.04 16.20 550.35 16.31L550.35 16.31L550.35 16.31Q550.03 16.20 549.71 15.87L549.71 15.87L549.71 15.87Q549.39 15.54 549.11 15.08L549.11 15.08L549.11 15.08Q549.25 14.77 549.46 14.31L549.46 14.31L549.46 14.31Q549.67 13.86 549.95 13.21L549.95 13.21L549.95 13.21Q550.23 12.56 550.57 11.68L550.57 11.68L550.57 11.68Q550.91 10.81 551.31 9.66L551.31 9.66L551.31 9.66Q551.56 8.90 551.74 8.33L551.74 8.33L551.74 8.33Q551.92 7.76 552.07 7.22L552.07 7.22L552.07 7.22Q552.22 6.68 552.36 6.09L552.36 6.09L552.36 6.09Q552.50 5.50 552.66 4.73L552.66 4.73L552.66 4.73Q553.22 4.84 553.64 5.14L553.64 5.14L553.64 5.14Q554.05 5.45 554.43 6.01L554.43 6.01L554.43 6.01Q554.32 6.19 554.13 6.59L554.13 6.59L554.13 6.59Q553.95 7 553.71 7.58L553.71 7.58L553.71 7.58Q553.46 8.16 553.17 8.90L553.17 8.90L553.17 8.90Q552.87 9.63 552.55 10.47L552.55 10.47L552.55 10.47Q552.24 11.30 551.95 12.03L551.95 12.03L551.95 12.03Q551.66 12.75 551.42 13.34L551.42 13.34L551.42 13.34Q551.19 13.93 551.05 14.35L551.05 14.35L551.05 14.35Q550.91 14.77 550.91 14.98L550.91 14.98L550.91 14.98Q551.14 14.97 551.32 14.95L551.32 14.95L551.32 14.95Q551.50 14.94 551.70 14.90L551.70 14.90L551.70 14.90Q551.89 14.87 552.13 14.82L552.13 14.82L552.13 14.82Q552.36 14.77 552.68 14.69L552.68 14.69L552.68 14.69Q552.96 14.62 553.20 14.57L553.20 14.57L553.20 14.57Q553.43 14.52 553.66 14.48L553.66 14.48L553.66 14.48Q553.90 14.45 554.14 14.43L554.14 14.43L554.14 14.43Q554.39 14.41 554.69 14.38ZM572.24 5.74L572.24 5.74L572.24 5.74Q572.28 5.98 572.30 6.07L572.30 6.07L572.30 6.07Q572.32 6.16 572.32 6.31L572.32 6.31L572.32 6.31Q572.32 6.78 572.12 7.18L572.12 7.18L572.12 7.18Q571.91 7.57 571.56 7.74L571.56 7.74L571.56 7.74Q571.28 7.36 570.88 7.09L570.88 7.09L570.88 7.09Q570.47 6.82 569.99 6.64L569.99 6.64L569.99 6.64Q569.51 6.47 568.99 6.38L568.99 6.38L568.99 6.38Q568.47 6.30 567.98 6.30L567.98 6.30L567.98 6.30Q567.49 6.30 567.06 6.38L567.06 6.38L567.06 6.38Q566.64 6.45 566.31 6.59L566.31 6.59L566.31 6.59Q565.98 6.72 565.79 6.92L565.79 6.92L565.79 6.92Q565.60 7.11 565.60 7.36L565.60 7.36L565.60 7.36Q565.64 7.67 565.98 7.99L565.98 7.99L565.98 7.99Q566.31 8.30 566.80 8.60L566.80 8.60L566.80 8.60Q567.29 8.90 567.89 9.20L567.89 9.20L567.89 9.20Q568.48 9.49 569.06 9.76L569.06 9.76L569.06 9.76Q569.77 10.09 570.29 10.38L570.29 10.38L570.29 10.38Q570.81 10.67 571.14 11.01L571.14 11.01L571.14 11.01Q571.48 11.35 571.65 11.79L571.65 11.79L571.65 11.79Q571.82 12.22 571.82 12.84L571.82 12.84L571.82 12.84Q571.82 13.55 571.58 14.18L571.58 14.18L571.58 14.18Q571.34 14.80 570.88 15.26L570.88 15.26L570.88 15.26Q570.43 15.72 569.79 15.98L569.79 15.98L569.79 15.98Q569.14 16.24 568.34 16.24L568.34 16.24L568.34 16.24Q567.56 16.24 566.65 16.00L566.65 16.00L566.65 16.00Q565.74 15.76 564.95 15.35L564.95 15.35L564.95 15.35Q564.16 14.94 563.63 14.40L563.63 14.40L563.63 14.40Q563.11 13.86 563.11 13.26L563.11 13.26L563.11 13.26Q563.11 12.98 563.27 12.54L563.27 12.54L563.27 12.54Q563.43 12.11 563.85 11.63L563.85 11.63L563.85 11.63Q563.89 12.05 564.30 12.63L564.30 12.63L564.30 12.63Q564.72 13.20 565.54 13.69L565.54 13.69L565.54 13.69Q566.31 14.14 567.13 14.34L567.13 14.34L567.13 14.34Q567.95 14.55 568.67 14.55L568.67 14.55L568.67 14.55Q569.45 14.55 569.94 14.35L569.94 14.35L569.94 14.35Q570.43 14.15 570.71 13.88L570.71 13.88L570.71 13.88Q570.99 13.61 571.10 13.33L571.10 13.33L571.10 13.33Q571.21 13.05 571.23 12.88L571.23 12.88L571.23 12.88Q571.21 12.60 570.97 12.34L570.97 12.34L570.97 12.34Q570.72 12.08 570.31 11.84L570.31 11.84L570.31 11.84Q569.90 11.59 569.35 11.34L569.35 11.34L569.35 11.34Q568.81 11.09 568.22 10.84L568.22 10.84L568.22 10.84Q567.34 10.44 566.70 10.10L566.70 10.10L566.70 10.10Q566.06 9.76 565.65 9.40L565.65 9.40L565.65 9.40Q565.24 9.04 565.05 8.65L565.05 8.65L565.05 8.65Q564.86 8.26 564.86 7.76L564.86 7.76L564.86 7.76Q564.86 6.97 565.33 6.27L565.33 6.27L565.33 6.27Q565.81 5.57 566.71 5.21L566.71 5.21L566.71 5.21Q567.15 5.01 567.66 4.93L567.66 4.93L567.66 4.93Q568.18 4.84 568.67 4.84L568.67 4.84L568.67 4.84Q569.59 4.84 570.47 5.10L570.47 5.10L570.47 5.10Q571.35 5.35 572.24 5.74ZM585.40 14.36L585.40 14.36L585.40 14.36Q585.40 13.78 585.59 12.85L585.59 12.85L585.59 12.85Q585.79 11.93 586.11 10.88L586.11 10.88L586.11 10.88Q585.19 10.95 584.25 11.06L584.25 11.06L584.25 11.06Q583.32 11.17 582.64 11.19L582.64 11.19L582.64 11.19Q582.01 12.66 581.64 13.89L581.64 13.89L581.64 13.89Q581.27 15.13 581.06 16.31L581.06 16.31L581.06 16.31Q580.52 16.18 580.17 15.87L580.17 15.87L580.17 15.87Q579.82 15.55 579.53 15.08L579.53 15.08L579.53 15.08Q579.64 14.85 579.79 14.50L579.79 14.50L579.79 14.50Q579.94 14.15 580.14 13.66L580.14 13.66L580.14 13.66Q580.34 13.16 580.60 12.50L580.60 12.50L580.60 12.50Q580.86 11.83 581.20 10.95L581.20 10.95L581.20 10.95Q580.73 10.75 580.58 10.40L580.58 10.40L580.58 10.40Q580.65 10.35 580.89 10.28L580.89 10.28L580.89 10.28Q581.14 10.22 581.50 10.15L581.50 10.15L581.69 9.70L581.69 9.70Q581.98 8.95 582.17 8.43L582.17 8.43L582.17 8.43Q582.36 7.91 582.49 7.41L582.49 7.41L582.49 7.41Q582.62 6.92 582.74 6.31L582.74 6.31L582.74 6.31Q582.86 5.71 583.03 4.79L583.03 4.79L583.03 4.79Q583.62 4.90 584.10 5.31L584.10 5.31L584.10 5.31Q584.58 5.71 584.93 6.29L584.93 6.29L584.93 6.29Q584.81 6.45 584.63 6.79L584.63 6.79L584.63 6.79Q584.44 7.13 584.23 7.59L584.23 7.59L584.23 7.59Q584.01 8.06 583.76 8.64L583.76 8.64L583.76 8.64Q583.51 9.23 583.21 9.87L583.21 9.87L583.21 9.87Q584.08 9.76 584.97 9.66L584.97 9.66L584.97 9.66Q585.86 9.56 586.54 9.52L586.54 9.52L586.54 9.52Q586.80 8.79 587.07 8.10L587.07 8.10L587.07 8.10Q587.34 7.41 587.61 6.83L587.61 6.83L587.61 6.83Q587.87 6.26 588.12 5.82L588.12 5.82L588.12 5.82Q588.36 5.39 588.56 5.18L588.56 5.18L588.56 5.18Q588.70 5.19 588.93 5.29L588.93 5.29L588.93 5.29Q589.16 5.38 589.40 5.50L589.40 5.50L589.40 5.50Q589.64 5.63 589.83 5.78L589.83 5.78L589.83 5.78Q590.03 5.92 590.10 6.05L590.10 6.05L590.10 6.05Q589.85 6.29 589.60 6.66L589.60 6.66L589.60 6.66Q589.34 7.04 589.10 7.53L589.10 7.53L589.10 7.53Q588.85 8.02 588.62 8.60L588.62 8.60L588.62 8.60Q588.38 9.17 588.17 9.79L588.17 9.79L588.17 9.79Q588.45 10.04 588.45 10.42L588.45 10.42L588.45 10.42Q588.45 10.68 588.34 10.91L588.34 10.91L588.34 10.91Q588.21 10.88 588.08 10.87L588.08 10.87L588.08 10.87Q587.96 10.86 587.82 10.85L587.82 10.85L587.82 10.85Q587.58 11.61 587.38 12.35L587.38 12.35L587.38 12.35Q587.19 13.09 587.05 13.76L587.05 13.76L587.05 13.76Q586.92 14.43 586.84 14.99L586.84 14.99L586.84 14.99Q586.77 15.55 586.77 15.93L586.77 15.93L586.77 15.93Q586.77 16.07 586.77 16.16L586.77 16.16L586.77 16.16Q586.78 16.24 586.80 16.30L586.80 16.30L586.80 16.30Q586.49 16.28 586.35 16.19L586.35 16.19L586.35 16.19Q586.21 16.10 586.14 16.00L586.14 16.00L586.14 16.00Q586.07 15.89 586.01 15.79L586.01 15.79L586.01 15.79Q585.96 15.68 585.83 15.62L585.83 15.62L585.83 15.62Q585.73 15.58 585.65 15.43L585.65 15.43L585.65 15.43Q585.56 15.27 585.51 15.08L585.51 15.08L585.51 15.08Q585.45 14.88 585.42 14.69L585.42 14.69L585.42 14.69Q585.40 14.49 585.40 14.36ZM596.81 14.38L596.81 14.38L596.81 14.38Q596.81 13.87 596.97 13.07L596.97 13.07L596.97 13.07Q597.13 12.26 597.39 11.33L597.39 11.33L597.39 11.33Q597.65 10.40 597.98 9.43L597.98 9.43L597.98 9.43Q598.32 8.46 598.67 7.60L598.67 7.60L598.67 7.60Q599.02 6.75 599.35 6.10L599.35 6.10L599.35 6.10Q599.69 5.46 599.96 5.18L599.96 5.18L599.96 5.18Q600.10 5.19 600.33 5.29L600.33 5.29L600.33 5.29Q600.56 5.38 600.80 5.50L600.80 5.50L600.80 5.50Q601.03 5.63 601.23 5.78L601.23 5.78L601.23 5.78Q601.43 5.92 601.48 6.05L601.48 6.05L601.48 6.05Q601.08 6.41 600.68 7.15L600.68 7.15L600.68 7.15Q600.28 7.88 599.91 8.82L599.91 8.82L599.91 8.82Q599.54 9.76 599.21 10.80L599.21 10.80L599.21 10.80Q598.89 11.84 598.65 12.82L598.65 12.82L598.65 12.82Q598.42 13.80 598.28 14.64L598.28 14.64L598.28 14.64Q598.15 15.48 598.15 16.00L598.15 16.00L598.15 16.00Q598.15 16.24 598.19 16.30L598.19 16.30L598.19 16.30Q597.88 16.28 597.74 16.19L597.74 16.19L597.74 16.19Q597.60 16.10 597.53 16.00L597.53 16.00L597.53 16.00Q597.45 15.89 597.39 15.79L597.39 15.79L597.39 15.79Q597.32 15.68 597.20 15.62L597.20 15.62L597.20 15.62Q597.10 15.58 597.03 15.43L597.03 15.43L597.03 15.43Q596.96 15.27 596.91 15.09L596.91 15.09L596.91 15.09Q596.86 14.90 596.83 14.70L596.83 14.70L596.83 14.70Q596.81 14.50 596.81 14.38ZM610.57 6.69L610.57 6.69L610.57 6.69Q610.01 6.69 609.71 6.38L609.71 6.38L609.71 6.38Q609.41 6.06 609.41 5.61L609.41 5.61L609.41 5.61Q609.41 5.50 609.44 5.35L609.44 5.35L609.44 5.35Q609.48 5.19 609.53 5.08L609.53 5.08L609.53 5.08Q609.71 5.17 610.07 5.20L610.07 5.20L610.07 5.20Q610.43 5.24 610.90 5.24L610.90 5.24L610.90 5.24Q611.62 5.24 612.52 5.17L612.52 5.17L612.52 5.17Q613.42 5.11 614.25 5.04L614.25 5.04L614.25 5.04Q615.08 4.97 615.71 4.91L615.71 4.91L615.71 4.91Q616.34 4.84 616.52 4.84L616.52 4.84L616.52 4.84Q617.04 4.84 617.27 5.23L617.27 5.23L617.27 5.23Q617.50 5.61 617.61 6.26L617.61 6.26L617.61 6.26Q617.25 6.23 616.89 6.21L616.89 6.21L616.89 6.21Q616.53 6.19 616.28 6.19L616.28 6.19L616.28 6.19Q615.83 6.19 615.38 6.22L615.38 6.22L615.38 6.22Q614.92 6.24 614.46 6.30L614.46 6.30L614.46 6.30Q614.26 6.71 614.03 7.26L614.03 7.26L614.03 7.26Q613.79 7.81 613.56 8.41L613.56 8.41L613.56 8.41Q613.33 9.02 613.12 9.61L613.12 9.61L613.12 9.61Q612.91 10.21 612.75 10.68L612.75 10.68L612.75 10.68Q612.44 11.61 612.21 12.39L612.21 12.39L612.21 12.39Q611.98 13.17 611.81 13.85L611.81 13.85L611.81 13.85Q611.63 14.53 611.51 15.15L611.51 15.15L611.51 15.15Q611.38 15.76 611.28 16.35L611.28 16.35L611.28 16.35Q610.34 16.21 609.71 15.18L609.71 15.18L609.71 15.18Q609.83 14.74 609.99 14.23L609.99 14.23L609.99 14.23Q610.15 13.72 610.36 13.07L610.36 13.07L610.36 13.07Q610.58 12.42 610.88 11.59L610.88 11.59L610.88 11.59Q611.17 10.77 611.55 9.72L611.55 9.72L611.55 9.72Q611.69 9.32 611.84 8.90L611.84 8.90L611.84 8.90Q612.00 8.47 612.14 8.05L612.14 8.05L612.14 8.05Q612.29 7.63 612.41 7.24L612.41 7.24L612.41 7.24Q612.53 6.85 612.61 6.52L612.61 6.52L612.61 6.52Q612.02 6.59 611.50 6.64L611.50 6.64L611.50 6.64Q610.97 6.69 610.57 6.69ZM622.62 15.71L622.62 15.71L622.62 15.71Q622.40 15.68 622.15 15.52L622.15 15.52L622.15 15.52Q621.91 15.36 621.84 15.16L621.84 15.16L621.84 15.16Q621.84 14.99 621.89 14.73L621.89 14.73L621.89 14.73Q621.94 14.46 622.01 14.19L622.01 14.19L622.01 14.19Q622.08 13.92 622.15 13.67L622.15 13.67L622.15 13.67Q622.22 13.43 622.24 13.30L622.24 13.30L622.24 13.30Q622.41 13.30 622.67 13.38L622.67 13.38L622.67 13.38Q622.93 13.47 623.20 13.62L623.20 13.62L623.20 13.62Q623.48 13.76 623.72 13.95L623.72 13.95L623.72 13.95Q623.97 14.14 624.09 14.34L624.09 14.34L624.09 14.34Q623.97 14.62 623.77 14.87L623.77 14.87L623.77 14.87Q623.57 15.12 623.36 15.31L623.36 15.31L623.36 15.31Q623.14 15.50 622.94 15.60L622.94 15.60L622.94 15.60Q622.75 15.71 622.62 15.71Z"></path></g></svg>