<svg data-v-423bf9ae="" xmlns="http://www.w3.org/2000/svg" viewBox="0 0 184.2373957166007 60" class="font"><!----><!----><!----><g data-v-423bf9ae="" id="3d30351a-0cef-4472-8435-7e6e251c4c85" fill="black" transform="matrix(1.2763241283445546,0,0,1.2763241283445546,2.618168366552709e-7,12.546266084251169)"><path d="M10.28 13.73L10.28 13.87L10.28 13.87Q9.91 13.79 9.52 13.78L9.52 13.78L9.52 13.78Q9.13 13.76 8.76 13.79L8.76 13.79L8.76 13.79Q8.40 13.82 8.09 13.87L8.09 13.87L8.09 13.87Q7.77 13.93 7.56 14L7.56 14L7.56 14Q7.59 13.75 7.62 13.41L7.62 13.41L7.62 13.41Q7.64 13.13 7.66 12.73L7.66 12.73L7.66 12.73Q7.67 12.32 7.69 11.83L7.69 11.83L7.69 11.83Q7.52 12.12 7.22 12.49L7.22 12.49L7.22 12.49Q6.93 12.87 6.48 13.20L6.48 13.20L6.48 13.20Q6.03 13.54 5.44 13.77L5.44 13.77L5.44 13.77Q4.84 14 4.07 14L4.07 14L4.07 14Q2.83 14 2.23 13.52L2.23 13.52L2.23 13.52Q1.64 13.03 1.42 12.07L1.42 12.07L1.42 12.07Q1.20 11.12 1.23 9.67L1.23 9.67L1.23 9.67Q1.26 8.23 1.26 6.31L1.26 6.31L1.26 6.31Q1.26 5.01 1.20 3.92L1.20 3.92L1.20 3.92Q1.15 2.83 1.08 2.02L1.08 2.02L1.08 2.02Q1.01 1.06 0.91 0.29L0.91 0.29L0.04 0.17L0 0.01L0 0.01Q0.24 0.06 0.53 0.10L0.53 0.10L0.53 0.10Q0.78 0.13 1.14 0.15L1.14 0.15L1.14 0.15Q1.50 0.17 1.95 0.17L1.95 0.17L1.95 0.17Q2.41 0.17 2.74 0.15L2.74 0.15L2.74 0.15Q3.08 0.13 3.30 0.10L3.30 0.10L3.30 0.10Q3.56 0.06 3.75 0.01L3.75 0.01L3.75 0.17L3.00 0.29L3.00 0.29Q2.86 1.40 2.76 2.55L2.76 2.55L2.76 2.55Q2.72 3.04 2.67 3.58L2.67 3.58L2.67 3.58Q2.63 4.12 2.60 4.67L2.60 4.67L2.60 4.67Q2.58 5.22 2.56 5.77L2.56 5.77L2.56 5.77Q2.53 6.31 2.53 6.82L2.53 6.82L2.53 6.82Q2.53 7.59 2.53 8.32L2.53 8.32L2.53 8.32Q2.52 9.06 2.58 9.72L2.58 9.72L2.58 9.72Q2.65 10.37 2.81 10.93L2.81 10.93L2.81 10.93Q2.98 11.48 3.32 11.89L3.32 11.89L3.32 11.89Q3.65 12.29 4.20 12.52L4.20 12.52L4.20 12.52Q4.75 12.74 5.57 12.74L5.57 12.74L5.57 12.74Q6.13 12.74 6.50 12.59L6.50 12.59L6.50 12.59Q6.86 12.45 7.10 12.20L7.10 12.20L7.10 12.20Q7.34 11.96 7.48 11.65L7.48 11.65L7.48 11.65Q7.63 11.34 7.74 11.02L7.74 11.02L7.74 11.02Q7.81 9.79 7.86 8.31L7.86 8.31L7.86 8.31Q7.91 6.83 7.91 5.40L7.91 5.40L7.91 5.40Q7.91 3.92 7.84 2.94L7.84 2.94L7.84 2.94Q7.77 1.96 7.69 1.37L7.69 1.37L7.69 1.37Q7.59 0.69 7.48 0.29L7.48 0.29L6.43 0.17L6.43 0.01L6.43 0.01Q6.66 0.06 6.93 0.10L6.93 0.10L6.93 0.10Q7.17 0.13 7.48 0.15L7.48 0.15L7.48 0.15Q7.80 0.17 8.16 0.17L8.16 0.17L8.16 0.17Q8.65 0.17 8.98 0.15L8.98 0.15L8.98 0.15Q9.31 0.13 9.51 0.10L9.51 0.10L9.51 0.10Q9.74 0.06 9.87 0.01L9.87 0.01L9.87 0.17L9.46 0.29L9.46 0.29Q9.34 1.13 9.25 2.24L9.25 2.24L9.25 2.24Q9.17 3.19 9.11 4.56L9.11 4.56L9.11 4.56Q9.04 5.92 9.04 7.67L9.04 7.67L9.04 7.67Q9.04 8.72 9.04 9.68L9.04 9.68L9.04 9.68Q9.03 10.64 9.06 11.42L9.06 11.42L9.06 11.42Q9.09 12.21 9.17 12.77L9.17 12.77L9.17 12.77Q9.25 13.33 9.42 13.57L9.42 13.57L10.28 13.73ZM14.25 10.86L14.25 10.86L14.25 10.86Q13.99 10.86 13.60 10.81L13.60 10.81L13.60 10.81Q13.22 10.75 12.86 10.58L12.86 10.58L12.86 10.58Q12.50 10.40 12.25 10.08L12.25 10.08L12.25 10.08Q12.00 9.76 12.00 9.23L12.00 9.23L12.00 9.23Q12.00 8.81 12.21 8.48L12.21 8.48L12.21 8.48Q12.43 8.15 12.77 7.90L12.77 7.90L12.77 7.90Q13.10 7.64 13.52 7.48L13.52 7.48L13.52 7.48Q13.94 7.31 14.34 7.20L14.34 7.20L14.34 7.20Q14.73 7.08 15.06 7.04L15.06 7.04L15.06 7.04Q15.39 6.99 15.55 6.99L15.55 6.99L15.55 6.99Q15.68 6.99 15.87 6.99L15.87 6.99L15.87 6.99Q16.06 7 16.25 7.02L16.25 7.02L16.25 7.02Q16.44 7.04 16.61 7.06L16.61 7.06L16.61 7.06Q16.79 7.08 16.87 7.13L16.87 7.13L16.87 7.13Q16.81 7.31 16.75 7.54L16.75 7.54L16.75 7.54Q16.69 7.77 16.63 8.02L16.63 8.02L16.63 8.02Q16.58 8.26 16.54 8.50L16.54 8.50L16.54 8.50Q16.51 8.75 16.51 8.96L16.51 8.96L16.51 8.96Q16.41 8.75 16.24 8.50L16.24 8.50L16.24 8.50Q16.07 8.26 15.84 8.04L15.84 8.04L15.84 8.04Q15.61 7.83 15.32 7.69L15.32 7.69L15.32 7.69Q15.02 7.55 14.67 7.55L14.67 7.55L14.67 7.55Q14.41 7.55 14.20 7.63L14.20 7.63L14.20 7.63Q14 7.71 13.85 7.85L13.85 7.85L13.85 7.85Q13.71 7.99 13.63 8.16L13.63 8.16L13.63 8.16Q13.55 8.32 13.55 8.47L13.55 8.47L13.55 8.47Q13.55 8.79 13.71 9.04L13.71 9.04L13.71 9.04Q13.86 9.28 14.11 9.45L14.11 9.45L14.11 9.45Q14.36 9.62 14.69 9.70L14.69 9.70L14.69 9.70Q15.02 9.79 15.37 9.79L15.37 9.79L15.37 9.79Q15.95 9.79 16.36 9.90L16.36 9.90L16.36 9.90Q16.77 10.01 17.03 10.19L17.03 10.19L17.03 10.19Q17.29 10.37 17.41 10.61L17.41 10.61L17.41 10.61Q17.53 10.84 17.53 11.06L17.53 11.06L17.53 11.06Q17.53 11.80 17.12 12.36L17.12 12.36L17.12 12.36Q16.70 12.91 16.11 13.27L16.11 13.27L16.11 13.27Q15.51 13.64 14.86 13.82L14.86 13.82L14.86 13.82Q14.21 14 13.73 14L13.73 14L13.73 14Q13.02 14 12.46 13.82L12.46 13.82L12.46 13.82Q11.90 13.64 11.68 13.44L11.68 13.44L11.68 13.44Q11.83 13.20 11.94 12.77L11.94 12.77L11.94 12.77Q12.05 12.33 12.10 11.76L12.10 11.76L12.10 11.76Q12.28 12.11 12.59 12.40L12.59 12.40L12.59 12.40Q12.89 12.68 13.27 12.88L13.27 12.88L13.27 12.88Q13.65 13.08 14.08 13.19L14.08 13.19L14.08 13.19Q14.50 13.30 14.95 13.30L14.95 13.30L14.95 13.30Q15.11 13.30 15.30 13.26L15.30 13.26L15.30 13.26Q15.50 13.22 15.67 13.12L15.67 13.12L15.67 13.12Q15.83 13.02 15.95 12.85L15.95 12.85L15.95 12.85Q16.07 12.68 16.07 12.42L16.07 12.42L16.07 12.42Q16.07 12.17 15.95 11.89L15.95 11.89L15.95 11.89Q15.82 11.62 15.58 11.39L15.58 11.39L15.58 11.39Q15.34 11.16 15.01 11.01L15.01 11.01L15.01 11.01Q14.67 10.86 14.25 10.86ZM23.84 12.49L23.84 12.49L23.84 12.49Q24.25 12.49 24.61 12.38L24.61 12.38L24.61 12.38Q24.96 12.28 25.23 12.14L25.23 12.14L25.23 12.14Q25.54 11.98 25.80 11.79L25.80 11.79L25.80 11.79Q25.42 12.42 24.89 12.91L24.89 12.91L24.89 12.91Q24.44 13.33 23.77 13.67L23.77 13.67L23.77 13.67Q23.09 14.01 22.19 14.01L22.19 14.01L22.19 14.01Q21.55 14.01 20.96 13.79L20.96 13.79L20.96 13.79Q20.37 13.57 19.91 13.15L19.91 13.15L19.91 13.15Q19.46 12.73 19.19 12.12L19.19 12.12L19.19 12.12Q18.93 11.51 18.93 10.75L18.93 10.75L18.93 10.75Q18.93 10.07 19.14 9.54L19.14 9.54L19.14 9.54Q19.36 9.02 19.71 8.62L19.71 8.62L19.71 8.62Q20.06 8.23 20.50 7.97L20.50 7.97L20.50 7.97Q20.93 7.71 21.35 7.55L21.35 7.55L21.35 7.55Q22.69 7 23.18 7L23.18 7L23.18 7Q23.70 7 24.09 7.17L24.09 7.17L24.09 7.17Q24.47 7.35 24.75 7.56L24.75 7.56L24.75 7.56Q25.06 7.81 25.30 8.12L25.30 8.12L20.68 9.98L20.68 9.98Q20.78 10.57 20.96 11.03L20.96 11.03L20.96 11.03Q21.14 11.49 21.49 11.82L21.49 11.82L21.49 11.82Q21.84 12.14 22.40 12.31L22.40 12.31L22.40 12.31Q22.96 12.49 23.84 12.49ZM21.57 7.81L21.57 7.81L21.57 7.81Q21.38 7.81 21.20 7.92L21.20 7.92L21.20 7.92Q21.01 8.02 20.87 8.19L20.87 8.19L20.87 8.19Q20.72 8.36 20.64 8.57L20.64 8.57L20.64 8.57Q20.57 8.78 20.58 8.99L20.58 8.99L20.58 8.99Q20.58 9.21 20.59 9.42L20.59 9.42L20.59 9.42Q20.59 9.63 20.64 9.84L20.64 9.84L22.99 8.76L22.99 8.76Q22.85 8.50 22.64 8.29L22.64 8.29L22.64 8.29Q22.46 8.11 22.19 7.96L22.19 7.96L22.19 7.96Q21.92 7.81 21.57 7.81ZM47.18 13.87L47.18 13.97L47.18 13.97Q47.01 13.94 46.76 13.90L46.76 13.90L46.76 13.90Q46.55 13.87 46.24 13.85L46.24 13.85L46.24 13.85Q45.93 13.83 45.54 13.83L45.54 13.83L45.54 13.83Q45.14 13.83 44.83 13.85L44.83 13.85L44.83 13.85Q44.52 13.87 44.32 13.90L44.32 13.90L44.32 13.90Q44.09 13.94 43.92 13.97L43.92 13.97L43.92 13.83L44.46 13.75L44.46 13.75Q44.46 12.19 44.44 10.40L44.44 10.40L44.44 10.40Q44.41 8.86 44.35 6.86L44.35 6.86L44.35 6.86Q44.30 4.86 44.20 2.62L44.20 2.62L44.20 2.62Q44.04 3.36 43.79 4.50L43.79 4.50L43.79 4.50Q43.53 5.64 43.13 7.09L43.13 7.09L43.13 7.09Q42.73 8.54 42.19 10.23L42.19 10.23L42.19 10.23Q41.65 11.91 40.95 13.75L40.95 13.75L40.95 13.75Q40.70 13.22 40.42 12.43L40.42 12.43L40.42 12.43Q40.14 11.65 39.84 10.72L39.84 10.72L39.84 10.72Q39.54 9.79 39.24 8.76L39.24 8.76L39.24 8.76Q38.93 7.73 38.65 6.71L38.65 6.71L38.65 6.71Q38.36 5.68 38.08 4.71L38.08 4.71L38.08 4.71Q37.80 3.74 37.56 2.93L37.56 2.93L37.56 2.93Q37.52 3.74 37.51 4.64L37.51 4.64L37.51 4.64Q37.51 5.54 37.52 6.45L37.52 6.45L37.52 6.45Q37.53 7.36 37.56 8.26L37.56 8.26L37.56 8.26Q37.59 9.16 37.62 9.97L37.62 9.97L37.62 9.97Q37.69 11.87 37.81 13.75L37.81 13.75L38.68 13.83L38.68 14.01L38.68 14.01Q38.46 13.97 38.21 13.93L38.21 13.93L38.21 13.93Q38.00 13.90 37.72 13.87L37.72 13.87L37.72 13.87Q37.44 13.83 37.14 13.83L37.14 13.83L37.14 13.83Q36.76 13.83 36.48 13.85L36.48 13.85L36.48 13.85Q36.19 13.87 35.99 13.90L35.99 13.90L35.99 13.90Q35.76 13.94 35.60 13.97L35.60 13.97L35.60 13.83L36.27 13.75L36.27 13.75Q36.43 13.20 36.61 11.79L36.61 11.79L36.61 11.79Q36.69 11.19 36.78 10.33L36.78 10.33L36.78 10.33Q36.86 9.48 36.96 8.32L36.96 8.32L36.96 8.32Q37.06 7.17 37.16 5.69L37.16 5.69L37.16 5.69Q37.25 4.21 37.37 2.34L37.37 2.34L37.37 2.34Q37.04 1.41 36.83 0.85L36.83 0.85L36.83 0.85Q36.61 0.29 36.47 0.25L36.47 0.25L36.47 0.25Q36.16 0.20 36.09 0.15L36.09 0.15L36.09 0.15Q36.04 0.14 36.02 0.13L36.02 0.13L36.02 0L36.02 0Q36.22 0.04 36.43 0.07L36.43 0.07L36.43 0.07Q36.61 0.10 36.82 0.11L36.82 0.11L36.82 0.11Q37.03 0.13 37.23 0.13L37.23 0.13L37.23 0.13Q37.42 0.13 37.69 0.11L37.69 0.11L37.69 0.11Q37.95 0.10 38.19 0.07L38.19 0.07L38.19 0.07Q38.46 0.04 38.74 0L38.74 0L38.74 0Q38.82 0.59 38.98 1.39L38.98 1.39L38.98 1.39Q39.14 2.20 39.36 3.10L39.36 3.10L39.36 3.10Q39.58 4.00 39.82 4.96L39.82 4.96L39.82 4.96Q40.07 5.92 40.31 6.83L40.31 6.83L40.31 6.83Q40.87 8.97 41.54 11.30L41.54 11.30L41.54 11.30Q41.94 9.79 42.39 8.11L42.39 8.11L42.39 8.11Q42.77 6.66 43.23 4.87L43.23 4.87L43.23 4.87Q43.69 3.08 44.14 1.22L44.14 1.22L44.14 1.22Q44.11 0.90 44.10 0.59L44.10 0.59L44.10 0.59Q44.09 0.29 44.04 0L44.04 0L44.04 0Q44.13 0.04 44.28 0.07L44.28 0.07L44.28 0.07Q44.41 0.10 44.61 0.11L44.61 0.11L44.61 0.11Q44.81 0.13 45.09 0.13L45.09 0.13L45.09 0.13Q45.43 0.13 45.72 0.11L45.72 0.11L45.72 0.11Q46.00 0.10 46.20 0.07L46.20 0.07L46.20 0.07Q46.44 0.04 46.63 0L46.63 0L46.63 0.13L45.96 0.25L45.96 0.25Q45.88 0.94 45.86 1.88L45.86 1.88L45.86 1.88Q45.85 2.83 45.88 3.91L45.88 3.91L45.88 3.91Q45.91 4.98 45.97 6.13L45.97 6.13L45.97 6.13Q46.03 7.28 46.10 8.37L46.10 8.37L46.10 8.37Q46.27 10.93 46.55 13.75L46.55 13.75L47.18 13.87ZM54.29 7.87L54.29 7.87L54.29 7.87Q54.89 7.69 55.45 7.53L55.45 7.53L55.45 7.53Q55.93 7.39 56.44 7.25L56.44 7.25L56.44 7.25Q56.95 7.11 57.30 7.03L57.30 7.03L57.30 7.03Q57.04 8.18 56.49 9.31L56.49 9.31L56.49 9.31Q55.94 10.44 55.22 11.52L55.22 11.52L55.22 11.52Q54.49 12.59 53.63 13.57L53.63 13.57L53.63 13.57Q52.77 14.56 51.84 15.42L51.84 15.42L51.84 15.42Q50.92 16.28 49.99 17.00L49.99 17.00L49.99 17.00Q49.07 17.71 48.22 18.24L48.22 18.24L48.22 18.24Q47.74 18.54 47.17 18.87L47.17 18.87L47.17 18.87Q46.61 19.19 46.04 19.55L46.04 19.55L46.04 19.55Q45.47 19.91 44.94 20.30L44.94 20.30L44.94 20.30Q44.41 20.69 44.00 21.13L44.00 21.13L44.00 21.13Q43.60 21.56 43.35 22.05L43.35 22.05L43.35 22.05Q43.11 22.54 43.11 23.07L43.11 23.07L43.11 23.07Q43.11 23.55 43.39 23.98L43.39 23.98L43.39 23.98Q43.67 24.42 44.14 24.79L44.14 24.79L44.14 24.79Q44.60 25.16 45.24 25.46L45.24 25.46L45.24 25.46Q45.88 25.76 46.59 25.97L46.59 25.97L46.59 25.97Q47.29 26.18 48.05 26.29L48.05 26.29L48.05 26.29Q48.80 26.40 49.52 26.40L49.52 26.40L49.52 26.40Q50.92 26.40 51.96 26.17L51.96 26.17L51.96 26.17Q53.00 25.94 53.76 25.56L53.76 25.56L53.76 25.56Q54.52 25.19 55.01 24.70L55.01 24.70L55.01 24.70Q55.50 24.21 55.80 23.70L55.80 23.70L55.80 23.70Q56.52 22.53 56.49 21L56.49 21L56.49 21Q56.53 22.57 55.83 23.79L55.83 23.79L55.83 23.79Q55.54 24.32 55.04 24.81L55.04 24.81L55.04 24.81Q54.54 25.31 53.79 25.70L53.79 25.70L53.79 25.70Q53.03 26.10 51.98 26.33L51.98 26.33L51.98 26.33Q50.93 26.57 49.52 26.57L49.52 26.57L49.52 26.57Q48.80 26.57 48.01 26.45L48.01 26.45L48.01 26.45Q47.22 26.32 46.45 26.10L46.45 26.10L46.45 26.10Q45.67 25.87 44.97 25.55L44.97 25.55L44.97 25.55Q44.27 25.23 43.73 24.84L43.73 24.84L43.73 24.84Q43.19 24.44 42.88 24.00L42.88 24.00L42.88 24.00Q42.56 23.56 42.56 23.07L42.56 23.07L42.56 23.07Q42.56 22.27 43.02 21.63L43.02 21.63L43.02 21.63Q43.48 20.99 44.24 20.41L44.24 20.41L44.24 20.41Q45.00 19.82 45.95 19.26L45.95 19.26L45.95 19.26Q46.90 18.69 47.88 18.06L47.88 18.06L47.88 18.06Q48.51 17.64 49.06 17.22L49.06 17.22L49.06 17.22Q49.60 16.80 50.13 16.31L50.13 16.31L50.13 16.31Q50.67 15.82 51.22 15.23L51.22 15.23L51.22 15.23Q51.77 14.64 52.42 13.89L52.42 13.89L52.42 13.89Q52.15 13.36 51.83 12.73L51.83 12.73L51.83 12.73Q51.51 12.10 51.16 11.45L51.16 11.45L51.16 11.45Q50.82 10.81 50.47 10.20L50.47 10.20L50.47 10.20Q50.12 9.59 49.81 9.12L49.81 9.12L49.81 9.12Q49.50 8.65 49.25 8.37L49.25 8.37L49.25 8.37Q49.00 8.09 48.86 8.09L48.86 8.09L48.86 8.09Q48.76 8.09 48.68 8.10L48.68 8.10L48.68 8.10Q48.59 8.11 48.52 8.11L48.52 8.11L48.52 8.11Q48.44 8.12 48.36 8.12L48.36 8.12L48.36 8.12Q48.50 7.87 48.76 7.67L48.76 7.67L48.76 7.67Q49.03 7.46 49.32 7.31L49.32 7.31L49.32 7.31Q49.62 7.17 49.89 7.08L49.89 7.08L49.89 7.08Q50.16 7 50.30 7L50.30 7L50.30 7Q50.61 7 51.45 8.36L51.45 8.36L51.45 8.36Q52.29 9.72 53.59 12.25L53.59 12.25L53.59 12.25Q54.12 11.44 54.50 10.70L54.50 10.70L54.50 10.70Q54.88 9.95 55.06 9.38L55.06 9.38L55.06 9.38Q55.24 8.81 55.22 8.43L55.22 8.43L55.22 8.43Q55.20 8.06 54.94 7.98L54.94 7.98L54.94 7.98Q54.82 7.95 54.71 7.93L54.71 7.93L54.71 7.93Q54.60 7.91 54.50 7.90L54.50 7.90L54.50 7.90Q54.39 7.88 54.29 7.87ZM70.17 5.88L70.17 5.88L70.17 5.88Q70.17 4.84 70.13 4.05L70.13 4.05L70.13 4.05Q70.10 3.25 70.06 2.70L70.06 2.70L70.06 2.70Q70 2.06 69.94 1.58L69.94 1.58L69.94 1.58Q69.06 1.58 68.50 1.60L68.50 1.60L68.50 1.60Q67.94 1.62 67.58 1.74L67.58 1.74L67.58 1.74Q67.21 1.85 66.98 2.09L66.98 2.09L66.98 2.09Q66.75 2.34 66.53 2.80L66.53 2.80L66.44 2.77L66.44 2.77Q66.68 2.38 66.86 1.89L66.86 1.89L66.86 1.89Q67.05 1.40 67.16 0.97L67.16 0.97L67.16 0.97Q67.30 0.46 67.40-0.06L67.40-0.06L67.55-0.01L67.51 0.21L67.51 0.21Q69.44 0.21 70.85 0.28L70.85 0.28L70.85 0.28Q72.25 0.35 73.19 0.37L73.19 0.37L73.19 0.37Q74.13 0.39 74.63 0.31L74.63 0.31L74.63 0.31Q75.12 0.24 75.25-0.06L75.25-0.06L75.33-0.01L75.33-0.01Q75.17 0.25 75.01 0.63L75.01 0.63L75.01 0.63Q74.87 0.95 74.72 1.45L74.72 1.45L74.72 1.45Q74.56 1.95 74.42 2.63L74.42 2.63L74.33 2.63L74.33 2.63Q74.38 2.32 74.33 2.11L74.33 2.11L74.33 2.11Q74.28 1.89 74.01 1.76L74.01 1.76L74.01 1.76Q73.74 1.64 73.19 1.59L73.19 1.59L73.19 1.59Q72.63 1.54 71.67 1.58L71.67 1.58L71.67 1.58Q71.64 2.21 71.61 2.95L71.61 2.95L71.61 2.95Q71.58 3.58 71.58 4.40L71.58 4.40L71.58 4.40Q71.57 5.21 71.57 6.09L71.57 6.09L71.57 6.09Q71.57 7.63 71.64 9.02L71.64 9.02L71.64 9.02Q71.71 10.40 71.79 11.45L71.79 11.45L71.79 11.45Q71.89 12.68 72.03 13.75L72.03 13.75L72.94 13.87L72.98 14.01L72.98 14.01Q72.76 14 72.48 13.97L72.48 13.97L72.48 13.97Q72.24 13.96 71.90 13.94L71.90 13.94L71.90 13.94Q71.57 13.93 71.16 13.93L71.16 13.93L71.16 13.93Q70.63 13.93 70.22 13.94L70.22 13.94L70.22 13.94Q69.82 13.96 69.54 13.97L69.54 13.97L69.54 13.97Q69.22 14 68.98 14.01L68.98 14.01L68.98 13.93L69.94 13.75L69.94 13.75Q70 12.87 70.06 11.69L70.06 11.69L70.06 11.69Q70.10 10.68 70.13 9.23L70.13 9.23L70.13 9.23Q70.17 7.77 70.17 5.88ZM78.85 12.49L78.85 12.49L78.85 12.49Q79.25 12.49 79.61 12.38L79.61 12.38L79.61 12.38Q79.97 12.28 80.23 12.14L80.23 12.14L80.23 12.14Q80.54 11.98 80.81 11.79L80.81 11.79L80.81 11.79Q80.43 12.42 79.90 12.91L79.90 12.91L79.90 12.91Q79.45 13.33 78.77 13.67L78.77 13.67L78.77 13.67Q78.09 14.01 77.20 14.01L77.20 14.01L77.20 14.01Q76.55 14.01 75.96 13.79L75.96 13.79L75.96 13.79Q75.38 13.57 74.92 13.15L74.92 13.15L74.92 13.15Q74.47 12.73 74.20 12.12L74.20 12.12L74.20 12.12Q73.93 11.51 73.93 10.75L73.93 10.75L73.93 10.75Q73.93 10.07 74.15 9.54L74.15 9.54L74.15 9.54Q74.37 9.02 74.72 8.62L74.72 8.62L74.72 8.62Q75.07 8.23 75.50 7.97L75.50 7.97L75.50 7.97Q75.94 7.71 76.36 7.55L76.36 7.55L76.36 7.55Q77.70 7 78.19 7L78.19 7L78.19 7Q78.71 7 79.09 7.17L79.09 7.17L79.09 7.17Q79.48 7.35 79.76 7.56L79.76 7.56L79.76 7.56Q80.07 7.81 80.30 8.12L80.30 8.12L75.68 9.98L75.68 9.98Q75.78 10.57 75.96 11.03L75.96 11.03L75.96 11.03Q76.15 11.49 76.50 11.82L76.50 11.82L76.50 11.82Q76.85 12.14 77.41 12.31L77.41 12.31L77.41 12.31Q77.97 12.49 78.85 12.49ZM76.58 7.81L76.58 7.81L76.58 7.81Q76.38 7.81 76.20 7.92L76.20 7.92L76.20 7.92Q76.02 8.02 75.87 8.19L75.87 8.19L75.87 8.19Q75.73 8.36 75.65 8.57L75.65 8.57L75.65 8.57Q75.57 8.78 75.59 8.99L75.59 8.99L75.59 8.99Q75.59 9.21 75.59 9.42L75.59 9.42L75.59 9.42Q75.60 9.63 75.64 9.84L75.64 9.84L77.99 8.76L77.99 8.76Q77.85 8.50 77.64 8.29L77.64 8.29L77.64 8.29Q77.46 8.11 77.20 7.96L77.20 7.96L77.20 7.96Q76.93 7.81 76.58 7.81ZM86.02 7L86.02 7L86.02 7Q86.18 7.20 86.48 7.39L86.48 7.39L86.48 7.39Q86.77 7.59 87.09 7.75L87.09 7.75L87.09 7.75Q87.42 7.91 87.73 8.02L87.73 8.02L87.73 8.02Q88.05 8.12 88.28 8.12L88.28 8.12L88.28 8.12Q88.07 8.26 87.81 8.41L87.81 8.41L87.81 8.41Q87.56 8.55 87.33 8.69L87.33 8.69L87.33 8.69Q87.09 8.82 86.92 8.92L86.92 8.92L86.92 8.92Q86.74 9.02 86.67 9.07L86.67 9.07L86.67 9.07Q86.48 9.10 86.17 9.03L86.17 9.03L86.17 9.03Q85.86 8.96 85.53 8.83L85.53 8.83L85.53 8.83Q85.20 8.71 84.91 8.57L84.91 8.57L84.91 8.57Q84.62 8.43 84.46 8.32L84.46 8.32L84.46 8.32Q84.34 8.40 84.20 8.55L84.20 8.55L84.20 8.55Q84.07 8.71 83.96 8.92L83.96 8.92L83.96 8.92Q83.85 9.13 83.78 9.38L83.78 9.38L83.78 9.38Q83.71 9.63 83.71 9.91L83.71 9.91L83.71 9.91Q83.71 10.54 84.02 11.02L84.02 11.02L84.02 11.02Q84.34 11.49 84.79 11.81L84.79 11.81L84.79 11.81Q85.25 12.12 85.76 12.29L85.76 12.29L85.76 12.29Q86.27 12.45 86.67 12.45L86.67 12.45L86.67 12.45Q87.22 12.45 87.65 12.34L87.65 12.34L87.65 12.34Q88.09 12.24 88.40 12.10L88.40 12.10L88.40 12.10Q88.76 11.94 89.03 11.75L89.03 11.75L89.03 11.75Q88.73 12.01 88.35 12.40L88.35 12.40L88.35 12.40Q87.96 12.78 87.51 13.14L87.51 13.14L87.51 13.14Q87.05 13.50 86.51 13.75L86.51 13.75L86.51 13.75Q85.97 14 85.36 14L85.36 14L85.36 14Q84.66 14 84.08 13.74L84.08 13.74L84.08 13.74Q83.50 13.48 83.08 13.05L83.08 13.05L83.08 13.05Q82.67 12.63 82.44 12.08L82.44 12.08L82.44 12.08Q82.21 11.54 82.21 10.95L82.21 10.95L82.21 10.95Q82.21 10.42 82.44 9.97L82.44 9.97L82.44 9.97Q82.67 9.52 83.03 9.14L83.03 9.14L83.03 9.14Q83.38 8.76 83.83 8.45L83.83 8.45L83.83 8.45Q84.27 8.13 84.69 7.87L84.69 7.87L84.69 7.87Q85.12 7.60 85.47 7.39L85.47 7.39L85.47 7.39Q85.82 7.18 86.02 7ZM99.04-7.04L99.04-7.04L99.04-7.04Q99.04-5.73 98.62-4.61L98.62-4.61L98.62-4.61Q98.20-3.50 97.50-2.57L97.50-2.57L97.50-2.57Q96.81-1.64 95.93-0.88L95.93-0.88L95.93-0.88Q95.05-0.13 94.12 0.46L94.12 0.46L94.12 0.46Q91.97 1.85 89.22 2.73L89.22 2.73L89.22 2.73Q91.92 1.85 94.05 0.46L94.05 0.46L94.05 0.46Q94.95-0.13 95.82-0.88L95.82-0.88L95.82-0.88Q96.68-1.64 97.37-2.57L97.37-2.57L97.37-2.57Q98.06-3.50 98.47-4.61L98.47-4.61L98.47-4.61Q98.88-5.73 98.88-7.04L98.88-7.04L98.88-7.04Q98.88-7.56 98.76-8.04L98.76-8.04L98.76-8.04Q98.64-8.51 98.34-8.88L98.34-8.88L98.34-8.88Q98.03-9.24 97.52-9.46L97.52-9.46L97.52-9.46Q97.01-9.67 96.21-9.67L96.21-9.67L96.21-9.67Q95.47-9.67 94.83-9.34L94.83-9.34L94.83-9.34Q94.19-9.02 93.70-8.57L93.70-8.57L93.70-8.57Q93.21-8.12 92.88-7.64L92.88-7.64L92.88-7.64Q92.55-7.17 92.46-6.87L92.46-6.87L92.46-6.87Q92.29-6.41 92.20-5.68L92.20-5.68L92.20-5.68Q92.12-4.94 92.08-4.04L92.08-4.04L92.08-4.04Q92.04-3.14 92.03-2.11L92.03-2.11L92.03-2.11Q92.02-1.09 92.02-0.06L92.02-0.06L92.02-0.06Q92.02 0.48 92.02 1.17L92.02 1.17L92.02 1.17Q92.02 1.86 92.02 2.63L92.02 2.63L92.02 2.63Q92.01 3.40 92.01 4.21L92.01 4.21L92.01 4.21Q92.01 5.03 92.01 5.80L92.01 5.80L92.01 9.55L92.01 9.55Q92.53 8.83 93.07 8.27L93.07 8.27L93.07 8.27Q93.30 8.04 93.56 7.80L93.56 7.80L93.56 7.80Q93.81 7.57 94.09 7.39L94.09 7.39L94.09 7.39Q94.36 7.21 94.63 7.10L94.63 7.10L94.63 7.10Q94.89 6.99 95.14 6.99L95.14 6.99L95.14 6.99Q95.40 6.99 95.70 7.13L95.70 7.13L95.70 7.13Q96.01 7.27 96.28 7.56L96.28 7.56L96.28 7.56Q96.56 7.85 96.75 8.31L96.75 8.31L96.75 8.31Q96.94 8.76 96.94 9.39L96.94 9.39L96.94 9.39Q96.94 10.30 96.67 11.14L96.67 11.14L96.67 11.14Q96.40 11.97 96.03 12.68L96.03 12.68L96.03 12.68Q95.66 13.40 95.26 13.96L95.26 13.96L95.26 13.96Q94.86 14.52 94.58 14.88L94.58 14.88L94.58 14.88Q94.29 15.26 93.99 15.59L93.99 15.59L93.99 15.59Q93.69 15.92 93.40 16.19L93.40 16.19L93.40 16.19Q93.11 16.46 92.87 16.68L92.87 16.68L92.87 16.68Q92.62 16.90 92.46 17.04L92.46 17.04L92.46 17.04Q93.32 16.27 94.00 15.32L94.00 15.32L94.00 15.32Q94.29 14.91 94.56 14.43L94.56 14.43L94.56 14.43Q94.84 13.96 95.05 13.41L95.05 13.41L95.05 13.41Q95.27 12.87 95.40 12.26L95.40 12.26L95.40 12.26Q95.54 11.66 95.54 11.00L95.54 11.00L95.54 11.00Q95.54 10.39 95.36 9.90L95.36 9.90L95.36 9.90Q95.19 9.41 94.92 9.07L94.92 9.07L94.92 9.07Q94.65 8.74 94.34 8.56L94.34 8.56L94.34 8.56Q94.02 8.39 93.76 8.39L93.76 8.39L93.76 8.39Q93.21 8.39 92.85 8.76L92.85 8.76L92.85 8.76Q92.48 9.13 92.27 9.77L92.27 9.77L92.27 9.77Q92.06 10.42 91.97 11.28L91.97 11.28L91.97 11.28Q91.88 12.15 91.88 13.16L91.88 13.16L91.88 13.16Q91.57 13.34 91.22 13.57L91.22 13.57L91.22 13.57Q90.86 13.80 90.62 14.01L90.62 14.01L90.62 14.01Q90.65 13.72 90.67 13.08L90.67 13.08L90.67 13.08Q90.69 12.43 90.70 11.55L90.70 11.55L90.70 11.55Q90.71 10.67 90.70 9.61L90.70 9.61L90.70 9.61Q90.69 8.55 90.69 7.44L90.69 7.44L90.69 7.44Q90.68 6.33 90.67 5.21L90.67 5.21L90.67 5.21Q90.66 4.10 90.65 3.11L90.65 3.11L90.65 3.11Q90.64 2.11 90.63 1.29L90.63 1.29L90.63 1.29Q90.62 0.48 90.62-0.06L90.62-0.06L90.62-0.06Q90.62-1.09 90.61-2.00L90.61-2.00L90.61-2.00Q90.61-2.90 90.58-3.74L90.58-3.74L90.58-3.74Q90.55-4.58 90.50-5.38L90.50-5.38L90.50-5.38Q90.44-6.17 90.33-7L90.33-7L90.33-7Q90.75-7 91.20-7.21L91.20-7.21L91.20-7.21Q91.66-7.42 92.13-7.73L92.13-7.73L92.13-7.73Q92.61-8.05 93.11-8.41L93.11-8.41L93.11-8.41Q93.62-8.78 94.13-9.09L94.13-9.09L94.13-9.09Q94.64-9.41 95.16-9.62L95.16-9.62L95.16-9.62Q95.68-9.83 96.21-9.83L96.21-9.83L96.21-9.83Q97.01-9.83 97.55-9.59L97.55-9.59L97.55-9.59Q98.08-9.35 98.41-8.97L98.41-8.97L98.41-8.97Q98.74-8.58 98.89-8.08L98.89-8.08L98.89-8.08Q99.04-7.57 99.04-7.04ZM106.95 3.82L106.95 3.82L106.95 3.82Q106.95 2.72 107.39 1.98L107.39 1.98L107.39 1.98Q107.83 1.25 108.47 0.81L108.47 0.81L108.47 0.81Q109.12 0.38 109.86 0.20L109.86 0.20L109.86 0.20Q110.60 0.01 111.19 0.01L111.19 0.01L111.19 0.01Q111.66 0.01 111.97 0.08L111.97 0.08L111.97 0.08Q112.27 0.14 112.64 0.14L112.64 0.14L112.64 0.14Q112.85 0.14 113.02 0.13L113.02 0.13L113.02 0.13Q113.18 0.11 113.29 0.08L113.29 0.08L113.29 0.08Q113.41 0.06 113.50 0.01L113.50 0.01L113.50 0.01Q113.05 0.80 112.88 1.67L112.88 1.67L112.88 1.67Q112.70 2.53 112.77 3.22L112.77 3.22L112.64 3.22L112.64 3.22Q112.64 2.67 112.40 2.24L112.40 2.24L112.40 2.24Q112.15 1.81 111.74 1.50L111.74 1.50L111.74 1.50Q111.33 1.20 110.79 1.04L110.79 1.04L110.79 1.04Q110.25 0.87 109.65 0.87L109.65 0.87L109.65 0.87Q109.45 0.87 109.17 0.95L109.17 0.95L109.17 0.95Q108.89 1.04 108.64 1.23L108.64 1.23L108.64 1.23Q108.39 1.43 108.21 1.75L108.21 1.75L108.21 1.75Q108.02 2.07 108.02 2.55L108.02 2.55L108.02 2.55Q108.02 3.18 108.28 3.69L108.28 3.69L108.28 3.69Q108.53 4.20 108.93 4.64L108.93 4.64L108.93 4.64Q109.34 5.08 109.87 5.46L109.87 5.46L109.87 5.46Q110.39 5.84 110.94 6.22L110.94 6.22L110.94 6.22Q111.50 6.59 112.02 6.99L112.02 6.99L112.02 6.99Q112.55 7.39 112.95 7.85L112.95 7.85L112.95 7.85Q113.36 8.32 113.61 8.86L113.61 8.86L113.61 8.86Q113.86 9.41 113.86 10.09L113.86 10.09L113.86 10.09Q113.86 10.89 113.64 11.49L113.64 11.49L113.64 11.49Q113.41 12.10 113.06 12.53L113.06 12.53L113.06 12.53Q112.70 12.96 112.25 13.24L112.25 13.24L112.25 13.24Q111.79 13.52 111.31 13.69L111.31 13.69L111.31 13.69Q110.84 13.86 110.39 13.92L110.39 13.92L110.39 13.92Q109.94 13.99 109.61 13.99L109.61 13.99L109.61 13.99Q109.19 13.99 108.86 13.96L108.86 13.96L108.86 13.96Q108.53 13.94 108.26 13.92L108.26 13.92L108.26 13.92Q108.00 13.89 107.78 13.87L107.78 13.87L107.78 13.87Q107.56 13.85 107.35 13.85L107.35 13.85L107.35 13.85Q107.24 13.85 107.11 13.88L107.11 13.88L107.11 13.88Q106.99 13.92 106.88 13.94L106.88 13.94L106.88 13.94Q106.74 13.99 106.62 14.03L106.62 14.03L106.62 14.03Q106.92 13.73 107.07 13.23L107.07 13.23L107.07 13.23Q107.21 12.80 107.23 12.09L107.23 12.09L107.23 12.09Q107.25 11.38 106.99 10.33L106.99 10.33L107.21 10.33L107.21 10.33Q107.21 10.84 107.53 11.35L107.53 11.35L107.53 11.35Q107.86 11.86 108.38 12.28L108.38 12.28L108.38 12.28Q108.91 12.70 109.56 12.96L109.56 12.96L109.56 12.96Q110.22 13.22 110.88 13.22L110.88 13.22L110.88 13.22Q111.22 13.22 111.57 13.15L111.57 13.15L111.57 13.15Q111.92 13.09 112.20 12.90L112.20 12.90L112.20 12.90Q112.49 12.71 112.67 12.35L112.67 12.35L112.67 12.35Q112.85 11.98 112.85 11.37L112.85 11.37L112.85 11.37Q112.85 10.75 112.60 10.25L112.60 10.25L112.60 10.25Q112.35 9.76 111.93 9.34L111.93 9.34L111.93 9.34Q111.51 8.93 110.99 8.57L110.99 8.57L110.99 8.57Q110.46 8.20 109.90 7.84L109.90 7.84L109.90 7.84Q109.34 7.48 108.82 7.08L108.82 7.08L108.82 7.08Q108.29 6.69 107.87 6.22L107.87 6.22L107.87 6.22Q107.45 5.74 107.20 5.15L107.20 5.15L107.20 5.15Q106.95 4.56 106.95 3.82ZM116.62-0.03L116.62-0.03L116.62-0.03Q116.62-3.22 116.56-4.93L116.56-4.93L116.56-4.93Q116.51-6.65 116.34-7.01L116.34-7.01L116.34-7.01Q116.76-7.01 117.20-7.22L117.20-7.22L117.20-7.22Q117.64-7.42 118.10-7.73L118.10-7.73L118.10-7.73Q118.57-8.04 119.06-8.40L119.06-8.40L119.06-8.40Q119.55-8.76 120.06-9.07L120.06-9.07L120.06-9.07Q120.57-9.38 121.12-9.58L121.12-9.58L121.12-9.58Q121.67-9.79 122.26-9.79L122.26-9.79L122.26-9.79Q123.05-9.79 123.58-9.55L123.58-9.55L123.58-9.55Q124.11-9.32 124.43-8.93L124.43-8.93L124.43-8.93Q124.75-8.54 124.89-8.04L124.89-8.04L124.89-8.04Q125.02-7.55 125.02-7.01L125.02-7.01L125.02-7.01Q125.02-5.70 124.60-4.59L124.60-4.59L124.60-4.59Q124.18-3.47 123.49-2.54L123.49-2.54L123.49-2.54Q122.81-1.61 121.93-0.85L121.93-0.85L121.93-0.85Q121.04-0.10 120.13 0.49L120.13 0.49L120.13 0.49Q117.99 1.88 115.26 2.74L115.26 2.74L115.26 2.74Q117.95 1.88 120.06 0.49L120.06 0.49L120.06 0.49Q120.96-0.10 121.83-0.85L121.83-0.85L121.83-0.85Q122.70-1.61 123.38-2.54L123.38-2.54L123.38-2.54Q124.05-3.47 124.47-4.59L124.47-4.59L124.47-4.59Q124.88-5.70 124.88-7.01L124.88-7.01L124.88-7.01Q124.88-7.55 124.75-8.02L124.75-8.02L124.75-8.02Q124.63-8.50 124.33-8.86L124.33-8.86L124.33-8.86Q124.03-9.23 123.52-9.44L123.52-9.44L123.52-9.44Q123.02-9.65 122.26-9.65L122.26-9.65L122.26-9.65Q121.44-9.65 120.78-9.33L120.78-9.33L120.78-9.33Q120.12-9.02 119.64-8.57L119.64-8.57L119.64-8.57Q119.15-8.13 118.85-7.66L118.85-7.66L118.85-7.66Q118.55-7.20 118.45-6.87L118.45-6.87L118.45-6.87Q118.30-6.40 118.22-5.85L118.22-5.85L118.22-5.85Q118.13-5.31 118.09-4.53L118.09-4.53L118.09-4.53Q118.05-3.75 118.04-2.65L118.04-2.65L118.04-2.65Q118.03-1.55 118.03 0.03L118.03 0.03L118.03 0.03Q118.03 0.71 118.03 1.48L118.03 1.48L118.03 1.48Q118.03 2.25 118.04 3.03L118.04 3.03L118.04 3.03Q118.05 3.81 118.06 4.52L118.06 4.52L118.06 4.52Q118.06 5.24 118.07 5.80L118.07 5.80L118.07 5.80Q118.08 6.36 118.08 6.71L118.08 6.71L118.08 6.71Q118.08 7.06 118.08 7.08L118.08 7.08L118.08 7.08Q118.33 7.17 118.62 7.20L118.62 7.20L118.62 7.20Q118.90 7.24 119.18 7.24L119.18 7.24L119.18 7.24Q119.46 7.24 119.71 7.22L119.71 7.22L119.71 7.22Q119.97 7.20 120.13 7.18L120.13 7.18L120.13 7.18Q119.97 7.38 119.69 7.51L119.69 7.51L119.69 7.51Q119.42 7.64 119.12 7.74L119.12 7.74L119.12 7.74Q118.82 7.84 118.53 7.90L118.53 7.90L118.53 7.90Q118.24 7.97 118.03 8.02L118.03 8.02L118.03 8.02Q118.06 8.54 118.02 9.06L118.02 9.06L118.02 9.06Q117.98 9.59 117.98 10.08L117.98 10.08L117.98 10.08Q117.98 10.57 118.06 11.00L118.06 11.00L118.06 11.00Q118.15 11.44 118.41 11.77L118.41 11.77L118.41 11.77Q118.66 12.11 119.15 12.33L119.15 12.33L119.15 12.33Q119.63 12.54 120.43 12.59L120.43 12.59L120.43 12.59Q120.22 12.77 119.99 13.01L119.99 13.01L119.99 13.01Q119.76 13.24 119.50 13.45L119.50 13.45L119.50 13.45Q119.25 13.66 118.99 13.81L118.99 13.81L118.99 13.81Q118.72 13.96 118.44 13.96L118.44 13.96L118.44 13.96Q118.15 13.96 117.85 13.84L117.85 13.84L117.85 13.84Q117.56 13.72 117.33 13.48L117.33 13.48L117.33 13.48Q117.10 13.24 116.94 12.91L116.94 12.91L116.94 12.91Q116.79 12.57 116.77 12.12L116.77 12.12L116.77 12.12Q116.73 10.99 116.70 9.93L116.70 9.93L116.70 9.93Q116.68 8.86 116.68 7.98L116.68 7.98L116.68 7.98Q116.31 7.95 116.07 7.92L116.07 7.92L116.07 7.92Q115.82 7.90 115.67 7.87L115.67 7.87L115.67 7.87Q115.49 7.83 115.36 7.78L115.36 7.78L115.36 7.78Q115.54 7.71 115.75 7.62L115.75 7.62L115.75 7.62Q115.93 7.53 116.14 7.41L116.14 7.41L116.14 7.41Q116.35 7.29 116.56 7.13L116.56 7.13L116.56 7.13Q116.58 7.07 116.59 6.71L116.59 6.71L116.59 6.71Q116.59 6.36 116.60 5.79L116.60 5.79L116.60 5.79Q116.61 5.22 116.61 4.50L116.61 4.50L116.61 4.50Q116.62 3.78 116.62 3.00L116.62 3.00L116.62 3.00Q116.62 2.23 116.62 1.45L116.62 1.45L116.62 1.45Q116.62 0.67 116.62-0.03ZM128.74 12.18L128.74 12.18L128.74 12.18Q128.83 12.32 128.92 12.47L128.92 12.47L128.92 12.47Q129.01 12.61 129.14 12.72L129.14 12.72L129.14 12.72Q129.26 12.82 129.45 12.86L129.45 12.86L129.45 12.86Q129.64 12.89 129.92 12.80L129.92 12.80L129.92 12.80Q129.29 13.16 128.68 13.45L128.68 13.45L128.68 13.45Q128.07 13.73 127.60 14.03L127.60 14.03L127.60 14.03Q127.22 13.85 127.13 13.40L127.13 13.40L127.13 13.40Q127.04 12.96 127.04 12.22L127.04 12.22L127.04 12.22Q126.77 12.43 126.48 12.73L126.48 12.73L126.48 12.73Q126.18 13.03 125.83 13.31L125.83 13.31L125.83 13.31Q125.48 13.59 125.06 13.80L125.06 13.80L125.06 13.80Q124.64 14 124.12 14L124.12 14L124.12 14Q123.97 14 123.75 13.94L123.75 13.94L123.75 13.94Q123.54 13.87 123.31 13.74L123.31 13.74L123.31 13.74Q123.09 13.61 122.89 13.39L122.89 13.39L122.89 13.39Q122.70 13.17 122.57 12.87L122.57 12.87L122.57 12.87Q122.54 12.70 122.53 12.46L122.53 12.46L122.53 12.46Q122.51 12.22 122.50 11.98L122.50 11.98L122.50 11.98Q122.49 11.73 122.48 11.49L122.48 11.49L122.48 11.49Q122.47 11.26 122.47 11.09L122.47 11.09L122.47 11.09Q122.47 10.50 122.49 10.02L122.49 10.02L122.49 10.02Q122.50 9.55 122.47 9.18L122.47 9.18L122.47 9.18Q122.44 8.82 122.35 8.58L122.35 8.58L122.35 8.58Q122.25 8.34 122.02 8.23L122.02 8.23L122.02 8.23Q121.86 8.16 121.69 8.13L121.69 8.13L121.69 8.13Q121.60 8.12 121.53 8.11L121.53 8.11L121.53 8.11Q121.84 8.01 122.19 7.85L122.19 7.85L122.19 7.85Q122.49 7.73 122.84 7.52L122.84 7.52L122.84 7.52Q123.20 7.32 123.56 7.04L123.56 7.04L123.56 7.04Q123.83 7.11 123.92 7.43L123.92 7.43L123.92 7.43Q124.01 7.74 124.01 8.21L124.01 8.21L124.01 8.21Q124.01 8.68 123.97 9.25L123.97 9.25L123.97 9.25Q123.93 9.81 123.93 10.37L123.93 10.37L123.93 10.37Q123.93 10.82 124.01 11.22L124.01 11.22L124.01 11.22Q124.08 11.62 124.27 11.92L124.27 11.92L124.27 11.92Q124.46 12.22 124.79 12.40L124.79 12.40L124.79 12.40Q125.12 12.59 125.64 12.59L125.64 12.59L125.64 12.59Q126.06 12.59 126.43 12.39L126.43 12.39L126.43 12.39Q126.80 12.19 127.04 11.98L127.04 11.98L127.04 11.98Q127.08 11.66 127.09 11.37L127.09 11.37L127.09 11.37Q127.09 11.07 127.09 10.75L127.09 10.75L127.09 10.75Q127.09 10.22 127.11 9.79L127.11 9.79L127.11 9.79Q127.12 9.35 127.10 9.03L127.10 9.03L127.10 9.03Q127.08 8.71 127.02 8.50L127.02 8.50L127.02 8.50Q126.95 8.30 126.80 8.23L126.80 8.23L126.80 8.23Q126.71 8.19 126.60 8.18L126.60 8.18L126.60 8.18Q126.48 8.16 126.36 8.15L126.36 8.15L126.36 8.15Q126.22 8.13 126.10 8.13L126.10 8.13L126.10 8.13Q126.59 7.99 127.05 7.81L127.05 7.81L127.05 7.81Q127.44 7.66 127.87 7.45L127.87 7.45L127.87 7.45Q128.30 7.24 128.59 6.99L128.59 6.99L128.59 6.99Q128.59 7.15 128.58 7.56L128.58 7.56L128.58 7.56Q128.56 7.97 128.56 8.50L128.56 8.50L128.56 8.50Q128.55 9.03 128.54 9.63L128.54 9.63L128.54 9.63Q128.53 10.22 128.56 10.74L128.56 10.74L128.56 10.74Q128.58 11.26 128.62 11.65L128.62 11.65L128.62 11.65Q128.66 12.04 128.74 12.18ZM113.41 37.18L113.41 37.18L113.41 37.18Q113.53 36.62 113.72 36.05L113.72 36.05L113.72 36.05Q113.89 35.56 114.18 34.95L114.18 34.95L114.18 34.95Q114.48 34.34 114.93 33.74L114.93 33.74L114.93 33.74Q115.32 33.36 116.05 32.99L116.05 32.99L116.05 32.99Q116.77 32.62 117.71 32.33L117.71 32.33L117.71 32.33Q118.64 32.03 119.74 31.85L119.74 31.85L119.74 31.85Q120.83 31.67 121.97 31.67L121.97 31.67L121.97 31.67Q124.07 31.67 125.73 32.07L125.73 32.07L125.73 32.07Q127.39 32.47 128.61 33.00L128.61 33.00L128.61 33.00Q129.84 33.54 130.62 34.10L130.62 34.10L130.62 34.10Q131.40 34.65 131.74 34.94L131.74 34.94L131.74 34.94Q131.82 34.68 131.87 33.85L131.87 33.85L131.87 33.85Q131.91 33.03 131.92 31.84L131.92 31.84L131.92 31.84Q131.94 30.66 131.92 29.20L131.92 29.20L131.92 29.20Q131.91 27.73 131.89 26.19L131.89 26.19L131.89 26.19Q131.87 24.65 131.83 23.13L131.83 23.13L131.83 23.13Q131.80 21.60 131.76 20.28L131.76 20.28L131.76 20.28Q131.73 18.96 131.70 17.93L131.70 17.93L131.70 17.93Q131.67 16.90 131.66 16.37L131.66 16.37L131.66 16.37Q131.38 16.37 131.07 16.30L131.07 16.30L131.07 16.30Q130.76 16.23 130.49 16.13L130.49 16.13L130.49 16.13Q130.19 16.02 129.89 15.88L129.89 15.88L129.89 15.88Q130.20 15.90 130.52 15.86L130.52 15.86L130.52 15.86Q130.80 15.83 131.10 15.76L131.10 15.76L131.10 15.76Q131.40 15.68 131.66 15.50L131.66 15.50L131.66 15.50Q131.57 13.19 131.51 11.35L131.51 11.35L131.51 11.35Q131.45 9.52 131.39 8.04L131.39 8.04L131.39 8.04Q131.33 6.57 131.29 5.40L131.29 5.40L131.29 5.40Q131.24 4.24 131.20 3.29L131.20 3.29L131.20 3.29Q131.17 2.34 131.14 1.55L131.14 1.55L131.14 1.55Q131.11 0.76 131.08 0.01L131.08 0.01L131.08 0.01Q131.29 0.01 131.51-0.06L131.51-0.06L131.51-0.06Q131.73-0.14 131.99-0.31L131.99-0.31L131.99-0.31Q132.26-0.48 132.60-0.74L132.60-0.74L132.60-0.74Q132.94-1.01 133.41-1.39L133.41-1.39L133.41-1.39Q134.37-2.07 135.41-2.44L135.41-2.44L135.41-2.44Q136.44-2.80 137.66-2.80L137.66-2.80L137.66-2.80Q138.15-2.80 138.45-2.70L138.45-2.70L138.45-2.70Q138.74-2.59 138.92-2.46L138.92-2.46L138.92-2.46Q138.68-2.06 138.51-1.66L138.51-1.66L138.51-1.66Q138.33-1.26 138.22-0.87L138.22-0.87L138.22-0.87Q138.22 0.62 137.86 1.90L137.86 1.90L137.86 1.90Q137.49 3.18 136.89 4.25L136.89 4.25L136.89 4.25Q136.29 5.32 135.53 6.20L135.53 6.20L135.53 6.20Q134.78 7.08 133.98 7.77L133.98 7.77L133.98 7.77Q132.10 9.39 129.74 10.46L129.74 10.46L129.74 10.46Q132.06 9.35 133.90 7.73L133.90 7.73L133.90 7.73Q134.67 7.04 135.42 6.16L135.42 6.16L135.42 6.16Q136.16 5.28 136.75 4.21L136.75 4.21L136.75 4.21Q137.34 3.14 137.70 1.87L137.70 1.87L137.70 1.87Q138.05 0.60 138.05-0.87L138.05-0.87L138.05-0.87Q137.86-1.04 137.58-1.19L137.58-1.19L137.58-1.19Q137.33-1.30 136.94-1.41L136.94-1.41L136.94-1.41Q136.56-1.51 135.98-1.51L135.98-1.51L135.98-1.51Q135.20-1.51 134.67-1.37L134.67-1.37L134.67-1.37Q134.13-1.22 133.81-0.99L133.81-0.99L133.81-0.99Q133.48-0.76 133.31-0.47L133.31-0.47L133.31-0.47Q133.14-0.18 133.07 0.10L133.07 0.10L133.07 0.10Q132.99 0.45 132.92 1.35L132.92 1.35L132.92 1.35Q132.86 2.25 132.83 3.51L132.83 3.51L132.83 3.51Q132.79 4.76 132.78 6.27L132.78 6.27L132.78 6.27Q132.76 7.78 132.75 9.35L132.75 9.35L132.75 9.35Q132.73 10.92 132.73 12.46L132.73 12.46L132.73 12.46Q132.72 14 132.71 15.32L132.71 15.32L132.71 15.32Q133.17 15.51 133.71 15.57L133.71 15.57L133.71 15.57Q134.26 15.64 134.72 15.64L134.72 15.64L134.72 15.64Q135.27 15.64 135.81 15.58L135.81 15.58L135.81 15.58Q135.30 15.79 134.76 15.95L134.76 15.95L134.76 15.95Q134.30 16.09 133.76 16.21L133.76 16.21L133.76 16.21Q133.21 16.34 132.71 16.37L132.71 16.37L132.71 16.37Q132.69 17.23 132.67 18.53L132.67 18.53L132.67 18.53Q132.65 19.82 132.62 21.35L132.62 21.35L132.62 21.35Q132.59 22.88 132.55 24.55L132.55 24.55L132.55 24.55Q132.51 26.22 132.45 27.87L132.45 27.87L132.45 27.87Q132.40 29.51 132.31 31.05L132.31 31.05L132.31 31.05Q132.23 32.58 132.11 33.81L132.11 33.81L132.11 33.81Q131.99 35.04 131.84 35.89L131.84 35.89L131.84 35.89Q131.68 36.74 131.49 37.02L131.49 37.02L131.49 37.02Q131.05 36.54 130.36 36.08L130.36 36.08L130.36 36.08Q129.67 35.62 128.82 35.20L128.82 35.20L128.82 35.20Q127.97 34.78 127.01 34.43L127.01 34.43L127.01 34.43Q126.04 34.08 125.06 33.82L125.06 33.82L125.06 33.82Q124.07 33.56 123.11 33.41L123.11 33.41L123.11 33.41Q122.15 33.26 121.31 33.26L121.31 33.26L121.31 33.26Q119.92 33.26 118.85 33.43L118.85 33.43L118.85 33.43Q117.77 33.60 116.95 33.87L116.95 33.87L116.95 33.87Q116.13 34.15 115.55 34.50L115.55 34.50L115.55 34.50Q114.97 34.86 114.58 35.22L114.58 35.22L114.58 35.22Q113.65 36.09 113.41 37.18ZM118.85 37.18L118.85 37.18L118.85 37.18Q118.96 36.62 119.15 36.05L119.15 36.05L119.15 36.05Q119.32 35.56 119.62 34.95L119.62 34.95L119.62 34.95Q119.91 34.34 120.36 33.74L120.36 33.74L120.36 33.74Q120.75 33.36 121.48 32.99L121.48 32.99L121.48 32.99Q122.21 32.62 123.14 32.33L123.14 32.33L123.14 32.33Q124.07 32.03 125.17 31.85L125.17 31.85L125.17 31.85Q126.27 31.67 127.40 31.67L127.40 31.67L127.40 31.67Q129.50 31.67 131.16 32.07L131.16 32.07L131.16 32.07Q132.82 32.47 134.04 33.00L134.04 33.00L134.04 33.00Q135.27 33.54 136.05 34.10L136.05 34.10L136.05 34.10Q136.84 34.65 137.17 34.94L137.17 34.94L137.17 34.94Q137.26 34.68 137.30 33.85L137.30 33.85L137.30 33.85Q137.34 33.03 137.35 31.84L137.35 31.84L137.35 31.84Q137.37 30.66 137.35 29.20L137.35 29.20L137.35 29.20Q137.34 27.73 137.32 26.19L137.32 26.19L137.32 26.19Q137.30 24.65 137.26 23.13L137.26 23.13L137.26 23.13Q137.23 21.60 137.19 20.28L137.19 20.28L137.19 20.28Q137.16 18.96 137.13 17.93L137.13 17.93L137.13 17.93Q137.10 16.90 137.09 16.37L137.09 16.37L137.09 16.37Q136.81 16.37 136.50 16.30L136.50 16.30L136.50 16.30Q136.19 16.23 135.93 16.13L135.93 16.13L135.93 16.13Q135.62 16.02 135.32 15.88L135.32 15.88L135.32 15.88Q135.63 15.90 135.95 15.86L135.95 15.86L135.95 15.86Q136.23 15.83 136.54 15.76L136.54 15.76L136.54 15.76Q136.84 15.68 137.09 15.50L137.09 15.50L137.09 15.50Q137.00 13.19 136.94 11.35L136.94 11.35L136.94 11.35Q136.88 9.52 136.82 8.04L136.82 8.04L136.82 8.04Q136.77 6.57 136.72 5.40L136.72 5.40L136.72 5.40Q136.67 4.24 136.63 3.29L136.63 3.29L136.63 3.29Q136.60 2.34 136.57 1.55L136.57 1.55L136.57 1.55Q136.54 0.76 136.51 0.01L136.51 0.01L136.51 0.01Q136.72 0.01 136.94-0.06L136.94-0.06L136.94-0.06Q137.16-0.14 137.42-0.31L137.42-0.31L137.42-0.31Q137.69-0.48 138.03-0.74L138.03-0.74L138.03-0.74Q138.38-1.01 138.84-1.39L138.84-1.39L138.84-1.39Q139.80-2.07 140.84-2.44L140.84-2.44L140.84-2.44Q141.88-2.80 143.09-2.80L143.09-2.80L143.09-2.80Q143.58-2.80 143.88-2.70L143.88-2.70L143.88-2.70Q144.17-2.59 144.35-2.46L144.35-2.46L144.35-2.46Q144.12-2.06 143.94-1.66L143.94-1.66L143.94-1.66Q143.77-1.26 143.65-0.87L143.65-0.87L143.65-0.87Q143.65 0.62 143.29 1.90L143.29 1.90L143.29 1.90Q142.93 3.18 142.32 4.25L142.32 4.25L142.32 4.25Q141.72 5.32 140.97 6.20L140.97 6.20L140.97 6.20Q140.21 7.08 139.41 7.77L139.41 7.77L139.41 7.77Q137.54 9.39 135.17 10.46L135.17 10.46L135.17 10.46Q137.49 9.35 139.33 7.73L139.33 7.73L139.33 7.73Q140.10 7.04 140.85 6.16L140.85 6.16L140.85 6.16Q141.60 5.28 142.18 4.21L142.18 4.21L142.18 4.21Q142.77 3.14 143.13 1.87L143.13 1.87L143.13 1.87Q143.49 0.60 143.49-0.87L143.49-0.87L143.49-0.87Q143.29-1.04 143.01-1.19L143.01-1.19L143.01-1.19Q142.76-1.30 142.37-1.41L142.37-1.41L142.37-1.41Q141.99-1.51 141.41-1.51L141.41-1.51L141.41-1.51Q140.63-1.51 140.10-1.37L140.10-1.37L140.10-1.37Q139.57-1.22 139.24-0.99L139.24-0.99L139.24-0.99Q138.91-0.76 138.74-0.47L138.74-0.47L138.74-0.47Q138.57-0.18 138.50 0.10L138.50 0.10L138.50 0.10Q138.42 0.45 138.36 1.35L138.36 1.35L138.36 1.35Q138.29 2.25 138.26 3.51L138.26 3.51L138.26 3.51Q138.22 4.76 138.21 6.27L138.21 6.27L138.21 6.27Q138.19 7.78 138.18 9.35L138.18 9.35L138.18 9.35Q138.17 10.92 138.16 12.46L138.16 12.46L138.16 12.46Q138.15 14 138.14 15.32L138.14 15.32L138.14 15.32Q138.60 15.51 139.15 15.57L139.15 15.57L139.15 15.57Q139.69 15.64 140.15 15.64L140.15 15.64L140.15 15.64Q140.70 15.64 141.25 15.58L141.25 15.58L141.25 15.58Q140.73 15.79 140.20 15.95L140.20 15.95L140.20 15.95Q139.73 16.09 139.19 16.21L139.19 16.21L139.19 16.21Q138.64 16.34 138.14 16.37L138.14 16.37L138.14 16.37Q138.12 17.23 138.10 18.53L138.10 18.53L138.10 18.53Q138.08 19.82 138.05 21.35L138.05 21.35L138.05 21.35Q138.03 22.88 137.98 24.55L137.98 24.55L137.98 24.55Q137.94 26.22 137.89 27.87L137.89 27.87L137.89 27.87Q137.83 29.51 137.75 31.05L137.75 31.05L137.75 31.05Q137.66 32.58 137.54 33.81L137.54 33.81L137.54 33.81Q137.42 35.04 137.27 35.89L137.27 35.89L137.27 35.89Q137.12 36.74 136.92 37.02L136.92 37.02L136.92 37.02Q136.49 36.54 135.79 36.08L135.79 36.08L135.79 36.08Q135.10 35.62 134.25 35.20L134.25 35.20L134.25 35.20Q133.41 34.78 132.44 34.43L132.44 34.43L132.44 34.43Q131.47 34.08 130.49 33.82L130.49 33.82L130.49 33.82Q129.50 33.56 128.54 33.41L128.54 33.41L128.54 33.41Q127.58 33.26 126.74 33.26L126.74 33.26L126.74 33.26Q125.36 33.26 124.28 33.43L124.28 33.43L124.28 33.43Q123.20 33.60 122.38 33.87L122.38 33.87L122.38 33.87Q121.56 34.15 120.98 34.50L120.98 34.50L120.98 34.50Q120.40 34.86 120.01 35.22L120.01 35.22L120.01 35.22Q119.08 36.09 118.85 37.18Z"></path></g><!----><!----></svg>