<svg data-v-423bf9ae="" xmlns="http://www.w3.org/2000/svg" viewBox="0 0 471.34366975082054 60" class="font"><!----><!----><!----><g data-v-423bf9ae="" id="c37d6acb-6601-41a8-a607-4ebb5a61d98e" fill="white" transform="matrix(4.243281367976305,0,0,4.243281367976305,-5.983032119779949,-6.534653621652332)"><path d="M4.47 12.88C5.56 12.88 6.47 12.57 7.19 11.96C7.91 11.35 8.37 10.49 8.57 9.38L9.72 2.80L8.18 2.80L7.03 9.38C6.93 9.99 6.65 10.49 6.20 10.88C5.74 11.28 5.20 11.48 4.58 11.48C4.05 11.48 3.65 11.34 3.38 11.05C3.12 10.76 2.98 10.36 2.98 9.86C2.98 9.71 3.00 9.55 3.02 9.38L4.17 2.80L2.63 2.80L1.48 9.38C1.44 9.68 1.41 9.94 1.41 10.15C1.41 11.02 1.68 11.69 2.22 12.17C2.76 12.64 3.50 12.88 4.47 12.88ZM10.85 10.21L9.56 10.74C9.57 11.29 9.81 11.76 10.28 12.15C10.74 12.54 11.36 12.74 12.14 12.74C12.92 12.74 13.56 12.56 14.06 12.21C14.56 11.85 14.81 11.34 14.81 10.67C14.81 10.13 14.66 9.71 14.36 9.41C14.07 9.12 13.67 8.88 13.17 8.68C12.74 8.50 12.43 8.35 12.23 8.22C12.03 8.09 11.93 7.94 11.93 7.78C11.93 7.63 12.02 7.50 12.21 7.42C12.39 7.34 12.61 7.29 12.87 7.29C13.38 7.29 13.76 7.53 14.01 7.99L15.29 7.42C15.22 7.06 14.96 6.73 14.49 6.45C14.02 6.16 13.51 6.02 12.94 6.02C12.25 6.02 11.67 6.18 11.17 6.50C10.68 6.81 10.43 7.28 10.43 7.88C10.43 8.75 11.00 9.37 12.14 9.74C12.90 10.01 13.29 10.34 13.29 10.75C13.29 11.19 12.91 11.41 12.17 11.41C11.81 11.41 11.51 11.30 11.25 11.09C10.99 10.87 10.86 10.58 10.85 10.21ZM21.15 8.69L17.61 8.69C17.76 8.29 18.05 7.96 18.49 7.69C18.92 7.42 19.37 7.28 19.82 7.28C20.72 7.28 21.17 7.70 21.17 8.55C21.17 8.56 21.17 8.59 21.16 8.62C21.16 8.66 21.15 8.68 21.15 8.69ZM17.40 9.73L22.51 9.73C22.63 9.34 22.69 8.92 22.69 8.48C22.69 7.70 22.45 7.09 21.95 6.66C21.46 6.23 20.78 6.02 19.91 6.02C18.78 6.02 17.83 6.39 17.05 7.13C16.28 7.86 15.89 8.82 15.89 10.01C15.89 10.88 16.13 11.55 16.62 12.03C17.10 12.50 17.81 12.74 18.73 12.74C20.20 12.74 21.37 12.24 22.26 11.24L21.10 10.51C20.57 11.11 19.81 11.41 18.83 11.41C17.88 11.41 17.40 10.91 17.40 9.90ZM37.62 6.94L37.44 12.60L38.98 12.60L39.20 2.45L33.53 9.94L30.38 2.45L26.94 12.60L28.55 12.60L30.52 6.61L33.11 12.81ZM40.25 6.16L41.78 12.18L39.66 15.68L41.37 15.68L47.25 6.16L45.54 6.16L42.90 10.75L41.87 6.16ZM51.80 4.20L54.29 4.20L52.82 12.60L54.39 12.60L55.86 4.20L58.38 4.20L58.62 2.80L52.04 2.80ZM62.10 8.69L58.56 8.69C58.71 8.29 59.00 7.96 59.44 7.69C59.87 7.42 60.32 7.28 60.77 7.28C61.67 7.28 62.12 7.70 62.12 8.55C62.12 8.56 62.12 8.59 62.11 8.62C62.11 8.66 62.10 8.68 62.10 8.69ZM58.35 9.73L63.46 9.73C63.58 9.34 63.64 8.92 63.64 8.48C63.64 7.70 63.40 7.09 62.90 6.66C62.41 6.23 61.73 6.02 60.86 6.02C59.73 6.02 58.78 6.39 58.00 7.13C57.23 7.86 56.84 8.82 56.84 10.01C56.84 10.88 57.08 11.55 57.57 12.03C58.05 12.50 58.76 12.74 59.68 12.74C61.15 12.74 62.32 12.24 63.21 11.24L62.05 10.51C61.52 11.11 60.76 11.41 59.78 11.41C58.83 11.41 58.35 10.91 58.35 9.90ZM65.84 9.81C65.84 9.07 66.09 8.48 66.59 8.04C67.09 7.61 67.76 7.39 68.59 7.39C68.97 7.39 69.34 7.51 69.69 7.73C70.04 7.96 70.26 8.24 70.35 8.55L70.67 6.71C70.31 6.25 69.60 6.02 68.56 6.02C67.35 6.02 66.34 6.39 65.52 7.12C64.70 7.85 64.29 8.81 64.29 10.00C64.29 10.84 64.57 11.50 65.12 12.00C65.68 12.49 66.45 12.74 67.45 12.74C68.42 12.74 69.16 12.51 69.68 12.05L70 10.21C69.79 10.54 69.47 10.82 69.06 11.04C68.65 11.26 68.20 11.37 67.70 11.37C67.10 11.37 66.64 11.23 66.32 10.96C66.00 10.69 65.84 10.31 65.84 9.81ZM73.40 8.54C73.50 8.15 73.73 7.85 74.09 7.65C74.44 7.45 74.84 7.35 75.28 7.35C75.69 7.35 75.97 7.44 76.12 7.63C76.27 7.82 76.30 8.17 76.22 8.68L75.53 12.60L77.03 12.60L77.74 8.54C77.90 7.64 77.79 7.00 77.40 6.61C77.01 6.22 76.48 6.02 75.80 6.02C74.97 6.02 74.26 6.34 73.68 6.97L74.62 1.68L73.12 1.68L71.19 12.60L72.69 12.60ZM89.46 5.54L90.80 4.68C90.68 4.09 90.39 3.58 89.92 3.16C89.44 2.73 88.78 2.52 87.93 2.52C86.96 2.52 86.15 2.77 85.51 3.28C84.86 3.79 84.53 4.49 84.53 5.39C84.53 5.80 84.59 6.16 84.71 6.47C84.84 6.78 85.01 7.03 85.25 7.22C85.48 7.42 85.69 7.57 85.87 7.67C86.05 7.77 86.28 7.88 86.55 7.98C86.87 8.10 87.12 8.20 87.28 8.27C87.43 8.35 87.63 8.46 87.85 8.60C88.07 8.74 88.24 8.90 88.33 9.08C88.43 9.26 88.48 9.47 88.48 9.72C88.48 10.23 88.30 10.64 87.93 10.95C87.57 11.26 87.11 11.41 86.56 11.41C85.97 11.41 85.51 11.23 85.17 10.88C84.83 10.52 84.56 10.00 84.38 9.30L82.99 10.11C83.37 11.96 84.55 12.88 86.51 12.88C87.56 12.88 88.43 12.59 89.10 12.00C89.78 11.41 90.12 10.59 90.12 9.53C90.12 8.27 89.40 7.38 87.98 6.85C87.67 6.72 87.43 6.63 87.27 6.55C87.11 6.48 86.92 6.38 86.72 6.25C86.51 6.12 86.36 5.99 86.28 5.84C86.19 5.69 86.14 5.52 86.14 5.33C86.14 4.97 86.29 4.65 86.60 4.36C86.90 4.08 87.27 3.93 87.70 3.93C88.20 3.93 88.58 4.07 88.82 4.35C89.07 4.63 89.28 5.03 89.46 5.54ZM92.69 3.92L92.30 6.16L91.28 6.16L91.04 7.49L92.06 7.49L91.17 12.60L92.69 12.60L93.59 7.49L94.61 7.49L94.85 6.16L93.83 6.16L94.22 3.92ZM99.32 11.77L99.18 12.60L100.67 12.60L101.81 6.16L100.31 6.16L99.60 10.19C99.49 10.59 99.27 10.90 98.92 11.10C98.57 11.31 98.17 11.41 97.72 11.41C97.31 11.41 97.03 11.32 96.88 11.13C96.73 10.94 96.70 10.59 96.78 10.08L97.47 6.16L95.97 6.16L95.26 10.22C95.10 11.12 95.21 11.76 95.60 12.15C95.99 12.54 96.52 12.74 97.20 12.74C98.04 12.74 98.75 12.42 99.32 11.77ZM107.17 3.36L108.09 2.20C107.85 1.76 107.37 1.54 106.65 1.54C105.91 1.54 105.35 1.74 104.96 2.13C104.57 2.53 104.30 3.13 104.16 3.92L103.75 6.16L102.97 6.16L102.73 7.49L103.52 7.49L102.61 12.60L104.08 12.60L104.99 7.49L106.58 7.49L106.82 6.16L105.22 6.16L105.60 4.06C105.67 3.69 105.78 3.41 105.95 3.22C106.12 3.03 106.32 2.94 106.54 2.94C106.84 2.94 107.05 3.08 107.17 3.36ZM111.57 3.36L112.49 2.20C112.25 1.76 111.77 1.54 111.05 1.54C110.31 1.54 109.75 1.74 109.35 2.13C108.96 2.53 108.70 3.13 108.56 3.92L108.15 6.16L107.37 6.16L107.13 7.49L107.91 7.49L107.00 12.60L108.47 12.60L109.38 7.49L110.98 7.49L111.22 6.16L109.62 6.16L110.00 4.06C110.06 3.69 110.18 3.41 110.35 3.22C110.52 3.03 110.71 2.94 110.94 2.94C111.23 2.94 111.44 3.08 111.57 3.36Z"></path></g><!----><!----></svg>