<svg data-v-423bf9ae="" xmlns="http://www.w3.org/2000/svg" viewBox="0 0 439.3099202892182 60" class="font"><!----><!----><!----><g data-v-423bf9ae="" id="4c89bd2d-1372-4ec0-8308-a2ba1867d262" fill="white" transform="matrix(3.7641155319627186,0,0,3.7641155319627186,-8.318690213140513,-8.657466259282977)"><path d="M11.13 4.24L14.25 4.24L14.25 4.24Q14.05 4.31 13.64 4.61L13.64 4.61L13.64 4.61Q13.24 4.92 13.04 5.04L13.04 5.04L13.04 5.04Q12.84 5.17 12.70 5.17L12.70 5.17L12.20 5.17L10.74 11.42L10.74 11.42Q10.45 12.58 9.78 13.15L9.78 13.15L12.04 13.15L12.04 13.15Q11.84 13.21 11.44 13.52L11.44 13.52L11.44 13.52Q11.03 13.82 10.83 13.95L10.83 13.95L10.83 13.95Q10.64 14.08 10.49 14.08L10.49 14.08L8.24 14.08L8.24 14.08Q8.81 13.46 8.94 13.16L8.94 13.16L8.94 13.16Q9.07 12.86 9.13 12.61L9.13 12.61L9.13 12.61Q7.86 13.38 7.14 13.68L7.14 13.68L7.14 13.68Q5.72 14.27 4.63 14.27L4.63 14.27L4.63 14.27Q2.86 14.27 2.39 13.18L2.39 13.18L2.39 13.18Q2.21 12.78 2.21 12.32L2.21 12.32L2.21 12.32Q2.21 11.63 2.39 10.84L2.39 10.84L3.71 5.17L2.56 5.17L2.56 5.17Q2.63 5.13 2.75 5.04L2.75 5.04L2.75 5.04Q2.87 4.96 3.02 4.85L3.02 4.85L3.02 4.85Q3.18 4.75 3.35 4.64L3.35 4.64L3.35 4.64Q3.51 4.53 3.66 4.44L3.66 4.44L3.66 4.44Q4.01 4.24 4.11 4.24L4.11 4.24L6.95 4.24L6.95 4.24Q6.75 4.31 6.35 4.61L6.35 4.61L6.35 4.61Q5.95 4.92 5.75 5.04L5.75 5.04L5.75 5.04Q5.55 5.17 5.41 5.17L5.41 5.17L5.04 5.17L3.81 10.45L3.81 10.45Q3.71 10.89 3.71 11.37L3.71 11.37L3.71 11.37Q3.71 11.85 3.92 12.24L3.92 12.24L3.92 12.24Q4.12 12.63 4.46 12.87L4.46 12.87L4.46 12.87Q5.11 13.32 6.22 13.32L6.22 13.32L6.22 13.32Q7.24 13.32 8.53 12.71L8.53 12.71L8.53 12.71Q8.91 12.54 9.19 12.37L9.19 12.37L10.86 5.17L9.58 5.17L9.58 5.17Q9.65 5.13 9.77 5.04L9.77 5.04L9.77 5.04Q9.89 4.96 10.05 4.85L10.05 4.85L10.05 4.85Q10.20 4.75 10.37 4.64L10.37 4.64L10.37 4.64Q10.53 4.53 10.68 4.44L10.68 4.44L10.68 4.44Q11.03 4.24 11.13 4.24L11.13 4.24ZM14.13 12.41L14.13 12.41L14.13 12.41Q13.92 12.59 13.92 12.77L13.92 12.77L13.92 12.77Q13.92 12.94 14.10 13.05L14.10 13.05L14.10 13.05Q14.28 13.15 14.52 13.21L14.52 13.21L14.52 13.21Q14.94 13.30 15.38 13.30L15.38 13.30L15.38 13.30Q15.82 13.30 16.06 13.04L16.06 13.04L16.06 13.04Q16.30 12.78 16.30 12.39L16.30 12.39L16.30 12.39Q16.30 11.99 16.10 11.77L16.10 11.77L16.10 11.77Q15.89 11.56 15.59 11.41L15.59 11.41L15.59 11.41Q15.29 11.27 14.93 11.15L14.93 11.15L14.93 11.15Q14.57 11.03 14.27 10.89L14.27 10.89L14.27 10.89Q13.56 10.55 13.56 10.01L13.56 10.01L13.56 10.01Q13.56 9.43 14.33 8.76L14.33 8.76L14.33 8.76Q14.99 8.17 15.96 7.74L15.96 7.74L15.96 7.74Q16.91 7.31 17.47 7.31L17.47 7.31L17.47 7.31Q17.96 7.31 18.19 7.42L18.19 7.42L18.19 7.42Q18.42 7.53 18.42 7.62L18.42 7.62L18.42 7.62Q18.42 7.80 17.99 8.01L17.99 8.01L17.99 8.01Q17.17 8.42 16.69 8.78L16.69 8.78L16.69 8.78Q16.87 8.67 16.87 8.56L16.87 8.56L16.87 8.56Q16.87 8.44 16.75 8.39L16.75 8.39L16.75 8.39Q16.63 8.33 16.47 8.30L16.47 8.30L16.47 8.30Q16.21 8.25 15.94 8.25L15.94 8.25L15.94 8.25Q15.09 8.25 15.09 9.07L15.09 9.07L15.09 9.07Q15.09 9.66 15.96 9.95L15.96 9.95L15.96 9.95Q16.21 10.04 16.46 10.12L16.46 10.12L16.46 10.12Q16.72 10.21 16.97 10.30L16.97 10.30L16.97 10.30Q17.22 10.40 17.41 10.53L17.41 10.53L17.41 10.53Q17.84 10.83 17.84 11.28L17.84 11.28L17.84 11.28Q17.84 11.72 17.63 12.10L17.63 12.10L17.63 12.10Q17.42 12.47 17.07 12.79L17.07 12.79L17.07 12.79Q16.72 13.12 16.27 13.38L16.27 13.38L16.27 13.38Q15.83 13.65 15.36 13.84L15.36 13.84L15.36 13.84Q14.39 14.25 13.68 14.25L13.68 14.25L13.68 14.25Q12.97 14.25 12.56 13.96L12.56 13.96L12.56 13.96Q12.40 13.85 12.40 13.70L12.40 13.70L12.40 13.70Q12.40 13.54 12.50 13.42L12.50 13.42L12.50 13.42Q12.61 13.29 12.76 13.18L12.76 13.18L12.76 13.18Q12.92 13.06 13.12 12.96L13.12 12.96L13.12 12.96Q13.32 12.86 13.51 12.76L13.51 12.76L13.51 12.76Q14.03 12.50 14.13 12.41ZM24.08 8.15L24.08 8.15L24.08 8.15Q24.08 9.58 20.18 11.53L20.18 11.53L20.18 11.53Q20.25 13.25 21.98 13.25L21.98 13.25L21.98 13.25Q22.76 13.25 23.60 12.82L23.60 12.82L23.60 12.82Q22.63 13.75 21.17 14.08L21.17 14.08L21.17 14.08Q20.71 14.18 20.28 14.18L20.28 14.18L20.28 14.18Q19.84 14.18 19.53 14.02L19.53 14.02L19.53 14.02Q19.22 13.87 19.02 13.61L19.02 13.61L19.02 13.61Q18.65 13.10 18.65 12.41L18.65 12.41L18.65 12.41Q18.65 11.72 18.86 11.15L18.86 11.15L18.86 11.15Q19.07 10.59 19.42 10.05L19.42 10.05L19.42 10.05Q19.77 9.51 20.23 9.02L20.23 9.02L20.23 9.02Q20.70 8.54 21.23 8.18L21.23 8.18L21.23 8.18Q22.37 7.38 23.34 7.38L23.34 7.38L23.34 7.38Q23.69 7.38 23.88 7.60L23.88 7.60L23.88 7.60Q24.08 7.81 24.08 8.15ZM22.37 9.52L22.37 9.52L22.37 9.52Q22.54 9.25 22.54 9.03L22.54 9.03L22.54 9.03Q22.54 8.80 22.36 8.57L22.36 8.57L22.36 8.57Q22.19 8.34 21.88 8.34L21.88 8.34L21.88 8.34Q21.56 8.34 21.34 8.49L21.34 8.49L21.34 8.49Q21.12 8.65 20.94 8.89L20.94 8.89L20.94 8.89Q20.76 9.14 20.62 9.45L20.62 9.45L20.62 9.45Q20.49 9.76 20.39 10.08L20.39 10.08L20.39 10.08Q20.22 10.68 20.19 11.20L20.19 11.20L20.19 11.20Q20.86 11.03 21.71 10.25L21.71 10.25L21.71 10.25Q22.21 9.79 22.37 9.52ZM29.44 13.15L31.63 13.15L31.63 13.15Q30.24 14.08 30.08 14.08L30.08 14.08L27.84 14.08L27.84 14.08Q28.39 13.64 28.94 12.24L28.94 12.24L28.94 12.24Q29.78 10.14 31.28 5.17L31.28 5.17L29.56 5.17L29.56 5.17Q30.28 4.63 30.67 4.44L30.67 4.44L30.67 4.44Q31.06 4.25 31.10 4.25L31.10 4.25L32.83 4.25L32.83 4.25Q33.17 5.20 33.52 6.14L33.52 6.14L33.52 6.14Q33.87 7.08 34.14 7.80L34.14 7.80L34.14 7.80Q34.40 8.52 34.58 9.00L34.58 9.00L34.58 9.00Q34.77 9.47 34.94 9.95L34.94 9.95L34.94 9.95Q35.31 11.01 35.50 11.92L35.50 11.92L35.50 11.92Q36.45 10.74 37.36 9.56L37.36 9.56L37.36 9.56Q38.27 8.38 38.96 7.51L38.96 7.51L38.96 7.51Q39.64 6.63 40.07 6.06L40.07 6.06L40.07 6.06Q40.50 5.50 40.79 5.17L40.79 5.17L40.79 5.17Q41.08 4.85 41.28 4.73L41.28 4.73L41.28 4.73Q41.47 4.60 41.70 4.48L41.70 4.48L41.70 4.48Q41.92 4.35 42.15 4.24L42.15 4.24L42.15 4.24Q42.37 4.13 42.52 4.04L42.52 4.04L42.52 4.04Q42.25 5.58 41.96 7.11L41.96 7.11L41.96 7.11Q41.67 8.63 41.50 9.58L41.50 9.58L41.50 9.58Q41.32 10.53 41.27 10.88L41.27 10.88L41.27 10.88Q41.21 11.23 41.13 11.62L41.13 11.62L41.13 11.62Q40.91 12.58 40.41 13.15L40.41 13.15L42.44 13.15L42.44 13.15Q42.25 13.21 41.84 13.52L41.84 13.52L41.84 13.52Q41.42 13.84 41.22 13.96L41.22 13.96L41.22 13.96Q41.03 14.08 40.89 14.08L40.89 14.08L38.86 14.08L38.86 14.08Q39.26 13.64 39.43 13.04L39.43 13.04L39.43 13.04Q39.66 12.23 40.07 10.01L40.07 10.01L40.07 10.01Q40.48 7.79 40.72 6.38L40.72 6.38L40.72 6.38Q39.83 7.48 38.97 8.58L38.97 8.58L38.97 8.58Q38.10 9.67 37.53 10.39L37.53 10.39L37.53 10.39Q36.96 11.10 36.71 11.43L36.71 11.43L36.71 11.43Q36.46 11.75 36.27 12.01L36.27 12.01L36.27 12.01Q36.07 12.26 35.93 12.46L35.93 12.46L35.93 12.46Q35.79 12.65 35.68 12.76L35.68 12.76L35.68 12.76Q35.57 12.88 35.37 13.01L35.37 13.01L35.37 13.01Q35.16 13.14 34.91 13.28L34.91 13.28L34.91 13.28Q34.67 13.43 34.43 13.56L34.43 13.56L34.43 13.56Q34.20 13.69 34.09 13.75L34.09 13.75L34.09 13.75Q33.99 12.65 33.65 11.64L33.65 11.64L33.65 11.64Q33.31 10.64 33.08 10.04L33.08 10.04L33.08 10.04Q32.85 9.44 32.63 8.83L32.63 8.83L31.96 7.02L31.96 7.02Q30.86 10.48 30.52 11.30L30.52 11.30L30.52 11.30Q30.18 12.11 29.95 12.52L29.95 12.52L29.95 12.52Q29.72 12.93 29.44 13.15L29.44 13.15ZM49.98 7.42L49.98 7.42L49.98 7.42Q50.39 7.42 50.39 7.81L50.39 7.81L50.39 7.81Q50.39 7.90 50.37 7.98L50.37 7.98L49.43 12.02L49.43 12.02Q48.88 14.36 47.33 16.16L47.33 16.16L47.33 16.16Q46.24 17.44 44.84 17.96L44.84 17.96L44.84 17.96Q44.13 18.24 43.34 18.24L43.34 18.24L43.34 18.24Q42.72 18.24 42.38 17.98L42.38 17.98L42.38 17.98Q42.25 17.88 42.25 17.75L42.25 17.75L42.25 17.75Q42.25 17.62 42.36 17.49L42.36 17.49L42.36 17.49Q42.46 17.37 42.63 17.25L42.63 17.25L42.63 17.25Q42.80 17.13 43.00 17.01L43.00 17.01L43.00 17.01Q43.21 16.89 43.41 16.79L43.41 16.79L43.41 16.79Q43.92 16.52 44.03 16.44L44.03 16.44L44.03 16.44Q43.78 16.59 43.78 16.77L43.78 16.77L43.78 16.77Q43.78 16.95 43.92 17.05L43.92 17.05L43.92 17.05Q44.06 17.14 44.26 17.21L44.26 17.21L44.26 17.21Q44.60 17.32 45.01 17.32L45.01 17.32L45.01 17.32Q45.42 17.32 45.79 17.11L45.79 17.11L45.79 17.11Q46.17 16.89 46.47 16.54L46.47 16.54L46.47 16.54Q46.76 16.18 46.98 15.73L46.98 15.73L46.98 15.73Q47.20 15.28 47.37 14.80L47.37 14.80L47.37 14.80Q47.56 14.25 47.86 13.04L47.86 13.04L47.86 13.04Q46.07 14.21 44.91 14.21L44.91 14.21L44.91 14.21Q43.75 14.21 43.75 13.06L43.75 13.06L43.75 13.06Q43.75 12.76 43.83 12.44L43.83 12.44L44.39 10.02L44.39 10.02Q44.55 9.30 44.55 9.00L44.55 9.00L44.55 9.00Q44.55 8.31 44.00 8.31L44.00 8.31L44.00 8.31Q43.77 8.31 43.48 8.41L43.48 8.41L43.48 8.41Q44.20 7.90 44.48 7.73L44.48 7.73L44.48 7.73Q45.12 7.37 45.61 7.37L45.61 7.37L45.61 7.37Q46.18 7.37 46.18 7.92L46.18 7.92L46.18 7.92Q46.18 8.19 45.88 9.40L45.88 9.40L45.88 9.40Q45.59 10.61 45.49 11.06L45.49 11.06L45.49 11.06Q45.32 11.79 45.32 12.12L45.32 12.12L45.32 12.12Q45.32 12.46 45.41 12.68L45.41 12.68L45.41 12.68Q45.51 12.90 45.68 13.03L45.68 13.03L45.68 13.03Q46.01 13.28 46.66 13.28L46.66 13.28L46.66 13.28Q47.35 13.28 47.96 12.63L47.96 12.63L48.75 9.21L48.75 9.21Q48.82 8.93 48.82 8.76L48.82 8.76L48.82 8.76Q48.82 8.34 48.47 8.34L48.47 8.34L48.47 8.34Q48.30 8.34 48.13 8.41L48.13 8.41L48.13 8.41Q48.30 8.29 48.53 8.12L48.53 8.12L48.53 8.12Q48.77 7.96 49.03 7.80L49.03 7.80L49.03 7.80Q49.64 7.42 49.98 7.42ZM59.00 5.17L55.43 5.17L55.43 5.17Q56.82 4.25 56.97 4.25L56.97 4.25L64.68 4.25L64.68 4.25Q64.57 4.27 64.18 4.55L64.18 4.55L64.18 4.55Q63.78 4.84 63.63 4.94L63.63 4.94L63.63 4.94Q63.29 5.17 63.14 5.17L63.14 5.17L60.33 5.17L58.88 11.43L58.88 11.43Q58.67 12.27 58.26 12.83L58.26 12.83L58.26 12.83Q58.11 13.04 57.92 13.15L57.92 13.15L60.18 13.15L60.18 13.15Q60.05 13.18 59.66 13.47L59.66 13.47L59.66 13.47Q59.27 13.75 59.12 13.85L59.12 13.85L59.12 13.85Q58.78 14.08 58.63 14.08L58.63 14.08L56.25 14.08L56.25 14.08Q56.76 13.70 56.92 13.45L56.92 13.45L56.92 13.45Q57.18 13.04 57.31 12.45L57.31 12.45L59.00 5.17ZM67.03 8.15L67.03 8.15L67.03 8.15Q67.03 9.58 63.13 11.53L63.13 11.53L63.13 11.53Q63.20 13.25 64.93 13.25L64.93 13.25L64.93 13.25Q65.71 13.25 66.55 12.82L66.55 12.82L66.55 12.82Q65.58 13.75 64.12 14.08L64.12 14.08L64.12 14.08Q63.66 14.18 63.23 14.18L63.23 14.18L63.23 14.18Q62.79 14.18 62.48 14.02L62.48 14.02L62.48 14.02Q62.17 13.87 61.97 13.61L61.97 13.61L61.97 13.61Q61.60 13.10 61.60 12.41L61.60 12.41L61.60 12.41Q61.60 11.72 61.81 11.15L61.81 11.15L61.81 11.15Q62.02 10.59 62.37 10.05L62.37 10.05L62.37 10.05Q62.72 9.51 63.18 9.02L63.18 9.02L63.18 9.02Q63.65 8.54 64.18 8.18L64.18 8.18L64.18 8.18Q65.32 7.38 66.29 7.38L66.29 7.38L66.29 7.38Q66.64 7.38 66.83 7.60L66.83 7.60L66.83 7.60Q67.03 7.81 67.03 8.15ZM65.32 9.52L65.32 9.52L65.32 9.52Q65.49 9.25 65.49 9.03L65.49 9.03L65.49 9.03Q65.49 8.80 65.31 8.57L65.31 8.57L65.31 8.57Q65.14 8.34 64.83 8.34L64.83 8.34L64.83 8.34Q64.51 8.34 64.29 8.49L64.29 8.49L64.29 8.49Q64.07 8.65 63.89 8.89L63.89 8.89L63.89 8.89Q63.71 9.14 63.57 9.45L63.57 9.45L63.57 9.45Q63.44 9.76 63.34 10.08L63.34 10.08L63.34 10.08Q63.17 10.68 63.14 11.20L63.14 11.20L63.14 11.20Q63.81 11.03 64.66 10.25L64.66 10.25L64.66 10.25Q65.16 9.79 65.32 9.52ZM72.65 8.79L72.65 8.79L72.65 8.79Q72.70 8.76 72.77 8.68L72.77 8.68L72.77 8.68Q72.84 8.59 72.84 8.55L72.84 8.55L72.84 8.55Q72.84 8.51 72.75 8.45L72.75 8.45L72.75 8.45Q72.67 8.39 72.53 8.34L72.53 8.34L72.53 8.34Q72.40 8.29 72.24 8.24L72.24 8.24L72.24 8.24Q72.08 8.20 71.92 8.17L71.92 8.17L71.92 8.17Q71.58 8.11 71.32 8.11L71.32 8.11L71.32 8.11Q71.06 8.11 70.73 8.24L70.73 8.24L70.73 8.24Q70.40 8.38 70.14 8.62L70.14 8.62L70.14 8.62Q69.88 8.85 69.68 9.17L69.68 9.17L69.68 9.17Q69.49 9.48 69.36 9.83L69.36 9.83L69.36 9.83Q69.11 10.53 69.11 11.15L69.11 11.15L69.11 11.15Q69.11 11.78 69.27 12.15L69.27 12.15L69.27 12.15Q69.43 12.53 69.71 12.78L69.71 12.78L69.71 12.78Q70.27 13.26 71.28 13.26L71.28 13.26L71.28 13.26Q72.10 13.26 72.93 12.85L72.93 12.85L72.93 12.85Q71.89 13.76 70.50 14.08L70.50 14.08L70.50 14.08Q70.05 14.19 69.60 14.19L69.60 14.19L69.60 14.19Q69.16 14.19 68.77 14.06L68.77 14.06L68.77 14.06Q68.39 13.92 68.11 13.67L68.11 13.67L68.11 13.67Q67.54 13.13 67.54 12.18L67.54 12.18L67.54 12.18Q67.54 11.02 68.45 9.81L68.45 9.81L68.45 9.81Q69.30 8.68 70.57 7.95L70.57 7.95L70.57 7.95Q71.89 7.20 73.01 7.20L73.01 7.20L73.01 7.20Q73.76 7.20 74.25 7.50L74.25 7.50L74.25 7.50Q74.37 7.56 74.37 7.64L74.37 7.64L74.37 7.64Q74.37 7.71 74.26 7.82L74.26 7.82L74.26 7.82Q74.15 7.92 73.98 8.05L73.98 8.05L73.98 8.05Q73.81 8.18 73.61 8.31L73.61 8.31L73.61 8.31Q73.40 8.44 73.21 8.54L73.21 8.54L73.21 8.54Q72.79 8.78 72.65 8.79ZM76.23 4.42L76.23 4.42L76.23 4.42Q76.23 3.92 75.82 3.92L75.82 3.92L75.82 3.92Q75.56 3.92 75.19 4.02L75.19 4.02L75.19 4.02Q76.15 3.38 78.11 2.30L78.11 2.30L76.65 8.57L76.65 8.57Q77.65 7.84 78.63 7.55L78.63 7.55L78.63 7.55Q78.98 7.44 79.27 7.44L79.27 7.44L79.27 7.44Q79.55 7.44 79.78 7.52L79.78 7.52L79.78 7.52Q80.01 7.59 80.19 7.72L80.19 7.72L80.19 7.72Q80.57 8.04 80.57 8.54L80.57 8.54L80.57 8.54Q80.57 8.67 80.53 8.83L80.53 8.83L79.73 12.30L79.73 12.30Q79.65 12.59 79.65 12.86L79.65 12.86L79.65 12.86Q79.65 13.13 79.79 13.23L79.79 13.23L79.79 13.23Q79.92 13.33 80.13 13.33L80.13 13.33L80.13 13.33Q80.34 13.33 80.51 13.27L80.51 13.27L80.51 13.27Q80.68 13.21 80.82 13.16L80.82 13.16L80.82 13.16Q79.75 14.19 78.74 14.19L78.74 14.19L78.74 14.19Q78.13 14.19 78.13 13.62L78.13 13.62L78.13 13.62Q78.13 13.39 78.19 13.16L78.19 13.16L78.19 13.16Q78.25 12.93 78.31 12.70L78.31 12.70L78.90 10.14L78.90 10.14Q79.03 9.63 79.03 9.30L79.03 9.30L79.03 9.30Q79.03 8.97 78.94 8.80L78.94 8.80L78.94 8.80Q78.86 8.63 78.71 8.54L78.71 8.54L78.71 8.54Q78.46 8.39 77.97 8.39L77.97 8.39L77.97 8.39Q77.48 8.39 77.19 8.60L77.19 8.60L77.19 8.60Q76.90 8.81 76.70 9.13L76.70 9.13L76.70 9.13Q76.40 9.63 76.19 10.53L76.19 10.53L75.71 12.59L75.71 12.59Q75.66 12.83 75.66 12.95L75.66 12.95L75.66 12.95Q75.66 13.28 75.95 13.28L75.95 13.28L75.95 13.28Q76.06 13.28 76.39 13.16L76.39 13.16L76.39 13.16Q75.97 13.83 75.25 14.10L75.25 14.10L75.25 14.10Q75.01 14.19 74.81 14.19L74.81 14.19L74.81 14.19Q74.61 14.19 74.50 14.14L74.50 14.14L74.50 14.14Q74.40 14.09 74.35 14L74.35 14L74.35 14Q74.24 13.83 74.24 13.58L74.24 13.58L74.24 13.58Q74.24 13.22 74.33 12.80L74.33 12.80L76.15 5.00L76.15 5.00Q76.23 4.67 76.23 4.42ZM86.53 11.90L86.53 11.90L86.53 11.90Q86.21 12.17 86.21 12.40L86.21 12.40L86.21 12.40Q86.21 12.64 86.33 12.77L86.33 12.77L86.33 12.77Q86.45 12.90 86.65 12.99L86.65 12.99L86.65 12.99Q86.84 13.08 87.08 13.15L87.08 13.15L87.08 13.15Q87.32 13.21 87.55 13.24L87.55 13.24L87.55 13.24Q87.99 13.30 88.40 13.30L88.40 13.30L88.40 13.30Q88.82 13.30 89.27 13.19L89.27 13.19L89.27 13.19Q89.73 13.08 90.08 12.84L90.08 12.84L90.08 12.84Q90.86 12.30 90.86 11.28L90.86 11.28L90.86 11.28Q90.86 10.27 89.48 9.72L89.48 9.72L89.48 9.72Q89.08 9.56 88.67 9.42L88.67 9.42L88.67 9.42Q88.26 9.28 87.86 9.13L87.86 9.13L87.86 9.13Q87.47 8.98 87.16 8.78L87.16 8.78L87.16 8.78Q86.47 8.34 86.47 7.64L86.47 7.64L86.47 7.64Q86.47 6.79 87.49 5.89L87.49 5.89L87.49 5.89Q88.35 5.13 89.67 4.58L89.67 4.58L89.67 4.58Q90.92 4.05 91.72 4.05L91.72 4.05L91.72 4.05Q92.35 4.05 92.73 4.17L92.73 4.17L92.73 4.17Q93.10 4.29 93.19 4.35L93.19 4.35L93.19 4.35Q93.29 4.42 93.29 4.50L93.29 4.50L93.29 4.50Q93.29 4.59 93.17 4.70L93.17 4.70L93.17 4.70Q93.05 4.82 92.87 4.96L92.87 4.96L92.87 4.96Q92.68 5.09 92.46 5.24L92.46 5.24L92.46 5.24Q92.24 5.38 92.03 5.50L92.03 5.50L92.03 5.50Q91.51 5.79 91.40 5.83L91.40 5.83L91.40 5.83Q91.71 5.62 91.71 5.46L91.71 5.46L91.71 5.46Q91.71 5.30 91.52 5.22L91.52 5.22L91.52 5.22Q91.32 5.13 91.07 5.07L91.07 5.07L91.07 5.07Q90.64 4.99 90.22 4.99L90.22 4.99L90.22 4.99Q89.80 4.99 89.40 5.07L89.40 5.07L89.40 5.07Q89.00 5.15 88.70 5.35L88.70 5.35L88.70 5.35Q88.03 5.79 88.03 6.70L88.03 6.70L88.03 6.70Q88.03 7.72 89.40 8.22L89.40 8.22L89.40 8.22Q89.79 8.36 90.20 8.49L90.20 8.49L90.20 8.49Q90.60 8.61 90.99 8.75L90.99 8.75L90.99 8.75Q91.38 8.89 91.68 9.10L91.68 9.10L91.68 9.10Q92.37 9.56 92.37 10.22L92.37 10.22L92.37 10.22Q92.37 10.89 92.09 11.41L92.09 11.41L92.09 11.41Q91.81 11.93 91.34 12.37L91.34 12.37L91.34 12.37Q90.88 12.81 90.28 13.16L90.28 13.16L90.28 13.16Q89.69 13.51 89.06 13.75L89.06 13.75L89.06 13.75Q87.75 14.25 86.70 14.25L86.70 14.25L86.70 14.25Q86.17 14.25 85.71 14.12L85.71 14.12L85.71 14.12Q85.25 13.99 85.06 13.89L85.06 13.89L85.06 13.89Q84.63 13.67 84.63 13.38L84.63 13.38L84.63 13.38Q84.63 12.80 86.53 11.90ZM94.32 14.21L94.32 14.21L94.32 14.21Q93.37 14.21 93.37 13.15L93.37 13.15L93.37 13.15Q93.37 12.83 93.46 12.41L93.46 12.41L94.45 8.16L93.56 8.16L93.56 8.16Q93.82 7.98 94.09 7.81L94.09 7.81L94.09 7.81Q94.35 7.64 94.62 7.46L94.62 7.46L94.83 6.49L94.83 6.49Q95.26 6.23 95.46 6.09L95.46 6.09L95.46 6.09Q95.66 5.95 95.77 5.89L95.77 5.89L95.77 5.89Q95.89 5.82 96.02 5.76L96.02 5.76L96.02 5.76Q96.33 5.61 96.38 5.56L96.38 5.56L96.00 7.23L98.18 7.23L98.18 7.23Q98.07 7.25 97.64 7.56L97.64 7.56L97.64 7.56Q96.84 8.16 96.64 8.16L96.64 8.16L95.78 8.16L94.92 11.82L94.92 11.82Q94.83 12.24 94.83 12.60L94.83 12.60L94.83 12.60Q94.83 13.33 95.76 13.33L95.76 13.33L95.76 13.33Q96.06 13.33 96.31 13.22L96.31 13.22L96.31 13.22Q96.57 13.11 96.67 13.07L96.67 13.07L96.67 13.07Q96.01 13.86 94.96 14.12L94.96 14.12L94.96 14.12Q94.63 14.21 94.32 14.21ZM104.32 7.43L104.32 7.43L104.32 7.43Q104.70 7.43 104.70 7.84L104.70 7.84L104.70 7.84Q104.70 7.96 104.67 8.09L104.67 8.09L103.66 12.43L103.66 12.43Q103.65 12.50 103.63 12.58L103.63 12.58L103.63 12.58Q103.62 12.65 103.62 12.73L103.62 12.73L103.62 12.73Q103.62 13.04 103.81 13.14L103.81 13.14L103.81 13.14Q104.00 13.25 104.21 13.25L104.21 13.25L104.21 13.25Q104.54 13.25 104.88 13.14L104.88 13.14L104.88 13.14Q104.58 13.23 104.36 13.41L104.36 13.41L104.36 13.41Q104.15 13.59 103.91 13.77L103.91 13.77L103.91 13.77Q103.35 14.19 102.73 14.19L102.73 14.19L102.73 14.19Q102.12 14.19 102.12 13.62L102.12 13.62L102.12 13.62Q102.12 13.43 102.18 13.09L102.18 13.09L102.18 13.09Q100.43 14.22 99.27 14.22L99.27 14.22L99.27 14.22Q98.16 14.22 98.16 12.87L98.16 12.87L98.16 12.87Q98.16 12.44 98.29 11.85L98.29 11.85L98.83 9.55L98.83 9.55Q98.93 9.11 98.93 8.89L98.93 8.89L98.93 8.89Q98.93 8.32 98.33 8.32L98.33 8.32L98.33 8.32Q98.08 8.32 97.82 8.42L97.82 8.42L97.82 8.42Q98.03 8.26 98.29 8.08L98.29 8.08L98.29 8.08Q98.54 7.90 98.81 7.74L98.81 7.74L98.81 7.74Q99.46 7.38 99.94 7.38L99.94 7.38L99.94 7.38Q100.50 7.38 100.50 7.94L100.50 7.94L100.50 7.94Q100.50 8.20 100.35 8.81L100.35 8.81L100.35 8.81Q99.75 11.27 99.70 11.61L99.70 11.61L99.70 11.61Q99.65 11.94 99.65 12.21L99.65 12.21L99.65 12.21Q99.65 12.48 99.74 12.69L99.74 12.69L99.74 12.69Q99.84 12.91 100.02 13.04L100.02 13.04L100.02 13.04Q100.33 13.29 100.99 13.29L100.99 13.29L100.99 13.29Q101.42 13.29 101.97 12.92L101.97 12.92L101.97 12.92Q102.12 12.82 102.27 12.74L102.27 12.74L103.11 9.13L103.11 9.13Q103.15 8.96 103.15 8.79L103.15 8.79L103.15 8.79Q103.15 8.35 102.79 8.35L102.79 8.35L102.79 8.35Q102.63 8.35 102.46 8.42L102.46 8.42L102.46 8.42Q103.80 7.43 104.32 7.43ZM104.43 16.65L104.43 16.65L104.43 16.65Q104.19 16.81 104.19 16.99L104.19 16.99L104.19 16.99Q104.19 17.29 104.54 17.27L104.54 17.27L104.55 17.27L104.55 17.27Q105.47 16.17 105.98 13.93L105.98 13.93L107.30 8.22L106.44 8.22L106.44 8.22Q107.08 7.80 107.46 7.55L107.46 7.55L107.46 7.55Q107.78 6.15 107.98 5.65L107.98 5.65L107.98 5.65Q108.19 5.15 108.39 4.84L108.39 4.84L108.39 4.84Q108.60 4.52 108.90 4.23L108.90 4.23L108.90 4.23Q109.47 3.70 110.65 3.03L110.65 3.03L110.65 3.03Q111.77 2.38 112.64 2.38L112.64 2.38L112.64 2.38Q112.93 2.38 113.28 2.49L113.28 2.49L113.28 2.49Q113.97 2.69 113.97 2.91L113.97 2.91L113.97 2.91Q113.97 3.14 112.81 3.79L112.81 3.79L112.81 3.79Q112.37 4.03 112.23 4.04L112.23 4.04L112.23 4.04Q112.42 3.86 112.42 3.83L112.42 3.83L112.42 3.83Q112.42 3.64 111.84 3.46L111.84 3.46L111.84 3.46Q111.34 3.30 111.12 3.30L111.12 3.30L111.12 3.30Q110.65 3.30 110.35 3.39L110.35 3.39L110.35 3.39Q109.51 4.27 109.07 6.28L109.07 6.28L109.07 6.28Q108.96 6.81 108.85 7.29L108.85 7.29L111.41 7.29L111.41 7.29Q111.28 7.32 110.85 7.64L110.85 7.64L110.85 7.64Q110.42 7.96 110.21 8.09L110.21 8.09L110.21 8.09Q110.00 8.22 109.87 8.22L109.87 8.22L108.64 8.22L107.33 13.81L107.33 13.81Q107.12 14.73 106.48 15.74L106.48 15.74L106.48 15.74Q105.42 17.42 104.02 18.01L104.02 18.01L104.02 18.01Q103.54 18.20 103.10 18.20L103.10 18.20L103.10 18.20Q102.66 18.20 102.66 17.96L102.66 17.96L102.66 17.96Q102.66 17.59 103.80 17.00L103.80 17.00L103.80 17.00Q104.28 16.75 104.43 16.65ZM109.38 16.65L109.38 16.65L109.38 16.65Q109.14 16.81 109.14 16.99L109.14 16.99L109.14 16.99Q109.14 17.29 109.48 17.27L109.48 17.27L109.50 17.27L109.50 17.27Q110.42 16.17 110.93 13.93L110.93 13.93L112.25 8.22L111.39 8.22L111.39 8.22Q112.03 7.80 112.41 7.55L112.41 7.55L112.41 7.55Q112.72 6.15 112.93 5.65L112.93 5.65L112.93 5.65Q113.13 5.15 113.34 4.84L113.34 4.84L113.34 4.84Q113.55 4.52 113.85 4.23L113.85 4.23L113.85 4.23Q114.42 3.70 115.60 3.03L115.60 3.03L115.60 3.03Q116.72 2.38 117.59 2.38L117.59 2.38L117.59 2.38Q117.88 2.38 118.23 2.49L118.23 2.49L118.23 2.49Q118.92 2.69 118.92 2.91L118.92 2.91L118.92 2.91Q118.92 3.14 117.76 3.79L117.76 3.79L117.76 3.79Q117.32 4.03 117.18 4.04L117.18 4.04L117.18 4.04Q117.37 3.86 117.37 3.83L117.37 3.83L117.37 3.83Q117.37 3.64 116.79 3.46L116.79 3.46L116.79 3.46Q116.29 3.30 116.07 3.30L116.07 3.30L116.07 3.30Q115.60 3.30 115.29 3.39L115.29 3.39L115.29 3.39Q114.46 4.27 114.02 6.28L114.02 6.28L114.02 6.28Q113.91 6.81 113.80 7.29L113.80 7.29L116.36 7.29L116.36 7.29Q116.22 7.32 115.80 7.64L115.80 7.64L115.80 7.64Q115.37 7.96 115.16 8.09L115.16 8.09L115.16 8.09Q114.95 8.22 114.82 8.22L114.82 8.22L113.59 8.22L112.28 13.81L112.28 13.81Q112.07 14.73 111.43 15.74L111.43 15.74L111.43 15.74Q110.37 17.42 108.97 18.01L108.97 18.01L108.97 18.01Q108.49 18.20 108.05 18.20L108.05 18.20L108.05 18.20Q107.61 18.20 107.61 17.96L107.61 17.96L107.61 17.96Q107.61 17.59 108.75 17.00L108.75 17.00L108.75 17.00Q109.23 16.75 109.38 16.65Z"></path></g><!----><!----></svg>