<svg data-v-423bf9ae="" xmlns="http://www.w3.org/2000/svg" viewBox="0 0 522.0985570279886 60" class="font"><!----><!----><!----><g data-v-423bf9ae="" id="01ea5cdf-6657-4f61-a9c4-63a468802398" fill="white" transform="matrix(5.474453012044838,0,0,5.474453012044838,-0.8211697590724043,-14.726279392488486)"><path d="M3.53 10.21C3.35 11.19 3.23 11.28 2.77 11.28C2.42 11.28 2.28 11.24 2.28 10.93C2.28 10.78 2.32 10.54 2.38 10.21L3.67 2.87L1.64 2.87L0.35 10.21C0.21 10.99 0.15 11.51 0.15 11.89C0.15 13.41 0.88 13.65 2.32 13.65C3.53 13.65 4.14 13.47 4.56 12.88C4.91 12.40 5.15 11.96 5.50 10.21L6.79 2.87L4.82 2.87ZM11.96 6.16C12.21 5.54 12.33 4.82 12.33 4.17C12.33 3.05 11.75 2.69 10.35 2.69C8.47 2.69 7.95 3.42 7.59 5.08C7.36 6.09 7.31 6.58 7.31 7.11C7.31 7.55 7.42 7.83 7.63 8.06C8.06 8.58 8.81 8.79 9.34 9.25C9.58 9.45 9.66 9.66 9.66 9.97C9.66 10.07 9.65 10.23 9.55 10.68C9.45 11.16 9.31 11.40 8.81 11.40C8.46 11.40 8.32 11.27 8.32 10.91C8.32 10.64 8.39 10.15 8.48 9.93L6.83 9.93C6.58 10.60 6.41 11.51 6.41 12.14C6.41 13.24 7.04 13.65 8.37 13.65C10.29 13.65 11.00 12.88 11.45 10.36C11.56 9.76 11.61 9.30 11.61 8.95C11.61 8.26 11.41 8.01 11.07 7.73C10.65 7.38 10.18 7.24 9.51 6.75C9.30 6.59 9.21 6.43 9.21 6.09C9.21 5.98 9.23 5.77 9.30 5.49C9.41 5.05 9.49 4.83 9.97 4.83C10.32 4.83 10.46 4.94 10.46 5.25C10.46 5.36 10.43 5.52 10.32 6.16ZM16.42 13.47L16.83 11.12L14.60 11.12L14.95 9.11L17.15 9.11L17.53 6.97L15.33 6.97L15.67 5.11L17.91 5.11L18.30 2.87L14.08 2.87L12.22 13.47ZM28.13 13.47L29.97 2.87L27.13 2.87L25.34 7.48L25.26 7.48L25.19 2.87L22.44 2.87L20.58 13.47L22.39 13.47L23.51 7.11L23.58 7.11L23.91 13.47L24.79 13.47L27.36 7.11L27.43 7.11L26.31 13.47ZM33.05 13.47L33.71 9.67L36.57 2.94L36.58 2.87L34.61 2.87L33.28 6.30L33.15 6.30L33.10 2.87L31.05 2.87L31.04 2.94L31.63 9.45L30.93 13.47ZM41.79 13.47L43.26 5.11L44.76 5.11L45.15 2.87L40.18 2.87L39.79 5.11L41.29 5.11L39.82 13.47ZM48.71 13.47L49.11 11.12L46.89 11.12L47.24 9.11L49.43 9.11L49.81 6.97L47.61 6.97L47.95 5.11L50.19 5.11L50.58 2.87L46.37 2.87L44.51 13.47ZM53.93 9.41C53.77 10.28 53.69 10.65 53.49 11.05C53.41 11.21 53.26 11.28 52.99 11.28C52.51 11.28 52.47 11.16 52.47 10.82C52.47 10.50 52.56 9.91 53.00 7.46C53.30 5.75 53.38 5.40 53.54 5.12C53.61 4.94 53.75 4.86 54.07 4.86C54.39 4.86 54.54 4.94 54.56 5.12C54.56 5.32 54.54 5.63 54.35 6.75L56.20 6.75C56.39 5.89 56.56 5.11 56.56 4.34C56.56 3.16 56.04 2.69 54.45 2.69C53.24 2.69 52.63 2.90 52.19 3.53C51.74 4.17 51.49 4.80 51.02 7.46C50.55 10.09 50.41 11.19 50.41 11.98C50.41 13.33 51.09 13.65 52.57 13.65C54.32 13.65 54.98 12.95 55.38 11.44C55.58 10.67 55.68 10.04 55.75 9.41ZM61.71 13.47L63.57 2.87L61.54 2.87L60.82 6.97L59.58 6.97L60.31 2.87L58.28 2.87L56.42 13.47L58.45 13.47L59.21 9.11L60.44 9.11L59.68 13.47ZM71.57 6.16C71.82 5.54 71.95 4.82 71.95 4.17C71.95 3.05 71.36 2.69 69.96 2.69C68.08 2.69 67.56 3.42 67.20 5.08C66.98 6.09 66.92 6.58 66.92 7.11C66.92 7.55 67.03 7.83 67.24 8.06C67.68 8.58 68.42 8.79 68.95 9.25C69.19 9.45 69.27 9.66 69.27 9.97C69.27 10.07 69.26 10.23 69.16 10.68C69.06 11.16 68.92 11.40 68.42 11.40C68.07 11.40 67.93 11.27 67.93 10.91C67.93 10.64 68.00 10.15 68.10 9.93L66.44 9.93C66.19 10.60 66.02 11.51 66.02 12.14C66.02 13.24 66.65 13.65 67.98 13.65C69.90 13.65 70.62 12.88 71.06 10.36C71.18 9.76 71.22 9.30 71.22 8.95C71.22 8.26 71.02 8.01 70.69 7.73C70.27 7.38 69.79 7.24 69.12 6.75C68.91 6.59 68.82 6.43 68.82 6.09C68.82 5.98 68.84 5.77 68.91 5.49C69.02 5.05 69.10 4.83 69.58 4.83C69.93 4.83 70.07 4.94 70.07 5.25C70.07 5.36 70.04 5.52 69.93 6.16ZM74.91 13.47L76.38 5.11L77.88 5.11L78.27 2.87L73.30 2.87L72.91 5.11L74.41 5.11L72.94 13.47ZM81.28 10.21C81.10 11.19 80.99 11.28 80.53 11.28C80.18 11.28 80.04 11.24 80.04 10.93C80.04 10.78 80.08 10.54 80.14 10.21L81.42 2.87L79.39 2.87L78.11 10.21C77.97 10.99 77.91 11.51 77.91 11.89C77.91 13.41 78.64 13.65 80.08 13.65C81.28 13.65 81.90 13.47 82.32 12.88C82.67 12.40 82.91 11.96 83.26 10.21L84.55 2.87L82.57 2.87ZM86.04 13.47L86.76 9.38L88.90 9.38L89.28 7.22L87.14 7.22L87.51 5.11L89.70 5.11L90.09 2.87L85.93 2.87L84.07 13.47ZM91.48 13.47L92.19 9.38L94.33 9.38L94.71 7.22L92.57 7.22L92.95 5.11L95.13 5.11L95.52 2.87L91.36 2.87L89.50 13.47Z"></path></g><!----><!----></svg>