<svg data-v-423bf9ae="" xmlns="http://www.w3.org/2000/svg" viewBox="0 0 574.8660373357459 60" class="font"><!----><!----><!----><g data-v-423bf9ae="" id="ffca081d-2f73-49ff-a690-e1eae066180f" fill="white" transform="matrix(4.231311900141013,0,0,4.231311900141013,-1.0578250974980392,-11.42454161688967)"><path d="M3.09 14.77L3.09 14.77Q3.61 15.29 4.13 15.29L4.13 15.29L4.13 15.29Q4.41 15.29 4.68 15.11L4.68 15.11L4.68 15.11Q5.15 14.76 5.37 14.06L5.37 14.06L5.37 14.06Q5.59 13.36 5.63 12.68L5.63 12.68L5.63 12.68Q5.67 12.01 5.67 11.06L5.67 11.06L5.67 6.79L5.67 6.79Q5.67 6.48 5.70 6.10L5.70 6.10L5.70 6.10Q5.73 5.73 5.74 5.59L5.74 5.59L5.74 5.59Q5.80 4.94 5.80 4.68L5.80 4.68L5.80 4.68Q5.80 4.19 5.67 3.95L5.67 3.95L5.67 3.95Q5.54 3.81 5.42 3.74L5.42 3.74L5.42 3.74Q5.29 3.67 5.21 3.65L5.21 3.65L5.21 3.65Q5.14 3.64 5.11 3.64L5.11 3.64L5.11 3.64Q5.11 3.56 5.05 3.42L5.05 3.42L5.05 3.42Q5.00 3.29 4.98 3.25L4.98 3.25L4.98 3.25Q4.87 3.02 4.87 2.95L4.87 2.95L4.87 2.95Q4.87 2.87 4.98 2.87L4.98 2.87L4.98 2.87Q5.39 2.87 5.88 2.83L5.88 2.83L5.88 2.83Q6.05 2.83 6.43 2.81L6.43 2.81L6.43 2.81Q6.82 2.79 7.08 2.80L7.08 2.80L7.08 2.80Q7.60 2.81 7.86 3.00L7.86 3.00L7.86 3.00Q8.12 3.18 8.12 3.40L8.12 3.40L8.12 3.40Q8.12 3.58 7.97 3.70L7.97 3.70L7.97 3.70Q7.56 4.03 7.49 4.93L7.49 4.93L7.49 4.93Q7.46 5.19 7.46 5.81L7.46 5.81L7.46 5.81Q7.46 6.27 7.45 6.76L7.45 6.76L7.45 6.76Q7.43 7.25 7.36 7.63L7.36 7.63L7.36 10.47L7.36 10.78L7.36 10.78Q7.36 12.17 7.19 13.16L7.19 13.16L7.19 13.16Q7.01 14.15 6.52 15.05L6.52 15.05L6.52 15.05Q6.16 15.74 5.59 16.25L5.59 16.25L5.59 16.25Q5.01 16.76 4.24 16.76L4.24 16.76L4.24 16.76Q4.12 16.76 4.00 16.77L4.00 16.77L4.00 16.77Q3.89 16.79 3.57 16.79L3.57 16.79L3.57 16.79Q2.94 16.69 2.50 16.30L2.50 16.30L2.50 16.30Q2.06 15.92 1.68 15.33L1.68 15.33L1.68 15.33Q1.50 15.02 1.43 14.71L1.43 14.71L1.43 14.71Q1.36 14.39 1.30 13.85L1.30 13.85L1.30 13.85Q1.25 13.17 1.12 12.77L1.12 12.77L1.12 5.64L1.12 5.64Q1.12 5.45 1.15 5.08L1.15 5.08L1.16 4.54L1.16 4.54Q1.16 4.26 1.12 3.95L1.12 3.95L1.12 3.95Q1.11 3.82 1.00 3.75L1.00 3.75L1.00 3.75Q0.90 3.67 0.71 3.58L0.71 3.58L0.71 3.58Q0.48 3.49 0.36 3.39L0.36 3.39L0.36 3.39Q0.25 3.29 0.25 3.08L0.25 3.08L0.25 3.08Q0.41 2.93 0.59 2.88L0.59 2.88L0.59 2.88Q0.77 2.84 1.02 2.83L1.02 2.83L1.02 2.83Q1.26 2.81 1.40 2.80L1.40 2.80L1.40 2.80Q2.11 2.76 2.18 2.76L2.18 2.76L2.18 2.76Q2.87 2.76 3.15 3.04L3.15 3.04L3.15 3.04Q3.22 3.11 3.22 3.22L3.22 3.22L3.22 3.22Q3.22 3.49 2.81 3.95L2.81 3.95L2.81 5.64L2.81 8.22L2.83 11.31L2.83 11.31Q2.83 12.49 2.88 13.27L2.88 13.27L2.88 13.27Q2.93 14.06 3.09 14.77L3.09 14.77ZM13.20 3.37L13.20 3.37Q13.20 3.29 13.26 3.18L13.26 3.18L13.26 3.18Q13.31 3.07 13.51 3.07L13.51 3.07L13.51 3.07Q13.80 3.07 13.94 3.12L13.94 3.12L13.94 3.12Q14.08 3.16 14.08 3.37L14.08 3.37L14.08 3.37Q14.22 3.51 14.22 3.74L14.22 3.74L14.22 3.74Q14.22 3.91 14.14 4.21L14.14 4.21L14.14 4.21Q14.08 4.47 14.08 4.54L14.08 4.54L14.08 4.54Q14.04 4.63 13.88 5.01L13.88 5.01L13.88 5.01Q13.72 5.38 13.53 5.59L13.53 5.59L13.53 5.59Q13.34 5.80 13.13 5.80L13.13 5.80L13.13 5.80Q13.01 5.80 12.89 5.74L12.89 5.74L12.89 5.74Q12.77 5.61 12.77 5.36L12.77 5.36L12.77 5.36Q12.77 5.24 12.82 4.87L12.82 4.87L12.82 4.87Q12.89 4.38 12.89 4.26L12.89 4.26L12.89 4.26Q12.67 4.02 12.25 3.84L12.25 3.84L12.25 3.84Q11.83 3.65 11.41 3.65L11.41 3.65L11.41 3.65Q11.19 4.09 11.19 5.00L11.19 5.00L11.19 5.00Q11.19 5.91 11.41 6.36L11.41 6.36L11.41 6.36Q11.59 6.73 11.92 7.02L11.92 7.02L11.92 7.02Q12.25 7.31 12.82 7.70L12.82 7.70L12.82 7.70Q13.45 8.13 13.85 8.48L13.85 8.48L13.85 8.48Q14.24 8.82 14.52 9.31L14.52 9.31L14.52 9.31Q14.87 9.91 15.09 10.37L15.09 10.37L15.09 10.37Q15.32 10.81 15.43 11.33L15.43 11.33L15.43 11.33Q15.54 11.84 15.54 12.33L15.54 12.33L15.54 12.33Q15.54 13.17 15.41 13.76L15.41 13.76L15.41 13.76Q15.27 14.34 14.98 14.99L14.98 14.99L14.98 14.99Q14.64 15.72 14.08 16.14L14.08 16.14L14.08 16.14Q13.52 16.55 12.61 16.77L12.61 16.77L11.41 16.77L11.41 16.77Q11.03 16.77 10.51 16.37L10.51 16.37L10.51 16.37Q9.98 15.96 9.63 15.58L9.63 15.58L9.63 15.58Q9.20 14.77 9.20 13.87L9.20 13.87L9.20 13.87Q9.20 13.44 9.32 12.91L9.32 12.91L9.32 12.91Q9.17 12.91 9.02 13.06L9.02 13.06L9.02 13.06Q8.89 13.22 8.74 13.22L8.74 13.22L8.74 13.22Q8.53 13.01 8.48 12.80L8.48 12.80L8.48 12.80Q8.43 12.60 8.43 12.32L8.43 12.32L8.43 12.32Q8.90 12.15 9.53 12.05L9.53 12.05L9.53 12.05Q9.84 12.00 10.18 11.91L10.18 11.91L10.18 11.91Q10.51 11.83 10.82 11.70L10.82 11.70L10.82 11.70Q11.14 11.70 11.34 11.91L11.34 11.91L11.34 11.91Q11.54 12.12 11.54 12.43L11.54 12.43L11.54 12.43Q11.54 12.67 11.41 12.91L11.41 12.91L11.41 12.91Q11.12 12.91 10.92 12.96L10.92 12.96L10.92 12.96Q10.72 13.01 10.51 13.22L10.51 13.22L10.51 13.22Q10.21 13.52 10.21 14.17L10.21 14.17L10.21 14.17Q10.21 14.73 10.45 15.24L10.45 15.24L10.45 15.24Q10.70 15.75 11.10 15.89L11.10 15.89L11.10 15.89Q11.28 15.89 11.41 15.74L11.41 15.74L11.41 15.74Q11.42 15.72 11.51 15.65L11.51 15.65L11.51 15.65Q11.59 15.58 11.72 15.58L11.72 15.58L11.72 15.58Q12.70 15.09 13.21 14.05L13.21 14.05L13.21 14.05Q13.72 13.01 13.72 11.68L13.72 11.68L13.72 11.68Q13.72 10.81 13.51 9.93L13.51 9.93L13.51 9.93Q13.27 9.48 13.01 9.22L13.01 9.22L13.01 9.22Q12.75 8.96 12.31 8.72L12.31 8.72L12.31 8.72Q11.90 8.53 11.65 8.32L11.65 8.32L11.65 8.32Q11.40 8.12 11.10 7.83L11.10 7.83L11.10 7.83Q10.96 7.69 10.72 7.55L10.72 7.55L10.72 7.55Q10.36 7.34 10.11 7.07L10.11 7.07L10.11 7.07Q10.02 6.97 9.70 6.65L9.70 6.65L9.70 6.65Q9.38 6.33 9.20 6.03L9.20 6.03L9.20 6.03Q9.02 5.73 9.02 5.46L9.02 5.46L9.02 5.46Q8.95 5.25 8.95 4.97L8.95 4.97L8.95 4.97Q8.95 4.03 9.91 3.07L9.91 3.07L9.91 3.07Q10.02 3.07 10.15 3.02L10.15 3.02L10.15 3.02Q10.28 2.97 10.32 2.95L10.32 2.95L10.32 2.95Q10.71 2.76 11.10 2.76L11.10 2.76L11.10 2.76Q11.37 2.76 11.55 2.79L11.55 2.79L11.55 2.79Q11.73 2.83 12.00 2.91L12.00 2.91L12.61 3.07L12.61 3.07Q12.64 3.09 12.73 3.16L12.73 3.16L12.73 3.16Q12.81 3.23 12.94 3.30L12.94 3.30L12.94 3.30Q13.06 3.37 13.20 3.37L13.20 3.37ZM21.85 5.08L21.85 5.08Q21.78 4.98 21.73 4.82L21.73 4.82L21.73 4.82Q21.71 4.72 21.71 4.51L21.71 4.51L21.71 4.51Q21.71 4.28 21.69 4.16L21.69 4.16L21.69 4.16Q21.66 4.03 21.56 3.95L21.56 3.95L21.56 3.95Q21.28 3.79 20.99 3.65L20.99 3.65L20.99 3.65Q20.34 3.65 19.86 3.70L19.86 3.70L19.86 3.70Q19.38 3.75 19.00 3.95L19.00 3.95L19.00 3.95Q18.84 4.09 18.80 4.30L18.80 4.30L18.80 4.30Q18.75 4.52 18.75 4.90L18.75 4.90L18.75 4.90Q18.75 5.56 18.72 6.26L18.72 6.26L18.70 7.07L18.70 7.07Q18.70 7.28 18.77 7.91L18.77 7.91L18.77 7.91Q18.83 8.33 18.83 8.50L18.83 8.50L18.83 8.50Q18.83 8.83 18.70 9.09L18.70 9.09L18.70 9.09Q18.90 9.25 19.34 9.30L19.34 9.30L19.34 9.30Q19.78 9.35 20.41 9.35L20.41 9.35L20.41 9.35Q20.41 9.00 20.46 8.76L20.46 8.76L20.46 8.76Q20.51 8.51 20.71 8.51L20.71 8.51L20.71 8.51Q20.92 8.51 20.99 8.55L20.99 8.55L20.99 8.55Q21.06 8.58 21.28 8.79L21.28 8.79L21.28 8.79Q21.21 8.93 21.21 9.10L21.21 9.10L21.21 9.10Q21.20 9.17 21.20 9.34L21.20 9.34L21.20 9.34Q21.20 9.63 21.24 9.95L21.24 9.95L21.24 9.95Q21.27 10.35 21.27 10.51L21.27 10.51L21.27 10.51Q21.27 10.79 21.20 10.94L21.20 10.94L21.20 10.94Q21.14 11.09 20.99 11.09L20.99 11.09L20.99 11.09Q20.94 11.06 20.80 10.98L20.80 10.98L20.80 10.98Q20.66 10.89 20.54 10.77L20.54 10.77L20.54 10.77Q20.41 10.64 20.41 10.51L20.41 10.51L20.41 10.22L19.00 10.22L19.00 10.22Q18.84 10.67 18.84 11.41L18.84 11.41L18.84 11.41Q18.84 11.89 18.89 12.35L18.89 12.35L18.89 12.35Q18.91 12.91 18.91 13.12L18.91 13.12L18.91 13.12Q18.91 13.17 18.96 14.64L18.96 14.64L18.96 14.64Q19.00 15.26 19.00 15.65L19.00 15.65L19.00 15.65Q19.57 15.85 20.03 15.89L20.03 15.89L20.03 15.89Q20.48 15.93 21.28 15.93L21.28 15.93L21.28 15.93Q21.49 15.83 21.53 15.64L21.53 15.64L21.53 15.64Q21.57 15.51 21.57 15.23L21.57 15.23L21.57 15.23Q21.57 14.94 21.62 14.78L21.62 14.78L21.62 14.78Q21.67 14.62 21.85 14.52L21.85 14.52L21.85 14.52Q22.23 14.52 22.33 14.90L22.33 14.90L22.33 14.90Q22.43 15.29 22.43 15.93L22.43 15.93L22.43 15.93Q22.43 16.13 22.30 16.30L22.30 16.30L22.30 16.30Q22.16 16.48 21.85 16.80L21.85 16.80L20.41 16.80L20.41 16.80Q18.98 16.80 17.98 16.75L17.98 16.75L17.98 16.75Q16.98 16.70 15.85 16.51L15.85 16.51L15.85 15.93L17.00 15.93L17.00 15.93Q17.12 15.19 17.12 14.31L17.12 14.31L17.12 14.31Q17.12 13.82 17.07 12.78L17.07 12.78L17.07 12.78Q17.00 11.87 17.00 11.09L17.00 11.09L17.00 10.51L17.00 7.64L17.00 6.51L17.00 3.95L15.85 3.95L15.85 3.37L15.85 3.37Q16.44 3.22 17.61 3.08L17.61 3.08L17.61 3.08Q18.73 2.94 19.28 2.80L19.28 2.80L22.13 2.80L22.13 2.80Q22.16 2.83 22.23 2.91L22.23 2.91L22.23 2.91Q22.30 2.98 22.37 3.12L22.37 3.12L22.37 3.12Q22.43 3.25 22.43 3.37L22.43 3.37L22.43 3.37Q22.43 3.54 22.50 3.85L22.50 3.85L22.50 3.85Q22.57 4.34 22.57 4.44L22.57 4.44L22.57 4.44Q22.57 4.75 22.41 4.91L22.41 4.91L22.41 4.91Q22.26 5.08 21.85 5.08L21.85 5.08ZM36.20 10.33L36.20 10.33Q36.37 9.81 36.48 9.29L36.48 9.29L36.48 9.29Q36.60 8.76 36.67 8.31L36.67 8.31L36.67 8.31Q36.75 7.85 36.78 7.71L36.78 7.71L36.78 7.71Q36.85 7.35 37.03 6.69L37.03 6.69L37.30 5.64L37.42 5.18L37.42 5.18Q37.53 4.75 37.59 4.49L37.59 4.49L37.59 4.49Q37.65 4.24 37.65 3.96L37.65 3.96L37.65 3.96Q37.65 3.54 38.01 3.19L38.01 3.19L38.01 3.19Q38.37 2.83 38.81 2.83L38.81 2.83L40.53 2.83L40.53 2.83Q40.66 2.83 40.72 2.89L40.72 2.89L40.72 2.89Q40.78 2.95 40.88 3.09L40.88 3.09L40.88 3.09Q41.02 3.30 41.12 3.40L41.12 3.40L41.12 3.40Q40.92 3.60 40.76 3.70L40.76 3.70L40.76 3.70Q40.60 3.81 40.39 3.81L40.39 3.81L40.39 3.81Q40.18 3.81 39.96 3.70L39.96 3.70L39.96 3.70Q39.83 4.06 39.83 4.48L39.83 4.48L39.83 4.48Q39.83 4.70 39.89 5.18L39.89 5.18L39.89 5.18Q39.96 5.60 39.96 5.99L39.96 5.99L39.96 7.15L39.96 8.60L39.96 10.91L39.94 11.73L39.94 11.73Q39.93 11.93 39.93 12.31L39.93 12.31L39.93 12.31Q39.93 12.71 39.96 12.92L39.96 12.92L39.96 12.92Q40.01 13.44 40.01 14.01L40.01 14.01L40.01 14.01Q40.01 14.38 39.98 14.97L39.98 14.97L39.98 14.97Q39.96 15.55 39.96 15.81L39.96 15.81L39.96 15.81Q40.42 15.81 40.78 16.04L40.78 16.04L40.78 16.04Q41.15 16.28 41.15 16.53L41.15 16.53L41.15 16.53Q41.15 16.73 40.94 16.83L40.94 16.83L40.94 16.83Q40.75 16.83 40.63 16.79L40.63 16.79L40.63 16.79Q40.60 16.79 40.52 16.77L40.52 16.77L40.52 16.77Q40.43 16.74 40.32 16.74L40.32 16.74L40.32 16.74Q40.26 16.74 40.01 16.79L40.01 16.79L40.01 16.79Q39.84 16.84 39.69 16.84L39.69 16.84L39.19 16.74L39.19 16.74Q39.27 16.70 39.10 16.73L39.10 16.73L39.10 16.73Q38.93 16.76 38.71 16.79L38.71 16.79L38.71 16.79Q38.49 16.83 38.22 16.83L38.22 16.83L38.22 16.83Q38.22 16.73 38.19 16.69L38.19 16.69L38.19 16.69Q38.15 16.65 38.05 16.59L38.05 16.59L38.05 16.59Q37.94 16.53 37.94 16.39L37.94 16.39L37.94 16.39Q37.94 16.28 38.03 16.22L38.03 16.22L38.03 16.22Q38.12 16.16 38.33 16.07L38.33 16.07L38.33 16.07Q38.70 15.92 38.81 15.81L38.81 15.81L38.81 15.81Q38.61 14.49 38.61 12.61L38.61 12.61L38.61 12.61Q38.61 12.03 38.64 10.71L38.64 10.71L38.64 10.71Q38.67 9.76 38.67 9.27L38.67 9.27L38.67 9.27Q38.67 9.10 38.72 8.48L38.72 8.48L38.72 8.48Q38.81 7.78 38.81 7.45L38.81 7.45L38.81 6.29L38.81 6.29Q38.81 6.13 38.80 6.06L38.80 6.06L38.80 6.06Q38.79 5.98 38.70 5.74L38.70 5.74L38.71 5.47L38.71 5.47Q38.71 5.32 38.51 5.12L38.51 5.12L38.51 5.12Q38.51 5.14 38.53 5.20L38.53 5.20L38.53 5.20Q38.54 5.26 38.54 5.36L38.54 5.36L38.54 5.36Q38.54 5.57 38.47 5.71L38.47 5.71L38.47 5.71Q38.33 6.06 38.19 6.63L38.19 6.63L38.19 6.63Q38.04 7.20 37.91 7.78L37.91 7.78L37.91 7.78Q37.74 8.51 37.65 8.88L37.65 8.88L37.65 8.88Q37.62 8.97 37.53 9.28L37.53 9.28L37.53 9.28Q37.44 9.58 37.39 9.76L37.39 9.76L37.20 10.81L37.20 10.81Q36.96 12.00 36.89 12.32L36.89 12.32L36.89 12.32Q36.85 12.50 36.79 13.01L36.79 13.01L36.79 13.01Q36.74 13.54 36.67 13.81L36.67 13.81L36.67 13.81Q36.61 14.08 36.48 14.08L36.48 14.08L36.48 14.08Q36.30 14.08 36.05 13.93L36.05 13.93L36.05 13.93Q35.77 13.79 35.64 13.79L35.64 13.79L35.64 13.79Q35.64 13.48 35.59 13.24L35.59 13.24L35.59 13.24Q35.55 12.99 35.43 12.64L35.43 12.64L35.35 12.35L35.11 11.48L35.11 11.48Q35.04 11.24 34.90 10.73L34.90 10.73L34.90 10.73Q34.76 10.22 34.64 9.81L34.64 9.81L34.64 9.81Q34.31 8.78 34.05 8.08L34.05 8.08L34.05 8.08Q34.01 7.97 33.95 7.78L33.95 7.78L33.95 7.78Q33.89 7.59 33.81 7.43L33.81 7.43L33.81 7.43Q33.73 7.28 33.60 7.15L33.60 7.15L33.60 9.17L33.60 9.17Q33.60 9.52 33.47 10.30L33.47 10.30L33.47 10.30Q33.32 11.35 33.32 11.76L33.32 11.76L33.32 13.22L33.32 15.81L33.32 15.81Q33.60 15.81 33.75 15.86L33.75 15.86L33.75 15.86Q33.89 15.90 33.89 16.10L33.89 16.10L33.89 16.10Q33.89 16.45 33.50 16.58L33.50 16.58L33.50 16.58Q33.11 16.72 32.48 16.72L32.48 16.72L32.48 16.72Q32.17 16.72 31.70 16.69L31.70 16.69L31.30 16.67L31.30 16.67Q31.18 16.67 31.11 16.61L31.11 16.61L31.11 16.61Q31.05 16.55 30.95 16.41L30.95 16.41L30.95 16.41Q30.81 16.20 30.72 16.10L30.72 16.10L30.72 16.10Q30.81 16.00 30.89 15.89L30.89 15.89L30.89 15.89Q30.97 15.78 31.04 15.73L31.04 15.73L31.04 15.73Q31.11 15.68 31.21 15.68L31.21 15.68L31.21 15.68Q31.35 15.68 31.60 15.81L31.60 15.81L31.60 12.92L31.60 9.17L31.60 8.60L31.60 5.71L31.60 3.70L31.60 3.70Q31.44 3.70 31.32 3.75L31.32 3.75L31.32 3.75Q31.21 3.79 31.08 3.79L31.08 3.79L31.08 3.79Q31.00 3.79 30.91 3.77L30.91 3.77L30.91 3.77Q30.81 3.75 30.77 3.75L30.77 3.75L30.77 3.75Q30.58 3.70 30.44 3.70L30.44 3.70L30.44 3.70Q30.21 3.47 30.18 3.37L30.18 3.37L30.18 3.37Q30.14 3.26 30.14 2.83L30.14 2.83L30.14 2.83Q30.52 2.70 31.02 2.70L31.02 2.70L31.02 2.70Q32.05 2.70 33.32 3.11L33.32 3.11L33.32 3.11Q33.54 3.58 33.72 3.92L33.72 3.92L33.72 3.92Q33.89 4.26 34.01 4.48L34.01 4.48L34.01 4.48Q34.05 4.54 34.19 4.83L34.19 4.83L34.19 5.12L34.19 5.12Q34.50 5.74 34.76 6.46L34.76 6.46L34.76 6.46Q35.01 7.18 35.32 8.18L35.32 8.18L35.57 8.96L35.57 8.96Q35.69 9.30 35.79 9.53L35.79 9.53L35.79 9.53Q35.90 9.76 36.02 9.98L36.02 9.98L36.20 10.33ZM49.73 2.91L49.73 2.91Q49.73 3.25 49.69 3.48L49.69 3.48L49.69 3.48Q49.64 3.71 49.48 3.71L49.48 3.71L48.65 3.71L48.65 3.71Q48.54 4.06 48.12 5.53L48.12 5.53L48.12 5.53Q47.84 6.61 47.61 7.37L47.61 7.37L47.61 7.37Q47.38 8.13 47.05 8.79L47.05 8.79L47.05 8.79Q46.86 8.99 46.79 9.21L46.79 9.21L46.79 9.21Q46.72 9.42 46.72 9.73L46.72 9.73L46.73 10.21L46.73 10.21Q46.76 10.63 46.76 10.92L46.76 10.92L46.76 10.92Q46.69 11.05 46.69 11.33L46.69 11.33L46.69 11.33Q46.69 11.55 46.75 12.00L46.75 12.00L46.75 12.00Q46.76 12.11 46.77 12.25L46.77 12.25L46.77 12.25Q46.79 12.39 46.79 12.53L46.79 12.53L46.79 12.53Q46.79 12.77 46.76 13.36L46.76 13.36L46.76 13.36Q46.73 13.97 46.73 14.31L46.73 14.31L46.73 14.31Q46.73 15.41 47.05 15.74L47.05 15.74L47.05 15.74Q47.11 15.74 47.29 15.74L47.29 15.74L47.29 15.74Q47.46 15.75 47.62 15.81L47.62 15.81L47.62 15.81Q47.78 15.86 47.78 15.97L47.78 15.97L47.78 15.97Q47.80 16.03 47.84 16.19L47.84 16.19L47.84 16.19Q47.88 16.35 47.88 16.49L47.88 16.49L47.88 16.49Q47.88 16.73 47.74 16.77L47.74 16.77L47.74 16.77Q47.29 16.88 46.77 16.88L46.77 16.88L46.77 16.88Q46.47 16.88 45.96 16.83L45.96 16.83L45.96 16.83Q45.60 16.80 45.46 16.80L45.46 16.80L44.11 16.80L44.11 16.80Q43.93 16.62 43.93 16.41L43.93 16.41L43.93 16.41Q43.93 16.20 44.11 16.00L44.11 16.00L44.11 16.00Q44.23 15.90 44.37 15.89L44.37 15.89L44.37 15.89Q44.46 15.88 44.66 15.88L44.66 15.88L44.66 15.88Q44.87 15.88 44.99 15.86L44.99 15.86L44.99 15.86Q45.11 15.83 45.19 15.74L45.19 15.74L45.21 13.73L45.21 13.73Q45.21 11.73 44.94 10.33L44.94 10.33L44.94 10.33Q44.67 8.93 43.86 8.25L43.86 8.25L43.86 8.25Q43.67 7.66 43.22 6.69L43.22 6.69L43.06 6.37L43.06 6.37Q42.78 5.53 42.65 4.97L42.65 4.97L42.65 4.97Q42.52 4.41 42.52 3.71L42.52 3.71L42.52 3.71Q42.18 3.71 41.95 3.67L41.95 3.67L41.95 3.67Q41.72 3.63 41.72 3.46L41.72 3.46L41.72 3.46Q41.69 3.07 41.90 2.91L41.90 2.91L41.90 2.91Q42.11 2.74 42.49 2.74L42.49 2.74L42.49 2.74Q42.73 2.74 43.12 2.80L43.12 2.80L43.12 2.80Q43.37 2.84 43.57 2.84L43.57 2.84L43.57 2.84Q43.83 2.84 44.37 2.87L44.37 2.87L44.37 2.87Q44.79 2.91 45.19 2.91L45.19 2.91L45.19 2.91Q45.37 3.09 45.42 3.27L45.42 3.27L45.42 3.27Q45.46 3.44 45.46 3.71L45.46 3.71L45.46 3.71Q45.35 3.71 45.15 3.68L45.15 3.68L45.15 3.68Q44.95 3.64 44.83 3.64L44.83 3.64L44.83 3.64Q44.56 3.64 44.42 3.78L44.42 3.78L44.42 3.78Q44.49 4.02 44.51 4.36L44.51 4.36L44.51 4.36Q44.52 4.70 44.53 4.84L44.53 4.84L44.53 4.84Q44.55 5.03 44.62 5.43L44.62 5.43L44.62 5.43Q44.63 5.52 44.65 5.62L44.65 5.62L44.65 5.62Q44.66 5.73 44.66 5.85L44.66 5.85L44.66 5.85Q44.87 6.66 45.23 7.40L45.23 7.40L45.23 7.40Q45.60 8.13 45.99 8.53L45.99 8.53L45.99 8.53Q46.24 8.40 46.38 8.17L46.38 8.17L46.38 8.17Q46.51 7.94 46.69 7.48L46.69 7.48L46.69 7.48Q46.82 7.11 46.96 6.80L46.96 6.80L46.96 6.80Q47.25 6.19 47.43 5.40L47.43 5.40L47.43 5.40Q47.60 4.62 47.61 3.98L47.61 3.98L47.61 3.98Q47.61 3.85 47.52 3.79L47.52 3.79L47.52 3.79Q47.43 3.72 47.19 3.64L47.19 3.64L47.19 3.64Q46.94 3.56 46.78 3.46L46.78 3.46L46.78 3.46Q46.62 3.36 46.54 3.18L46.54 3.18L46.54 3.18Q46.54 2.84 47.43 2.84L47.43 2.84L47.43 2.84Q47.85 2.84 48.27 2.88L48.27 2.88L48.27 2.88Q48.75 2.91 48.93 2.91L48.93 2.91L48.93 2.91Q49.04 2.91 49.21 2.84L49.21 2.84L49.21 2.84Q49.38 2.79 49.48 2.79L49.48 2.79L49.48 2.79Q49.62 2.79 49.73 2.91L49.73 2.91ZM64.33 5.45L64.33 5.45Q64.26 5.38 64.20 5.18L64.20 5.18L64.20 5.18Q64.19 5.07 64.19 4.83L64.19 4.83L64.19 4.83Q64.19 4.56 64.16 4.37L64.16 4.37L64.16 4.37Q64.13 4.17 64.04 3.98L64.04 3.98L64.04 3.98Q63.91 3.85 63.59 3.85L63.59 3.85L63.59 3.85Q63.31 3.85 62.93 3.92L62.93 3.92L62.93 3.92Q62.48 3.98 62.30 3.98L62.30 3.98L62.30 3.98Q62.17 4.23 62.17 4.65L62.17 4.65L62.17 4.65Q62.17 4.98 62.24 5.40L62.24 5.40L62.24 5.40Q62.30 5.85 62.30 6.03L62.30 6.03L62.30 11.55L62.30 13.90L62.30 14.49L62.30 14.49Q62.30 14.80 62.26 15.06L62.26 15.06L62.26 15.06Q62.23 15.37 62.23 15.53L62.23 15.53L62.23 15.53Q62.23 15.79 62.30 15.95L62.30 15.95L62.30 15.95Q62.33 16.02 62.41 16.04L62.41 16.04L62.41 16.04Q62.50 16.07 62.56 16.09L62.56 16.09L62.56 16.09Q62.62 16.10 62.65 16.10L62.65 16.10L62.65 16.10Q62.89 16.13 63.03 16.21L63.03 16.21L63.03 16.21Q63.17 16.28 63.17 16.52L63.17 16.52L63.17 16.52Q63.14 16.55 63.06 16.62L63.06 16.62L63.06 16.62Q62.97 16.69 62.84 16.75L62.84 16.75L62.84 16.75Q62.71 16.81 62.58 16.81L62.58 16.81L59.95 16.81L59.95 16.81Q59.75 16.81 59.70 16.67L59.70 16.67L59.70 16.67Q59.65 16.52 59.65 16.23L59.65 16.23L59.65 16.23Q59.81 16.23 60.09 16.09L60.09 16.09L60.09 16.09Q60.37 15.95 60.52 15.95L60.52 15.95L60.54 13.50L60.54 13.50Q60.54 12.74 60.52 12.43L60.52 12.43L60.52 12.43Q60.51 12.03 60.51 11.26L60.51 11.26L60.52 8.95L60.52 7.49L60.52 6.90L60.52 6.90Q60.52 5.81 60.47 5.19L60.47 5.19L60.47 5.19Q60.42 4.58 60.23 3.98L60.23 3.98L60.23 3.98Q59.89 3.88 59.50 3.88L59.50 3.88L59.43 3.88L59.43 3.88Q58.74 3.88 58.30 4.18L58.30 4.18L58.30 4.18Q57.86 4.48 57.86 5.10L57.86 5.10L57.86 5.10Q57.86 5.25 57.90 5.45L57.90 5.45L57.90 5.45Q57.89 5.47 57.80 5.52L57.80 5.52L57.80 5.52Q57.71 5.57 57.61 5.57L57.61 5.57L57.61 5.57Q57.46 5.57 57.33 5.45L57.33 5.45L57.33 5.45Q57.33 5.28 57.27 4.83L57.27 4.83L57.27 4.83Q57.20 4.20 57.20 4.06L57.20 4.06L57.20 4.06Q57.20 3.64 57.33 3.39L57.33 3.39L57.33 3.39Q57.82 3.14 58.27 3.01L58.27 3.01L58.27 3.01Q58.72 2.88 59.32 2.88L59.32 2.88L59.32 2.88Q59.75 2.88 60.76 2.86L60.76 2.86L60.76 2.86Q61.56 2.81 62.30 2.81L62.30 2.81L62.30 2.81Q63.34 2.81 64.03 2.91L64.03 2.91L64.03 2.91Q64.72 3.01 64.90 3.39L64.90 3.39L64.90 3.39Q65.09 3.91 65.09 4.40L65.09 4.40L65.09 4.40Q65.09 4.86 64.90 5.15L64.90 5.15L64.90 5.15Q64.72 5.45 64.33 5.45L64.33 5.45ZM71.64 5.08L71.64 5.08Q71.57 4.98 71.51 4.82L71.51 4.82L71.51 4.82Q71.50 4.72 71.50 4.51L71.50 4.51L71.50 4.51Q71.50 4.28 71.47 4.16L71.47 4.16L71.47 4.16Q71.44 4.03 71.34 3.95L71.34 3.95L71.34 3.95Q71.06 3.79 70.77 3.65L70.77 3.65L70.77 3.65Q70.13 3.65 69.64 3.70L69.64 3.70L69.64 3.70Q69.16 3.75 68.78 3.95L68.78 3.95L68.78 3.95Q68.63 4.09 68.58 4.30L68.58 4.30L68.58 4.30Q68.53 4.52 68.53 4.90L68.53 4.90L68.53 4.90Q68.53 5.56 68.50 6.26L68.50 6.26L68.49 7.07L68.49 7.07Q68.49 7.28 68.56 7.91L68.56 7.91L68.56 7.91Q68.61 8.33 68.61 8.50L68.61 8.50L68.61 8.50Q68.61 8.83 68.49 9.09L68.49 9.09L68.49 9.09Q68.68 9.25 69.13 9.30L69.13 9.30L69.13 9.30Q69.57 9.35 70.20 9.35L70.20 9.35L70.20 9.35Q70.20 9.00 70.24 8.76L70.24 8.76L70.24 8.76Q70.29 8.51 70.49 8.51L70.49 8.51L70.49 8.51Q70.70 8.51 70.77 8.55L70.77 8.55L70.77 8.55Q70.84 8.58 71.06 8.79L71.06 8.79L71.06 8.79Q70.99 8.93 70.99 9.10L70.99 9.10L70.99 9.10Q70.98 9.17 70.98 9.34L70.98 9.34L70.98 9.34Q70.98 9.63 71.02 9.95L71.02 9.95L71.02 9.95Q71.05 10.35 71.05 10.51L71.05 10.51L71.05 10.51Q71.05 10.79 70.99 10.94L70.99 10.94L70.99 10.94Q70.92 11.09 70.77 11.09L70.77 11.09L70.77 11.09Q70.73 11.06 70.59 10.98L70.59 10.98L70.59 10.98Q70.45 10.89 70.32 10.77L70.32 10.77L70.32 10.77Q70.20 10.64 70.20 10.51L70.20 10.51L70.20 10.22L68.78 10.22L68.78 10.22Q68.63 10.67 68.63 11.41L68.63 11.41L68.63 11.41Q68.63 11.89 68.67 12.35L68.67 12.35L68.67 12.35Q68.70 12.91 68.70 13.12L68.70 13.12L68.70 13.12Q68.70 13.17 68.74 14.64L68.74 14.64L68.74 14.64Q68.78 15.26 68.78 15.65L68.78 15.65L68.78 15.65Q69.36 15.85 69.81 15.89L69.81 15.89L69.81 15.89Q70.27 15.93 71.06 15.93L71.06 15.93L71.06 15.93Q71.27 15.83 71.32 15.64L71.32 15.64L71.32 15.64Q71.36 15.51 71.36 15.23L71.36 15.23L71.36 15.23Q71.36 14.94 71.41 14.78L71.41 14.78L71.41 14.78Q71.46 14.62 71.64 14.52L71.64 14.52L71.64 14.52Q72.02 14.52 72.11 14.90L72.11 14.90L72.11 14.90Q72.21 15.29 72.21 15.93L72.21 15.93L72.21 15.93Q72.21 16.13 72.08 16.30L72.08 16.30L72.08 16.30Q71.95 16.48 71.64 16.80L71.64 16.80L70.20 16.80L70.20 16.80Q68.77 16.80 67.77 16.75L67.77 16.75L67.77 16.75Q66.77 16.70 65.63 16.51L65.63 16.51L65.63 15.93L66.78 15.93L66.78 15.93Q66.91 15.19 66.91 14.31L66.91 14.31L66.91 14.31Q66.91 13.82 66.85 12.78L66.85 12.78L66.85 12.78Q66.78 11.87 66.78 11.09L66.78 11.09L66.78 10.51L66.78 7.64L66.78 6.51L66.78 3.95L65.63 3.95L65.63 3.37L65.63 3.37Q66.22 3.22 67.40 3.08L67.40 3.08L67.40 3.08Q68.52 2.94 69.06 2.80L69.06 2.80L71.92 2.80L71.92 2.80Q71.95 2.83 72.02 2.91L72.02 2.91L72.02 2.91Q72.09 2.98 72.15 3.12L72.15 3.12L72.15 3.12Q72.21 3.25 72.21 3.37L72.21 3.37L72.21 3.37Q72.21 3.54 72.28 3.85L72.28 3.85L72.28 3.85Q72.35 4.34 72.35 4.44L72.35 4.44L72.35 4.44Q72.35 4.75 72.20 4.91L72.20 4.91L72.20 4.91Q72.04 5.08 71.64 5.08L71.64 5.08ZM79.55 3.67L79.55 3.67Q79.55 3.77 79.60 3.83L79.60 3.83L79.60 3.83Q79.65 3.89 79.70 3.95L79.70 3.95L79.70 3.95Q79.86 4.07 79.86 4.23L79.86 4.23L79.86 4.23Q79.86 4.89 79.80 5.29L79.80 5.29L79.80 5.29Q79.74 5.68 79.55 5.68L79.55 5.68L79.55 5.68Q79.31 5.68 79.24 5.49L79.24 5.49L79.24 5.49Q79.17 5.29 79.13 4.87L79.13 4.87L79.13 4.87Q79.10 4.35 78.97 4.23L78.97 4.23L78.97 4.23Q78.33 4.02 77.70 4.02L77.70 4.02L77.70 4.02Q77.08 4.02 76.65 4.23L76.65 4.23L76.65 4.23Q76.47 4.41 76.20 4.97L76.20 4.97L76.20 4.97Q75.95 5.50 75.77 5.68L75.77 5.68L75.77 5.68Q75.77 5.75 75.71 5.92L75.71 5.92L75.71 5.92Q75.66 6.09 75.49 6.27L75.49 6.27L75.49 6.27Q75.28 7.07 75.23 7.76L75.23 7.76L75.23 7.76Q75.18 8.46 75.18 9.77L75.18 9.77L75.18 11.51L75.18 11.51Q75.82 15.16 77.22 15.89L77.22 15.89L77.22 15.89Q77.45 16.00 77.73 16.00L77.73 16.00L77.73 16.00Q78.01 16.00 78.30 15.90L78.30 15.90L78.30 15.90Q78.60 15.79 78.97 15.58L78.97 15.58L78.97 15.58Q79.09 15.37 79.10 15.11L79.10 15.11L79.10 15.11Q79.11 14.94 79.11 14.56L79.11 14.56L79.11 14.56Q79.11 14.20 79.13 13.96L79.13 13.96L79.13 13.96Q79.16 13.73 79.25 13.54L79.25 13.54L79.25 13.54Q79.49 13.54 79.62 13.59L79.62 13.59L79.62 13.59Q79.74 13.64 79.87 13.73L79.87 13.73L79.87 13.73Q79.88 13.75 79.96 13.80L79.96 13.80L79.96 13.80Q80.04 13.85 80.14 13.85L80.14 13.85L80.14 15.89L80.14 15.89Q79.74 16.83 78.15 16.83L78.15 16.83L78.15 16.83Q77.55 16.83 76.94 16.73L76.94 16.73L76.94 16.73Q76.33 16.63 75.49 16.45L75.49 16.45L75.49 16.45Q75.14 16.13 74.96 15.99L74.96 15.99L74.96 15.99Q74.55 15.67 74.28 15.39L74.28 15.39L74.28 15.39Q74.00 15.12 73.74 14.70L73.74 14.70L73.74 14.70Q73.60 14.04 73.44 13.47L73.44 13.47L73.44 13.47Q73.15 12.28 73.00 11.45L73.00 11.45L73.00 11.45Q72.86 10.61 72.86 9.77L72.86 9.77L72.86 9.77Q72.94 9.32 73.08 8.43L73.08 8.43L73.08 8.43Q73.25 7.39 73.39 6.71L73.39 6.71L73.39 6.71Q73.53 6.03 73.74 5.40L73.74 5.40L73.74 5.40Q73.85 5.28 73.99 5.00L73.99 5.00L73.99 5.00Q74.09 4.70 74.30 4.52L74.30 4.52L74.30 4.52Q74.80 3.81 75.65 3.30L75.65 3.30L75.65 3.30Q76.50 2.79 77.50 2.79L77.50 2.79L77.50 2.79Q77.87 2.90 78.12 2.95L78.12 2.95L78.12 2.95Q78.67 3.11 78.96 3.24L78.96 3.24L78.96 3.24Q79.25 3.37 79.55 3.67L79.55 3.67ZM88.14 3.96L88.14 3.96Q87.95 4.34 87.90 4.87L87.90 4.87L87.90 4.87Q87.85 5.39 87.85 6.26L87.85 6.26L87.85 8.81L87.85 11.09L87.85 11.09Q87.85 11.94 88.00 13.38L88.00 13.38L88.00 13.38Q88.14 14.95 88.14 15.65L88.14 15.65L88.14 15.65Q88.26 15.76 88.45 15.88L88.45 15.88L88.45 15.88Q88.59 15.97 88.65 16.04L88.65 16.04L88.65 16.04Q88.72 16.10 88.72 16.23L88.72 16.23L88.72 16.80L88.72 16.80Q88.72 16.79 88.68 16.73L88.68 16.73L88.68 16.73Q88.63 16.67 88.58 16.67L88.58 16.67L88.58 16.67Q88.51 16.67 88.44 16.74L88.44 16.74L88.44 16.74Q88.26 16.80 88.14 16.81L88.14 16.81L88.14 16.81Q88.03 16.81 88.00 16.81L88.00 16.81L87.67 16.81L87.67 16.81Q87.51 16.80 87.00 16.80L87.00 16.80L86.32 16.81L86.32 16.81Q86.16 16.65 86.16 16.56L86.16 16.56L86.16 16.56Q86.16 16.49 86.27 16.39L86.27 16.39L86.27 16.39Q86.38 16.28 86.44 16.23L86.44 16.23L86.44 16.23Q86.44 16.13 86.51 16.07L86.51 16.07L86.51 16.07Q86.58 16.00 86.72 15.93L86.72 15.93L86.72 15.93Q86.86 15.86 86.93 15.81L86.93 15.81L86.93 15.81Q87.00 15.75 87.00 15.65L87.00 15.65L87.00 15.65Q87.12 14.69 87.12 13.30L87.12 13.30L87.12 13.30Q87.12 12.22 87.05 10.86L87.05 10.86L87.05 10.86Q87.00 9.27 87.00 8.53L87.00 8.53L87.00 8.53Q87.00 8.40 86.93 8.33L86.93 8.33L86.93 8.33Q86.87 8.26 86.80 8.25L86.80 8.25L86.80 8.25Q86.73 8.23 86.70 8.23L86.70 8.23L86.70 8.23Q86.34 8.11 85.78 8.11L85.78 8.11L85.78 8.11Q85.33 8.11 84.77 8.18L84.77 8.18L84.77 8.18Q84.13 8.23 83.86 8.23L83.86 8.23L83.86 8.23Q83.47 8.62 83.38 9.04L83.38 9.04L83.38 9.04Q83.29 9.45 83.29 10.25L83.29 10.25L83.29 13.37L83.29 14.24L83.29 14.24Q83.37 14.38 83.43 14.63L83.43 14.63L83.43 14.63Q83.44 14.74 83.44 14.95L83.44 14.95L83.44 14.95Q83.44 15.16 83.46 15.32L83.46 15.32L83.46 15.32Q83.48 15.47 83.58 15.65L83.58 15.65L83.58 15.65Q83.73 15.65 83.92 15.83L83.92 15.83L83.92 15.83Q84.11 16.00 84.11 16.18L84.11 16.18L84.11 16.18Q84.11 16.39 83.86 16.51L83.86 16.51L83.86 16.51Q83.58 16.51 82.81 16.58L82.81 16.58L82.81 16.58Q82.28 16.63 82.01 16.63L82.01 16.63L82.01 16.63Q81.51 16.63 81.02 16.51L81.02 16.51L81.02 16.51Q80.99 16.46 80.94 16.31L80.94 16.31L80.94 16.31Q80.89 16.16 80.89 16.00L80.89 16.00L80.89 16.00Q80.89 15.78 81.02 15.65L81.02 15.65L81.59 15.65L81.59 14.52L81.59 7.95L81.59 7.38L81.59 7.10L81.59 6.26L81.59 5.96L81.59 5.96Q81.52 5.80 81.47 5.49L81.47 5.49L81.47 5.49Q81.45 5.32 81.45 4.96L81.45 4.96L81.45 4.96Q81.45 4.61 81.42 4.38L81.42 4.38L81.42 4.38Q81.40 4.14 81.30 3.96L81.30 3.96L81.30 3.96Q81.27 3.96 81.19 3.95L81.19 3.95L81.19 3.95Q81.12 3.93 80.98 3.86L80.98 3.86L80.98 3.86Q80.85 3.79 80.72 3.67L80.72 3.67L80.72 3.67Q80.70 3.65 80.65 3.56L80.65 3.56L80.65 3.56Q80.60 3.47 80.60 3.37L80.60 3.37L80.60 3.37Q80.60 3.22 80.72 3.09L80.72 3.09L81.87 3.09L81.87 3.09Q82.05 3.09 82.47 3.04L82.47 3.04L82.47 3.04Q82.89 2.97 83.22 2.97L83.22 2.97L83.22 2.97Q83.61 2.97 83.86 3.09L83.86 3.09L83.86 3.09Q84.08 3.09 84.26 3.28L84.26 3.28L84.26 3.28Q84.43 3.46 84.43 3.67L84.43 3.67L84.43 3.67Q84.43 3.86 84.18 3.91L84.18 3.91L84.18 3.91Q83.93 3.96 83.58 3.96L83.58 3.96L83.58 3.96Q83.45 4.09 83.45 4.26L83.45 4.26L83.45 4.26Q83.45 4.34 83.51 4.56L83.51 4.56L83.51 4.56Q83.58 4.94 83.58 5.11L83.58 5.11L83.58 5.11Q83.58 5.28 83.52 5.73L83.52 5.73L83.52 5.73Q83.45 6.12 83.45 6.47L83.45 6.47L83.45 6.47Q83.45 6.86 83.58 7.10L83.58 7.10L83.58 7.10Q84.45 7.31 85.29 7.31L85.29 7.31L85.29 7.31Q86.16 7.31 87.00 7.10L87.00 7.10L87.00 7.10Q87.00 6.10 86.95 5.31L86.95 5.31L86.95 5.31Q86.90 4.52 86.70 3.96L86.70 3.96L86.70 3.96Q86.65 3.88 86.46 3.82L86.46 3.82L86.46 3.82Q86.37 3.81 86.14 3.81L86.14 3.81L86.14 3.81Q85.93 3.81 85.81 3.79L85.81 3.79L85.81 3.79Q85.68 3.77 85.58 3.67L85.58 3.67L85.58 3.09L85.58 3.09Q86.25 2.77 86.83 2.77L86.83 2.77L86.83 2.77Q87.05 2.77 87.28 2.81L87.28 2.81L87.28 2.81Q87.56 2.84 87.61 2.84L87.61 2.84L87.61 2.84Q87.75 2.84 87.88 2.83L87.88 2.83L87.88 2.83Q88.00 2.81 88.14 2.81L88.14 2.81L88.14 2.81Q88.35 2.91 88.47 3.10L88.47 3.10L88.47 3.10Q88.58 3.29 88.58 3.49L88.58 3.49L88.58 3.49Q88.58 3.68 88.47 3.82L88.47 3.82L88.47 3.82Q88.35 3.96 88.14 3.96L88.14 3.96ZM100.87 3.37L100.87 3.37Q100.87 3.29 100.93 3.18L100.93 3.18L100.93 3.18Q100.98 3.07 101.18 3.07L101.18 3.07L101.18 3.07Q101.47 3.07 101.61 3.12L101.61 3.12L101.61 3.12Q101.75 3.16 101.75 3.37L101.75 3.37L101.75 3.37Q101.89 3.51 101.89 3.74L101.89 3.74L101.89 3.74Q101.89 3.91 101.81 4.21L101.81 4.21L101.81 4.21Q101.75 4.47 101.75 4.54L101.75 4.54L101.75 4.54Q101.71 4.63 101.55 5.01L101.55 5.01L101.55 5.01Q101.39 5.38 101.20 5.59L101.20 5.59L101.20 5.59Q101.01 5.80 100.80 5.80L100.80 5.80L100.80 5.80Q100.67 5.80 100.56 5.74L100.56 5.74L100.56 5.74Q100.44 5.61 100.44 5.36L100.44 5.36L100.44 5.36Q100.44 5.24 100.49 4.87L100.49 4.87L100.49 4.87Q100.56 4.38 100.56 4.26L100.56 4.26L100.56 4.26Q100.34 4.02 99.92 3.84L99.92 3.84L99.92 3.84Q99.50 3.65 99.08 3.65L99.08 3.65L99.08 3.65Q98.85 4.09 98.85 5.00L98.85 5.00L98.85 5.00Q98.85 5.91 99.08 6.36L99.08 6.36L99.08 6.36Q99.26 6.73 99.59 7.02L99.59 7.02L99.59 7.02Q99.92 7.31 100.49 7.70L100.49 7.70L100.49 7.70Q101.12 8.13 101.51 8.48L101.51 8.48L101.51 8.48Q101.91 8.82 102.19 9.31L102.19 9.31L102.19 9.31Q102.54 9.91 102.76 10.37L102.76 10.37L102.76 10.37Q102.98 10.81 103.10 11.33L103.10 11.33L103.10 11.33Q103.21 11.84 103.21 12.33L103.21 12.33L103.21 12.33Q103.21 13.17 103.07 13.76L103.07 13.76L103.07 13.76Q102.94 14.34 102.65 14.99L102.65 14.99L102.65 14.99Q102.31 15.72 101.75 16.14L101.75 16.14L101.75 16.14Q101.19 16.55 100.28 16.77L100.28 16.77L99.08 16.77L99.08 16.77Q98.70 16.77 98.17 16.37L98.17 16.37L98.17 16.37Q97.65 15.96 97.30 15.58L97.30 15.58L97.30 15.58Q96.87 14.77 96.87 13.87L96.87 13.87L96.87 13.87Q96.87 13.44 96.99 12.91L96.99 12.91L96.99 12.91Q96.84 12.91 96.68 13.06L96.68 13.06L96.68 13.06Q96.56 13.22 96.40 13.22L96.40 13.22L96.40 13.22Q96.19 13.01 96.14 12.80L96.14 12.80L96.14 12.80Q96.10 12.60 96.10 12.32L96.10 12.32L96.10 12.32Q96.57 12.15 97.20 12.05L97.20 12.05L97.20 12.05Q97.51 12.00 97.85 11.91L97.85 11.91L97.85 11.91Q98.18 11.83 98.49 11.70L98.49 11.70L98.49 11.70Q98.81 11.70 99.01 11.91L99.01 11.91L99.01 11.91Q99.20 12.12 99.20 12.43L99.20 12.43L99.20 12.43Q99.20 12.67 99.08 12.91L99.08 12.91L99.08 12.91Q98.78 12.91 98.59 12.96L98.59 12.96L98.59 12.96Q98.39 13.01 98.18 13.22L98.18 13.22L98.18 13.22Q97.87 13.52 97.87 14.17L97.87 14.17L97.87 14.17Q97.87 14.73 98.12 15.24L98.12 15.24L98.12 15.24Q98.36 15.75 98.77 15.89L98.77 15.89L98.77 15.89Q98.95 15.89 99.08 15.74L99.08 15.74L99.08 15.74Q99.09 15.72 99.18 15.65L99.18 15.65L99.18 15.65Q99.26 15.58 99.39 15.58L99.39 15.58L99.39 15.58Q100.37 15.09 100.88 14.05L100.88 14.05L100.88 14.05Q101.39 13.01 101.39 11.68L101.39 11.68L101.39 11.68Q101.39 10.81 101.18 9.93L101.18 9.93L101.18 9.93Q100.94 9.48 100.68 9.22L100.68 9.22L100.68 9.22Q100.42 8.96 99.97 8.72L99.97 8.72L99.97 8.72Q99.57 8.53 99.32 8.32L99.32 8.32L99.32 8.32Q99.06 8.12 98.77 7.83L98.77 7.83L98.77 7.83Q98.63 7.69 98.39 7.55L98.39 7.55L98.39 7.55Q98.03 7.34 97.78 7.07L97.78 7.07L97.78 7.07Q97.69 6.97 97.37 6.65L97.37 6.65L97.37 6.65Q97.05 6.33 96.87 6.03L96.87 6.03L96.87 6.03Q96.68 5.73 96.68 5.46L96.68 5.46L96.68 5.46Q96.61 5.25 96.61 4.97L96.61 4.97L96.61 4.97Q96.61 4.03 97.58 3.07L97.58 3.07L97.58 3.07Q97.69 3.07 97.82 3.02L97.82 3.02L97.82 3.02Q97.94 2.97 97.99 2.95L97.99 2.95L97.99 2.95Q98.38 2.76 98.77 2.76L98.77 2.76L98.77 2.76Q99.04 2.76 99.22 2.79L99.22 2.79L99.22 2.79Q99.40 2.83 99.67 2.91L99.67 2.91L100.28 3.07L100.28 3.07Q100.31 3.09 100.39 3.16L100.39 3.16L100.39 3.16Q100.48 3.23 100.60 3.30L100.60 3.30L100.60 3.30Q100.73 3.37 100.87 3.37L100.87 3.37ZM110.56 5.45L110.56 5.45Q110.49 5.38 110.43 5.18L110.43 5.18L110.43 5.18Q110.42 5.07 110.42 4.83L110.42 4.83L110.42 4.83Q110.42 4.56 110.39 4.37L110.39 4.37L110.39 4.37Q110.36 4.17 110.26 3.98L110.26 3.98L110.26 3.98Q110.14 3.85 109.82 3.85L109.82 3.85L109.82 3.85Q109.54 3.85 109.16 3.92L109.16 3.92L109.16 3.92Q108.71 3.98 108.53 3.98L108.53 3.98L108.53 3.98Q108.40 4.23 108.40 4.65L108.40 4.65L108.40 4.65Q108.40 4.98 108.47 5.40L108.47 5.40L108.47 5.40Q108.53 5.85 108.53 6.03L108.53 6.03L108.53 11.55L108.53 13.90L108.53 14.49L108.53 14.49Q108.53 14.80 108.49 15.06L108.49 15.06L108.49 15.06Q108.46 15.37 108.46 15.53L108.46 15.53L108.46 15.53Q108.46 15.79 108.53 15.95L108.53 15.95L108.53 15.95Q108.56 16.02 108.64 16.04L108.64 16.04L108.64 16.04Q108.72 16.07 108.79 16.09L108.79 16.09L108.79 16.09Q108.85 16.10 108.88 16.10L108.88 16.10L108.88 16.10Q109.12 16.13 109.26 16.21L109.26 16.21L109.26 16.21Q109.40 16.28 109.40 16.52L109.40 16.52L109.40 16.52Q109.37 16.55 109.28 16.62L109.28 16.62L109.28 16.62Q109.20 16.69 109.07 16.75L109.07 16.75L109.07 16.75Q108.93 16.81 108.81 16.81L108.81 16.81L106.18 16.81L106.18 16.81Q105.98 16.81 105.93 16.67L105.93 16.67L105.93 16.67Q105.88 16.52 105.88 16.23L105.88 16.23L105.88 16.23Q106.04 16.23 106.32 16.09L106.32 16.09L106.32 16.09Q106.60 15.95 106.75 15.95L106.75 15.95L106.76 13.50L106.76 13.50Q106.76 12.74 106.75 12.43L106.75 12.43L106.75 12.43Q106.74 12.03 106.74 11.26L106.74 11.26L106.75 8.95L106.75 7.49L106.75 6.90L106.75 6.90Q106.75 5.81 106.70 5.19L106.70 5.19L106.70 5.19Q106.65 4.58 106.46 3.98L106.46 3.98L106.46 3.98Q106.12 3.88 105.73 3.88L105.73 3.88L105.66 3.88L105.66 3.88Q104.97 3.88 104.53 4.18L104.53 4.18L104.53 4.18Q104.09 4.48 104.09 5.10L104.09 5.10L104.09 5.10Q104.09 5.25 104.13 5.45L104.13 5.45L104.13 5.45Q104.12 5.47 104.03 5.52L104.03 5.52L104.03 5.52Q103.94 5.57 103.84 5.57L103.84 5.57L103.84 5.57Q103.68 5.57 103.56 5.45L103.56 5.45L103.56 5.45Q103.56 5.28 103.50 4.83L103.50 4.83L103.50 4.83Q103.43 4.20 103.43 4.06L103.43 4.06L103.43 4.06Q103.43 3.64 103.56 3.39L103.56 3.39L103.56 3.39Q104.05 3.14 104.50 3.01L104.50 3.01L104.50 3.01Q104.94 2.88 105.55 2.88L105.55 2.88L105.55 2.88Q105.98 2.88 106.99 2.86L106.99 2.86L106.99 2.86Q107.79 2.81 108.53 2.81L108.53 2.81L108.53 2.81Q109.56 2.81 110.26 2.91L110.26 2.91L110.26 2.91Q110.95 3.01 111.13 3.39L111.13 3.39L111.13 3.39Q111.31 3.91 111.31 4.40L111.31 4.40L111.31 4.40Q111.31 4.86 111.13 5.15L111.13 5.15L111.13 5.15Q110.95 5.45 110.56 5.45L110.56 5.45ZM114.66 14.77L114.66 14.77Q115.18 15.29 115.70 15.29L115.70 15.29L115.70 15.29Q115.98 15.29 116.24 15.11L116.24 15.11L116.24 15.11Q116.72 14.76 116.93 14.06L116.93 14.06L116.93 14.06Q117.15 13.36 117.19 12.68L117.19 12.68L117.19 12.68Q117.24 12.01 117.24 11.06L117.24 11.06L117.24 6.79L117.24 6.79Q117.24 6.48 117.26 6.10L117.26 6.10L117.26 6.10Q117.29 5.73 117.31 5.59L117.31 5.59L117.31 5.59Q117.36 4.94 117.36 4.68L117.36 4.68L117.36 4.68Q117.36 4.19 117.24 3.95L117.24 3.95L117.24 3.95Q117.11 3.81 116.98 3.74L116.98 3.74L116.98 3.74Q116.86 3.67 116.78 3.65L116.78 3.65L116.78 3.65Q116.70 3.64 116.68 3.64L116.68 3.64L116.68 3.64Q116.68 3.56 116.62 3.42L116.62 3.42L116.62 3.42Q116.56 3.29 116.55 3.25L116.55 3.25L116.55 3.25Q116.44 3.02 116.44 2.95L116.44 2.95L116.44 2.95Q116.44 2.87 116.55 2.87L116.55 2.87L116.55 2.87Q116.96 2.87 117.45 2.83L117.45 2.83L117.45 2.83Q117.61 2.83 118.00 2.81L118.00 2.81L118.00 2.81Q118.38 2.79 118.65 2.80L118.65 2.80L118.65 2.80Q119.17 2.81 119.43 3.00L119.43 3.00L119.43 3.00Q119.69 3.18 119.69 3.40L119.69 3.40L119.69 3.40Q119.69 3.58 119.53 3.70L119.53 3.70L119.53 3.70Q119.13 4.03 119.06 4.93L119.06 4.93L119.06 4.93Q119.03 5.19 119.03 5.81L119.03 5.81L119.03 5.81Q119.03 6.27 119.01 6.76L119.01 6.76L119.01 6.76Q119.00 7.25 118.93 7.63L118.93 7.63L118.93 10.47L118.93 10.78L118.93 10.78Q118.93 12.17 118.75 13.16L118.75 13.16L118.75 13.16Q118.58 14.15 118.09 15.05L118.09 15.05L118.09 15.05Q117.73 15.74 117.15 16.25L117.15 16.25L117.15 16.25Q116.58 16.76 115.81 16.76L115.81 16.76L115.81 16.76Q115.68 16.76 115.57 16.77L115.57 16.77L115.57 16.77Q115.46 16.79 115.14 16.79L115.14 16.79L115.14 16.79Q114.51 16.69 114.06 16.30L114.06 16.30L114.06 16.30Q113.62 15.92 113.25 15.33L113.25 15.33L113.25 15.33Q113.06 15.02 112.99 14.71L112.99 14.71L112.99 14.71Q112.92 14.39 112.87 13.85L112.87 13.85L112.87 13.85Q112.81 13.17 112.69 12.77L112.69 12.77L112.69 5.64L112.69 5.64Q112.69 5.45 112.71 5.08L112.71 5.08L112.73 4.54L112.73 4.54Q112.73 4.26 112.69 3.95L112.69 3.95L112.69 3.95Q112.67 3.82 112.57 3.75L112.57 3.75L112.57 3.75Q112.46 3.67 112.28 3.58L112.28 3.58L112.28 3.58Q112.04 3.49 111.93 3.39L111.93 3.39L111.93 3.39Q111.82 3.29 111.82 3.08L111.82 3.08L111.82 3.08Q111.97 2.93 112.15 2.88L112.15 2.88L112.15 2.88Q112.34 2.84 112.58 2.83L112.58 2.83L112.58 2.83Q112.83 2.81 112.97 2.80L112.97 2.80L112.97 2.80Q113.68 2.76 113.75 2.76L113.75 2.76L113.75 2.76Q114.44 2.76 114.72 3.04L114.72 3.04L114.72 3.04Q114.79 3.11 114.79 3.22L114.79 3.22L114.79 3.22Q114.79 3.49 114.38 3.95L114.38 3.95L114.38 5.64L114.38 8.22L114.39 11.31L114.39 11.31Q114.39 12.49 114.44 13.27L114.44 13.27L114.44 13.27Q114.49 14.06 114.66 14.77L114.66 14.77ZM127.85 5.36L127.85 5.36Q127.85 5.54 127.70 5.59L127.70 5.59L127.70 5.59Q127.55 5.64 127.27 5.64L127.27 5.64L127.27 5.64Q127.08 5.26 127.04 4.85L127.04 4.85L127.04 4.85Q126.99 4.44 126.99 3.65L126.99 3.65L126.99 3.65Q125.85 3.65 125.13 3.70L125.13 3.70L125.13 3.70Q124.42 3.75 123.84 3.95L123.84 3.95L123.84 3.95Q123.73 4.19 123.73 4.76L123.73 4.76L123.73 4.76Q123.73 5.07 123.79 5.85L123.79 5.85L123.79 5.85Q123.84 6.69 123.84 7.08L123.84 7.08L123.84 7.08Q123.84 7.17 123.83 7.25L123.83 7.25L123.83 7.25Q123.82 7.32 123.80 7.39L123.80 7.39L123.80 7.39Q123.73 7.64 123.73 7.87L123.73 7.87L123.73 7.87Q123.73 8.09 123.84 8.22L123.84 8.22L124.71 8.22L124.71 7.08L124.71 7.08Q125.23 7.06 125.42 7.43L125.42 7.43L125.42 7.43Q125.61 7.81 125.61 8.47L125.61 8.47L125.61 8.47Q125.61 8.72 125.58 9.14L125.58 9.14L125.57 9.65L125.57 9.65Q125.36 9.86 125.25 9.89L125.25 9.89L125.25 9.89Q125.15 9.93 124.71 9.93L124.71 9.93L124.71 9.37L124.71 9.37Q124.53 9.17 124.33 9.12L124.33 9.12L124.33 9.12Q124.14 9.07 123.84 9.07L123.84 9.07L123.84 9.07Q123.66 9.27 123.58 9.48L123.58 9.48L123.58 9.48Q123.51 9.69 123.51 9.95L123.51 9.95L123.51 9.95Q123.51 10.09 123.54 10.43L123.54 10.43L123.54 10.43Q123.58 10.72 123.58 11.07L123.58 11.07L123.58 11.07Q123.40 11.44 123.35 11.93L123.35 11.93L123.35 11.93Q123.30 12.42 123.30 13.08L123.30 13.08L123.30 13.93L123.30 13.93Q123.30 14.49 123.35 14.88L123.35 14.88L123.35 14.88Q123.40 15.26 123.58 15.64L123.58 15.64L123.58 15.64Q123.73 15.64 123.98 15.87L123.98 15.87L123.98 15.87Q124.22 16.10 124.22 16.28L124.22 16.28L124.22 16.28Q124.22 16.49 123.84 16.49L123.84 16.49L123.84 16.49Q123.84 16.62 123.76 16.62L123.76 16.62L123.76 16.62Q123.72 16.62 123.56 16.55L123.56 16.55L123.56 16.55Q123.40 16.49 123.30 16.49L123.30 16.49L123.30 16.49Q123.19 16.49 123.06 16.54L123.06 16.54L123.06 16.54Q122.93 16.59 122.89 16.60L122.89 16.60L122.89 16.60Q122.86 16.62 122.65 16.70L122.65 16.70L122.65 16.70Q122.43 16.77 122.14 16.77L122.14 16.77L122.14 16.77Q122.00 16.77 121.58 16.63L121.58 16.63L121.58 16.63Q121.13 16.49 121.00 16.49L121.00 16.49L121.00 16.49Q120.82 16.49 120.77 16.34L120.77 16.34L120.77 16.34Q120.72 16.20 120.72 15.92L120.72 15.92L120.72 15.92Q120.85 15.79 120.97 15.73L120.97 15.73L120.97 15.73Q121.10 15.67 121.18 15.65L121.18 15.65L121.18 15.65Q121.25 15.64 121.28 15.64L121.28 15.64L121.28 15.64Q121.52 15.51 121.59 15.24L121.59 15.24L121.59 15.24Q121.66 14.97 121.70 14.41L121.70 14.41L121.70 14.41Q121.73 13.72 121.86 13.34L121.86 13.34L121.86 11.07L121.86 11.07Q121.86 10.93 121.93 10.56L121.93 10.56L121.93 10.56Q121.98 10.28 121.98 10.15L121.98 10.15L121.98 10.15Q121.98 9.90 121.86 9.65L121.86 9.65L121.86 9.65Q121.86 9.51 121.95 9.27L121.95 9.27L121.95 9.27Q122.14 8.85 122.14 8.51L122.14 8.51L122.14 8.51Q122.14 8.08 122.00 7.07L122.00 7.07L122.00 7.07Q121.86 6.06 121.86 5.64L121.86 5.64L121.86 5.64Q121.86 5.46 121.91 5.04L121.91 5.04L121.91 5.04Q121.98 4.62 121.98 4.30L121.98 4.30L121.98 4.30Q121.98 3.91 121.86 3.65L121.86 3.65L121.86 3.65Q121.73 3.65 121.27 3.72L121.27 3.72L121.27 3.72Q120.93 3.78 120.81 3.78L120.81 3.78L120.81 3.78Q120.55 3.78 120.43 3.65L120.43 3.65L120.43 3.65Q120.22 3.44 120.22 3.23L120.22 3.23L120.22 3.23Q120.22 3.01 120.43 2.80L120.43 2.80L126.14 2.80L127.27 2.80L127.27 2.80Q127.62 2.80 127.76 3.15L127.76 3.15L127.76 3.15Q127.89 3.50 127.89 4.10L127.89 4.10L127.89 4.10Q127.89 4.37 127.86 4.82L127.86 4.82L127.85 5.36ZM136.07 5.36L136.07 5.36Q136.07 5.54 135.92 5.59L135.92 5.59L135.92 5.59Q135.77 5.64 135.49 5.64L135.49 5.64L135.49 5.64Q135.30 5.26 135.25 4.85L135.25 4.85L135.25 4.85Q135.21 4.44 135.21 3.65L135.21 3.65L135.21 3.65Q134.06 3.65 133.35 3.70L133.35 3.70L133.35 3.70Q132.64 3.75 132.06 3.95L132.06 3.95L132.06 3.95Q131.95 4.19 131.95 4.76L131.95 4.76L131.95 4.76Q131.95 5.07 132.01 5.85L132.01 5.85L132.01 5.85Q132.06 6.69 132.06 7.08L132.06 7.08L132.06 7.08Q132.06 7.17 132.05 7.25L132.05 7.25L132.05 7.25Q132.03 7.32 132.02 7.39L132.02 7.39L132.02 7.39Q131.95 7.64 131.95 7.87L131.95 7.87L131.95 7.87Q131.95 8.09 132.06 8.22L132.06 8.22L132.93 8.22L132.93 7.08L132.93 7.08Q133.45 7.06 133.64 7.43L133.64 7.43L133.64 7.43Q133.83 7.81 133.83 8.47L133.83 8.47L133.83 8.47Q133.83 8.72 133.80 9.14L133.80 9.14L133.78 9.65L133.78 9.65Q133.57 9.86 133.47 9.89L133.47 9.89L133.47 9.89Q133.36 9.93 132.93 9.93L132.93 9.93L132.93 9.37L132.93 9.37Q132.75 9.17 132.55 9.12L132.55 9.12L132.55 9.12Q132.36 9.07 132.06 9.07L132.06 9.07L132.06 9.07Q131.88 9.27 131.80 9.48L131.80 9.48L131.80 9.48Q131.73 9.69 131.73 9.95L131.73 9.95L131.73 9.95Q131.73 10.09 131.75 10.43L131.75 10.43L131.75 10.43Q131.80 10.72 131.80 11.07L131.80 11.07L131.80 11.07Q131.61 11.44 131.56 11.93L131.56 11.93L131.56 11.93Q131.52 12.42 131.52 13.08L131.52 13.08L131.52 13.93L131.52 13.93Q131.52 14.49 131.56 14.88L131.56 14.88L131.56 14.88Q131.61 15.26 131.80 15.64L131.80 15.64L131.80 15.64Q131.95 15.64 132.19 15.87L132.19 15.87L132.19 15.87Q132.44 16.10 132.44 16.28L132.44 16.28L132.44 16.28Q132.44 16.49 132.06 16.49L132.06 16.49L132.06 16.49Q132.06 16.62 131.98 16.62L131.98 16.62L131.98 16.62Q131.94 16.62 131.77 16.55L131.77 16.55L131.77 16.55Q131.61 16.49 131.52 16.49L131.52 16.49L131.52 16.49Q131.40 16.49 131.28 16.54L131.28 16.54L131.28 16.54Q131.15 16.59 131.11 16.60L131.11 16.60L131.11 16.60Q131.08 16.62 130.86 16.70L130.86 16.70L130.86 16.70Q130.65 16.77 130.35 16.77L130.35 16.77L130.35 16.77Q130.21 16.77 129.79 16.63L129.79 16.63L129.79 16.63Q129.35 16.49 129.22 16.49L129.22 16.49L129.22 16.49Q129.04 16.49 128.99 16.34L128.99 16.34L128.99 16.34Q128.94 16.20 128.94 15.92L128.94 15.92L128.94 15.92Q129.07 15.79 129.19 15.73L129.19 15.73L129.19 15.73Q129.32 15.67 129.39 15.65L129.39 15.65L129.39 15.65Q129.47 15.64 129.50 15.64L129.50 15.64L129.50 15.64Q129.74 15.51 129.81 15.24L129.81 15.24L129.81 15.24Q129.88 14.97 129.92 14.41L129.92 14.41L129.92 14.41Q129.95 13.72 130.07 13.34L130.07 13.34L130.07 11.07L130.07 11.07Q130.07 10.93 130.14 10.56L130.14 10.56L130.14 10.56Q130.20 10.28 130.20 10.15L130.20 10.15L130.20 10.15Q130.20 9.90 130.07 9.65L130.07 9.65L130.07 9.65Q130.07 9.51 130.17 9.27L130.17 9.27L130.17 9.27Q130.35 8.85 130.35 8.51L130.35 8.51L130.35 8.51Q130.35 8.08 130.21 7.07L130.21 7.07L130.21 7.07Q130.07 6.06 130.07 5.64L130.07 5.64L130.07 5.64Q130.07 5.46 130.13 5.04L130.13 5.04L130.13 5.04Q130.20 4.62 130.20 4.30L130.20 4.30L130.20 4.30Q130.20 3.91 130.07 3.65L130.07 3.65L130.07 3.65Q129.95 3.65 129.49 3.72L129.49 3.72L129.49 3.72Q129.15 3.78 129.02 3.78L129.02 3.78L129.02 3.78Q128.77 3.78 128.65 3.65L128.65 3.65L128.65 3.65Q128.44 3.44 128.44 3.23L128.44 3.23L128.44 3.23Q128.44 3.01 128.65 2.80L128.65 2.80L134.36 2.80L135.49 2.80L135.49 2.80Q135.84 2.80 135.97 3.15L135.97 3.15L135.97 3.15Q136.11 3.50 136.11 4.10L136.11 4.10L136.11 4.10Q136.11 4.37 136.08 4.82L136.08 4.82L136.07 5.36Z"></path></g><!----><!----></svg>