<svg data-v-fde0c5aa="" xmlns="http://www.w3.org/2000/svg" viewBox="0 0 300 300" class="font"><!----><defs data-v-fde0c5aa=""><!----></defs><rect data-v-fde0c5aa="" fill="#85736A" x="0" y="0" width="300px" height="300px" class="logo-background-square"></rect><defs data-v-fde0c5aa=""><!----></defs><g data-v-fde0c5aa="" id="7fe37b8c-a07d-4371-9b40-af7cc713e38d" fill="#ffffff" transform="matrix(1.7277938964604955,0,0,1.7277938964604955,38.42770750890775,134.71766396621976)"><path d="M5.41 12.74C7.93 12.74 9.91 11.22 9.91 9.26L9.91 2.10L7.23 2.10L7.23 8.75C7.23 9.68 6.42 10.41 5.41 10.41C4.39 10.41 3.59 9.68 3.59 8.75L3.59 2.10L0.91 2.10L0.91 9.26C0.91 11.22 2.89 12.74 5.41 12.74ZM14.19 12.74C15.89 12.74 16.85 11.73 16.85 10.40C16.85 8.94 15.63 8.37 14.61 7.96C14.23 7.81 14.04 7.74 14.04 7.58C14.04 7.46 14.14 7.32 14.47 7.32C14.93 7.32 15.35 7.58 15.59 7.81L16.73 6.32C16.12 5.81 15.28 5.46 14.28 5.46C12.50 5.46 11.50 6.62 11.50 7.79C11.50 9.28 13.13 9.71 13.76 9.96C14.33 10.17 14.47 10.33 14.47 10.48C14.47 10.66 14.30 10.76 14.00 10.76C13.74 10.76 13.28 10.69 12.90 10.08L11.08 11.03C11.53 12.18 12.92 12.74 14.19 12.74ZM21.51 5.44C19.16 5.44 17.59 6.84 17.59 9.10C17.59 11.34 19.15 12.74 21.58 12.74C23.63 12.74 24.90 11.73 25.22 10.20L22.75 10.20C22.63 10.66 22.23 10.92 21.56 10.92C20.63 10.92 20.27 10.43 20.20 9.52L25.31 9.52L25.31 9.08C25.32 6.84 23.84 5.44 21.51 5.44ZM21.56 7.35C22.19 7.35 22.54 7.61 22.70 8.09L20.34 8.09C20.51 7.61 20.88 7.35 21.56 7.35ZM40.06 2.10L36.94 8.79L33.85 2.10L30.94 2.10L30.94 12.60L33.62 12.60L33.62 6.95L36.23 12.60L37.66 12.60L40.27 6.98L40.27 12.60L42.95 12.60L42.95 2.10ZM49.60 5.60L48.02 9.87L46.43 5.60L43.75 5.60L46.69 12.78L45.05 16.80L47.78 16.80L48.88 13.97L52.24 5.60ZM63.95 2.10L56.14 2.10L56.14 4.43L58.71 4.43L58.71 12.60L61.37 12.60L61.37 4.43L63.95 4.43ZM68.18 5.44C65.84 5.44 64.26 6.84 64.26 9.10C64.26 11.34 65.82 12.74 68.25 12.74C70.30 12.74 71.58 11.73 71.89 10.20L69.42 10.20C69.30 10.66 68.90 10.92 68.23 10.92C67.31 10.92 66.94 10.43 66.87 9.52L71.98 9.52L71.98 9.08C72.00 6.84 70.51 5.44 68.18 5.44ZM68.23 7.35C68.86 7.35 69.21 7.61 69.37 8.09L67.01 8.09C67.18 7.61 67.55 7.35 68.23 7.35ZM76.91 12.74C79.15 12.74 80.62 11.46 80.85 9.63L78.21 9.63C78.02 10.13 77.53 10.47 76.91 10.48C76.09 10.47 75.51 9.89 75.51 9.10C75.51 8.31 76.09 7.74 76.91 7.72C77.53 7.74 78.02 8.07 78.21 8.58L80.85 8.58C80.62 6.74 79.15 5.46 76.91 5.46C74.45 5.46 72.92 6.98 72.92 9.10C72.92 11.22 74.45 12.74 76.91 12.74ZM86.92 5.46C86.05 5.46 85.31 5.90 84.81 6.62L84.81 0.89L82.22 0.89L82.22 12.60L84.81 12.60L84.81 8.82C84.81 8.28 85.26 7.72 85.89 7.72C86.45 7.72 86.82 8.16 86.82 8.66L86.82 12.60L89.41 12.60L89.41 8.17C89.41 6.62 88.32 5.46 86.92 5.46ZM98.79 12.74C100.80 12.74 102.53 11.57 102.53 9.56C102.53 5.57 97.77 6.56 97.77 4.97C97.77 4.52 98.12 4.31 98.54 4.31C99.07 4.31 99.65 4.62 100.21 5.22L101.96 3.52C101.13 2.55 99.89 1.96 98.58 1.96C96.92 1.96 95.08 2.92 95.08 5.16C95.08 8.80 99.86 7.93 99.86 9.52C99.86 9.94 99.51 10.24 98.82 10.24C97.91 10.24 97.18 9.75 96.81 8.96L94.62 10.33C95.32 11.66 96.86 12.74 98.79 12.74ZM108.41 7.53L108.41 5.60L106.80 5.60L106.80 3.03L104.21 3.03L104.21 5.60L103.04 5.60L103.04 7.53L104.21 7.53L104.21 9.91C104.21 11.50 105.58 12.74 107.19 12.74C107.70 12.74 108.20 12.64 108.38 12.51L108.38 10.50L107.52 10.50C107.08 10.50 106.80 10.15 106.80 9.59L106.80 7.53ZM113.00 12.74C115.31 12.74 116.52 11.62 116.52 9.85L116.52 5.60L113.93 5.60L113.93 9.52C113.93 10.06 113.52 10.48 113.00 10.48C112.49 10.48 112.11 10.06 112.11 9.52L112.11 5.60L109.50 5.60L109.50 9.85C109.50 11.62 110.71 12.74 113.00 12.74ZM122.82 5.60L121.22 5.60L121.22 4.04C121.22 3.48 121.49 3.13 121.92 3.13L122.78 3.13L122.78 1.12C122.61 1.00 122.12 0.89 121.59 0.89C119.98 0.89 118.62 2.13 118.62 3.75L118.62 5.60L117.44 5.60L117.44 7.53L118.62 7.53L118.62 12.60L121.22 12.60L121.22 7.53L122.82 7.53ZM128.24 5.60L126.65 5.60L126.65 4.04C126.65 3.48 126.91 3.13 127.35 3.13L128.21 3.13L128.21 1.12C128.03 1.00 127.54 0.89 127.02 0.89C125.41 0.89 124.04 2.13 124.04 3.75L124.04 5.60L122.87 5.60L122.87 7.53L124.04 7.53L124.04 12.60L126.65 12.60L126.65 7.53L128.24 7.53Z"></path></g><!----><!----></svg>